# Blender 4.1.1
# www.blender.org
o adapter_plate_R_mediant_gear_axle_union
v 220.400009 -248.500015 57.999992
v 220.400009 -248.500015 83.000015
v 220.790192 -248.538452 57.999992
v 220.790192 -248.538452 83.000015
v 221.165375 -248.652267 57.999992
v 221.165375 -248.652267 83.000015
v 221.511154 -248.837082 57.999992
v 221.511154 -248.837082 83.000015
v 221.814209 -249.085815 57.999992
v 221.814209 -249.085815 83.000015
v 222.062943 -249.388885 57.999992
v 222.062943 -249.388885 83.000015
v 222.247757 -249.734650 57.999992
v 222.247757 -249.734650 83.000015
v 222.361572 -250.109848 57.999992
v 222.361572 -250.109848 83.000015
v 222.400009 -250.500031 57.999992
v 222.400009 -250.500031 83.000015
v 222.361572 -250.890198 57.999992
v 222.361572 -250.890198 83.000015
v 222.247757 -251.265381 57.999992
v 222.247757 -251.265381 83.000015
v 222.062943 -251.611176 57.999992
v 222.062943 -251.611176 83.000015
v 221.814209 -251.914230 57.999992
v 221.814209 -251.914230 83.000015
v 221.511154 -252.162964 57.999992
v 221.511154 -252.162964 83.000015
v 221.165375 -252.347794 57.999992
v 221.165375 -252.347794 83.000015
v 220.790192 -252.461578 57.999992
v 220.790192 -252.461578 83.000015
v 220.400009 -252.500031 57.999992
v 220.400009 -252.500031 83.000015
v 220.009827 -252.461578 57.999992
v 220.009827 -252.461578 83.000015
v 219.634644 -252.347794 57.999992
v 219.634644 -252.347794 83.000015
v 219.288864 -252.162964 57.999992
v 219.288864 -252.162964 83.000015
v 218.985794 -251.914230 57.999992
v 218.985794 -251.914230 83.000015
v 218.737061 -251.611176 57.999992
v 218.737061 -251.611176 83.000015
v 218.552246 -251.265381 57.999992
v 218.552246 -251.265381 83.000015
v 218.438431 -250.890198 57.999992
v 218.438431 -250.890198 83.000015
v 218.399994 -250.500031 57.999992
v 218.399994 -250.500031 83.000015
v 218.438431 -250.109848 57.999992
v 218.438431 -250.109848 83.000015
v 218.552246 -249.734650 57.999992
v 218.552246 -249.734650 83.000015
v 218.737061 -249.388885 57.999992
v 218.737061 -249.388885 83.000015
v 218.985794 -249.085815 57.999992
v 218.985794 -249.085815 83.000015
v 219.288864 -248.837082 57.999992
v 219.288864 -248.837082 83.000015
v 219.634644 -248.652267 57.999992
v 219.634644 -248.652267 83.000015
v 220.009827 -248.538452 57.999992
v 220.009827 -248.538452 83.000015
vn 0.0980 0.9952 -0.0000
vn 0.2903 0.9569 -0.0000
vn 0.4714 0.8819 -0.0000
vn 0.6344 0.7730 -0.0000
vn 0.7730 0.6344 -0.0000
vn 0.8819 0.4714 -0.0000
vn 0.9569 0.2903 -0.0000
vn 0.9952 0.0981 -0.0000
vn 0.9952 -0.0981 -0.0000
vn 0.9569 -0.2903 -0.0000
vn 0.8819 -0.4714 -0.0000
vn 0.7730 -0.6344 -0.0000
vn 0.6344 -0.7730 -0.0000
vn 0.4714 -0.8819 -0.0000
vn 0.2902 -0.9570 -0.0000
vn 0.0981 -0.9952 -0.0000
vn -0.0981 -0.9952 -0.0000
vn -0.2902 -0.9570 -0.0000
vn -0.4714 -0.8819 -0.0000
vn -0.6344 -0.7730 -0.0000
vn -0.7730 -0.6344 -0.0000
vn -0.8819 -0.4714 -0.0000
vn -0.9569 -0.2903 -0.0000
vn -0.9952 -0.0980 -0.0000
vn -0.9952 0.0981 -0.0000
vn -0.9569 0.2903 -0.0000
vn -0.8819 0.4714 -0.0000
vn -0.7730 0.6344 -0.0000
vn -0.6344 0.7730 -0.0000
vn -0.4714 0.8819 -0.0000
vn -0.0000 -0.0000 1.0000
vn -0.2903 0.9569 -0.0000
vn -0.0980 0.9952 -0.0000
vn -0.0000 -0.0000 -1.0000
vn -0.9952 -0.0981 -0.0000
vn -0.9952 0.0980 -0.0000
vn -0.8819 0.4715 -0.0000
vn -0.0002 -0.0000 1.0000
vn 0.0001 -0.0000 1.0000
vn -0.0001 -0.0000 1.0000
vn 0.0002 -0.0000 1.0000
vn -0.0001 -0.0000 -1.0000
vn 0.0001 -0.0000 -1.0000
vt 1.000000 1.000000
vt 0.968750 0.500000
vt 1.000000 0.500000
vt 0.968750 1.000000
vt 0.937500 0.500000
vt 0.937500 1.000000
vt 0.906250 0.500000
vt 0.906250 1.000000
vt 0.875000 0.500000
vt 0.875000 1.000000
vt 0.843750 0.500000
vt 0.843750 1.000000
vt 0.812500 0.500000
vt 0.812500 1.000000
vt 0.781250 0.500000
vt 0.781250 1.000000
vt 0.750000 0.500000
vt 0.750000 1.000000
vt 0.718750 0.500000
vt 0.718750 1.000000
vt 0.687500 0.500000
vt 0.687500 1.000000
vt 0.656250 0.500000
vt 0.656250 1.000000
vt 0.625000 0.500000
vt 0.625000 1.000000
vt 0.593750 0.500000
vt 0.593750 1.000000
vt 0.562500 0.500000
vt 0.562500 1.000000
vt 0.531250 0.500000
vt 0.531250 1.000000
vt 0.500000 0.500000
vt 0.500000 1.000000
vt 0.468750 0.500000
vt 0.468750 1.000000
vt 0.437500 0.500000
vt 0.437500 1.000000
vt 0.406250 0.500000
vt 0.406250 1.000000
vt 0.375000 0.500000
vt 0.375000 1.000000
vt 0.343750 0.500000
vt 0.343750 1.000000
vt 0.312500 0.500000
vt 0.312500 1.000000
vt 0.281250 0.500000
vt 0.281250 1.000000
vt 0.250000 0.500000
vt 0.250000 1.000000
vt 0.218750 0.500000
vt 0.218750 1.000000
vt 0.187500 0.500000
vt 0.187500 1.000000
vt 0.156250 0.500000
vt 0.156250 1.000000
vt 0.125000 0.500000
vt 0.125000 1.000000
vt 0.093750 0.500000
vt 0.093750 1.000000
vt 0.062500 0.500000
vt 0.028269 0.341844
vt 0.158156 0.028269
vt 0.471731 0.158156
vt 0.062500 1.000000
vt 0.031250 0.500000
vt 0.031250 1.000000
vt 0.000000 0.500000
vt 0.750000 0.010000
vt 0.510000 0.250000
vt 0.750000 0.490000
vt 0.485388 0.203178
vt 0.490000 0.250000
vt 0.485388 0.296822
vt 0.471731 0.341844
vt 0.449553 0.383337
vt 0.419706 0.419706
vt 0.383337 0.449553
vt 0.341844 0.471731
vt 0.296822 0.485388
vt 0.250000 0.490000
vt 0.203178 0.485388
vt 0.158156 0.471731
vt 0.116663 0.449553
vt 0.080294 0.419706
vt 0.050447 0.383337
vt 0.014612 0.296822
vt 0.010000 0.250000
vt 0.014612 0.203178
vt 0.028269 0.158156
vt 0.050447 0.116663
vt 0.080294 0.080294
vt 0.116663 0.050447
vt 0.203178 0.014612
vt 0.250000 0.010000
vt 0.296822 0.014612
vt 0.341844 0.028269
vt 0.383337 0.050447
vt 0.419706 0.080294
vt 0.449553 0.116663
vt 0.000000 1.000000
vt 0.796822 0.485388
vt 0.841844 0.471731
vt 0.883337 0.449553
vt 0.919706 0.419706
vt 0.949553 0.383337
vt 0.971731 0.341844
vt 0.985388 0.296822
vt 0.990000 0.250000
vt 0.985388 0.203178
vt 0.971731 0.158156
vt 0.949553 0.116663
vt 0.919706 0.080294
vt 0.883337 0.050447
vt 0.841844 0.028269
vt 0.796822 0.014612
vt 0.703178 0.014612
vt 0.658156 0.028269
vt 0.616663 0.050447
vt 0.580294 0.080294
vt 0.550447 0.116663
vt 0.528269 0.158156
vt 0.514612 0.203178
vt 0.514612 0.296822
vt 0.528269 0.341844
vt 0.550447 0.383337
vt 0.580294 0.419706
vt 0.616663 0.449553
vt 0.658156 0.471731
vt 0.703178 0.485388
s 0
f 2/1/1 3/2/1 1/3/1
f 4/4/2 5/5/2 3/2/2
f 6/6/3 7/7/3 5/5/3
f 8/8/4 9/9/4 7/7/4
f 10/10/5 11/11/5 9/9/5
f 12/12/6 13/13/6 11/11/6
f 14/14/7 15/15/7 13/13/7
f 16/16/8 17/17/8 15/15/8
f 18/18/9 19/19/9 17/17/9
f 20/20/10 21/21/10 19/19/10
f 22/22/11 23/23/11 21/21/11
f 24/24/12 25/25/12 23/23/12
f 26/26/13 27/27/13 25/25/13
f 28/28/14 29/29/14 27/27/14
f 30/30/15 31/31/15 29/29/15
f 32/32/16 33/33/16 31/31/16
f 34/34/17 35/35/17 33/33/17
f 36/36/18 37/37/18 35/35/18
f 38/38/19 39/39/19 37/37/19
f 40/40/20 41/41/20 39/39/20
f 42/42/21 43/43/21 41/41/21
f 44/44/22 45/45/22 43/43/22
f 46/46/23 47/47/23 45/45/23
f 48/48/24 49/49/24 47/47/24
f 50/50/25 51/51/25 49/49/25
f 52/52/26 53/53/26 51/51/26
f 54/54/27 55/55/27 53/53/27
f 56/56/28 57/57/28 55/55/28
f 58/58/29 59/59/29 57/57/29
f 60/60/30 61/61/30 59/59/30
f 54/62/31 38/63/31 22/64/31
f 62/65/32 63/66/32 61/61/32
f 64/67/33 1/68/33 63/66/33
f 33/69/34 49/70/34 1/71/34
f 2/1/1 4/4/1 3/2/1
f 4/4/2 6/6/2 5/5/2
f 6/6/3 8/8/3 7/7/3
f 8/8/4 10/10/4 9/9/4
f 10/10/5 12/12/5 11/11/5
f 12/12/6 14/14/6 13/13/6
f 14/14/7 16/16/7 15/15/7
f 16/16/8 18/18/8 17/17/8
f 18/18/9 20/20/9 19/19/9
f 20/20/10 22/22/10 21/21/10
f 22/22/11 24/24/11 23/23/11
f 24/24/12 26/26/12 25/25/12
f 26/26/13 28/28/13 27/27/13
f 28/28/14 30/30/14 29/29/14
f 30/30/15 32/32/15 31/31/15
f 32/32/16 34/34/16 33/33/16
f 34/34/17 36/36/17 35/35/17
f 36/36/18 38/38/18 37/37/18
f 38/38/19 40/40/19 39/39/19
f 40/40/20 42/42/20 41/41/20
f 42/42/21 44/44/21 43/43/21
f 44/44/22 46/46/22 45/45/22
f 46/46/23 48/48/23 47/47/23
f 48/48/35 50/50/35 49/49/35
f 50/50/36 52/52/36 51/51/36
f 52/52/26 54/54/26 53/53/26
f 54/54/37 56/56/37 55/55/37
f 56/56/28 58/58/28 57/57/28
f 58/58/29 60/60/29 59/59/29
f 60/60/30 62/65/30 61/61/30
f 22/64/38 20/72/38 18/73/38
f 18/73/31 16/74/31 14/75/31
f 14/75/39 12/76/39 10/77/39
f 10/77/31 8/78/31 6/79/31
f 6/79/31 4/80/31 2/81/31
f 2/81/31 64/82/31 62/83/31
f 62/83/31 60/84/31 58/85/31
f 58/85/40 56/86/40 54/62/40
f 54/62/31 52/87/31 50/88/31
f 50/88/41 48/89/41 46/90/41
f 46/90/40 44/91/40 42/92/40
f 42/92/31 40/93/31 38/63/31
f 38/63/31 36/94/31 34/95/31
f 34/95/31 32/96/31 30/97/31
f 30/97/31 28/98/31 26/99/31
f 26/99/39 24/100/39 22/64/39
f 22/64/31 18/73/31 14/75/31
f 14/75/31 10/77/31 6/79/31
f 6/79/31 2/81/31 62/83/31
f 62/83/31 58/85/31 54/62/31
f 54/62/31 50/88/31 46/90/31
f 46/90/31 42/92/31 38/63/31
f 38/63/31 34/95/31 30/97/31
f 30/97/31 26/99/31 22/64/31
f 22/64/31 14/75/31 6/79/31
f 6/79/31 62/83/31 54/62/31
f 54/62/31 46/90/31 38/63/31
f 38/63/31 30/97/31 22/64/31
f 22/64/31 6/79/31 54/62/31
f 62/65/32 64/67/32 63/66/32
f 64/67/33 2/101/33 1/68/33
f 1/71/34 3/102/34 5/103/34
f 5/103/34 7/104/34 9/105/34
f 9/105/34 11/106/34 13/107/34
f 13/107/34 15/108/34 17/109/34
f 17/109/42 19/110/42 21/111/42
f 21/111/34 23/112/34 25/113/34
f 25/113/34 27/114/34 29/115/34
f 29/115/34 31/116/34 33/69/34
f 33/69/34 35/117/34 37/118/34
f 37/118/34 39/119/34 41/120/34
f 41/120/34 43/121/34 45/122/34
f 45/122/43 47/123/43 49/70/43
f 49/70/34 51/124/34 53/125/34
f 53/125/34 55/126/34 57/127/34
f 57/127/34 59/128/34 61/129/34
f 61/129/34 63/130/34 1/71/34
f 1/71/34 5/103/34 9/105/34
f 9/105/34 13/107/34 17/109/34
f 17/109/34 21/111/34 25/113/34
f 25/113/34 29/115/34 33/69/34
f 33/69/34 37/118/34 41/120/34
f 41/120/34 45/122/34 49/70/34
f 49/70/34 53/125/34 57/127/34
f 57/127/34 61/129/34 1/71/34
f 1/71/34 9/105/34 17/109/34
f 17/109/34 25/113/34 33/69/34
f 33/69/34 41/120/34 49/70/34
f 49/70/34 57/127/34 1/71/34
f 1/71/34 17/109/34 33/69/34
