# Blender 5.1.2
# www.blender.org
o Cube.012
v 132.100006 202.176758 30.999996
v 132.100006 204.276749 30.999996
v 134.868820 202.176758 25.200001
v 134.868820 204.276749 25.200001
v 135.968826 202.176758 25.200001
v 134.868820 202.176758 30.999996
v 134.868820 204.276749 30.999996
v 135.968826 202.176758 30.999996
v 132.377289 209.176743 25.200001
v 132.100021 210.176743 25.199999
v 133.368820 210.176743 25.200001
v 132.100006 209.176743 30.999992
v 132.377289 209.176743 30.999992
v 132.100006 210.176743 30.999992
v 133.368820 210.176743 30.999996
v 133.368820 213.176743 25.200001
v 133.368820 213.176743 30.999996
v 135.968826 209.176743 25.200001
v 136.225311 210.698959 25.200006
v 135.968826 209.176743 30.999996
v 135.055847 212.254044 25.200006
v 135.952103 213.470184 25.200006
v 137.533493 209.745285 25.200006
v 138.074463 211.178940 25.200006
v 136.982635 212.025269 25.200006
v 138.925018 209.222397 25.200006
v 139.282944 210.701828 25.200006
v 137.813660 210.170120 37.188274
v 138.074463 211.178940 37.037697
v 137.813660 211.381104 37.188274
v 138.912735 209.227020 38.746593
v 139.034531 209.208099 38.134300
v 139.182388 209.188797 37.857681
v 139.381363 209.162811 37.615223
v 138.943481 209.219986 38.434448
v 138.925018 209.222397 38.621895
v 138.925018 209.222397 38.871292
v 139.282944 210.701828 36.339981
v 138.912735 210.170120 38.746593
v 139.034531 210.170120 38.134300
v 139.182388 210.170120 37.857681
v 139.381363 210.170120 37.615223
v 138.943481 210.170120 38.434448
v 139.900452 209.095032 37.268387
v 140.200592 209.055847 37.177338
v 139.623825 209.131149 37.416241
v 139.900452 210.170120 37.268387
v 140.200592 210.170120 37.177338
v 139.623825 210.170120 37.416241
v 132.100006 202.176758 47.000008
v 132.100006 204.276749 47.000008
v 134.868820 202.176758 47.000008
v 134.868820 204.276749 47.000008
v 135.968811 202.176758 47.000008
v 134.868820 202.176758 52.800003
v 134.868820 204.276749 52.800003
v 135.968811 202.176758 52.800003
v 132.100006 209.176743 47.000004
v 132.377289 209.176743 47.000004
v 132.100006 210.176743 47.000004
v 133.368820 210.176743 47.000008
v 132.377289 209.176743 52.799999
v 132.100021 210.176743 52.799999
v 133.368820 210.176743 52.800003
v 133.368820 213.176743 47.000008
v 133.368820 213.176743 52.800003
v 135.968811 209.176743 47.000008
v 135.968811 209.176743 52.800003
v 136.225311 210.698959 52.800011
v 135.055847 212.254044 52.800011
v 135.952103 213.470184 52.800011
v 137.813660 210.170105 40.304913
v 138.074463 211.178940 40.455490
v 137.813660 210.170120 45.188271
v 138.074463 211.178940 45.037697
v 137.813660 211.381104 40.304913
v 137.813660 211.381104 45.188274
v 138.943481 209.219986 39.058739
v 139.034531 209.208099 39.358887
v 139.182388 209.188797 39.635506
v 139.381363 209.162811 39.877964
v 138.943481 210.170120 39.058739
v 139.034531 210.170120 39.358887
v 139.182388 210.170105 39.635506
v 139.381363 210.170105 39.877964
v 139.282944 210.701828 41.153202
v 139.623825 209.131149 40.076946
v 139.900452 209.095032 40.224800
v 140.200592 209.055847 40.315849
v 139.623825 210.170105 40.076946
v 139.900452 210.170105 40.224800
v 140.200592 210.170105 40.315849
v 139.182388 209.188797 45.857677
v 139.381363 209.162811 45.615219
v 139.182388 210.170120 45.857677
v 139.381363 210.170120 45.615219
v 139.282944 210.701828 44.339981
v 139.623825 209.131149 45.416241
v 139.900452 209.095032 45.268383
v 140.200592 209.055847 45.177334
v 139.623825 210.170120 45.416241
v 139.900452 210.170120 45.268383
v 140.200592 210.170120 45.177334
v 137.813660 210.170105 48.304909
v 138.074463 211.178940 48.455486
v 137.533493 209.745285 52.800011
v 138.074463 211.178940 52.800011
v 137.813660 211.381104 48.304909
v 136.982635 212.025269 52.800011
v 138.912735 209.227020 46.746590
v 139.034531 209.208099 46.134296
v 138.943481 209.219986 46.434444
v 138.925018 209.222397 46.621891
v 138.925018 209.222397 46.871288
v 138.943481 209.219986 47.058735
v 139.034531 209.208099 47.358883
v 139.182388 209.188797 47.635502
v 139.381363 209.162811 47.877960
v 138.912735 210.170120 46.746590
v 139.034531 210.170120 46.134296
v 138.943481 210.170120 46.434448
v 138.943481 210.170120 47.058735
v 139.034531 210.170120 47.358883
v 139.182388 210.170105 47.635502
v 139.381363 210.170105 47.877960
v 139.282944 210.701828 49.153202
v 139.623825 209.131149 48.076942
v 139.900452 209.095032 48.224800
v 140.200592 209.055847 48.315845
v 139.623825 210.170105 48.076942
v 139.900452 210.170105 48.224800
v 140.200592 210.170105 48.315845
v 138.925018 209.222397 52.800011
v 139.282944 210.701828 52.800011
v 132.100021 216.176743 25.199999
v 132.377289 217.176743 25.200001
v 133.368820 216.176743 25.200001
v 132.100006 216.176743 30.999992
v 132.100006 217.176743 30.999992
v 132.377289 217.176743 30.999992
v 133.368820 216.176743 30.999996
v 135.968826 217.176743 25.200001
v 135.968826 217.176743 30.999996
v 132.100006 222.076736 30.999996
v 132.100006 224.176743 30.999996
v 134.868820 222.076736 25.200001
v 135.055847 223.004807 25.200008
v 135.952103 221.788666 25.200006
v 134.868820 222.076736 30.999996
v 134.868820 224.176743 25.200001
v 135.968826 224.176743 25.200001
v 136.225311 224.559891 25.200008
v 134.868820 224.176743 30.999996
v 135.968826 224.176743 30.999996
v 136.982635 223.233582 25.200006
v 138.074463 224.079910 25.200006
v 137.533493 225.513565 25.200008
v 139.282944 224.557022 25.200006
v 138.925018 226.036453 25.200008
v 132.100006 216.176743 47.000004
v 132.100006 217.176743 47.000004
v 132.377289 217.176743 47.000004
v 133.368820 216.176743 47.000008
v 132.100021 216.176743 52.799999
v 132.377289 217.176743 52.799999
v 133.368820 216.176743 52.800003
v 135.968811 217.176743 47.000008
v 135.968811 217.176743 52.800003
v 132.100006 222.076736 47.000008
v 132.100006 224.176743 47.000008
v 134.868820 222.076736 47.000008
v 134.868820 222.076736 52.800003
v 135.055847 223.004807 52.800011
v 135.952103 221.788666 52.800011
v 134.868820 224.176743 47.000008
v 135.968811 224.176743 47.000008
v 134.868820 224.176743 52.800003
v 135.968811 224.176743 52.800003
v 136.225311 224.559891 52.800011
v 136.982635 223.233582 52.800011
v 138.074463 224.079910 52.800011
v 137.533493 225.513565 52.800011
v 139.282944 224.557022 52.800011
v 138.925018 226.036453 52.800011
v 140.500015 209.016739 25.200006
v 140.500015 210.507477 25.200006
v 142.075012 209.222397 25.200006
v 141.717087 210.701828 25.200006
v 142.925568 211.178940 25.200006
v 143.466537 209.745285 25.200006
v 144.017395 212.025269 25.200006
v 140.500015 209.016739 37.147846
v 140.512741 209.018402 37.146591
v 140.824890 209.059158 37.177338
v 141.125031 209.098358 37.268387
v 141.401657 209.134476 37.416241
v 140.512741 210.170120 35.629959
v 140.512741 210.170120 37.146591
v 140.824890 210.170120 37.177338
v 140.512741 210.509506 35.629959
v 140.500015 210.507477 35.637306
v 141.125031 210.170120 37.268387
v 141.401657 210.170120 37.416241
v 141.644119 209.166138 37.615223
v 141.843094 209.192123 37.857681
v 141.990952 209.211426 38.134300
v 142.075012 209.222397 38.411407
v 142.082001 209.225021 38.434448
v 142.112747 209.236588 38.746593
v 141.717087 210.701828 36.325287
v 141.644119 210.170120 37.615223
v 141.843094 210.170120 37.857681
v 141.990952 210.170120 38.134300
v 142.082001 210.170120 38.434448
v 142.112747 210.170120 38.746593
v 142.925568 211.178940 37.023003
v 143.211823 210.170120 37.188274
v 143.211823 211.400833 37.188274
v 145.031204 202.176758 25.200001
v 146.131210 202.176758 25.200001
v 146.131210 204.276749 25.200001
v 145.031204 202.176758 30.999996
v 146.131210 202.176758 30.999996
v 146.131210 204.276749 30.999996
v 148.900024 202.176758 30.999996
v 148.900024 204.276749 30.999996
v 145.031204 209.176743 25.200001
v 144.774719 210.698959 25.200006
v 145.031204 209.176743 30.999996
v 145.047928 213.470184 25.200006
v 145.944183 212.254044 25.200006
v 147.631210 210.176743 25.200001
v 148.622742 209.176743 25.200001
v 148.900009 210.176743 25.199999
v 147.631210 210.176743 30.999996
v 148.622742 209.176743 30.999992
v 148.900024 209.176743 30.999992
v 148.900024 210.176743 30.999992
v 147.631210 213.176743 25.200001
v 147.631210 213.176743 30.999996
v 140.500015 209.016739 40.345341
v 140.512741 209.018402 40.346592
v 140.824890 209.059158 40.315849
v 141.125031 209.098358 40.224800
v 141.401657 209.134476 40.076946
v 140.512741 210.170105 40.346592
v 140.824890 210.170105 40.315849
v 141.125031 210.170105 40.224800
v 141.401657 210.170105 40.076946
v 140.512741 210.170105 41.863228
v 140.500015 210.507477 41.855881
v 140.512741 210.509506 41.863228
v 142.075012 209.222397 39.081779
v 141.990952 209.211426 39.358887
v 141.843094 209.192123 39.635506
v 141.644119 209.166138 39.877964
v 142.082001 209.225021 39.058739
v 141.990952 210.170120 39.358887
v 141.843094 210.170105 39.635506
v 141.644119 210.170105 39.877964
v 142.082001 210.170120 39.058739
v 141.717087 210.701828 41.167896
v 140.500015 209.016739 45.147842
v 140.512741 209.018402 45.146591
v 140.824890 209.059158 45.177334
v 141.125031 209.098358 45.268383
v 141.401657 209.134476 45.416241
v 140.512741 210.170120 43.629955
v 140.512741 210.509506 43.629955
v 140.500015 210.507477 43.637302
v 140.512741 210.170120 45.146591
v 140.824890 210.170120 45.177334
v 141.125031 210.170120 45.268383
v 141.401657 210.170120 45.416241
v 141.644119 209.166138 45.615219
v 141.843094 209.192123 45.857677
v 141.644119 210.170120 45.615219
v 141.843094 210.170120 45.857677
v 141.717087 210.701828 44.325287
v 142.925568 211.178940 40.470184
v 143.211823 210.170105 40.304913
v 142.925568 211.178940 45.023003
v 143.211823 210.170120 45.188271
v 143.211823 211.400833 40.304913
v 143.211823 211.400833 45.188274
v 140.500015 209.016739 48.345337
v 140.512741 209.018402 48.346592
v 140.824890 209.059158 48.315845
v 141.125031 209.098358 48.224800
v 141.401657 209.134476 48.076942
v 140.512741 210.170105 48.346592
v 140.824890 210.170105 48.315845
v 141.125031 210.170105 48.224800
v 141.401657 210.170105 48.076942
v 141.990952 209.211426 46.134296
v 142.075012 209.222397 46.411404
v 142.075012 209.222397 47.081776
v 141.990952 209.211426 47.358883
v 142.082001 209.225021 46.434444
v 142.112747 209.236588 46.746590
v 142.082001 209.225021 47.058735
v 141.644119 209.166138 47.877960
v 141.843094 209.192123 47.635502
v 141.990952 210.170120 46.134296
v 141.990952 210.170120 47.358883
v 142.082001 210.170120 46.434448
v 142.112747 210.170120 46.746590
v 142.082001 210.170120 47.058735
v 141.644119 210.170105 47.877960
v 141.843094 210.170105 47.635502
v 141.717087 210.701828 49.167896
v 140.500015 209.016739 52.800011
v 140.512741 210.170105 49.863228
v 140.500015 210.507477 49.855881
v 140.512741 210.509506 49.863228
v 140.500015 210.507477 52.800011
v 142.075012 209.222397 52.800011
v 141.717087 210.701828 52.800011
v 142.925568 211.178940 48.470181
v 143.211823 210.170105 48.304909
v 142.925568 211.178940 52.800011
v 143.466537 209.745285 52.800011
v 143.211823 211.400833 48.304909
v 144.017395 212.025269 52.800011
v 145.031219 202.176758 47.000008
v 146.131210 202.176758 47.000008
v 146.131210 204.276749 47.000008
v 145.031219 202.176758 52.800003
v 146.131210 202.176758 52.800003
v 146.131210 204.276749 52.800003
v 148.900024 202.176758 47.000008
v 148.900024 204.276749 47.000008
v 145.031219 209.176743 47.000008
v 145.031219 209.176743 52.800003
v 144.774719 210.698959 52.800011
v 145.047928 213.470184 52.800011
v 145.944183 212.254044 52.800011
v 147.631210 210.176743 47.000008
v 148.622742 209.176743 47.000004
v 148.900024 209.176743 47.000004
v 148.900024 210.176743 47.000004
v 147.631210 210.176743 52.800003
v 148.622742 209.176743 52.799999
v 148.900009 210.176743 52.799999
v 147.631210 213.176743 47.000008
v 147.631210 213.176743 52.800003
v 140.500015 224.751373 25.200006
v 140.500015 226.242111 25.200008
v 141.717087 224.557022 25.200006
v 142.075012 226.036453 25.200008
v 144.017395 223.233582 25.200006
v 142.925568 224.079910 25.200006
v 143.466537 225.513565 25.200008
v 145.031204 217.176743 25.200001
v 145.031204 217.176743 30.999996
v 147.631210 216.176743 25.200001
v 148.900009 216.176743 25.199999
v 148.622742 217.176743 25.200001
v 147.631210 216.176743 30.999996
v 148.900024 216.176743 30.999992
v 148.622742 217.176743 30.999992
v 148.900024 217.176743 30.999992
v 145.047928 221.788666 25.200006
v 146.131210 222.076736 25.200001
v 145.944183 223.004807 25.200008
v 146.131210 222.076736 30.999996
v 144.774719 224.559891 25.200008
v 145.031204 224.176743 25.200001
v 146.131210 224.176743 25.200001
v 145.031204 224.176743 30.999996
v 146.131210 224.176743 30.999996
v 148.900024 222.076736 30.999996
v 148.900024 224.176743 30.999996
v 140.500015 224.751373 52.800011
v 140.500015 226.242111 52.800011
v 141.717087 224.557022 52.800011
v 142.075012 226.036453 52.800011
v 144.017395 223.233582 52.800011
v 142.925568 224.079910 52.800011
v 143.466537 225.513565 52.800011
v 145.031219 217.176743 47.000008
v 145.031219 217.176743 52.800003
v 147.631210 216.176743 47.000008
v 148.900024 216.176743 47.000004
v 148.622742 217.176743 47.000004
v 148.900024 217.176743 47.000004
v 147.631210 216.176743 52.800003
v 148.900009 216.176743 52.799999
v 148.622742 217.176743 52.799999
v 146.131210 222.076736 47.000008
v 145.047928 221.788666 52.800011
v 146.131210 222.076736 52.800003
v 145.944183 223.004807 52.800011
v 145.031219 224.176743 47.000008
v 146.131210 224.176743 47.000008
v 144.774719 224.559891 52.800011
v 145.031219 224.176743 52.800003
v 146.131210 224.176743 52.800003
v 148.900024 222.076736 47.000008
v 148.900024 224.176743 47.000008
vn -1.0000 -0.0000 -0.0000
vn -0.0000 -1.0000 -0.0000
vn 1.0000 -0.0000 -0.0000
vn -0.0000 -0.0000 1.0000
vn 0.9636 0.2672 -0.0000
vn 0.8914 0.4532 -0.0000
vn -0.0000 1.0000 -0.0000
vn 0.9636 -0.2672 -0.0000
vn 0.8914 -0.4532 -0.0000
vn -0.0000 -0.0000 -1.0000
vn -0.1577 0.9875 -0.0000
vn -0.8141 0.5807 -0.0000
vn 0.8050 0.5933 -0.0000
vn 0.5891 -0.8081 -0.0000
vn 0.1295 -0.9916 -0.0000
vn 0.3518 -0.9361 -0.0000
vn -0.3672 0.9301 -0.0000
vn 0.7992 -0.6010 -0.0000
vn -0.6126 0.7904 -0.0000
vn 0.5891 0.8081 -0.0000
vn 0.3518 0.9361 -0.0000
vn 0.1295 0.9916 -0.0000
vn 0.7992 0.6010 -0.0000
vn -0.1577 -0.9875 -0.0000
vn -0.6126 -0.7904 -0.0000
vn -0.8141 -0.5807 -0.0000
vn -0.3672 -0.9301 -0.0000
vn 0.8050 -0.5933 -0.0000
vn -0.9636 0.2672 -0.0000
vn -0.8914 0.4532 -0.0000
vn -0.9636 -0.2672 -0.0000
vn -0.8914 -0.4532 -0.0000
vn 0.1577 0.9875 -0.0000
vn 0.8141 0.5807 -0.0000
vn -0.8050 0.5933 -0.0000
vn -0.5891 -0.8081 -0.0000
vn -0.1295 -0.9916 -0.0000
vn -0.3518 -0.9361 -0.0000
vn 0.3672 0.9301 -0.0000
vn -0.7992 -0.6010 -0.0000
vn 0.6126 0.7904 -0.0000
vn -0.5891 0.8081 -0.0000
vn -0.3518 0.9361 -0.0000
vn -0.1295 0.9916 -0.0000
vn -0.7992 0.6010 -0.0000
vn 0.1577 -0.9875 -0.0000
vn 0.6126 -0.7904 -0.0000
vn 0.8141 -0.5807 -0.0000
vn 0.3672 -0.9301 -0.0000
vn -0.8050 -0.5933 -0.0000
vn -0.5000 -0.0000 -0.8660
vn -0.5000 -0.0000 0.8660
vn 0.5000 -0.0000 0.8660
vn 0.5000 -0.0000 -0.8660
vn -0.0980 -0.0000 -0.9952
vn -0.2903 -0.0000 -0.9569
vn -0.4714 -0.0000 -0.8819
vn -0.6344 -0.0000 -0.7730
vn -0.7730 -0.0000 -0.6344
vn -0.8819 -0.0000 -0.4714
vn -0.9569 -0.0000 -0.2903
vn -0.9952 -0.0000 -0.0980
vn -0.9952 -0.0000 0.0980
vn -0.9569 -0.0000 0.2903
vn -0.8819 -0.0000 0.4714
vn -0.7730 -0.0000 0.6344
vn -0.6344 -0.0000 0.7730
vn -0.4714 -0.0000 0.8819
vn -0.2903 -0.0000 0.9569
vn -0.0980 -0.0000 0.9952
vn 0.0980 -0.0000 0.9952
vn 0.2903 -0.0000 0.9569
vn 0.4714 -0.0000 0.8819
vn 0.6344 -0.0000 0.7730
vn 0.7730 -0.0000 0.6344
vn 0.8819 -0.0000 0.4714
vn 0.9569 -0.0000 0.2903
vn 0.9952 -0.0000 0.0980
vn 0.9952 -0.0000 -0.0980
vn 0.9569 -0.0000 -0.2903
vn 0.8819 -0.0000 -0.4714
vn 0.7730 -0.0000 -0.6344
vn 0.6344 -0.0000 -0.7730
vn 0.4714 -0.0000 -0.8819
vn 0.2903 -0.0000 -0.9569
vn 0.0980 -0.0000 -0.9952
vn 0.9688 -0.0000 -0.2480
vn 0.3517 -0.9361 -0.0000
vn -0.9688 -0.0000 -0.2480
vn 0.0980 0.0001 0.9952
vt 0.229167 0.513173
vt 0.174167 0.371811
vt 0.229167 0.488800
vt 0.000000 0.000000
vt 0.674854 0.625000
vt 0.724707 0.625000
vt 0.716258 0.625000
vt 0.674472 0.624936
vt 0.673713 0.624810
vt 0.568394 0.790442
vt 0.684832 0.626659
vt 0.174167 0.371811
vt 0.045833 0.103889
vt 0.045833 0.103889
vt 0.716258 0.625000
vt 0.674472 0.624936
vt 0.673713 0.624810
vt 0.674854 0.625000
vt 0.625000 0.799854
vt 0.469541 0.375000
vt 0.469474 0.375654
vt 0.375000 0.437500
vt 0.525935 0.375653
vt 0.541938 0.375654
vt 0.519637 0.437500
vt 0.625000 0.375000
vt 0.592100 0.437500
vt 0.598399 0.375653
vt 0.375000 0.500000
vt 0.625000 0.484375
vt 0.625000 0.500000
vt 0.375000 0.750000
vt 0.625000 0.750000
vt 0.312500 0.750000
vt 0.250000 0.500000
vt 0.312500 0.500000
vt 0.359375 0.500000
vt 0.687500 0.500000
vt 0.656250 0.750000
vt 0.656250 0.500000
vt 0.687500 0.750000
vt 0.750000 0.500000
vt 0.750000 0.750000
vt 0.375000 0.781250
vt 0.625000 0.765625
vt 0.625000 0.781250
vt 0.375000 0.812500
vt 0.485654 0.839221
vt 0.484315 0.850198
vt 0.503251 0.815836
vt 0.564622 0.815836
vt 0.562117 0.821703
vt 0.583558 0.850198
vt 0.582219 0.839221
vt 0.625000 0.812500
vt 0.570168 0.811653
vt 0.497705 0.811653
vt 0.640625 0.750000
vt 0.640625 0.500000
vt 0.343750 0.750000
vt 0.343750 0.500000
vt 0.475772 0.437500
vt 0.375000 0.468750
vt 0.548236 0.437500
vt 0.513317 0.468750
vt 0.625000 0.468750
vt 0.592100 0.437500
vt 0.625000 0.437500
vt 0.375000 0.765625
vt 0.359375 0.750000
vt 0.511820 0.472847
vt 0.556053 0.472847
vt 0.375000 0.875000
vt 0.375000 0.375000
vt 0.375000 0.484375
vt 0.488780 0.777206
vt 0.684832 0.626659
vt 0.174167 0.389850
vt 0.174167 0.389850
vt 0.045833 0.095252
vt 0.488780 0.777206
vt 0.441756 0.769387
vt 0.724707 0.625000
vt 0.716258 0.625000
vt 0.548369 0.437500
vt 0.525868 0.375000
vt 0.519504 0.437500
vt 0.598332 0.375000
vt 0.591967 0.437500
vt 0.487457 0.830609
vt 0.489653 0.822713
vt 0.567341 0.813233
vt 0.500532 0.813233
vt 0.503251 0.816846
vt 0.580416 0.830609
vt 0.582219 0.840231
vt 0.497705 0.812224
vt 0.570168 0.812224
vt 0.475906 0.437500
vt 0.513184 0.468750
vt 0.585647 0.468750
vt 0.556053 0.472482
vt 0.511820 0.472482
vt 0.625000 0.875000
vt 0.250000 0.750000
vt 0.833333 1.000000
vt 1.000000 0.946499
vt 0.925632 0.916183
vt 0.666667 0.805995
vt 0.833333 0.805995
vt 0.500000 1.000000
vt 0.666667 1.000000
vt 0.648990 0.840974
vt 0.333333 1.000000
vt 0.349438 0.840974
vt 0.126790 0.250000
vt 0.129158 0.225963
vt 0.042154 0.130000
vt 0.370842 0.274037
vt 0.457846 0.370000
vt 0.457846 0.130000
vt 0.166667 0.809105
vt 0.166667 1.000000
vt -0.000000 1.000000
vt 0.000786 0.946819
vt 0.851010 0.840974
vt 0.648990 0.840974
vt 0.349438 0.840974
vt 0.136169 0.202850
vt 0.147555 0.181548
vt 0.352445 0.318452
vt 0.363831 0.297150
vt 0.000786 0.946819
vt 0.968750 0.884844
vt 1.000000 0.829297
vt 0.968750 0.829297
vt 0.937500 0.882885
vt 0.968750 0.829297
vt 0.937500 0.829297
vt 0.906250 0.881079
vt 0.937500 0.829297
vt 0.906250 0.829297
vt 0.906250 0.829297
vt 0.875000 0.879496
vt 0.843750 0.878197
vt 0.875000 0.829297
vt 0.843750 0.829297
vt 0.812500 0.877231
vt 0.843750 0.829297
vt 0.812500 0.829297
vt 0.781250 0.876551
vt 0.783649 0.876683
vt 0.781250 0.829297
vt 0.750000 0.875974
vt 0.750000 0.875973
vt 0.718750 0.829297
vt 0.718750 0.876551
vt 0.687500 0.877231
vt 0.716351 0.876682
vt 0.656250 0.829297
vt 0.656250 0.878197
vt 0.625000 0.829297
vt 0.625000 0.879496
vt 0.593750 0.829297
vt 0.625000 0.879496
vt 0.562500 0.829297
vt 0.593750 0.881079
vt 0.531250 0.829297
vt 0.562500 0.882885
vt 0.500000 0.829297
vt 0.531250 0.884844
vt 0.468750 0.885010
vt 0.500000 0.886882
vt 0.437500 0.883051
vt 0.468750 0.829297
vt 0.437500 0.829297
vt 0.406250 0.881245
vt 0.406250 0.829297
vt 0.375000 0.879662
vt 0.375000 0.829297
vt 0.343750 0.878363
vt 0.343750 0.829297
vt 0.312500 0.877397
vt 0.312500 0.829297
vt 0.281250 0.876803
vt 0.281250 0.829297
vt 0.250000 0.876452
vt 0.262484 0.876683
vt 0.250000 0.829297
vt 0.218750 0.876803
vt 0.237516 0.876682
vt 0.187500 0.829297
vt 0.187500 0.877397
vt 0.156250 0.829297
vt 0.156250 0.878363
vt 0.156250 0.878363
vt 0.125000 0.829297
vt 0.125000 0.879662
vt 0.093750 0.829297
vt 0.125000 0.829297
vt 0.062500 0.829297
vt 0.093750 0.881245
vt 0.031250 0.829297
vt 0.062500 0.883051
vt 0.062500 0.829297
vt 0.031250 0.829297
vt 0.000000 0.886882
vt 0.001274 0.886965
vt 0.875000 0.829297
vt 0.783649 0.876682
vt 0.716351 0.876682
vt 0.262484 0.876682
vt 0.237516 0.876682
vt 0.093750 0.881245
vt 0.001274 0.886965
vt 0.542004 0.375000
vt 0.483223 0.875000
vt 0.494668 0.812500
vt 0.492158 0.815836
vt 0.489653 0.821703
vt 0.483212 0.874495
vt 0.483490 0.862108
vt 0.487457 0.829599
vt 0.555687 0.875000
vt 0.512186 0.875000
vt 0.512197 0.874495
vt 0.511919 0.862108
vt 0.555676 0.874495
vt 0.511094 0.850198
vt 0.555954 0.862108
vt 0.509755 0.839221
vt 0.556779 0.850197
vt 0.507953 0.829599
vt 0.558118 0.839221
vt 0.505756 0.821703
vt 0.559920 0.829599
vt 0.500741 0.812500
vt 0.567132 0.812500
vt 0.575714 0.815836
vt 0.573204 0.812500
vt 0.584650 0.875000
vt 0.584661 0.874495
vt 0.578220 0.821703
vt 0.580416 0.829599
vt 0.584383 0.862108
vt 0.567341 0.812343
vt 0.500532 0.812343
vt 0.572996 0.812343
vt 0.494877 0.812343
vt 0.482092 0.468750
vt 0.554556 0.468750
vt 0.585781 0.468750
vt 0.482092 0.468750
vt 0.483589 0.472847
vt 0.584284 0.472847
vt 0.513317 0.468750
vt 0.483223 0.875000
vt 0.483490 0.863118
vt 0.494877 0.813233
vt 0.496575 0.812500
vt 0.492158 0.816846
vt 0.484315 0.851208
vt 0.485654 0.840231
vt 0.555687 0.875000
vt 0.555954 0.863118
vt 0.556779 0.851207
vt 0.511919 0.863118
vt 0.558118 0.840231
vt 0.511094 0.851207
vt 0.559920 0.830609
vt 0.509755 0.840231
vt 0.562117 0.822713
vt 0.507952 0.830609
vt 0.564622 0.816846
vt 0.505756 0.822713
vt 0.569039 0.812500
vt 0.498834 0.812500
vt 0.584383 0.863118
vt 0.584650 0.875000
vt 0.571298 0.812500
vt 0.572996 0.813233
vt 0.575714 0.816846
vt 0.583558 0.851207
vt 0.578220 0.822713
vt 0.496575 0.812500
vt 0.482225 0.468750
vt 0.554689 0.468750
vt 0.585647 0.468750
vt 0.584284 0.472482
vt 0.483589 0.472482
vt 0.851010 0.840974
vt 1.000000 1.000000
vt 0.574368 0.916183
vt 0.500000 0.946499
vt 0.500000 0.946499
vt 0.499214 0.946819
vt 0.424061 0.916183
vt 0.333333 0.809105
vt 0.373210 0.250000
vt 0.363831 0.297150
vt 0.352445 0.318452
vt 0.337123 0.337123
vt 0.370842 0.225963
vt 0.363831 0.202850
vt 0.250000 0.490000
vt 0.318452 0.352445
vt 0.352445 0.181548
vt 0.337122 0.162878
vt 0.297150 0.363831
vt 0.274037 0.370842
vt 0.250000 0.010000
vt 0.318452 0.147555
vt 0.250000 0.373210
vt 0.225963 0.370842
vt 0.297150 0.136169
vt 0.274037 0.129158
vt 0.042154 0.370000
vt 0.202850 0.363831
vt 0.250000 0.126790
vt 0.225963 0.129158
vt 0.181548 0.352445
vt 0.162878 0.337122
vt 0.202850 0.136169
vt 0.147555 0.318452
vt 0.136169 0.297150
vt 0.181548 0.147555
vt 0.162878 0.162878
vt 0.129158 0.274037
vt 0.147555 0.181548
vt 0.136169 0.202850
vt 0.166667 0.809105
vt 0.150562 0.840974
vt 0.075939 0.916183
vt -0.000000 0.946499
vt 0.574368 0.916183
vt 0.499214 0.946819
vt 0.424061 0.916183
vt 0.370842 0.274037
vt 0.337122 0.337122
vt 0.318452 0.352445
vt 0.297150 0.363831
vt 0.274037 0.370842
vt 0.370842 0.225963
vt 0.363831 0.202850
vt 0.250000 0.373210
vt 0.225963 0.370842
vt 0.352445 0.181548
vt 0.337122 0.162878
vt 0.202850 0.363831
vt 0.318452 0.147555
vt 0.181548 0.352445
vt 0.162878 0.337122
vt 0.297150 0.136169
vt 0.274037 0.129158
vt 0.147555 0.318452
vt 0.136169 0.297150
vt 0.250000 0.126790
vt 0.225963 0.129158
vt 0.129158 0.274037
vt 0.202850 0.136169
vt 0.126790 0.250000
vt 0.129158 0.225963
vt 0.181548 0.147555
vt 0.162878 0.162878
vt 0.150562 0.840974
vt 0.075939 0.916183
vt 1.000000 0.886882
vt 0.968750 0.884844
vt 0.875000 0.879496
vt 0.750000 0.829297
vt 0.687500 0.829297
vt 0.500000 0.886882
vt 0.468750 0.829297
vt 0.498726 0.886965
vt 0.406250 0.881245
vt 0.343750 0.878363
vt 0.250000 0.876452
vt 0.218750 0.829297
vt 0.156250 0.829297
vt 0.031250 0.885010
vt 0.000000 0.829297
s 0
f 354/1/1 370/2/1 368/3/1
f 356/4/2 360/4/2 359/4/2
f 240/4/3 356/4/3 359/4/3
f 330/5/4 387/4/4 392/5/4
f 384/6/5 389/7/5 388/6/5
f 366/8/3 369/5/3 371/9/3
f 389/7/6 390/5/6 392/5/6
f 394/10/7 398/5/7 395/11/7
f 222/12/1 227/1/1 219/3/1
f 238/4/7 232/4/7 235/4/7
f 232/4/3 240/4/3 235/4/3
f 333/13/1 382/4/1 381/14/1
f 339/15/8 344/6/8 343/7/8
f 220/5/3 224/16/3 223/17/3
f 327/18/9 343/7/9 330/5/9
f 325/10/2 329/5/2 328/19/2
f 364/5/10 232/4/10 221/5/10
f 201/20/11 200/21/11 188/22/11
f 252/23/11 269/24/11 262/25/11
f 316/26/11 311/27/11 315/28/11
f 230/29/12 324/30/12 336/31/12
f 231/32/13 336/31/13 337/33/13
f 187/34/10 186/35/10 188/36/10
f 231/32/10 191/37/10 230/29/10
f 318/38/4 322/39/4 321/40/4
f 317/41/4 316/42/4 312/43/4
f 190/44/14 335/45/14 322/46/14
f 187/47/15 196/48/15 195/49/15
f 254/50/15 295/51/15 276/52/15
f 289/53/15 290/54/15 317/55/15
f 300/56/16 209/57/16 190/44/16
f 321/40/4 335/58/4 324/59/4
f 190/60/10 188/36/10 189/61/10
f 210/62/17 189/63/17 188/22/17
f 279/64/17 280/65/17 262/25/17
f 321/66/17 311/67/17 318/68/17
f 324/59/4 337/33/4 336/31/4
f 228/69/18 337/33/18 335/45/18
f 228/70/10 189/61/10 191/37/10
f 284/71/19 285/72/19 324/30/19
f 349/36/10 353/60/10 352/61/10
f 365/32/10 351/37/10 367/70/10
f 353/44/20 396/45/20 367/69/20
f 350/47/21 380/46/21 353/44/21
f 348/73/22 377/55/22 350/47/22
f 367/69/23 393/33/23 365/32/23
f 378/59/4 393/33/4 396/58/4
f 349/22/24 374/26/24 347/74/24
f 367/70/10 352/61/10 353/60/10
f 351/75/25 379/66/25 352/63/25
f 363/29/26 378/30/26 351/75/26
f 379/40/4 396/58/4 380/39/4
f 352/63/27 376/68/27 349/22/27
f 376/38/4 380/39/4 377/41/4
f 374/42/4 377/41/4 375/43/4
f 363/29/28 393/33/28 391/31/28
f 347/35/10 350/34/10 349/36/10
f 222/76/2 326/77/2 325/10/2
f 326/77/3 330/5/3 329/5/3
f 229/78/1 381/14/1 355/79/1
f 338/4/3 346/4/3 342/4/3
f 344/4/7 338/4/7 342/4/7
f 328/4/1 333/13/1 325/80/1
f 370/81/7 395/11/7 371/9/7
f 392/5/3 395/11/3 398/5/3
f 346/4/3 383/4/3 387/4/3
f 383/4/2 388/4/2 387/4/2
f 381/14/1 397/4/1 394/80/1
f 360/6/5 358/15/5 361/15/5
f 361/15/6 364/5/6 366/8/6
f 368/82/7 371/9/7 369/5/7
f 227/1/1 355/79/1 354/1/1
f 233/15/8 238/83/8 236/84/8
f 233/15/9 224/16/9 221/5/9
f 219/82/2 223/17/2 222/76/2
f 229/78/1 325/80/1 333/13/1
f 355/79/1 394/80/1 370/2/1
f 235/4/10 240/4/10 360/4/10
f 384/6/4 386/15/4 385/15/4
f 360/6/10 361/15/10 362/15/10
f 372/8/10 361/15/10 366/8/10
f 341/4/4 383/4/4 345/4/4
f 372/8/10 371/9/10 373/9/10
f 373/9/7 395/11/7 400/11/7
f 236/84/10 238/83/10 237/84/10
f 339/15/4 332/18/4 340/15/4
f 226/16/10 236/84/10 237/84/10
f 385/15/4 399/5/4 390/5/4
f 326/77/4 332/18/4 327/18/4
f 390/5/4 400/11/4 395/11/4
f 339/15/4 340/15/4 341/6/4
f 223/17/2 331/77/2 326/77/2
f 224/16/10 225/17/10 223/17/10
f 226/4/3 331/4/3 225/4/3
f 226/4/3 340/15/3 332/4/3
f 237/84/3 341/6/3 340/15/3
f 360/4/3 341/6/3 238/4/3
f 384/4/3 362/15/3 386/15/3
f 386/15/3 372/8/3 399/5/3
f 373/9/3 399/5/3 372/8/3
f 142/1/3 154/2/3 143/79/3
f 138/4/2 137/4/2 141/4/2
f 17/4/1 137/4/1 16/4/1
f 64/4/4 56/5/4 68/4/4
f 160/6/29 165/7/29 162/15/29
f 149/8/1 150/5/1 146/5/1
f 171/5/30 165/7/30 172/5/30
f 176/10/7 177/5/7 178/19/7
f 8/12/3 18/1/3 20/78/3
f 11/4/7 14/4/7 15/4/7
f 11/4/1 17/4/1 16/4/1
f 67/13/3 168/4/3 68/4/3
f 60/6/31 62/7/31 63/6/31
f 3/5/1 7/16/1 4/5/1
f 62/7/32 53/18/32 56/5/32
f 54/10/2 55/5/2 52/77/2
f 18/1/10 16/4/10 146/5/10
f 27/22/33 201/20/33 186/74/33
f 97/85/33 251/86/33 86/87/33
f 134/68/33 314/88/33 126/89/33
f 22/29/34 109/30/34 25/75/34
f 21/32/35 71/31/35 22/29/35
f 186/35/10 26/34/10 27/36/10
f 25/37/10 21/32/10 22/29/10
f 106/39/4 134/38/4 107/40/4
f 133/41/4 316/42/4 134/38/4
f 23/44/36 69/45/36 19/69/36
f 26/47/37 34/90/37 33/91/37
f 112/92/37 78/93/37 79/94/37
f 118/95/37 127/96/37 133/55/37
f 31/97/38 110/98/38 106/46/38
f 69/58/4 107/40/4 109/59/4
f 23/60/10 27/36/10 26/34/10
f 24/63/39 38/99/39 27/22/39
f 73/100/39 97/85/39 86/87/39
f 107/66/39 126/89/39 105/101/39
f 70/33/4 109/59/4 71/31/4
f 19/69/40 70/33/40 21/32/40
f 24/61/10 19/70/10 25/37/10
f 77/102/41 76/103/41 109/30/41
f 158/36/10 157/60/10 159/34/10
f 155/37/10 147/32/10 152/70/10
f 157/44/42 179/45/42 182/46/42
f 159/47/43 182/46/43 184/55/43
f 348/73/44 184/55/44 375/104/44
f 152/69/45 173/33/45 179/45/45
f 173/33/4 180/59/4 179/58/4
f 158/22/46 374/26/46 183/68/46
f 156/61/10 152/70/10 157/60/10
f 155/75/47 181/66/47 180/30/47
f 148/29/48 180/30/48 174/31/48
f 179/58/4 181/40/4 182/39/4
f 156/63/49 183/68/49 181/66/49
f 182/39/4 183/38/4 184/41/4
f 184/41/4 374/42/4 375/43/4
f 147/32/50 174/31/50 173/33/50
f 347/35/10 159/34/10 348/105/10
f 8/76/2 52/77/2 6/17/2
f 52/77/1 56/5/1 53/18/1
f 20/78/3 167/14/3 67/13/3
f 61/4/1 66/4/1 65/4/1
f 61/4/7 63/4/7 64/4/7
f 57/4/3 67/13/3 68/4/3
f 154/81/7 175/11/7 176/10/7
f 172/5/1 175/11/1 171/5/1
f 66/4/1 163/4/1 65/4/1
f 164/4/2 163/4/2 166/4/2
f 167/14/3 178/4/3 168/4/3
f 136/15/29 138/6/29 140/15/29
f 146/5/30 140/15/30 149/8/30
f 151/82/7 153/9/7 154/81/7
f 20/78/3 142/1/3 143/79/3
f 14/83/31 9/15/31 13/84/31
f 9/15/32 7/16/32 13/84/32
f 5/82/2 6/17/2 3/5/2
f 20/78/3 54/80/3 8/12/3
f 143/79/3 176/80/3 167/14/3
f 138/4/10 17/4/10 15/4/10
f 160/6/4 162/15/4 161/15/4
f 138/6/10 139/15/10 140/15/10
f 140/15/10 144/8/10 149/8/10
f 61/4/4 65/4/4 160/4/4
f 144/8/10 153/9/10 149/8/10
f 145/9/7 175/11/7 153/9/7
f 12/84/10 14/83/10 13/84/10
f 51/18/4 59/15/4 58/15/4
f 2/16/10 13/84/10 7/16/10
f 162/15/4 169/5/4 161/15/4
f 51/18/4 52/77/4 53/18/4
f 171/5/4 170/11/4 169/5/4
f 58/15/4 59/15/4 60/6/4
f 6/17/2 50/77/2 1/17/2
f 1/17/10 7/16/10 6/17/10
f 2/4/1 50/4/1 51/4/1
f 2/4/1 58/15/1 12/84/1
f 12/84/1 60/6/1 14/83/1
f 138/4/1 60/6/1 160/4/1
f 139/15/1 160/4/1 161/15/1
f 139/15/1 169/5/1 144/8/1
f 145/9/1 169/5/1 170/11/1
f 320/106/51 315/107/51 311/108/51
f 285/109/1 320/106/1 323/110/1
f 268/111/52 283/112/52 282/113/52
f 74/114/53 268/111/53 75/115/53
f 119/116/7 121/117/7 74/118/7
f 308/119/7 320/120/7 283/121/7
f 74/114/3 108/122/3 104/123/3
f 313/124/54 104/123/54 314/125/54
f 262/108/51 280/126/51 281/106/51
f 218/109/1 281/106/1 284/110/1
f 197/111/52 217/112/52 216/127/52
f 28/114/53 197/111/53 29/128/53
f 40/129/7 41/130/7 28/118/7
f 259/131/7 281/120/7 258/132/7
f 28/114/3 76/122/3 72/123/3
f 250/124/54 72/123/54 251/133/54
f 288/134/55 291/135/55 292/136/55
f 289/137/56 292/138/56 293/139/56
f 290/140/57 293/141/57 294/142/57
f 294/143/58 302/144/58 290/140/58
f 303/145/59 309/146/59 310/147/59
f 298/148/60 310/149/60 305/150/60
f 305/150/61 301/151/61 297/152/61
f 308/153/62 300/154/62 301/151/62
f 300/155/63 306/156/63 299/157/63
f 306/156/64 295/158/64 296/159/64
f 295/158/65 278/160/65 276/161/65
f 276/161/66 277/162/66 275/163/66
f 274/164/67 275/165/67 277/162/67
f 273/166/68 267/167/68 274/164/68
f 272/168/69 266/169/69 273/166/69
f 271/170/70 265/171/70 272/168/70
f 100/172/71 264/173/71 271/170/71
f 99/174/72 103/175/72 102/176/72
f 98/177/73 102/176/73 101/178/73
f 94/179/74 101/178/74 96/180/74
f 93/181/75 96/180/75 95/182/75
f 111/183/76 95/182/76 120/184/76
f 112/185/77 120/184/77 121/186/77
f 121/186/78 110/187/78 113/188/78
f 119/189/79 115/190/79 114/191/79
f 115/190/80 123/192/80 116/193/80
f 116/193/81 124/194/81 117/195/81
f 117/196/82 125/197/82 118/198/82
f 130/199/83 118/198/83 125/200/83
f 131/201/84 127/202/84 130/199/84
f 132/203/85 128/204/85 131/205/85
f 132/206/86 287/207/86 286/208/86
f 243/134/55 246/135/55 247/136/55
f 244/137/56 247/138/56 248/139/56
f 245/140/57 248/141/57 249/142/57
f 256/144/58 249/143/58 260/209/58
f 255/145/59 260/146/59 259/147/59
f 254/148/60 259/149/60 258/150/60
f 258/150/61 257/151/61 253/210/61
f 261/153/62 209/154/62 257/151/62
f 209/155/63 214/156/63 208/157/63
f 214/156/64 206/158/64 207/211/64
f 206/158/65 212/160/65 205/161/65
f 205/161/66 211/162/66 204/163/66
f 203/164/67 204/165/67 211/162/67
f 202/166/68 196/167/68 203/164/68
f 199/168/69 195/169/69 202/166/69
f 198/170/70 194/171/70 199/168/70
f 45/172/71 193/173/71 198/170/71
f 44/174/72 48/175/72 47/176/72
f 46/177/73 47/176/73 49/178/73
f 34/179/74 49/178/74 42/180/74
f 33/181/75 42/180/75 41/182/75
f 32/183/76 41/182/76 40/184/76
f 35/185/77 40/184/77 43/186/77
f 43/186/78 31/187/78 36/212/78
f 39/189/79 78/190/79 37/213/79
f 78/190/80 83/192/80 79/193/80
f 79/193/81 84/194/81 80/195/81
f 80/196/82 85/197/82 81/198/82
f 81/198/83 90/199/83 87/214/83
f 91/201/84 87/202/84 90/199/84
f 92/203/85 88/204/85 91/205/85
f 92/206/86 242/207/86 241/215/86
f 354/1/1 355/79/1 370/2/1
f 356/4/2 357/4/2 360/4/2
f 240/4/3 239/4/3 356/4/3
f 334/4/4 328/4/4 329/5/4
f 330/5/4 343/7/4 344/6/4
f 334/4/4 329/5/4 330/5/4
f 398/5/4 397/19/4 382/4/4
f 382/4/4 334/4/4 330/5/4
f 330/5/4 344/6/4 342/4/4
f 330/5/4 342/4/4 346/4/4
f 392/5/4 398/5/4 382/4/4
f 388/4/4 389/7/4 392/5/4
f 330/5/4 346/4/4 387/4/4
f 387/4/4 388/4/4 392/5/4
f 392/5/4 382/4/4 330/5/4
f 384/6/5 385/15/5 389/7/5
f 366/8/3 364/5/3 369/5/3
f 389/7/6 385/15/6 390/5/6
f 394/10/7 397/19/7 398/5/7
f 222/12/1 229/78/1 227/1/1
f 238/4/7 234/4/7 232/4/7
f 232/4/3 239/4/3 240/4/3
f 333/13/1 334/4/1 382/4/1
f 339/15/8 341/6/8 344/6/8
f 220/5/3 221/5/3 224/16/3
f 327/18/9 339/15/9 343/7/9
f 325/10/2 326/77/2 329/5/2
f 364/5/10 358/15/10 357/6/10
f 364/5/10 357/6/10 356/4/10
f 368/82/10 369/5/10 364/5/10
f 227/1/87 354/1/87 368/82/87
f 220/5/10 219/3/10 227/1/10
f 234/6/10 233/15/10 221/5/10
f 221/5/10 220/5/10 227/1/10
f 227/1/10 368/82/10 364/5/10
f 364/5/10 356/4/10 239/4/10
f 232/4/10 234/6/10 221/5/10
f 364/5/10 239/4/10 232/4/10
f 221/5/10 227/1/10 364/5/10
f 188/22/11 186/74/11 201/20/11
f 200/21/11 210/62/11 188/22/11
f 252/23/11 251/86/11 270/216/11
f 269/24/11 279/64/11 262/25/11
f 252/23/11 270/216/11 269/24/11
f 315/28/11 314/88/11 316/26/11
f 316/26/11 318/68/11 311/27/11
f 230/29/12 191/75/12 324/30/12
f 231/32/13 230/29/13 336/31/13
f 187/34/10 185/105/10 186/35/10
f 231/32/10 228/70/10 191/37/10
f 318/38/4 317/41/4 322/39/4
f 317/41/4 318/38/4 316/42/4
f 190/44/14 228/69/14 335/45/14
f 192/217/15 185/73/15 187/47/15
f 187/47/15 207/218/15 206/219/15
f 187/47/15 206/219/15 205/220/15
f 193/221/15 192/217/15 187/47/15
f 194/222/15 193/221/15 187/47/15
f 187/47/15 205/220/15 204/223/15
f 187/47/15 204/223/15 196/48/15
f 195/49/15 194/222/15 187/47/15
f 263/224/15 241/225/15 242/226/15
f 263/224/15 242/226/15 243/227/15
f 264/228/15 263/224/15 243/227/15
f 264/228/15 243/227/15 244/229/15
f 265/230/15 264/228/15 244/229/15
f 265/230/15 244/229/15 245/231/15
f 266/232/15 265/230/15 245/231/15
f 266/232/15 245/231/15 256/233/15
f 267/234/15 266/232/15 256/233/15
f 267/234/15 256/233/15 255/235/15
f 275/236/15 267/234/15 255/235/15
f 254/50/15 253/237/15 296/238/15
f 275/236/15 255/235/15 254/50/15
f 276/52/15 275/236/15 254/50/15
f 254/50/15 296/238/15 295/51/15
f 298/239/15 297/240/15 317/55/15
f 317/55/15 312/104/15 286/241/15
f 317/55/15 286/241/15 287/242/15
f 303/243/15 298/239/15 317/55/15
f 302/244/15 303/243/15 317/55/15
f 317/55/15 287/242/15 288/245/15
f 317/55/15 288/245/15 289/53/15
f 290/54/15 302/244/15 317/55/15
f 299/246/16 296/238/16 253/237/16
f 299/246/16 253/237/16 257/247/16
f 300/56/16 299/246/16 257/247/16
f 300/56/16 257/247/16 209/57/16
f 317/55/88 297/240/88 301/248/88
f 317/55/16 301/248/16 300/56/16
f 190/44/16 322/46/16 317/55/16
f 207/218/16 187/47/16 190/44/16
f 208/249/16 207/218/16 190/44/16
f 190/44/88 317/55/88 300/56/88
f 209/57/16 208/249/16 190/44/16
f 321/40/4 322/39/4 335/58/4
f 190/60/10 187/34/10 188/36/10
f 210/62/17 216/250/17 189/63/17
f 279/64/17 282/251/17 280/65/17
f 321/66/17 319/252/17 311/67/17
f 324/59/4 335/58/4 337/33/4
f 228/69/18 231/32/18 337/33/18
f 228/70/10 190/60/10 189/61/10
f 191/75/19 189/63/19 216/253/19
f 191/75/19 216/253/19 218/254/19
f 319/252/19 321/66/19 324/30/19
f 323/255/19 319/252/19 324/30/19
f 324/30/19 191/75/19 218/254/19
f 284/71/19 280/256/19 282/251/19
f 324/30/19 218/254/19 284/71/19
f 285/72/19 323/255/19 324/30/19
f 284/71/19 282/251/19 285/72/19
f 349/36/10 350/34/10 353/60/10
f 365/32/10 363/29/10 351/37/10
f 353/44/20 380/46/20 396/45/20
f 350/47/21 377/55/21 380/46/21
f 348/73/22 375/104/22 377/55/22
f 367/69/23 396/45/23 393/33/23
f 378/59/4 391/31/4 393/33/4
f 349/22/24 376/68/24 374/26/24
f 367/70/10 351/37/10 352/61/10
f 351/75/25 378/30/25 379/66/25
f 363/29/26 391/31/26 378/30/26
f 379/40/4 378/59/4 396/58/4
f 352/63/27 379/66/27 376/68/27
f 376/38/4 379/40/4 380/39/4
f 374/42/4 376/38/4 377/41/4
f 363/29/28 365/32/28 393/33/28
f 347/35/10 348/105/10 350/34/10
f 222/76/2 223/17/2 326/77/2
f 326/77/3 327/18/3 330/5/3
f 229/78/1 333/13/1 381/14/1
f 338/4/3 345/4/3 346/4/3
f 344/4/7 341/4/7 338/4/7
f 328/4/1 334/4/1 333/13/1
f 370/81/7 394/10/7 395/11/7
f 392/5/3 390/5/3 395/11/3
f 346/4/3 345/4/3 383/4/3
f 383/4/2 384/4/2 388/4/2
f 381/14/1 382/4/1 397/4/1
f 360/6/5 357/6/5 358/15/5
f 361/15/6 358/15/6 364/5/6
f 368/82/7 370/81/7 371/9/7
f 227/1/1 229/78/1 355/79/1
f 233/15/8 234/6/8 238/83/8
f 233/15/9 236/84/9 224/16/9
f 219/82/2 220/5/2 223/17/2
f 229/78/1 222/12/1 325/80/1
f 355/79/1 381/14/1 394/80/1
f 360/4/10 238/4/10 235/4/10
f 240/4/10 359/4/10 360/4/10
f 372/8/10 362/15/10 361/15/10
f 345/4/4 338/4/4 341/4/4
f 341/4/4 384/4/4 383/4/4
f 372/8/10 366/8/10 371/9/10
f 373/9/7 371/9/7 395/11/7
f 339/15/4 327/18/4 332/18/4
f 226/16/10 224/16/10 236/84/10
f 385/15/4 386/15/4 399/5/4
f 326/77/4 331/77/4 332/18/4
f 390/5/4 399/5/4 400/11/4
f 223/17/2 225/17/2 331/77/2
f 224/16/10 226/16/10 225/17/10
f 226/4/3 332/4/3 331/4/3
f 226/4/3 237/84/3 340/15/3
f 237/84/3 238/83/3 341/6/3
f 360/4/3 384/4/3 341/6/3
f 384/4/3 360/4/3 362/15/3
f 386/15/3 362/15/3 372/8/3
f 373/9/3 400/11/3 399/5/3
f 142/1/3 151/3/3 154/2/3
f 138/4/2 135/4/2 137/4/2
f 17/4/1 141/4/1 137/4/1
f 172/5/4 165/7/4 164/4/4
f 172/5/4 164/4/4 166/4/4
f 178/19/4 177/5/4 172/5/4
f 168/4/4 178/19/4 172/5/4
f 172/5/4 166/4/4 66/4/4
f 64/4/4 63/6/4 62/7/4
f 172/5/4 66/4/4 64/4/4
f 68/4/4 168/4/4 172/5/4
f 55/5/4 57/4/4 68/4/4
f 64/4/4 62/7/4 56/5/4
f 56/5/4 55/5/4 68/4/4
f 68/4/4 172/5/4 64/4/4
f 160/6/29 164/6/29 165/7/29
f 149/8/1 153/9/1 150/5/1
f 171/5/30 162/15/30 165/7/30
f 176/10/7 175/11/7 177/5/7
f 8/12/3 5/3/3 18/1/3
f 11/4/7 10/4/7 14/4/7
f 11/4/1 15/4/1 17/4/1
f 67/13/3 167/14/3 168/4/3
f 60/6/31 59/15/31 62/7/31
f 3/5/1 6/17/1 7/16/1
f 62/7/32 59/15/32 53/18/32
f 54/10/2 57/19/2 55/5/2
f 151/82/89 142/1/89 18/1/89
f 18/1/10 5/3/10 3/5/10
f 4/5/10 9/15/10 10/6/10
f 18/1/10 3/5/10 4/5/10
f 150/5/10 151/82/10 18/1/10
f 135/6/10 136/15/10 146/5/10
f 146/5/10 150/5/10 18/1/10
f 18/1/10 4/5/10 10/6/10
f 18/1/10 10/6/10 11/4/10
f 137/4/10 135/6/10 146/5/10
f 18/1/10 11/4/10 16/4/10
f 16/4/10 137/4/10 146/5/10
f 27/22/33 38/99/33 201/20/33
f 97/85/33 270/216/33 251/86/33
f 134/68/33 316/26/33 314/88/33
f 22/29/34 71/31/34 109/30/34
f 21/32/35 70/33/35 71/31/35
f 186/35/10 185/105/10 26/34/10
f 25/37/10 19/70/10 21/32/10
f 106/39/4 133/41/4 134/38/4
f 133/41/4 312/43/4 316/42/4
f 23/44/36 106/46/36 69/45/36
f 26/47/37 185/73/37 192/257/37
f 26/47/37 192/257/37 45/258/37
f 35/259/37 36/260/37 26/47/37
f 32/261/37 35/259/37 26/47/37
f 26/47/37 45/258/37 44/262/37
f 26/47/37 44/262/37 46/263/37
f 33/91/37 32/261/37 26/47/37
f 26/47/37 46/263/37 34/90/37
f 241/225/37 263/264/37 100/265/37
f 241/225/37 100/265/37 99/266/37
f 89/267/37 241/225/37 99/266/37
f 89/267/37 99/266/37 98/268/37
f 88/269/37 89/267/37 98/268/37
f 88/269/37 98/268/37 94/270/37
f 87/271/37 88/269/37 94/270/37
f 87/271/37 94/270/37 93/272/37
f 81/273/37 87/271/37 93/272/37
f 81/273/37 93/272/37 111/274/37
f 80/275/37 81/273/37 111/274/37
f 112/92/37 113/276/37 37/277/37
f 80/275/37 111/274/37 112/92/37
f 79/94/37 80/275/37 112/92/37
f 112/92/37 37/277/37 78/93/37
f 129/278/37 286/279/37 312/104/37
f 133/55/37 114/280/37 115/281/37
f 133/55/37 115/281/37 116/282/37
f 129/278/37 312/104/37 133/55/37
f 128/283/37 129/278/37 133/55/37
f 133/55/37 116/282/37 117/284/37
f 133/55/37 117/284/37 118/95/37
f 127/96/37 128/283/37 133/55/37
f 106/46/38 23/44/38 26/47/38
f 26/47/38 36/285/38 31/97/38
f 31/97/38 37/277/38 113/276/38
f 110/98/38 114/280/38 133/55/38
f 31/97/38 113/276/38 110/98/38
f 106/46/38 26/47/38 31/97/38
f 110/98/38 133/55/38 106/46/38
f 69/58/4 106/39/4 107/40/4
f 23/60/10 24/61/10 27/36/10
f 24/63/39 29/286/39 38/99/39
f 73/100/39 75/287/39 97/85/39
f 107/66/39 134/68/39 126/89/39
f 70/33/4 69/58/4 109/59/4
f 19/69/40 69/45/40 70/33/40
f 24/61/10 23/60/10 19/70/10
f 109/30/41 107/66/41 105/288/41
f 109/30/41 105/288/41 108/289/41
f 24/63/41 25/75/41 109/30/41
f 30/290/41 29/286/41 24/63/41
f 75/287/41 73/100/41 76/103/41
f 30/290/41 24/63/41 109/30/41
f 77/102/41 75/287/41 76/103/41
f 76/103/41 30/290/41 109/30/41
f 109/30/41 108/289/41 77/102/41
f 158/36/10 156/61/10 157/60/10
f 155/37/10 148/29/10 147/32/10
f 157/44/42 152/69/42 179/45/42
f 159/47/43 157/44/43 182/46/43
f 348/73/44 159/47/44 184/55/44
f 152/69/45 147/32/45 173/33/45
f 173/33/4 174/31/4 180/59/4
f 158/22/46 347/74/46 374/26/46
f 156/61/10 155/37/10 152/70/10
f 155/75/47 156/63/47 181/66/47
f 148/29/48 155/75/48 180/30/48
f 179/58/4 180/59/4 181/40/4
f 156/63/49 158/22/49 183/68/49
f 182/39/4 181/40/4 183/38/4
f 184/41/4 183/38/4 374/42/4
f 147/32/50 148/29/50 174/31/50
f 347/35/10 158/36/10 159/34/10
f 8/76/2 54/10/2 52/77/2
f 52/77/1 55/5/1 56/5/1
f 20/78/3 143/79/3 167/14/3
f 61/4/1 64/4/1 66/4/1
f 61/4/7 60/4/7 63/4/7
f 57/4/3 54/80/3 67/13/3
f 154/81/7 153/9/7 175/11/7
f 172/5/1 177/5/1 175/11/1
f 66/4/1 166/4/1 163/4/1
f 164/4/2 160/4/2 163/4/2
f 167/14/3 176/80/3 178/4/3
f 136/15/29 135/6/29 138/6/29
f 146/5/30 136/15/30 140/15/30
f 151/82/7 150/5/7 153/9/7
f 20/78/3 18/1/3 142/1/3
f 14/83/31 10/6/31 9/15/31
f 9/15/32 4/5/32 7/16/32
f 5/82/2 8/76/2 6/17/2
f 20/78/3 67/13/3 54/80/3
f 143/79/3 154/2/3 176/80/3
f 15/4/10 14/4/10 138/4/10
f 138/4/10 141/4/10 17/4/10
f 140/15/10 139/15/10 144/8/10
f 160/4/4 60/4/4 61/4/4
f 65/4/4 163/4/4 160/4/4
f 144/8/10 145/9/10 153/9/10
f 145/9/7 170/11/7 175/11/7
f 51/18/4 53/18/4 59/15/4
f 2/16/10 12/84/10 13/84/10
f 162/15/4 171/5/4 169/5/4
f 51/18/4 50/77/4 52/77/4
f 171/5/4 175/11/4 170/11/4
f 6/17/2 52/77/2 50/77/2
f 1/17/10 2/16/10 7/16/10
f 2/4/1 1/4/1 50/4/1
f 2/4/1 51/4/1 58/15/1
f 12/84/1 58/15/1 60/6/1
f 138/4/1 14/4/1 60/6/1
f 139/15/1 138/4/1 160/4/1
f 139/15/1 161/15/1 169/5/1
f 145/9/1 144/8/1 169/5/1
f 319/291/51 323/110/51 320/106/51
f 320/106/51 313/292/51 315/107/51
f 311/108/51 319/291/51 320/106/51
f 285/109/1 283/112/1 320/106/1
f 279/293/52 269/294/52 268/111/52
f 283/112/52 285/109/52 282/113/52
f 282/113/52 279/293/52 268/111/52
f 268/111/53 269/295/53 270/296/53
f 268/111/53 270/296/53 97/297/53
f 75/115/53 77/298/53 74/114/53
f 268/111/53 97/297/53 75/115/53
f 307/299/7 308/119/7 283/121/7
f 320/120/7 305/300/7 310/301/7
f 320/120/7 310/301/7 309/302/7
f 306/303/7 307/299/7 283/121/7
f 304/304/7 306/303/7 283/121/7
f 313/305/7 320/120/7 309/302/7
f 313/305/7 309/302/7 294/306/7
f 278/307/7 304/304/7 283/121/7
f 277/308/7 278/307/7 283/121/7
f 313/305/7 294/306/7 293/309/7
f 313/305/7 293/309/7 292/310/7
f 277/308/7 283/121/7 268/311/7
f 274/312/7 277/308/7 268/311/7
f 313/305/7 292/310/7 291/313/7
f 313/305/7 291/313/7 132/314/7
f 273/315/7 274/312/7 268/311/7
f 272/316/7 273/315/7 268/311/7
f 104/317/7 313/305/7 132/314/7
f 104/317/7 132/314/7 131/318/7
f 271/319/7 272/316/7 268/311/7
f 103/320/7 271/319/7 268/311/7
f 104/317/7 131/318/7 130/321/7
f 104/317/7 130/321/7 125/322/7
f 103/320/7 268/311/7 74/118/7
f 102/323/7 103/320/7 74/118/7
f 104/317/7 125/322/7 124/324/7
f 104/317/7 124/324/7 123/325/7
f 101/326/7 102/323/7 74/118/7
f 96/327/7 101/326/7 74/118/7
f 74/118/7 104/317/7 123/325/7
f 74/118/7 123/325/7 122/328/7
f 95/329/7 96/327/7 74/118/7
f 120/330/7 95/329/7 74/118/7
f 74/118/7 122/328/7 119/116/7
f 121/117/7 120/330/7 74/118/7
f 308/119/7 305/300/7 320/120/7
f 74/114/3 77/298/3 108/122/3
f 104/123/54 108/331/54 105/332/54
f 104/123/54 105/332/54 126/333/54
f 314/125/54 315/334/54 313/124/54
f 104/123/54 126/333/54 314/125/54
f 281/106/51 250/292/51 252/107/51
f 281/106/51 252/107/51 262/108/51
f 280/126/51 284/110/51 281/106/51
f 218/109/1 217/112/1 281/106/1
f 210/335/52 200/294/52 197/111/52
f 217/112/52 218/109/52 216/127/52
f 216/127/52 210/335/52 197/111/52
f 197/111/53 200/295/53 201/336/53
f 197/111/53 201/336/53 38/337/53
f 29/128/53 30/298/53 28/114/53
f 197/111/53 38/337/53 29/128/53
f 261/338/7 258/132/7 281/120/7
f 250/305/7 259/131/7 260/339/7
f 250/305/7 260/339/7 249/340/7
f 261/338/7 281/120/7 217/121/7
f 215/299/7 261/338/7 217/121/7
f 250/305/7 249/340/7 248/341/7
f 250/305/7 248/341/7 247/342/7
f 214/343/7 215/299/7 217/121/7
f 213/344/7 214/343/7 217/121/7
f 250/305/7 247/342/7 246/345/7
f 250/305/7 246/345/7 92/346/7
f 212/347/7 213/344/7 217/121/7
f 211/348/7 212/347/7 217/121/7
f 72/317/7 250/305/7 92/346/7
f 72/317/7 92/346/7 91/349/7
f 211/348/7 217/121/7 197/311/7
f 203/350/7 211/348/7 197/311/7
f 72/317/7 91/349/7 90/351/7
f 72/317/7 90/351/7 85/352/7
f 202/353/7 203/350/7 197/311/7
f 199/354/7 202/353/7 197/311/7
f 72/317/7 85/352/7 84/355/7
f 72/317/7 84/355/7 83/356/7
f 198/357/7 199/354/7 197/311/7
f 48/358/7 198/357/7 197/311/7
f 28/118/7 72/317/7 83/356/7
f 28/118/7 83/356/7 82/359/7
f 48/358/7 197/311/7 28/118/7
f 47/360/7 48/358/7 28/118/7
f 28/118/7 82/359/7 39/361/7
f 28/118/7 39/361/7 43/362/7
f 49/363/7 47/360/7 28/118/7
f 42/364/7 49/363/7 28/118/7
f 28/118/7 43/362/7 40/129/7
f 41/130/7 42/364/7 28/118/7
f 259/131/7 250/305/7 281/120/7
f 28/114/3 30/298/3 76/122/3
f 72/123/54 76/331/54 73/365/54
f 72/123/54 73/365/54 86/366/54
f 251/133/54 252/334/54 250/124/54
f 72/123/54 86/366/54 251/133/54
f 288/134/55 287/367/55 291/135/55
f 289/137/56 288/368/56 292/138/56
f 290/140/57 289/137/57 293/141/57
f 294/143/58 309/209/58 302/144/58
f 303/145/59 302/369/59 309/146/59
f 298/148/60 303/145/60 310/149/60
f 297/152/61 298/148/61 305/150/61
f 305/150/61 308/153/61 301/151/61
f 308/153/62 307/370/62 300/154/62
f 300/155/63 307/370/63 306/156/63
f 296/159/64 299/157/64 306/156/64
f 306/156/64 304/371/64 295/158/64
f 295/158/65 304/371/65 278/160/65
f 276/161/66 278/160/66 277/162/66
f 274/164/67 267/167/67 275/165/67
f 273/166/68 266/169/68 267/167/68
f 272/168/69 265/171/69 266/169/69
f 271/170/70 264/372/70 265/171/70
f 271/170/71 103/373/71 100/172/71
f 100/172/90 263/374/90 264/173/90
f 99/174/72 100/172/72 103/175/72
f 98/177/73 99/174/73 102/176/73
f 94/179/74 98/375/74 101/178/74
f 93/181/75 94/179/75 96/180/75
f 111/183/76 93/376/76 95/182/76
f 112/185/77 111/183/77 120/184/77
f 113/188/78 112/185/78 121/186/78
f 121/186/78 119/189/78 110/187/78
f 114/191/79 110/377/79 119/189/79
f 119/189/79 122/378/79 115/190/79
f 115/190/80 122/378/80 123/192/80
f 116/193/81 123/192/81 124/194/81
f 117/196/82 124/379/82 125/197/82
f 130/199/83 127/214/83 118/198/83
f 131/201/84 128/204/84 127/202/84
f 132/203/85 129/380/85 128/204/85
f 286/208/86 129/380/86 132/206/86
f 132/206/86 291/381/86 287/207/86
f 243/134/55 242/367/55 246/135/55
f 244/137/56 243/368/56 247/138/56
f 245/140/57 244/137/57 248/141/57
f 256/144/58 245/140/58 249/143/58
f 255/145/59 256/369/59 260/146/59
f 254/148/60 255/145/60 259/149/60
f 253/210/61 254/148/61 258/150/61
f 258/150/61 261/153/61 257/151/61
f 261/153/62 215/370/62 209/154/62
f 209/155/63 215/370/63 214/156/63
f 207/211/64 208/157/64 214/156/64
f 214/156/64 213/371/64 206/158/64
f 206/158/65 213/371/65 212/160/65
f 205/161/66 212/160/66 211/162/66
f 203/164/67 196/167/67 204/165/67
f 202/166/68 195/169/68 196/167/68
f 199/168/69 194/171/69 195/169/69
f 198/170/70 193/372/70 194/171/70
f 198/170/71 48/175/71 45/172/71
f 45/172/90 192/374/90 193/173/90
f 44/174/72 45/172/72 48/175/72
f 46/177/73 44/174/73 47/176/73
f 34/179/74 46/375/74 49/178/74
f 33/181/75 34/179/75 42/180/75
f 32/183/76 33/376/76 41/182/76
f 35/185/77 32/183/77 40/184/77
f 36/212/78 35/185/78 43/186/78
f 43/186/78 39/189/78 31/187/78
f 37/213/79 31/377/79 39/189/79
f 39/189/79 82/378/79 78/190/79
f 78/190/80 82/378/80 83/192/80
f 79/193/81 83/192/81 84/194/81
f 80/196/82 84/379/82 85/197/82
f 81/198/83 85/200/83 90/199/83
f 91/201/84 88/204/84 87/202/84
f 92/203/85 89/380/85 88/204/85
f 241/215/86 89/380/86 92/206/86
f 92/206/86 246/381/86 242/207/86
