# Blender 5.1.2
# www.blender.org
o Cube.007
v 130.012756 186.299988 30.768547
v 130.012756 188.299988 30.768547
v 132.012756 186.299988 30.768547
v 132.012756 188.299988 30.768547
v 130.012756 192.199982 30.768547
v 132.012756 192.199982 30.768547
v 132.012756 192.199982 35.668552
v 132.112854 192.199982 35.668552
v 132.012756 192.287704 35.668552
v 132.112854 192.287704 35.668552
v 133.500015 186.299988 30.768547
v 133.500015 188.299988 30.768547
v 133.500015 192.199982 30.768547
v 133.500015 192.199982 35.668552
v 134.512878 192.199982 35.668552
v 134.512878 192.287704 35.668552
v 132.012756 192.287704 38.468552
v 132.112854 192.287704 38.468552
v 132.012756 192.287704 39.768555
v 132.112854 192.287704 39.768555
v 134.512878 192.199982 38.468552
v 134.512878 192.287704 38.468552
v 134.512878 192.199982 39.768555
v 134.512878 192.287704 39.768555
v 132.012756 196.299988 35.668552
v 132.112854 196.299988 35.668552
v 132.012756 198.299988 35.668552
v 132.112854 198.299988 35.668552
v 134.512878 196.299988 35.668552
v 134.512878 198.299988 35.668552
v 132.112854 193.596573 42.007889
v 132.112854 194.019318 41.660950
v 132.112854 194.501633 41.403149
v 132.112854 195.024979 41.244396
v 132.112854 195.218246 42.230198
v 132.112854 195.569229 41.190788
v 132.112854 195.569229 42.195629
v 132.012756 196.299988 38.468552
v 132.112854 196.299988 38.468552
v 132.012756 198.299988 38.468552
v 132.112854 198.299988 38.468552
v 132.112854 198.299988 41.268551
v 134.512878 193.596573 42.007889
v 134.512878 194.019318 41.660950
v 134.512878 194.501633 41.403149
v 134.512878 195.024979 41.244396
v 134.512878 195.218246 42.230198
v 134.512878 195.569229 41.190788
v 134.512878 195.569229 42.195629
v 134.512878 196.299988 38.468552
v 134.512878 198.299988 38.468552
v 134.512878 198.299988 41.268551
v 137.813660 189.693375 37.188274
v 137.813660 192.199982 37.188274
v 137.813660 189.693375 40.304913
v 137.813660 192.199982 40.304913
v 139.182404 188.299988 37.857681
v 139.034546 188.299988 38.134300
v 138.943497 188.299988 38.434448
v 138.912750 188.299988 38.746593
v 138.943497 188.299988 39.058739
v 139.034546 188.299988 39.358887
v 139.381378 188.299988 37.615223
v 139.623840 188.299988 37.416241
v 140.200607 188.299988 37.177338
v 139.900452 188.299988 37.268387
v 139.182404 188.299988 39.635506
v 139.381378 188.299988 39.877964
v 139.623840 188.299988 40.076942
v 139.900452 188.299988 40.224800
v 140.200607 188.299988 40.315849
v 139.182404 189.693375 37.857681
v 139.034546 189.693375 38.134300
v 138.943497 189.693375 38.434448
v 138.912750 189.693375 38.746593
v 138.943497 189.693375 39.058739
v 139.034546 189.693375 39.358887
v 139.381378 189.693375 37.615223
v 139.623840 189.693375 37.416241
v 140.200607 189.693375 37.177338
v 139.900452 189.693375 37.268387
v 139.182404 189.693375 39.635506
v 139.381378 189.693375 39.877964
v 139.623840 189.693375 40.076942
v 139.900452 189.693375 40.224800
v 140.200607 189.693375 40.315849
v 132.012756 192.287704 42.768551
v 132.112854 192.287704 42.768551
v 132.112854 192.833084 43.436287
v 132.112854 192.779480 43.980541
v 132.112854 192.833084 44.524796
v 132.012756 192.287704 45.768551
v 132.112854 192.287704 45.768551
v 132.012756 192.287704 46.768555
v 132.112854 192.287704 46.768555
v 134.512878 192.199982 42.768551
v 134.512878 192.287704 42.768551
v 134.512878 192.833084 43.436287
v 134.512878 192.779480 43.980541
v 134.512878 192.833084 44.524796
v 134.512878 192.199982 45.768551
v 134.512878 192.287704 45.768551
v 134.512878 192.199982 46.768555
v 134.512878 192.287704 46.768555
v 130.012756 186.299988 53.768547
v 130.012756 188.299988 53.768547
v 132.012756 186.299988 53.768547
v 132.012756 188.299988 53.768547
v 132.012756 192.199982 49.568554
v 132.112854 192.199982 49.568554
v 132.012756 192.287704 49.568554
v 132.112854 192.287704 49.568554
v 130.012756 192.199982 53.768547
v 132.012756 192.199982 53.768547
v 133.500015 186.299988 53.768547
v 133.500015 188.299988 53.768547
v 133.500015 192.199982 49.568550
v 134.512878 192.199982 49.568550
v 134.512878 192.287704 49.568550
v 133.500015 192.199982 53.768547
v 132.112854 193.249634 42.430637
v 132.112854 192.991837 42.912949
v 132.112854 194.297058 42.722584
v 132.112854 194.073303 42.995216
v 132.112854 193.907043 43.306263
v 132.112854 193.804672 43.643761
v 132.112854 192.991837 45.048134
v 132.112854 193.770096 43.994759
v 132.112854 193.804672 44.345757
v 132.112854 193.907043 44.683258
v 132.112854 194.073303 44.994301
v 132.112854 194.569687 42.498840
v 132.112854 194.880737 42.332581
v 132.112854 193.249634 45.530449
v 132.112854 193.596573 45.953197
v 132.112854 194.297058 45.266937
v 132.112854 194.019318 46.300133
v 132.112854 194.569687 45.490681
v 132.112854 194.880737 45.656937
v 132.112854 195.218246 45.759319
v 132.112854 194.501633 46.557938
v 132.112854 195.569229 45.793892
v 132.112854 195.016769 46.699497
v 132.112854 195.536377 46.761005
v 132.112854 198.299988 42.268551
v 132.112854 198.299988 44.768555
v 132.112854 196.332840 45.801441
v 132.012756 196.299988 46.768555
v 132.112854 196.299988 46.768555
v 132.012756 198.299988 46.768555
v 132.112854 198.299988 46.768555
v 134.512878 193.249634 42.430637
v 134.512878 192.991837 42.912949
v 134.512878 194.297058 42.722584
v 134.512878 194.073303 42.995216
v 134.512878 193.907043 43.306263
v 134.512878 193.804672 43.643761
v 134.512878 192.991837 45.048134
v 134.512878 193.770096 43.994759
v 134.512878 193.804672 44.345757
v 134.512878 193.907043 44.683258
v 134.512878 194.073303 44.994301
v 134.512878 194.569687 42.498840
v 134.512878 194.880737 42.332581
v 134.512878 193.249634 45.530445
v 134.512878 193.596573 45.953197
v 134.512878 194.297058 45.266937
v 134.512878 194.019318 46.300133
v 134.512878 194.569687 45.490677
v 134.512878 194.880737 45.656937
v 134.512878 195.218246 45.759319
v 134.512878 194.501633 46.557938
v 134.512878 195.569229 45.793892
v 134.512878 195.016769 46.699493
v 134.512878 195.536377 46.761002
v 134.512878 198.299988 42.268551
v 134.512878 198.299988 44.768551
v 134.512878 196.332840 45.801441
v 134.512878 196.299988 46.768555
v 134.512878 198.299988 46.768555
v 132.012756 196.299988 49.568554
v 132.112854 196.299988 49.568554
v 132.012756 198.299988 49.568554
v 132.112854 198.299988 49.568554
v 134.512878 196.299988 49.568550
v 134.512878 198.299988 49.568550
v 137.813660 189.693375 45.188274
v 137.813660 192.199982 45.188274
v 139.182404 188.299988 45.857677
v 139.034546 188.299988 46.134296
v 138.943497 188.299988 46.434448
v 138.912750 188.299988 46.746590
v 138.943497 188.299988 47.058735
v 139.034546 188.299988 47.358883
v 139.182404 188.299988 47.635502
v 139.381378 188.299988 45.615219
v 139.623840 188.299988 45.416241
v 139.900452 188.299988 45.268383
v 140.200607 188.299988 45.177334
v 139.381378 188.299988 47.877960
v 139.182404 189.693375 45.857677
v 139.034546 189.693375 46.134296
v 138.943497 189.693375 46.434448
v 138.912750 189.693375 46.746590
v 138.943497 189.693375 47.058735
v 139.034546 189.693375 47.358883
v 139.182404 189.693375 47.635502
v 139.381378 189.693375 45.615219
v 139.623840 189.693375 45.416241
v 139.900452 189.693375 45.268383
v 140.200607 189.693375 45.177334
v 139.381378 189.693375 47.877960
v 137.813660 189.693375 48.304909
v 137.813660 192.199982 48.304909
v 139.623840 188.299988 48.076942
v 139.900452 188.299988 48.224800
v 140.200607 188.299988 48.315849
v 139.623840 189.693375 48.076942
v 139.900452 189.693375 48.224800
v 140.200607 189.693375 48.315849
v 132.012756 203.899994 35.668552
v 132.112854 203.899994 35.668552
v 132.012756 204.173126 35.695454
v 132.112854 204.173126 35.695454
v 132.012756 204.435760 35.775120
v 132.112854 204.435760 35.775120
v 132.012756 204.677795 35.904495
v 132.112854 204.677795 35.904495
v 132.012756 204.889954 36.078602
v 132.112854 204.889954 36.078602
v 132.012756 205.064056 36.290752
v 132.112854 205.064056 36.290752
v 134.512878 203.899994 35.668552
v 134.512878 204.173126 35.695454
v 134.512878 204.435760 35.775120
v 134.512878 204.677795 35.904495
v 134.512878 204.889954 36.078602
v 134.512878 205.064056 36.290752
v 132.112854 202.229660 41.268551
v 132.012756 203.899994 38.468552
v 132.112854 203.899994 38.468552
v 132.012756 204.173126 38.441650
v 132.112854 204.173126 38.441650
v 132.012756 205.064056 37.846352
v 132.112854 205.064056 37.846352
v 132.012756 205.193436 36.532795
v 132.112854 205.193436 36.532795
v 132.012756 205.273102 36.795425
v 132.112854 205.273102 36.795425
v 132.012756 205.299988 37.068554
v 132.112854 205.299988 37.068554
v 132.012756 205.273102 37.341679
v 132.112854 205.273102 37.341679
v 132.012756 205.193436 37.604309
v 132.112854 205.193436 37.604309
v 132.012756 204.677795 38.232609
v 132.112854 204.677795 38.232609
v 132.012756 204.435760 38.361984
v 132.112854 204.435760 38.361984
v 132.012756 204.889954 38.058502
v 132.112854 204.889954 38.058502
v 134.512878 202.229660 41.268551
v 134.512878 203.899994 38.468552
v 134.512878 204.173126 38.441650
v 134.512878 205.064056 37.846352
v 134.512878 205.193436 36.532795
v 134.512878 205.273102 36.795425
v 134.512878 205.299988 37.068554
v 134.512878 205.273102 37.341679
v 134.512878 205.193436 37.604309
v 134.512878 204.677795 38.232609
v 134.512878 204.435760 38.361984
v 134.512878 204.889954 38.058502
v 130.012756 206.299988 30.768547
v 132.012756 206.299988 30.768547
v 132.112854 206.530197 39.768551
v 132.112854 207.357483 39.850037
v 132.112854 206.530197 41.268551
v 132.112854 208.211960 40.069164
v 132.112854 208.960602 40.379776
v 132.112854 209.648956 40.682602
v 132.112854 209.523560 42.068996
v 132.112854 210.341034 41.044106
v 132.112854 211.057953 41.394463
v 132.112854 211.783859 41.653641
v 132.112854 212.530197 41.868553
v 134.512878 206.530197 39.768551
v 134.512878 207.357483 39.850037
v 134.512878 206.530197 41.268551
v 134.512878 208.211960 40.069164
v 134.512878 208.960602 40.379776
v 134.512878 209.648956 40.682598
v 134.512878 209.523560 42.068996
v 134.512878 210.341034 41.044106
v 134.512878 211.057953 41.394463
v 134.512878 211.783859 41.653641
v 134.512878 212.530197 41.868553
v 132.112854 202.229660 42.268551
v 132.112854 203.530197 42.268551
v 132.112854 204.172760 42.274918
v 132.112854 204.905212 42.293770
v 132.112854 205.699402 42.324387
v 132.012756 203.899994 46.768555
v 132.112854 203.899994 46.768555
v 132.012756 204.173126 46.795456
v 132.112854 204.173126 46.795456
v 132.012756 204.435760 46.875122
v 132.112854 204.435760 46.875122
v 132.012756 204.677795 47.004494
v 132.112854 204.677795 47.004494
v 132.012756 204.889954 47.178604
v 132.112854 204.889954 47.178604
v 132.012756 205.064056 47.390755
v 132.112854 205.064056 47.390755
v 132.012756 205.193436 47.632797
v 132.112854 205.193436 47.632797
v 132.012756 205.273102 47.895428
v 132.112854 205.273102 47.895428
v 134.512878 202.229660 42.268551
v 134.512878 203.530197 42.268551
v 134.512878 204.172760 42.274918
v 134.512878 204.905212 42.293770
v 134.512878 205.699402 42.324387
v 134.512878 203.899994 46.768555
v 134.512878 204.173126 46.795456
v 134.512878 204.435760 46.875122
v 134.512878 204.677795 47.004494
v 134.512878 204.889954 47.178604
v 134.512878 205.064056 47.390755
v 134.512878 205.193436 47.632797
v 134.512878 205.273102 47.895428
v 132.012756 203.899994 49.568554
v 132.112854 203.899994 49.568554
v 132.012756 204.173126 49.541653
v 132.112854 204.173126 49.541653
v 132.012756 204.677795 49.332611
v 132.112854 204.677795 49.332611
v 132.012756 205.064056 48.946350
v 132.112854 205.064056 48.946350
v 132.012756 204.889954 49.158501
v 132.112854 204.889954 49.158501
v 132.012756 205.299988 48.168552
v 132.112854 205.299988 48.168552
v 132.012756 205.273102 48.441681
v 132.112854 205.273102 48.441681
v 132.012756 205.193436 48.704308
v 132.112854 205.193436 48.704308
v 132.012756 204.435760 49.461983
v 132.112854 204.435760 49.461983
v 134.512878 203.899994 49.568550
v 134.512878 204.173126 49.541649
v 134.512878 204.677795 49.332611
v 134.512878 205.064056 48.946350
v 134.512878 204.889954 49.158501
v 134.512878 205.299988 48.168552
v 134.512878 205.273102 48.441681
v 134.512878 205.193436 48.704308
v 134.512878 204.435760 49.461983
v 132.112854 206.524826 42.365585
v 132.112854 207.349747 42.415791
v 132.112854 208.142456 42.473064
v 132.112854 208.872513 42.535213
v 132.112854 209.511856 42.599846
v 132.112854 211.030197 42.768551
v 134.512878 206.524826 42.365585
v 134.512878 207.349747 42.415791
v 134.512878 208.142456 42.473064
v 134.512878 208.872513 42.535213
v 134.512878 209.511856 42.599846
v 134.512878 211.030197 42.768551
v 130.012756 206.299988 53.768547
v 132.012756 206.299988 53.768547
v 140.500015 188.299988 30.768547
v 140.500015 192.199982 30.768547
v 140.512756 189.693375 35.629955
v 140.500015 192.199982 35.637310
v 140.512756 192.199982 35.629955
v 140.512756 188.299988 37.146591
v 140.500015 188.299988 37.147846
v 140.824890 188.299988 37.177338
v 141.125046 188.299988 37.268387
v 141.401657 188.299988 37.416241
v 141.644119 188.299988 37.615223
v 141.843094 188.299988 37.857681
v 141.990952 188.299988 38.134300
v 142.082001 188.299988 38.434448
v 142.112747 188.299988 38.746593
v 142.082001 188.299988 39.058739
v 141.990952 188.299988 39.358887
v 140.500015 188.299988 40.345337
v 140.512756 188.299988 40.346592
v 140.824890 188.299988 40.315849
v 141.125046 188.299988 40.224800
v 141.401657 188.299988 40.076942
v 141.644119 188.299988 39.877964
v 141.843094 188.299988 39.635506
v 140.512756 189.693375 37.146591
v 140.824890 189.693375 37.177338
v 141.125046 189.693375 37.268387
v 141.401657 189.693375 37.416241
v 141.644119 189.693375 37.615223
v 141.843094 189.693375 37.857681
v 141.990952 189.693375 38.134300
v 142.082001 189.693375 38.434448
v 142.112747 189.693375 38.746593
v 142.082001 189.693375 39.058739
v 141.990952 189.693375 39.358887
v 140.512756 189.693375 40.346592
v 140.824890 189.693375 40.315849
v 141.125046 189.693375 40.224800
v 141.401657 189.693375 40.076942
v 141.644119 189.693375 39.877964
v 140.512756 189.693375 41.863228
v 140.500015 192.199982 41.855877
v 140.512756 192.199982 41.863228
v 141.843094 189.693375 39.635506
v 143.211838 189.693375 37.188274
v 143.211838 192.199982 37.188274
v 143.211838 189.693375 40.304913
v 143.211838 192.199982 40.304913
v 147.500015 186.299988 30.768547
v 147.500015 188.299988 30.768547
v 147.500015 192.199982 30.768547
v 146.487152 192.199982 35.668552
v 146.487152 192.287704 35.668552
v 147.500015 192.199982 35.668552
v 148.987274 186.299988 30.768547
v 148.987274 188.299988 30.768547
v 150.987274 186.299988 30.768547
v 150.987274 188.299988 30.768547
v 148.987274 192.199982 30.768547
v 150.987274 192.199982 30.768547
v 148.887177 192.199982 35.668552
v 148.987274 192.199982 35.668552
v 148.887177 192.287704 35.668552
v 148.987274 192.287704 35.668552
v 146.487152 192.199982 38.468552
v 146.487152 192.287704 38.468552
v 146.487152 192.199982 39.768551
v 146.487152 192.287704 39.768551
v 148.887177 192.287704 38.468552
v 148.987274 192.287704 38.468552
v 148.887177 192.287704 39.768551
v 148.987274 192.287704 39.768551
v 146.487152 196.299988 35.668552
v 146.487152 198.299988 35.668552
v 148.887177 196.299988 35.668552
v 148.987274 196.299988 35.668552
v 148.887177 198.299988 35.668552
v 148.987274 198.299988 35.668552
v 146.487152 193.596573 42.007889
v 146.487152 194.019318 41.660950
v 146.487152 194.501633 41.403149
v 146.487152 195.024979 41.244396
v 146.487152 195.218246 42.230198
v 146.487152 195.569229 41.190788
v 146.487152 195.569229 42.195625
v 146.487152 196.299988 38.468552
v 146.487152 198.299988 38.468552
v 146.487152 198.299988 41.268551
v 148.887177 193.596573 42.007889
v 148.887177 194.019318 41.660950
v 148.887177 194.501633 41.403149
v 148.887177 195.024979 41.244396
v 148.887177 195.218246 42.230198
v 148.887177 195.569229 41.190788
v 148.887177 195.569229 42.195625
v 148.887177 196.299988 38.468552
v 148.987274 196.299988 38.468552
v 148.887177 198.299988 38.468552
v 148.987274 198.299988 38.468552
v 148.887177 198.299988 41.268551
v 140.500015 188.299988 45.147846
v 140.512756 188.299988 45.146591
v 140.824890 188.299988 45.177334
v 141.125046 188.299988 45.268383
v 141.401657 188.299988 45.416241
v 141.644119 188.299988 45.615219
v 141.644119 188.299988 47.877960
v 141.843094 188.299988 45.857677
v 141.990952 188.299988 46.134296
v 142.082001 188.299988 46.434448
v 142.112747 188.299988 46.746590
v 142.082001 188.299988 47.058735
v 141.843094 188.299988 47.635502
v 141.990952 188.299988 47.358883
v 140.512756 189.693375 43.629955
v 140.500015 192.199982 43.637306
v 140.512756 192.199982 43.629955
v 140.512756 189.693375 45.146591
v 140.824890 189.693375 45.177334
v 141.125046 189.693375 45.268383
v 141.401657 189.693375 45.416241
v 141.644119 189.693375 45.615219
v 141.644119 189.693375 47.877960
v 141.843094 189.693375 45.857677
v 141.990952 189.693375 46.134296
v 142.082001 189.693375 46.434448
v 142.112747 189.693375 46.746590
v 142.082001 189.693375 47.058735
v 141.843094 189.693375 47.635502
v 141.990952 189.693375 47.358883
v 143.211838 189.693375 45.188274
v 143.211838 192.199982 45.188274
v 140.500015 188.299988 48.345337
v 140.512756 188.299988 48.346592
v 140.824890 188.299988 48.315849
v 141.125046 188.299988 48.224800
v 141.401657 188.299988 48.076942
v 140.500015 188.299988 53.768547
v 140.512756 189.693375 48.346592
v 140.824890 189.693375 48.315849
v 141.125046 189.693375 48.224800
v 141.401657 189.693375 48.076942
v 140.512756 189.693375 49.863228
v 140.500015 192.199982 49.855873
v 140.512756 192.199982 49.863228
v 140.500015 192.199982 53.768547
v 143.211838 189.693375 48.304909
v 143.211838 192.199982 48.304909
v 146.487152 192.199982 42.768551
v 146.487152 192.287704 42.768551
v 146.487152 192.833084 43.436287
v 146.487152 192.779480 43.980541
v 146.487152 192.833084 44.524796
v 146.487152 192.199982 45.768551
v 146.487152 192.287704 45.768551
v 146.487152 192.199982 46.768551
v 146.487152 192.287704 46.768551
v 148.887177 192.287704 42.768551
v 148.987274 192.287704 42.768551
v 148.887177 192.833084 43.436287
v 148.887177 192.779480 43.980541
v 148.887177 192.833084 44.524796
v 148.887177 192.287704 45.768551
v 148.987274 192.287704 45.768551
v 148.887177 192.287704 46.768551
v 148.987274 192.287704 46.768551
v 147.500015 186.299988 53.768547
v 147.500015 188.299988 53.768547
v 146.487152 192.199982 49.568550
v 146.487152 192.287704 49.568550
v 147.500015 192.199982 49.568550
v 147.500015 192.199982 53.768547
v 148.987274 186.299988 53.768547
v 148.987274 188.299988 53.768547
v 150.987274 186.299988 53.768547
v 150.987274 188.299988 53.768547
v 148.887177 192.199982 49.568550
v 148.987274 192.199982 49.568550
v 148.887177 192.287704 49.568550
v 148.987274 192.287704 49.568550
v 148.987274 192.199982 53.768547
v 150.987274 192.199982 53.768547
v 146.487152 193.249634 42.430637
v 146.487152 192.991837 42.912949
v 146.487152 194.297058 42.722580
v 146.487152 194.073303 42.995216
v 146.487152 193.907043 43.306259
v 146.487152 193.804672 43.643761
v 146.487152 192.991837 45.048134
v 146.487152 193.770096 43.994759
v 146.487152 193.804672 44.345757
v 146.487152 193.907043 44.683258
v 146.487152 194.073303 44.994301
v 146.487152 194.569687 42.498840
v 146.487152 194.880737 42.332581
v 146.487152 193.249634 45.530445
v 146.487152 193.596573 45.953197
v 146.487152 194.297058 45.266937
v 146.487152 194.019318 46.300133
v 146.487152 194.569687 45.490677
v 146.487152 194.880737 45.656937
v 146.487152 195.218246 45.759319
v 146.487152 194.501633 46.557938
v 146.487152 195.569229 45.793892
v 146.487152 195.016769 46.699493
v 146.487152 195.536377 46.761002
v 146.487152 198.299988 42.268551
v 146.487152 198.299988 44.768551
v 146.487152 196.332840 45.801441
v 146.487152 196.299988 46.768551
v 146.487152 198.299988 46.768551
v 148.887177 193.249634 42.430637
v 148.887177 192.991837 42.912949
v 148.887177 194.297058 42.722580
v 148.887177 194.073303 42.995216
v 148.887177 193.907043 43.306259
v 148.887177 193.804672 43.643761
v 148.887177 192.991837 45.048134
v 148.887177 193.770096 43.994759
v 148.887177 193.804672 44.345757
v 148.887177 193.907043 44.683258
v 148.887177 194.073303 44.994301
v 148.887177 194.569687 42.498840
v 148.887177 194.880737 42.332581
v 148.887177 193.249634 45.530445
v 148.887177 193.596573 45.953197
v 148.887177 194.297058 45.266937
v 148.887177 194.019318 46.300133
v 148.887177 194.569687 45.490677
v 148.887177 194.880737 45.656937
v 148.887177 195.218246 45.759319
v 148.887177 194.501633 46.557938
v 148.887177 195.569229 45.793892
v 148.887177 195.016769 46.699493
v 148.887177 195.536377 46.761002
v 148.887177 198.299988 42.268551
v 148.887177 198.299988 44.768551
v 148.887177 196.332840 45.801437
v 148.887177 196.299988 46.768551
v 148.987274 196.299988 46.768551
v 148.887177 198.299988 46.768551
v 148.987274 198.299988 46.768551
v 146.487152 196.299988 49.568550
v 146.487152 198.299988 49.568550
v 148.887177 196.299988 49.568550
v 148.987274 196.299988 49.568550
v 148.887177 198.299988 49.568550
v 148.987274 198.299988 49.568550
v 146.487152 203.899994 35.668552
v 146.487152 204.173126 35.695454
v 146.487152 204.435760 35.775120
v 146.487152 204.677795 35.904495
v 146.487152 204.889954 36.078602
v 146.487152 205.064056 36.290752
v 148.887177 203.899994 35.668552
v 148.987274 203.899994 35.668552
v 148.887177 204.173126 35.695450
v 148.987274 204.173126 35.695450
v 148.887177 204.435760 35.775120
v 148.987274 204.435760 35.775120
v 148.887177 204.677795 35.904495
v 148.987274 204.677795 35.904495
v 148.887177 204.889954 36.078602
v 148.987274 204.889954 36.078602
v 148.887177 205.064056 36.290752
v 148.987274 205.064056 36.290752
v 146.487152 202.229660 41.268551
v 146.487152 203.899994 38.468552
v 146.487152 204.173126 38.441650
v 146.487152 205.064056 37.846352
v 146.487152 205.193436 36.532795
v 146.487152 205.273102 36.795425
v 146.487152 205.299988 37.068554
v 146.487152 205.273102 37.341679
v 146.487152 205.193436 37.604309
v 146.487152 204.677795 38.232609
v 146.487152 204.435760 38.361984
v 146.487152 204.889954 38.058502
v 148.887177 202.229675 41.268551
v 148.887177 203.899994 38.468552
v 148.987274 203.899994 38.468552
v 148.887177 204.173126 38.441650
v 148.987274 204.173126 38.441650
v 148.887177 205.064056 37.846352
v 148.987274 205.064056 37.846352
v 148.887177 205.193436 36.532795
v 148.987274 205.193436 36.532795
v 148.887177 205.273102 36.795425
v 148.987274 205.273102 36.795425
v 148.887177 205.299988 37.068550
v 148.987274 205.299988 37.068550
v 148.887177 205.273102 37.341679
v 148.987274 205.273102 37.341679
v 148.887177 205.193436 37.604309
v 148.987274 205.193436 37.604309
v 148.887177 204.677795 38.232609
v 148.987274 204.677795 38.232609
v 148.887177 204.435760 38.361984
v 148.987274 204.435760 38.361984
v 148.887177 204.889954 38.058502
v 148.987274 204.889954 38.058502
v 148.987274 206.299988 30.768547
v 150.987274 206.299988 30.768547
v 146.487152 206.530197 39.768551
v 146.487152 207.357483 39.850037
v 146.487152 206.530197 41.268551
v 146.487152 208.211960 40.069164
v 146.487152 208.960602 40.379776
v 146.487152 209.648956 40.682598
v 146.487152 209.523560 42.068993
v 146.487152 210.341034 41.044106
v 146.487152 211.057953 41.394463
v 146.487152 211.783859 41.653641
v 146.487152 212.530197 41.868553
v 148.887177 206.530197 39.768551
v 148.887177 207.357483 39.850037
v 148.887177 206.530197 41.268551
v 148.887177 208.211960 40.069164
v 148.887177 208.960602 40.379776
v 148.887177 209.648956 40.682598
v 148.887177 209.523560 42.068993
v 148.887177 210.341034 41.044106
v 148.887177 211.057953 41.394463
v 148.887177 211.783859 41.653641
v 148.887177 212.530197 41.868553
v 146.487152 202.229660 42.268551
v 146.487152 203.530197 42.268551
v 146.487152 204.172760 42.274918
v 146.487152 204.905212 42.293770
v 146.487152 205.699402 42.324387
v 146.487152 203.899994 46.768551
v 146.487152 204.173126 46.795452
v 146.487152 204.435760 46.875122
v 146.487152 204.677795 47.004494
v 146.487152 204.889954 47.178604
v 146.487152 205.064056 47.390755
v 146.487152 205.193436 47.632793
v 146.487152 205.273102 47.895424
v 148.887177 202.229675 42.268551
v 148.887177 203.530197 42.268551
v 148.887177 204.172760 42.274918
v 148.887177 204.905212 42.293770
v 148.887177 205.699402 42.324387
v 148.887177 203.899994 46.768551
v 148.987274 203.899994 46.768551
v 148.887177 204.173126 46.795452
v 148.987274 204.173126 46.795452
v 148.887177 204.435760 46.875122
v 148.987274 204.435760 46.875122
v 148.887177 204.677795 47.004494
v 148.987274 204.677795 47.004494
v 148.887177 204.889954 47.178604
v 148.987274 204.889954 47.178604
v 148.887177 205.064056 47.390755
v 148.987274 205.064056 47.390755
v 148.887177 205.193436 47.632793
v 148.987274 205.193436 47.632793
v 148.887177 205.273102 47.895424
v 148.987274 205.273102 47.895424
v 146.487152 203.899994 49.568550
v 146.487152 204.173126 49.541649
v 146.487152 204.677795 49.332611
v 146.487152 205.064056 48.946350
v 146.487152 204.889954 49.158501
v 146.487152 205.299988 48.168552
v 146.487152 205.273102 48.441677
v 146.487152 205.193436 48.704308
v 146.487152 204.435760 49.461983
v 148.887177 203.899994 49.568550
v 148.987274 203.899994 49.568550
v 148.887177 204.173126 49.541649
v 148.987274 204.173126 49.541649
v 148.887177 204.677795 49.332607
v 148.987274 204.677795 49.332607
v 148.887177 205.064056 48.946350
v 148.987274 205.064056 48.946350
v 148.887177 204.889954 49.158501
v 148.987274 204.889954 49.158501
v 148.887177 205.299988 48.168552
v 148.987274 205.299988 48.168552
v 148.887177 205.273102 48.441677
v 148.987274 205.273102 48.441677
v 148.887177 205.193436 48.704308
v 148.987274 205.193436 48.704308
v 148.887177 204.435760 49.461983
v 148.987274 204.435760 49.461983
v 146.487152 206.524826 42.365585
v 146.487152 207.349747 42.415787
v 146.487152 208.142456 42.473064
v 146.487152 208.872513 42.535213
v 146.487152 209.511856 42.599846
v 146.487152 211.030197 42.768551
v 148.887177 206.524826 42.365585
v 148.887177 207.349747 42.415787
v 148.887177 208.142456 42.473064
v 148.887177 208.872513 42.535213
v 148.887177 209.511856 42.599846
v 148.887177 211.030197 42.768551
v 148.987274 206.299988 53.768547
v 150.987274 206.299988 53.768547
vn -0.0000 1.0000 -0.0000
vn 1.0000 -0.0000 -0.0000
vn -0.0000 -0.0000 1.0000
vn -1.0000 -0.0000 -0.0000
vn -0.0000 -0.0000 -1.0000
vn -0.0000 -1.0000 -0.0000
vn -0.5000 -0.0000 -0.8660
vn -0.5000 -0.0000 0.8660
vn 0.5000 -0.0000 0.8660
vn 0.5000 -0.0000 -0.8660
vn -0.0980 -0.0000 -0.9952
vn -0.2903 -0.0000 -0.9569
vn -0.4714 -0.0000 -0.8819
vn -0.6344 -0.0000 -0.7730
vn -0.7730 -0.0000 -0.6344
vn -0.8819 -0.0000 -0.4714
vn -0.9569 -0.0000 -0.2903
vn -0.9952 -0.0000 -0.0980
vn -0.9952 -0.0000 0.0980
vn -0.9569 -0.0000 0.2903
vn -0.8819 -0.0000 0.4714
vn -0.7730 -0.0000 0.6344
vn -0.6344 -0.0000 0.7730
vn -0.4714 -0.0000 0.8819
vn -0.2903 -0.0000 0.9569
vn -0.0980 -0.0000 0.9952
vn 0.0980 -0.0000 0.9952
vn 0.2903 -0.0000 0.9569
vn 0.4714 -0.0000 0.8819
vn 0.6344 -0.0000 0.7730
vn 0.7730 -0.0000 0.6344
vn 0.8819 -0.0000 0.4714
vn 0.9569 -0.0000 0.2903
vn 0.9952 -0.0000 0.0980
vn 0.9952 -0.0000 -0.0980
vn 0.9569 -0.0000 -0.2903
vn 0.8819 -0.0000 -0.4714
vn 0.7730 -0.0000 -0.6344
vn 0.6344 -0.0000 -0.7730
vn 0.4714 -0.0000 -0.8819
vn 0.2903 -0.0000 -0.9569
vn 0.0978 -0.0000 -0.9952
vn 0.0980 -0.0000 -0.9952
vn -0.0000 0.6344 -0.7730
vn -0.0000 0.8819 0.4714
vn -0.0000 0.2903 -0.9569
vn -0.0000 0.4714 -0.8819
vn -0.0000 0.9569 0.2903
vn -0.0000 0.0980 -0.9952
vn -0.0000 0.7730 -0.6344
vn -0.0000 0.8819 -0.4714
vn -0.0000 0.9569 -0.2903
vn -0.0000 0.9952 -0.0980
vn -0.0000 0.9952 0.0980
vn -0.0000 0.7730 0.6344
vn -0.0000 0.6344 0.7730
vn -0.0000 0.4714 0.8819
vn -0.0000 0.2903 0.9569
vn -0.0000 0.0980 0.9952
vn -0.0000 0.5145 0.8575
vn -0.0000 -0.1006 0.9949
vn -0.0000 -0.0848 0.9964
vn -0.0000 -0.0721 0.9974
vn -0.0000 -0.0607 0.9982
vn -0.0000 -0.0499 0.9988
vn -0.0000 -0.0385 0.9993
vn -0.0000 -0.0257 0.9997
vn -0.0000 -0.0099 1.0000
vn -0.0000 -0.1104 0.9939
vn -0.0000 -0.2650 0.9643
vn -0.0000 0.0285 -0.9996
vn -0.0000 -0.0267 0.9996
vn -0.0000 -0.4714 0.8819
vn -0.0000 -0.6344 0.7730
vn -0.0000 -0.7730 0.6344
vn -0.0000 -0.8819 0.4714
vn -0.0000 -0.9569 0.2903
vn -0.0000 -0.9952 0.0980
vn -0.0000 -0.9952 -0.0980
vn -0.0000 -0.9569 -0.2903
vn -0.0000 -0.8819 -0.4714
vn -0.0000 -0.7730 -0.6344
vn -0.0000 -0.6344 -0.7730
vn -0.0000 -0.4714 -0.8819
vn -0.0000 -0.2903 -0.9569
vn -0.0000 -0.0980 -0.9952
vn -0.0000 0.2484 -0.9687
vn -0.0000 0.3832 -0.9237
vn -0.0000 0.4027 -0.9153
vn -0.0000 0.4630 -0.8864
vn -0.0000 0.4391 -0.8985
vn -0.0000 0.3363 -0.9418
vn -0.0000 0.2767 -0.9610
vn -0.0000 -0.1176 0.9931
vn -0.0000 0.0099 -1.0000
vn -0.0000 -0.4649 -0.8854
vn -0.0000 1.0000 -0.0001
vn 1.0000 -0.0001 -0.0000
vn 0.0981 -0.0000 0.9952
vn 1.0000 -0.0000 -0.0001
vn -0.0000 -0.0023 -1.0000
vn -1.0000 -0.0000 -0.0001
vt 0.475000 0.500000
vt 0.625000 0.450000
vt 0.625000 0.500000
vt 0.475000 0.750000
vt 0.625000 0.625000
vt 0.625000 0.750000
vt 0.675000 0.625000
vt 0.475000 0.804500
vt 0.625000 0.804500
vt 0.675000 0.500000
vt 0.475000 0.625000
vt 0.000000 0.000000
vt 0.679500 0.625000
vt 0.675000 0.750000
vt 0.475000 0.800000
vt 0.625000 0.800000
vt 0.679500 0.750000
vt 0.722250 0.625000
vt 0.568770 0.847172
vt 0.537465 0.847172
vt 0.537265 0.845266
vt 0.475000 0.450000
vt 0.568970 0.845422
vt 0.536671 0.843588
vt 0.537265 0.845421
vt 1.000000 1.000000
vt 0.833333 0.604869
vt 0.833333 1.000000
vt 0.666667 0.604869
vt 0.666667 1.000000
vt 0.500000 0.604869
vt 0.333333 1.000000
vt 0.500000 0.604869
vt 0.499214 0.604869
vt 0.162878 0.162878
vt 0.181548 0.147555
vt 0.042154 0.130000
vt 0.318452 0.352445
vt 0.457846 0.370000
vt 0.337122 0.337122
vt 0.166667 0.604869
vt 0.166667 1.000000
vt 0.166667 0.604869
vt 0.000786 0.604869
vt -0.000000 1.000000
vt 0.136169 0.202850
vt 0.147555 0.181548
vt 0.352445 0.318452
vt 0.250000 0.490000
vt 0.000786 0.604869
vt 1.000000 0.898966
vt 0.968750 0.829297
vt 0.968750 0.898966
vt 0.937500 0.898966
vt 0.968750 0.829297
vt 0.937500 0.829297
vt 0.906250 0.898966
vt 0.937500 0.829297
vt 0.906250 0.829297
vt 0.875000 0.829297
vt 0.875000 0.898966
vt 0.843750 0.898966
vt 0.875000 0.829297
vt 0.843750 0.829297
vt 0.812500 0.898966
vt 0.843750 0.829297
vt 0.812500 0.829297
vt 0.781250 0.829297
vt 0.781250 0.898966
vt 0.750000 0.898966
vt 0.781250 0.829297
vt 0.750000 0.829297
vt 0.718750 0.898966
vt 0.750000 0.829297
vt 0.718750 0.829297
vt 0.687500 0.829297
vt 0.687500 0.898966
vt 0.656250 0.898966
vt 0.687500 0.829297
vt 0.656250 0.829297
vt 0.625000 0.898966
vt 0.656250 0.829297
vt 0.625000 0.829297
vt 0.593750 0.829297
vt 0.593750 0.898966
vt 0.562500 0.829297
vt 0.562500 0.898966
vt 0.531250 0.898966
vt 0.531250 0.829297
vt 0.531250 0.898966
vt 0.500000 0.829297
vt 0.500000 0.898966
vt 0.498725 0.898966
vt 0.500000 0.829297
vt 0.468750 0.829297
vt 0.468750 0.898966
vt 0.437500 0.829297
vt 0.437500 0.898966
vt 0.437500 0.898966
vt 0.406250 0.829297
vt 0.406250 0.898966
vt 0.375000 0.829297
vt 0.406250 0.898966
vt 0.406250 0.829297
vt 0.343750 0.898966
vt 0.375000 0.829297
vt 0.343750 0.829297
vt 0.312500 0.898966
vt 0.343750 0.829297
vt 0.312500 0.829297
vt 0.281250 0.829297
vt 0.281250 0.898966
vt 0.281250 0.829297
vt 0.250000 0.898966
vt 0.218750 0.898966
vt 0.250000 0.829297
vt 0.218750 0.829297
vt 0.187500 0.829297
vt 0.187500 0.898966
vt 0.156250 0.898966
vt 0.187500 0.829297
vt 0.156250 0.829297
vt 0.125000 0.898966
vt 0.156250 0.829297
vt 0.125000 0.829297
vt 0.093750 0.829297
vt 0.093750 0.898966
vt 0.062500 0.898966
vt 0.093750 0.829297
vt 0.062500 0.829297
vt 0.031250 0.898966
vt 0.062500 0.829297
vt 0.031250 0.829297
vt 0.000000 0.898966
vt 0.001275 0.898966
vt 0.687500 0.898966
vt 0.498725 0.898966
vt 0.468750 0.829297
vt 0.250000 0.829297
vt 0.031250 0.829297
vt 0.001275 0.898966
vt 0.375000 0.500000
vt 0.625000 0.375000
vt 0.214128 0.500000
vt 0.218645 0.500000
vt 0.375000 0.906355
vt 0.625000 0.910872
vt 0.480505 0.910872
vt 0.250000 0.750000
vt 0.375000 0.750000
vt 0.218645 0.750000
vt 0.375000 0.875000
vt 0.625000 0.875000
vt 0.250000 0.500000
vt 0.625000 0.343646
vt 0.375000 0.375000
vt 0.375000 0.343645
vt 0.218645 0.750000
vt 0.214128 0.687500
vt 0.218645 0.687500
vt 0.375000 0.339128
vt 0.480505 0.339128
vt 0.214128 0.750000
vt 0.218645 0.562500
vt 0.214128 0.500000
vt 0.218645 0.625000
vt 0.214128 0.562500
vt 0.214128 0.625000
vt 0.625000 0.906355
vt 1.343415 1.243902
vt 0.810000 0.631250
vt 0.405897 0.375831
vt 0.273303 0.253058
vt 0.661372 0.612382
vt 0.809039 0.749110
vt 0.190014 0.119058
vt 0.100130 0.061809
vt 0.609345 0.377996
vt 0.295613 0.189189
vt 0.810000 0.500000
vt 0.388257 0.359497
vt 0.519292 0.480826
vt 0.956615 0.885755
vt 1.098432 1.017067
vt 1.229038 1.137998
vt 0.692927 0.427733
vt 0.512914 0.323512
vt 0.512914 0.323512
vt 0.408454 0.264550
vt 0.100130 0.061809
vt 0.750000 0.500000
vt 0.625000 0.339128
vt 0.625000 0.910872
vt 0.375000 0.910872
vt 0.480505 0.910872
vt 0.625000 0.500000
vt 0.214128 0.687500
vt 0.480505 0.339128
vt 0.625000 0.375000
vt 0.214128 0.750000
vt 0.214128 0.562500
vt 0.214128 0.625000
vt 0.625000 0.343645
vt 0.625000 0.910872
vt 0.722250 0.750000
vt 0.625000 0.847250
vt 0.589631 0.847250
vt 0.589639 0.847172
vt 0.589439 0.845266
vt 0.516604 0.847250
vt 0.475000 0.847250
vt 0.516596 0.847172
vt 0.588845 0.843433
vt 0.587881 0.841743
vt 0.516796 0.845266
vt 0.517390 0.843433
vt 0.586583 0.840263
vt 0.585002 0.839048
vt 0.518355 0.841744
vt 0.519652 0.840263
vt 0.583198 0.838145
vt 0.581240 0.837589
vt 0.521233 0.839048
vt 0.523037 0.838145
vt 0.579205 0.837401
vt 0.524995 0.837589
vt 0.527031 0.837401
vt 0.577169 0.837589
vt 0.575211 0.838145
vt 0.529066 0.837589
vt 0.531024 0.838145
vt 0.573407 0.839048
vt 0.571826 0.840263
vt 0.532828 0.839048
vt 0.570528 0.841743
vt 0.534409 0.840263
vt 0.569564 0.843433
vt 0.535707 0.841743
vt 0.568970 0.845266
vt 0.536671 0.843433
vt 0.568778 0.847250
vt 0.537457 0.847250
vt 0.589439 0.845421
vt 0.516796 0.845422
vt 0.588845 0.843588
vt 0.587881 0.841899
vt 0.517390 0.843588
vt 0.518355 0.841899
vt 0.586583 0.840418
vt 0.585002 0.839203
vt 0.519652 0.840418
vt 0.521233 0.839203
vt 0.583198 0.838300
vt 0.581240 0.837744
vt 0.523038 0.838300
vt 0.524995 0.837744
vt 0.579205 0.837556
vt 0.527031 0.837556
vt 0.529067 0.837744
vt 0.577169 0.837744
vt 0.575211 0.838300
vt 0.531024 0.838300
vt 0.532828 0.839203
vt 0.573407 0.839203
vt 0.571826 0.840418
vt 0.570528 0.841899
vt 0.534409 0.840418
vt 0.569564 0.843588
vt 0.535707 0.841899
vt 1.000000 0.604869
vt 0.833333 0.604869
vt 0.500000 1.000000
vt 0.333333 0.604869
vt 0.297150 0.363831
vt 0.274037 0.370842
vt 0.457846 0.130000
vt 0.363831 0.297150
vt 0.250000 0.373210
vt 0.225963 0.370842
vt 0.370842 0.274037
vt 0.373210 0.250000
vt 0.042154 0.370000
vt 0.202850 0.363831
vt 0.370842 0.225963
vt 0.363831 0.202850
vt 0.181548 0.352445
vt 0.162878 0.337122
vt 0.352445 0.181548
vt 0.337122 0.162878
vt 0.147555 0.318452
vt 0.136169 0.297150
vt 0.250000 0.010000
vt 0.318452 0.147555
vt 0.129158 0.274037
vt 0.297150 0.136169
vt 0.274037 0.129158
vt 0.126790 0.250000
vt 0.129158 0.225963
vt 0.250000 0.126790
vt 0.225963 0.129158
vt 0.136169 0.202850
vt 0.147555 0.181548
vt 0.202850 0.136169
vt -0.000000 0.604869
vt 0.363831 0.297150
vt 0.337122 0.337122
vt 0.318452 0.352445
vt 0.373210 0.250000
vt 0.297150 0.363831
vt 0.363831 0.202850
vt 0.250000 0.373210
vt 0.225963 0.370842
vt 0.352445 0.181548
vt 0.337122 0.162878
vt 0.202850 0.363831
vt 0.318452 0.147555
vt 0.181548 0.352445
vt 0.297150 0.136169
vt 0.274037 0.129158
vt 0.147555 0.318452
vt 0.225963 0.129158
vt 0.129158 0.274037
vt 0.202850 0.136169
vt 0.129158 0.225963
vt 0.181548 0.147555
vt 0.162878 0.162878
vt 1.000000 0.829297
vt 0.906250 0.829297
vt 0.812500 0.829297
vt 0.718750 0.829297
vt 0.531250 0.829297
vt 0.468750 0.898966
vt 0.468750 0.829297
vt 0.437500 0.829297
vt 0.375000 0.898966
vt 0.375000 0.898966
vt 0.312500 0.829297
vt 0.218750 0.829297
vt 0.125000 0.829297
vt 0.000000 0.829297
vt 0.468750 0.898966
vt 0.375000 0.339128
vt 0.625000 0.906354
s 0
f 675/1/1 771/2/1 772/3/1
f 430/4/2 554/5/2 548/6/2
f 553/7/3 548/6/3 554/5/3
f 422/8/4 539/9/4 540/9/4
f 554/5/3 771/10/3 553/7/3
f 432/11/2 772/3/2 554/5/2
f 432/12/5 674/12/5 675/12/5
f 423/12/1 433/12/1 434/12/1
f 544/12/1 550/12/1 549/12/1
f 469/12/4 536/12/4 612/12/4
f 428/12/5 432/12/5 430/12/5
f 422/12/5 431/12/5 428/12/5
f 544/13/3 546/14/3 553/7/3
f 429/4/2 548/6/2 547/6/2
f 373/12/5 423/12/5 422/12/5
f 517/12/1 518/12/1 541/12/1
f 427/15/6 547/6/6 545/16/6
f 421/8/6 545/16/6 539/9/6
f 421/12/5 428/12/5 427/12/5
f 540/17/3 545/14/3 546/14/3
f 546/14/3 547/6/3 548/6/3
f 427/12/5 430/12/5 429/12/5
f 518/18/3 540/17/3 544/13/3
f 474/19/6 391/20/6 392/21/6
f 274/1/1 372/2/1 275/22/1
f 2/4/4 113/5/4 5/11/4
f 106/6/3 114/7/3 113/5/3
f 12/8/2 115/9/2 11/8/2
f 113/5/3 372/10/3 371/3/3
f 5/11/4 371/3/4 274/1/4
f 5/12/5 275/12/5 6/12/5
f 7/12/1 14/12/1 13/12/1
f 114/12/1 117/12/1 110/12/1
f 148/12/2 19/12/2 38/12/2
f 5/12/5 4/12/5 2/12/5
f 6/12/5 12/12/5 4/12/5
f 108/14/3 120/13/3 114/7/3
f 1/4/4 106/6/4 2/4/4
f 13/12/5 373/12/5 12/12/5
f 54/12/1 21/12/1 23/12/1
f 3/15/6 105/6/6 1/4/6
f 11/8/6 107/16/6 3/15/6
f 4/12/5 11/12/5 3/12/5
f 107/14/3 116/17/3 108/14/3
f 105/6/3 108/14/3 106/6/3
f 2/12/5 3/12/5 1/12/5
f 116/17/3 518/18/3 120/13/3
f 199/23/6 70/24/6 71/25/6
f 515/26/7 520/27/7 519/28/7
f 519/28/4 504/29/4 503/30/4
f 489/31/8 503/30/8 504/29/8
f 187/32/9 489/33/9 488/34/9
f 208/35/1 209/36/1 187/37/1
f 514/38/1 519/39/1 495/40/1
f 187/32/2 214/41/2 213/42/2
f 214/43/10 516/44/10 515/45/10
f 413/26/7 420/27/7 419/28/7
f 419/28/4 418/29/4 417/30/4
f 377/31/8 417/30/8 418/29/8
f 53/32/9 377/33/9 376/34/9
f 73/46/1 72/47/1 53/37/1
f 419/39/1 416/48/1 413/49/1
f 53/32/2 56/41/2 55/42/2
f 56/43/10 414/50/10 413/45/10
f 506/51/11 512/52/11 507/53/11
f 508/54/12 512/55/12 513/56/12
f 509/57/13 513/58/13 514/59/13
f 509/57/14 495/60/14 479/61/14
f 485/62/15 495/63/15 501/64/15
f 486/65/16 501/66/16 502/67/16
f 486/65/17 500/68/17 484/69/17
f 483/70/18 500/71/18 499/72/18
f 482/73/19 499/74/19 498/75/19
f 482/73/20 497/76/20 481/77/20
f 480/78/21 497/79/21 496/80/21
f 478/81/22 496/82/22 494/83/22
f 493/84/23 478/81/23 494/83/23
f 477/85/24 492/86/24 476/87/24
f 475/88/25 492/86/25 491/89/25
f 475/90/26 490/91/26 474/92/26
f 473/93/27 490/94/27 211/95/27
f 199/96/28 210/97/28 198/98/28
f 198/99/29 209/100/29 197/101/29
f 208/102/30 197/103/30 209/104/30
f 189/105/31 208/106/31 201/107/31
f 190/108/32 201/109/32 202/110/32
f 190/108/33 203/111/33 191/112/33
f 203/113/34 192/114/34 191/112/34
f 193/115/35 204/116/35 205/117/35
f 193/115/36 206/118/36 194/119/36
f 195/120/37 206/121/37 207/122/37
f 200/123/38 207/124/38 212/125/38
f 200/123/39 218/126/39 215/127/39
f 216/128/40 218/129/40 219/130/40
f 217/131/41 219/132/41 220/133/41
f 220/133/42 506/134/42 505/135/42
f 391/51/11 409/52/11 392/53/11
f 392/53/12 410/56/12 393/54/12
f 393/54/13 411/59/13 394/57/13
f 394/57/14 412/60/14 395/61/14
f 395/61/15 416/64/15 396/62/15
f 389/65/16 416/66/16 407/67/16
f 389/65/17 406/68/17 388/69/17
f 387/70/18 406/71/18 405/72/18
f 386/73/19 405/74/19 404/75/19
f 385/136/20 404/75/20 403/76/20
f 402/80/21 385/77/21 403/79/21
f 384/78/22 401/83/22 383/81/22
f 400/84/23 383/81/23 401/83/23
f 381/87/24 400/84/24 399/86/24
f 399/86/25 380/90/25 381/87/25
f 380/90/26 397/91/26 378/92/26
f 379/137/27 397/94/27 80/138/27
f 65/96/28 81/97/28 66/98/28
f 66/99/29 79/100/29 64/101/29
f 78/102/30 64/103/30 79/104/30
f 57/105/31 78/106/31 72/107/31
f 58/108/32 72/109/32 73/110/32
f 59/112/33 73/110/33 74/111/33
f 60/114/34 74/113/34 75/139/34
f 61/115/35 75/116/35 76/117/35
f 61/115/36 77/118/36 62/119/36
f 67/120/37 77/121/37 82/122/37
f 67/120/38 83/125/38 68/123/38
f 68/123/39 84/126/39 69/127/39
f 69/127/40 85/130/40 70/128/40
f 70/128/41 86/133/41 71/131/41
f 86/140/43 391/134/43 390/141/43
f 616/142/3 617/143/3 619/3/3
f 528/144/4 542/145/4 529/145/4
f 634/6/44 635/6/44 636/6/44
f 425/146/5 433/147/5 426/148/5
f 445/149/4 459/150/4 446/150/4
f 755/3/45 748/3/45 756/3/45
f 536/12/1 537/12/1 538/12/1
f 719/3/46 720/3/46 721/3/46
f 666/6/45 657/6/45 667/6/45
f 605/12/2 611/12/2 607/12/2
f 425/151/4 458/149/4 445/149/4
f 445/152/5 449/6/5 447/153/5
f 631/6/47 634/6/47 632/6/47
f 582/154/4 616/142/4 583/142/4
f 551/155/3 615/156/3 542/157/3
f 440/12/1 441/12/1 438/12/1
f 438/158/4 439/159/4 440/160/4
f 541/161/3 543/162/3 551/155/3
f 551/155/3 618/143/3 617/143/3
f 425/151/4 437/163/4 438/158/4
f 527/164/4 528/165/4 529/145/4
f 522/166/4 526/167/4 527/164/4
f 440/160/4 521/168/4 522/166/4
f 754/3/48 755/3/48 756/3/48
f 425/146/5 447/153/5 435/169/5
f 529/145/4 615/154/4 582/154/4
f 527/12/1 537/12/1 535/12/1
f 527/12/1 530/12/1 522/12/1
f 443/12/1 522/12/1 530/12/1
f 438/12/3 468/12/3 458/12/3
f 458/12/3 470/12/3 459/12/3
f 703/142/49 718/3/49 716/3/49
f 704/142/46 720/3/46 718/3/46
f 705/142/47 722/3/47 720/3/47
f 706/142/44 724/3/44 722/3/44
f 707/142/50 726/3/50 724/3/50
f 708/142/51 728/3/51 726/3/51
f 709/142/52 730/3/52 728/3/52
f 710/142/53 751/3/53 730/3/53
f 737/142/54 753/3/54 751/3/54
f 738/142/48 755/3/48 753/3/48
f 739/142/45 747/3/45 755/3/45
f 735/142/55 749/3/55 747/3/55
f 736/142/56 745/3/56 749/3/56
f 734/142/57 757/3/57 745/3/57
f 743/3/58 740/142/58 733/142/58
f 733/142/59 741/3/59 743/3/59
f 645/150/54 664/6/54 662/6/54
f 646/150/48 666/6/48 664/6/48
f 647/150/45 656/6/45 666/6/45
f 642/150/55 672/6/55 656/6/55
f 650/150/56 668/6/56 672/6/56
f 648/150/57 670/6/57 668/6/57
f 654/6/58 649/150/58 641/150/58
f 641/150/59 652/6/59 654/6/59
f 621/150/49 629/6/49 627/6/49
f 622/150/46 631/6/46 629/6/46
f 623/150/47 633/6/47 631/6/47
f 624/150/44 635/6/44 633/6/44
f 625/150/50 637/6/50 635/6/50
f 626/150/51 658/6/51 637/6/51
f 643/150/52 660/6/52 658/6/52
f 660/6/53 645/150/53 662/6/53
f 613/3/5 703/142/5 716/3/5
f 705/142/4 734/142/4 738/142/4
f 666/6/48 665/6/48 664/6/48
f 619/3/3 732/142/3 616/142/3
f 470/6/3 640/150/3 459/150/3
f 625/150/4 641/150/4 642/150/4
f 718/3/49 717/3/49 716/3/49
f 446/150/5 627/6/5 449/6/5
f 712/170/2 651/12/2 689/171/2
f 693/172/2 770/12/2 769/173/2
f 689/171/2 766/174/2 765/175/2
f 472/12/2 711/12/2 608/12/2
f 604/12/2 601/12/2 602/12/2
f 600/12/2 599/12/2 601/12/2
f 598/12/2 594/12/2 599/12/2
f 597/12/2 593/12/2 594/12/2
f 590/12/2 592/12/2 593/12/2
f 534/12/2 591/12/2 592/12/2
f 533/12/2 589/12/2 591/12/2
f 532/12/2 588/12/2 589/12/2
f 585/12/2 587/12/2 588/12/2
f 584/12/2 586/12/2 587/12/2
f 461/12/2 595/12/2 586/12/2
f 462/12/2 596/12/2 595/12/2
f 465/12/2 463/12/2 464/12/2
f 467/12/2 464/12/2 466/12/2
f 467/12/2 472/12/2 608/12/2
f 602/12/2 606/12/2 604/12/2
f 689/171/2 695/176/2 696/177/2
f 603/12/2 607/12/2 606/12/2
f 639/12/4 699/170/4 678/171/4
f 764/12/4 682/172/4 763/173/4
f 759/175/4 760/174/4 682/172/4
f 460/12/4 698/12/4 639/12/4
f 572/12/4 575/12/4 573/12/4
f 570/12/4 571/12/4 572/12/4
f 565/12/4 569/12/4 570/12/4
f 564/12/4 568/12/4 565/12/4
f 563/12/4 561/12/4 564/12/4
f 562/12/4 525/12/4 563/12/4
f 560/12/4 524/12/4 562/12/4
f 559/12/4 523/12/4 560/12/4
f 558/12/4 556/12/4 559/12/4
f 557/12/4 555/12/4 558/12/4
f 566/12/4 451/12/4 557/12/4
f 567/12/4 452/12/4 566/12/4
f 453/12/4 455/12/4 454/12/4
f 454/12/4 457/12/4 456/12/4
f 460/12/4 457/12/4 579/12/4
f 573/12/4 577/12/4 574/12/4
f 679/178/4 682/172/4 683/179/4
f 574/12/4 578/12/4 576/12/4
f 697/12/60 764/12/60 770/12/60
f 676/180/6 689/171/6 678/171/6
f 639/12/5 472/12/5 460/12/5
f 698/12/3 608/12/3 711/12/3
f 651/12/5 678/171/5 689/171/5
f 762/181/61 769/173/61 763/173/61
f 761/182/62 768/181/62 762/181/62
f 760/174/63 767/182/63 761/182/63
f 759/175/64 766/174/64 760/174/64
f 702/183/65 765/175/65 759/175/65
f 702/183/66 714/184/66 715/183/66
f 700/185/67 714/184/67 701/184/67
f 699/170/68 713/185/68 700/185/68
f 699/170/3 711/12/3 712/170/3
f 764/12/69 769/173/69 770/12/69
f 583/12/1 609/12/1 580/12/1
f 575/12/70 606/12/70 577/12/70
f 460/12/71 466/12/71 456/12/71
f 576/12/49 603/12/49 574/12/49
f 573/12/46 603/12/46 602/12/46
f 572/12/47 602/12/47 601/12/47
f 572/12/44 599/12/44 570/12/44
f 594/12/50 570/12/50 599/12/50
f 565/12/51 593/12/51 564/12/51
f 564/12/52 592/12/52 563/12/52
f 563/12/53 591/12/53 562/12/53
f 560/12/54 591/12/54 589/12/54
f 560/12/48 588/12/48 559/12/48
f 559/12/45 587/12/45 558/12/45
f 558/12/55 586/12/55 557/12/55
f 566/12/56 586/12/56 595/12/56
f 566/12/57 596/12/57 567/12/57
f 465/12/58 567/12/58 596/12/58
f 455/12/59 467/12/59 457/12/59
f 579/12/72 467/12/72 608/12/72
f 571/12/73 604/12/73 575/12/73
f 569/12/74 600/12/74 571/12/74
f 568/12/75 598/12/75 569/12/75
f 561/12/76 597/12/76 568/12/76
f 525/12/77 590/12/77 561/12/77
f 524/12/78 534/12/78 525/12/78
f 523/12/79 533/12/79 524/12/79
f 556/12/80 532/12/80 523/12/80
f 555/12/81 585/12/81 556/12/81
f 451/12/82 584/12/82 555/12/82
f 452/12/83 461/12/83 451/12/83
f 453/12/84 462/12/84 452/12/84
f 454/12/85 463/12/85 453/12/85
f 456/12/86 464/12/86 454/12/86
f 676/180/49 688/186/49 687/180/49
f 679/178/87 688/186/87 677/186/87
f 680/187/88 690/178/88 679/178/88
f 691/188/89 681/189/89 692/189/89
f 692/189/90 683/179/90 694/179/90
f 684/176/91 694/179/91 683/179/91
f 685/190/92 695/176/92 684/176/92
f 686/12/93 696/177/93 685/190/93
f 577/12/94 607/12/94 578/12/94
f 529/12/4 582/12/4 578/12/4
f 610/12/2 613/3/2 611/191/2
f 582/12/4 576/12/4 578/12/4
f 583/142/4 581/12/4 582/154/4
f 581/12/95 605/12/95 576/12/95
f 580/12/96 610/12/96 581/12/96
f 657/6/55 672/6/55 673/6/55
f 720/3/47 723/3/47 721/3/47
f 531/12/1 535/12/1 536/12/1
f 749/3/55 748/3/55 747/3/55
f 636/6/50 637/6/50 638/6/50
f 673/6/56 668/6/56 669/6/56
f 723/3/44 724/3/44 725/3/44
f 444/12/1 530/12/1 531/12/1
f 745/3/56 750/3/56 749/3/56
f 637/6/51 659/6/51 638/6/51
f 442/12/1 443/12/1 444/12/1
f 550/192/3 551/155/3 549/192/3
f 612/191/5 613/3/5 614/3/5
f 668/6/57 671/6/57 669/6/57
f 725/3/50 726/3/50 727/3/50
f 758/3/57 745/3/57 757/3/57
f 659/6/52 660/6/52 661/6/52
f 538/12/5 611/12/5 612/12/5
f 660/6/53 663/6/53 661/6/53
f 654/6/58 671/6/58 670/6/58
f 726/3/51 729/3/51 727/3/51
f 743/3/58 758/3/58 757/3/58
f 617/143/3 620/3/3 619/3/3
f 442/12/3 468/12/3 441/12/3
f 614/3/5 716/3/5 717/3/5
f 652/6/59 655/6/59 654/6/59
f 730/3/52 729/3/52 728/3/52
f 436/169/5 447/153/5 448/153/5
f 468/12/3 471/12/3 470/12/3
f 619/3/3 742/3/3 741/3/3
f 741/3/59 744/3/59 743/3/59
f 448/153/5 449/6/5 450/6/5
f 470/6/3 653/6/3 652/6/3
f 629/6/49 628/6/49 627/6/49
f 730/3/53 752/3/53 731/3/53
f 662/6/54 665/6/54 663/6/54
f 450/6/5 627/6/5 628/6/5
f 434/193/5 435/169/5 436/169/5
f 751/3/54 754/3/54 752/3/54
f 630/6/46 631/6/46 632/6/46
f 184/3/3 185/156/3 186/142/3
f 104/145/2 118/144/2 103/144/2
f 228/6/44 229/6/44 230/6/44
f 10/169/5 15/194/5 14/195/5
f 29/149/2 51/150/2 50/149/2
f 338/3/45 347/3/45 346/196/45
f 93/12/1 94/12/1 95/12/1
f 305/196/46 308/3/46 306/3/46
f 244/6/45 255/6/45 254/6/45
f 142/12/4 149/12/4 147/12/4
f 16/151/2 50/149/2 22/158/2
f 28/6/5 29/152/5 26/153/5
f 225/6/47 228/6/47 226/6/47
f 179/154/2 186/142/2 185/154/2
f 112/155/3 185/156/3 182/143/3
f 18/12/1 24/12/1 22/12/1
f 21/163/2 24/160/2 23/197/2
f 110/192/3 117/198/3 119/157/3
f 111/155/3 182/143/3 181/199/3
f 15/200/2 22/158/2 21/163/2
f 101/167/2 104/145/2 103/144/2
f 96/168/2 102/164/2 101/201/2
f 23/159/2 97/166/2 96/202/2
f 345/3/48 346/3/48 347/3/48
f 16/146/5 26/153/5 29/152/5
f 104/145/2 185/154/2 119/145/2
f 93/12/1 104/12/1 102/12/1
f 88/12/1 102/12/1 97/12/1
f 20/12/1 97/12/1 24/12/1
f 22/12/3 39/12/3 18/12/3
f 51/12/3 39/12/3 50/12/3
f 306/3/49 324/142/49 304/3/49
f 325/142/46 308/3/46 326/142/46
f 310/3/47 326/142/47 308/3/47
f 312/3/44 327/142/44 310/3/44
f 314/3/50 328/142/50 312/3/50
f 316/3/51 329/142/51 314/3/51
f 318/3/52 330/142/52 316/3/52
f 331/142/53 343/3/53 355/142/53
f 345/3/54 355/142/54 343/3/54
f 347/3/48 356/142/48 345/3/48
f 339/3/45 357/142/45 347/3/45
f 341/3/55 353/142/55 339/3/55
f 341/3/56 352/142/56 354/142/56
f 337/3/57 358/142/57 352/142/57
f 349/3/58 351/142/58 358/142/58
f 333/3/59 351/142/59 335/3/59
f 253/6/54 268/150/54 251/6/54
f 255/6/48 269/150/48 253/6/48
f 245/6/45 270/150/45 255/6/45
f 265/150/55 261/6/55 273/150/55
f 257/6/56 273/150/56 261/6/56
f 259/6/57 271/150/57 257/6/57
f 243/6/58 272/150/58 259/6/58
f 241/6/59 264/150/59 243/6/59
f 224/6/49 233/150/49 222/6/49
f 235/150/46 224/6/46 226/6/46
f 228/6/47 235/150/47 226/6/47
f 228/6/44 237/150/44 236/150/44
f 230/6/50 238/150/50 237/150/50
f 247/6/51 238/150/51 232/6/51
f 247/6/52 267/150/52 266/150/52
f 249/6/53 268/150/53 267/150/53
f 180/142/5 304/3/5 324/142/5
f 186/142/2 330/142/2 357/142/2
f 254/6/48 253/6/48 252/6/48
f 333/3/3 186/142/3 350/142/3
f 241/6/3 51/150/3 263/150/3
f 234/150/2 269/150/2 271/150/2
f 305/3/49 304/3/49 303/196/49
f 30/150/5 222/6/5 233/150/5
f 239/12/4 299/170/4 278/171/4
f 364/12/4 282/172/4 363/173/4
f 359/175/4 360/174/4 282/172/4
f 42/12/4 298/12/4 239/12/4
f 138/12/4 141/12/4 139/12/4
f 136/12/4 137/12/4 138/12/4
f 131/12/4 135/12/4 136/12/4
f 130/12/4 134/12/4 131/12/4
f 129/12/4 127/12/4 130/12/4
f 128/12/4 91/12/4 129/12/4
f 126/12/4 90/12/4 128/12/4
f 125/12/4 89/12/4 126/12/4
f 124/12/4 122/12/4 125/12/4
f 123/12/4 121/12/4 124/12/4
f 132/12/4 31/12/4 123/12/4
f 133/12/4 32/12/4 132/12/4
f 33/12/4 35/12/4 34/12/4
f 34/12/4 37/12/4 36/12/4
f 42/12/4 37/12/4 145/12/4
f 139/12/4 143/12/4 140/12/4
f 279/178/4 282/172/4 283/179/4
f 140/12/4 144/12/4 142/12/4
f 320/170/2 262/12/2 289/171/2
f 293/172/2 370/12/2 369/173/2
f 289/171/2 366/174/2 365/175/2
f 52/12/2 319/12/2 176/12/2
f 172/12/2 169/12/2 170/12/2
f 168/12/2 167/12/2 169/12/2
f 166/12/2 162/12/2 167/12/2
f 165/12/2 161/12/2 162/12/2
f 158/12/2 160/12/2 161/12/2
f 100/12/2 159/12/2 160/12/2
f 99/12/2 157/12/2 159/12/2
f 98/12/2 156/12/2 157/12/2
f 153/12/2 155/12/2 156/12/2
f 152/12/2 154/12/2 155/12/2
f 43/12/2 163/12/2 154/12/2
f 44/12/2 164/12/2 163/12/2
f 47/12/2 45/12/2 46/12/2
f 49/12/2 46/12/2 48/12/2
f 49/12/2 52/12/2 176/12/2
f 170/12/2 174/12/2 172/12/2
f 289/171/2 295/176/2 296/190/2
f 171/12/2 175/12/2 174/12/2
f 286/12/60 370/12/60 297/12/60
f 278/171/6 287/180/6 289/171/6
f 42/12/5 262/12/5 52/12/5
f 319/12/3 145/12/3 176/12/3
f 239/12/5 289/171/5 262/12/5
f 362/181/61 369/173/61 363/173/61
f 368/181/62 361/182/62 367/182/62
f 361/182/63 366/174/63 367/182/63
f 366/174/64 359/175/64 365/175/64
f 359/175/65 323/183/65 365/175/65
f 302/183/66 322/184/66 323/183/66
f 322/184/67 300/185/67 321/185/67
f 300/185/68 320/170/68 321/185/68
f 319/12/3 299/170/3 298/12/3
f 364/12/69 369/173/69 370/12/69
f 146/12/1 180/12/1 177/12/1
f 143/12/70 172/12/70 174/12/70
f 36/12/71 52/12/71 48/12/71
f 171/12/49 142/12/49 173/12/49
f 139/12/46 171/12/46 170/12/46
f 138/12/47 170/12/47 169/12/47
f 136/12/44 169/12/44 167/12/44
f 131/12/50 167/12/50 162/12/50
f 130/12/51 162/12/51 161/12/51
f 129/12/52 161/12/52 160/12/52
f 128/12/53 160/12/53 159/12/53
f 157/12/54 128/12/54 159/12/54
f 125/12/48 157/12/48 156/12/48
f 124/12/45 156/12/45 155/12/45
f 123/12/55 155/12/55 154/12/55
f 163/12/56 123/12/56 154/12/56
f 133/12/57 163/12/57 164/12/57
f 35/12/58 164/12/58 47/12/58
f 37/12/59 47/12/59 49/12/59
f 176/12/72 37/12/72 49/12/72
f 141/12/73 168/12/73 172/12/73
f 137/12/74 166/12/74 168/12/74
f 135/12/75 165/12/75 166/12/75
f 134/12/76 158/12/76 165/12/76
f 127/12/77 100/12/77 158/12/77
f 91/12/78 99/12/78 100/12/78
f 98/12/79 90/12/79 89/12/79
f 98/12/80 122/12/80 153/12/80
f 122/12/81 152/12/81 153/12/81
f 43/12/82 121/12/82 31/12/82
f 43/12/83 32/12/83 44/12/83
f 32/12/84 45/12/84 44/12/84
f 33/12/85 46/12/85 45/12/85
f 34/12/86 48/12/86 46/12/86
f 276/180/49 288/186/49 287/180/49
f 277/186/87 290/178/87 288/186/87
f 279/178/88 291/187/88 290/178/88
f 291/187/89 281/189/89 292/189/89
f 281/189/90 294/179/90 292/189/90
f 283/179/91 295/176/91 294/179/91
f 284/176/92 296/190/92 295/176/92
f 296/190/93 286/12/93 297/12/93
f 144/12/94 174/12/94 175/12/94
f 104/12/2 175/12/2 179/12/2
f 147/12/4 151/3/4 146/12/4
f 173/12/2 179/12/2 175/12/2
f 178/12/2 180/142/2 179/154/2
f 142/12/95 178/12/95 173/12/95
f 177/12/96 147/12/96 146/12/96
f 245/6/55 260/6/55 261/6/55
f 307/196/47 310/3/47 308/3/47
f 88/12/1 92/12/1 93/12/1
f 340/3/55 339/3/55 338/196/55
f 230/6/50 231/6/50 232/6/50
f 261/6/56 256/6/56 257/6/56
f 310/3/44 311/3/44 312/3/44
f 20/12/1 87/12/1 88/12/1
f 336/3/56 341/3/56 340/196/56
f 246/6/51 232/6/51 231/6/51
f 18/12/1 19/12/1 20/12/1
f 110/192/3 111/203/3 109/192/3
f 149/191/5 150/3/5 151/3/5
f 256/6/57 259/6/57 257/6/57
f 312/3/50 313/3/50 314/3/50
f 349/3/57 336/196/57 348/3/57
f 247/6/52 248/6/52 249/6/52
f 95/12/5 148/12/5 149/12/5
f 250/6/53 249/6/53 248/6/53
f 243/6/58 258/6/58 242/6/58
f 314/3/51 315/3/51 316/3/51
f 335/3/58 348/196/58 334/3/58
f 181/143/3 184/3/3 183/196/3
f 17/12/3 39/12/3 38/12/3
f 151/3/5 303/3/5 304/3/5
f 240/6/59 243/6/59 242/6/59
f 317/3/52 316/3/52 315/196/52
f 10/169/5 25/153/5 26/153/5
f 38/12/3 41/12/3 40/12/3
f 183/3/3 333/3/3 332/196/3
f 332/3/59 335/3/59 334/196/59
f 26/153/5 27/6/5 28/6/5
f 40/6/3 241/6/3 240/6/3
f 223/6/49 222/6/49 221/6/49
f 318/3/53 342/3/53 343/3/53
f 251/6/54 252/6/54 253/6/54
f 28/6/5 221/6/5 222/6/5
f 7/204/5 10/169/5 8/147/5
f 344/3/54 343/3/54 342/196/54
f 223/6/46 226/6/46 224/6/46
f 675/1/1 674/22/1 771/2/1
f 430/4/2 432/11/2 554/5/2
f 553/7/3 546/14/3 548/6/3
f 422/8/4 421/8/4 539/9/4
f 554/5/3 772/3/3 771/10/3
f 432/11/2 675/1/2 772/3/2
f 432/12/5 431/12/5 674/12/5
f 434/12/1 431/12/1 423/12/1
f 423/12/1 426/12/1 433/12/1
f 549/12/1 543/12/1 544/12/1
f 544/12/1 553/12/1 550/12/1
f 674/12/4 431/12/4 434/12/4
f 674/12/4 434/12/4 436/12/4
f 550/12/4 553/12/4 771/12/4
f 552/12/4 550/12/4 771/12/4
f 674/12/4 436/12/4 448/12/4
f 674/12/4 448/12/4 450/12/4
f 618/12/4 552/12/4 771/12/4
f 620/12/4 618/12/4 771/12/4
f 674/12/4 450/12/4 628/12/4
f 674/12/4 628/12/4 630/12/4
f 742/12/4 620/12/4 771/12/4
f 744/12/4 742/12/4 771/12/4
f 674/12/4 630/12/4 632/12/4
f 674/12/4 632/12/4 634/12/4
f 758/12/4 744/12/4 771/12/4
f 746/12/4 758/12/4 771/12/4
f 674/12/4 634/12/4 636/12/4
f 674/12/4 636/12/4 638/12/4
f 750/12/4 746/12/4 771/12/4
f 748/12/4 750/12/4 771/12/4
f 674/12/4 638/12/4 659/12/4
f 674/12/4 659/12/4 661/12/4
f 756/12/4 748/12/4 771/12/4
f 754/12/4 756/12/4 771/12/4
f 674/12/4 661/12/4 663/12/4
f 674/12/4 663/12/4 665/12/4
f 752/12/4 754/12/4 771/12/4
f 731/12/4 752/12/4 771/12/4
f 771/12/4 674/12/4 665/12/4
f 771/12/4 665/12/4 667/12/4
f 731/12/4 771/12/4 667/12/4
f 731/12/4 667/12/4 657/12/4
f 729/12/4 731/12/4 657/12/4
f 729/12/4 657/12/4 673/12/4
f 727/12/4 729/12/4 673/12/4
f 727/12/4 673/12/4 669/12/4
f 725/12/4 727/12/4 669/12/4
f 725/12/4 669/12/4 671/12/4
f 723/12/4 725/12/4 671/12/4
f 723/12/4 671/12/4 655/12/4
f 721/12/4 723/12/4 655/12/4
f 721/12/4 655/12/4 653/12/4
f 719/12/4 721/12/4 653/12/4
f 719/12/4 653/12/4 471/12/4
f 717/12/4 719/12/4 471/12/4
f 469/12/4 442/12/4 444/12/4
f 717/12/4 471/12/4 469/12/4
f 614/12/4 717/12/4 469/12/4
f 469/12/4 444/12/4 531/12/4
f 536/12/4 538/12/4 612/12/4
f 469/12/4 531/12/4 536/12/4
f 612/12/4 614/12/4 469/12/4
f 428/12/5 431/12/5 432/12/5
f 422/12/5 423/12/5 431/12/5
f 544/13/3 540/17/3 546/14/3
f 429/4/2 430/4/2 548/6/2
f 373/12/5 374/12/5 423/12/5
f 424/12/1 426/12/1 423/12/1
f 423/12/1 374/12/1 376/12/1
f 423/12/97 376/12/97 377/12/97
f 424/12/1 423/12/1 377/12/1
f 424/12/1 377/12/1 418/12/1
f 437/12/1 424/12/1 418/12/1
f 437/12/1 418/12/1 420/12/1
f 439/12/1 437/12/1 420/12/1
f 415/12/1 414/12/1 488/12/1
f 439/12/1 420/12/1 415/12/1
f 521/12/1 439/12/1 415/12/1
f 415/12/1 488/12/1 489/12/1
f 415/12/1 489/12/1 504/12/1
f 526/12/1 521/12/1 415/12/1
f 528/12/1 526/12/1 415/12/1
f 528/12/1 415/12/1 504/12/1
f 544/12/1 543/12/1 541/12/1
f 541/12/1 528/12/1 504/12/1
f 541/12/1 504/12/1 520/12/1
f 518/12/1 544/12/1 541/12/1
f 517/12/1 516/12/1 518/12/1
f 541/12/1 520/12/1 517/12/1
f 427/15/6 429/4/6 547/6/6
f 421/8/6 427/15/6 545/16/6
f 421/12/5 422/12/5 428/12/5
f 540/17/3 539/17/3 545/14/3
f 546/14/3 545/14/3 547/6/3
f 427/12/5 428/12/5 430/12/5
f 518/18/3 510/205/3 540/17/3
f 510/206/6 505/207/6 506/208/6
f 510/206/6 506/208/6 507/209/6
f 422/8/6 540/9/6 510/206/6
f 379/210/6 373/211/6 422/8/6
f 378/212/6 379/210/6 422/8/6
f 510/206/6 507/209/6 508/213/6
f 510/206/6 508/213/6 509/214/6
f 380/215/6 378/212/6 422/8/6
f 381/216/6 380/215/6 422/8/6
f 510/206/6 509/214/6 479/217/6
f 510/206/6 479/217/6 485/218/6
f 382/219/6 381/216/6 422/8/6
f 383/220/6 382/219/6 422/8/6
f 510/206/6 485/218/6 486/221/6
f 510/206/6 486/221/6 484/222/6
f 384/223/6 383/220/6 422/8/6
f 385/224/6 384/223/6 422/8/6
f 422/8/6 510/206/6 484/222/6
f 422/8/6 484/222/6 483/225/6
f 386/226/6 385/224/6 422/8/6
f 387/227/6 386/226/6 422/8/6
f 422/8/6 483/225/6 482/228/6
f 422/8/6 482/228/6 481/229/6
f 388/230/6 387/227/6 422/8/6
f 389/231/6 388/230/6 422/8/6
f 422/8/6 481/229/6 480/232/6
f 422/8/6 480/232/6 478/233/6
f 396/234/6 389/231/6 422/8/6
f 396/234/6 422/8/6 478/233/6
f 396/234/6 478/233/6 477/235/6
f 395/236/6 396/234/6 477/235/6
f 395/236/6 477/235/6 476/237/6
f 394/238/6 395/236/6 476/237/6
f 394/238/6 476/237/6 475/239/6
f 393/240/6 394/238/6 475/239/6
f 474/19/6 473/241/6 390/242/6
f 393/240/6 475/239/6 474/19/6
f 392/21/6 393/240/6 474/19/6
f 474/19/6 390/242/6 391/20/6
f 274/1/1 371/3/1 372/2/1
f 2/4/4 106/6/4 113/5/4
f 106/6/3 108/14/3 114/7/3
f 12/8/2 116/9/2 115/9/2
f 113/5/3 114/7/3 372/10/3
f 5/11/4 113/5/4 371/3/4
f 5/12/5 274/12/5 275/12/5
f 13/12/1 6/12/1 7/12/1
f 7/12/1 8/12/1 14/12/1
f 110/12/1 109/12/1 114/12/1
f 114/12/1 120/12/1 117/12/1
f 372/12/2 114/12/2 109/12/2
f 372/12/2 109/12/2 111/12/2
f 7/12/2 6/12/2 275/12/2
f 9/12/2 7/12/2 275/12/2
f 372/12/2 111/12/2 181/12/2
f 372/12/2 181/12/2 183/12/2
f 25/12/2 9/12/2 275/12/2
f 27/12/2 25/12/2 275/12/2
f 372/12/2 183/12/2 332/12/2
f 372/12/2 332/12/2 334/12/2
f 221/12/2 27/12/2 275/12/2
f 223/12/2 221/12/2 275/12/2
f 372/12/2 334/12/2 348/12/2
f 372/12/2 348/12/2 336/12/2
f 225/12/2 223/12/2 275/12/2
f 227/12/2 225/12/2 275/12/2
f 372/12/2 336/12/2 340/12/2
f 372/12/2 340/12/2 338/12/2
f 229/12/2 227/12/2 275/12/2
f 231/12/2 229/12/2 275/12/2
f 372/12/2 338/12/2 346/12/2
f 372/12/2 346/12/2 344/12/2
f 246/12/2 231/12/2 275/12/2
f 248/12/2 246/12/2 275/12/2
f 372/12/2 344/12/2 342/12/2
f 372/12/2 342/12/2 317/12/2
f 250/12/2 248/12/2 275/12/2
f 252/12/98 250/12/98 275/12/98
f 275/12/2 372/12/2 317/12/2
f 275/12/2 317/12/2 315/12/2
f 252/12/2 275/12/2 315/12/2
f 252/12/2 315/12/2 313/12/2
f 254/12/2 252/12/2 313/12/2
f 254/12/2 313/12/2 311/12/2
f 244/12/2 254/12/2 311/12/2
f 244/12/2 311/12/2 309/12/2
f 260/12/2 244/12/2 309/12/2
f 260/12/2 309/12/2 307/12/2
f 256/12/2 260/12/2 307/12/2
f 256/12/2 307/12/2 305/12/2
f 258/12/2 256/12/2 305/12/2
f 258/12/2 305/12/2 303/12/2
f 242/12/2 258/12/2 303/12/2
f 242/12/2 303/12/2 150/12/2
f 240/12/2 242/12/2 150/12/2
f 148/12/2 94/12/2 92/12/2
f 240/12/2 150/12/2 148/12/2
f 40/12/2 240/12/2 148/12/2
f 148/12/2 92/12/2 87/12/2
f 19/12/2 17/12/2 38/12/2
f 148/12/2 87/12/2 19/12/2
f 38/12/2 40/12/2 148/12/2
f 5/12/5 6/12/5 4/12/5
f 6/12/5 13/12/5 12/12/5
f 108/14/3 116/17/3 120/13/3
f 1/4/4 105/6/4 106/6/4
f 13/12/5 374/12/5 373/12/5
f 188/12/1 488/12/1 414/12/1
f 188/12/1 414/12/1 56/12/1
f 518/12/1 516/12/1 214/12/1
f 120/12/1 518/12/1 214/12/1
f 118/12/1 117/12/1 120/12/1
f 118/12/1 120/12/1 214/12/1
f 118/12/1 214/12/1 188/12/1
f 103/12/1 118/12/1 188/12/1
f 103/12/1 188/12/1 56/12/1
f 101/12/1 103/12/1 56/12/1
f 54/12/1 376/12/1 374/12/1
f 101/12/1 56/12/1 54/12/1
f 96/12/1 101/12/1 54/12/1
f 54/12/1 374/12/1 13/12/1
f 13/12/1 14/12/1 15/12/1
f 54/12/1 13/12/1 15/12/1
f 23/12/1 96/12/1 54/12/1
f 54/12/1 15/12/1 21/12/1
f 3/15/6 107/16/6 105/6/6
f 11/8/6 115/9/6 107/16/6
f 4/12/5 12/12/5 11/12/5
f 107/14/3 115/17/3 116/17/3
f 105/6/3 107/14/3 108/14/3
f 2/12/5 4/12/5 3/12/5
f 116/17/3 510/205/3 518/18/3
f 217/243/6 505/207/6 510/206/6
f 510/206/6 116/9/6 12/8/6
f 12/8/6 373/211/6 379/210/6
f 12/8/6 379/210/6 65/244/6
f 216/245/6 217/243/6 510/206/6
f 215/246/6 216/245/6 510/206/6
f 12/8/6 65/244/6 66/247/6
f 12/8/6 66/247/6 64/248/6
f 200/249/6 215/246/6 510/206/6
f 195/250/6 200/249/6 510/206/6
f 12/8/6 64/248/6 63/251/6
f 12/8/6 63/251/6 57/252/6
f 194/253/6 195/250/6 510/206/6
f 193/254/6 194/253/6 510/206/6
f 12/8/6 57/252/6 58/255/6
f 12/8/6 58/255/6 59/256/6
f 193/254/6 510/206/6 12/8/6
f 192/257/6 193/254/6 12/8/6
f 12/8/6 59/256/6 60/258/6
f 12/8/6 60/258/6 61/259/6
f 191/260/6 192/257/6 12/8/6
f 190/261/6 191/260/6 12/8/6
f 12/8/6 61/259/6 62/262/6
f 12/8/6 62/262/6 67/263/6
f 189/264/6 190/261/6 12/8/6
f 196/265/6 189/264/6 12/8/6
f 196/265/6 12/8/6 67/263/6
f 197/266/6 196/265/6 67/263/6
f 197/266/6 67/263/6 68/267/6
f 198/268/6 197/266/6 68/267/6
f 198/268/6 68/267/6 69/269/6
f 390/242/6 473/241/6 199/23/6
f 199/23/6 198/268/6 69/269/6
f 199/23/6 69/269/6 70/24/6
f 71/25/6 390/242/6 199/23/6
f 515/26/7 517/270/7 520/27/7
f 519/28/4 520/271/4 504/29/4
f 489/31/8 487/272/8 503/30/8
f 488/34/9 188/273/9 187/32/9
f 187/32/9 487/272/9 489/33/9
f 501/48/1 495/40/1 519/39/1
f 515/49/1 514/38/1 513/274/1
f 515/49/1 513/274/1 512/275/1
f 501/48/1 519/39/1 503/276/1
f 502/277/1 501/48/1 503/276/1
f 515/49/1 512/275/1 511/278/1
f 515/49/1 511/278/1 220/279/1
f 500/280/1 502/277/1 503/276/1
f 499/281/1 500/280/1 503/276/1
f 213/282/1 515/49/1 220/279/1
f 213/282/1 220/279/1 219/283/1
f 498/284/1 499/281/1 503/276/1
f 497/285/1 498/284/1 503/276/1
f 213/282/1 219/283/1 218/286/1
f 213/282/1 218/286/1 212/287/1
f 496/288/1 497/285/1 503/276/1
f 494/289/1 496/288/1 503/276/1
f 213/282/1 212/287/1 207/290/1
f 213/282/1 207/290/1 206/291/1
f 494/289/1 503/276/1 487/292/1
f 493/293/1 494/289/1 487/292/1
f 187/37/1 213/282/1 206/291/1
f 187/37/1 206/291/1 205/294/1
f 492/295/1 493/293/1 487/292/1
f 491/296/1 492/295/1 487/292/1
f 187/37/1 205/294/1 204/297/1
f 187/37/1 204/297/1 203/298/1
f 490/299/1 491/296/1 487/292/1
f 211/300/1 490/299/1 487/292/1
f 187/37/1 203/298/1 202/301/1
f 187/37/1 202/301/1 201/302/1
f 211/300/1 487/292/1 187/37/1
f 210/303/1 211/300/1 187/37/1
f 187/37/1 201/302/1 208/35/1
f 209/36/1 210/303/1 187/37/1
f 514/38/1 515/49/1 519/39/1
f 187/32/2 188/273/2 214/41/2
f 515/45/10 213/42/10 214/43/10
f 516/44/10 517/304/10 515/45/10
f 413/26/7 415/270/7 420/27/7
f 419/28/4 420/271/4 418/29/4
f 377/31/8 375/272/8 417/30/8
f 376/34/9 54/273/9 53/32/9
f 53/32/9 375/272/9 377/33/9
f 406/280/1 407/305/1 419/39/1
f 413/49/1 416/48/1 412/306/1
f 413/49/1 412/306/1 411/307/1
f 406/280/1 419/39/1 417/276/1
f 405/308/1 406/280/1 417/276/1
f 413/49/1 411/307/1 410/309/1
f 413/49/1 410/309/1 409/275/1
f 404/284/1 405/308/1 417/276/1
f 403/310/1 404/284/1 417/276/1
f 413/49/1 409/275/1 408/311/1
f 413/49/1 408/311/1 86/312/1
f 402/313/1 403/310/1 417/276/1
f 401/314/1 402/313/1 417/276/1
f 55/282/1 413/49/1 86/312/1
f 55/282/1 86/312/1 85/315/1
f 401/314/1 417/276/1 375/292/1
f 400/316/1 401/314/1 375/292/1
f 55/282/1 85/315/1 84/317/1
f 55/282/1 84/317/1 83/287/1
f 399/318/1 400/316/1 375/292/1
f 398/319/1 399/318/1 375/292/1
f 55/282/1 83/287/1 82/320/1
f 55/282/1 82/320/1 77/291/1
f 397/299/1 398/319/1 375/292/1
f 80/321/1 397/299/1 375/292/1
f 53/37/1 55/282/1 77/291/1
f 53/37/1 77/291/1 76/322/1
f 80/321/1 375/292/1 53/37/1
f 81/323/1 80/321/1 53/37/1
f 53/37/1 76/322/1 75/297/1
f 53/37/1 75/297/1 74/324/1
f 79/325/1 81/323/1 53/37/1
f 78/326/1 79/325/1 53/37/1
f 53/37/1 74/324/1 73/46/1
f 72/47/1 78/326/1 53/37/1
f 419/39/1 407/305/1 416/48/1
f 53/32/2 54/273/2 56/41/2
f 413/45/10 55/42/10 56/43/10
f 414/50/10 415/304/10 413/45/10
f 506/51/11 511/327/11 512/52/11
f 508/54/12 507/53/12 512/55/12
f 509/57/13 508/54/13 513/58/13
f 509/57/14 514/328/14 495/60/14
f 485/62/15 479/61/15 495/63/15
f 486/65/16 485/62/16 501/66/16
f 486/65/17 502/329/17 500/68/17
f 483/70/18 484/69/18 500/71/18
f 482/73/19 483/70/19 499/74/19
f 482/73/20 498/330/20 497/76/20
f 480/78/21 481/77/21 497/79/21
f 478/81/22 480/78/22 496/82/22
f 493/84/23 477/85/23 478/81/23
f 477/85/24 493/84/24 492/86/24
f 475/88/25 476/87/25 492/86/25
f 475/90/26 491/331/26 490/91/26
f 211/95/27 199/332/27 473/93/27
f 473/93/99 474/92/99 490/94/99
f 199/96/28 211/333/28 210/97/28
f 198/99/29 210/334/29 209/100/29
f 208/102/30 196/335/30 197/103/30
f 189/105/31 196/336/31 208/106/31
f 190/108/32 189/105/32 201/109/32
f 190/108/33 202/337/33 203/111/33
f 203/113/34 204/139/34 192/114/34
f 193/115/35 192/114/35 204/116/35
f 193/115/36 205/338/36 206/118/36
f 195/120/37 194/119/37 206/121/37
f 200/123/38 195/120/38 207/124/38
f 200/123/39 212/339/39 218/126/39
f 216/128/40 215/127/40 218/129/40
f 217/131/41 216/128/41 219/132/41
f 505/135/43 217/131/43 220/133/43
f 220/133/43 511/340/43 506/134/43
f 391/51/11 408/327/11 409/52/11
f 392/53/12 409/55/12 410/56/12
f 393/54/13 410/58/13 411/59/13
f 394/57/14 411/328/14 412/60/14
f 395/61/15 412/60/15 416/64/15
f 389/65/16 396/62/16 416/66/16
f 389/65/17 407/67/17 406/68/17
f 387/70/18 388/69/18 406/71/18
f 386/73/19 387/70/19 405/74/19
f 385/136/20 386/73/20 404/75/20
f 402/80/21 384/78/21 385/77/21
f 384/78/22 402/82/22 401/83/22
f 400/84/23 382/85/23 383/81/23
f 381/87/24 382/85/24 400/84/24
f 399/86/25 398/89/25 380/90/25
f 380/90/26 398/89/26 397/91/26
f 80/138/27 65/341/27 379/137/27
f 379/137/27 378/92/27 397/94/27
f 65/96/28 80/95/28 81/97/28
f 66/99/29 81/334/29 79/100/29
f 78/102/30 63/335/30 64/103/30
f 57/105/31 63/336/31 78/106/31
f 58/108/32 57/105/32 72/109/32
f 59/112/33 58/108/33 73/110/33
f 60/114/34 59/112/34 74/113/34
f 61/115/35 60/114/35 75/116/35
f 61/115/36 76/117/36 77/118/36
f 67/120/37 62/119/37 77/121/37
f 67/120/38 82/122/38 83/125/38
f 68/123/39 83/339/39 84/126/39
f 69/127/40 84/129/40 85/130/40
f 70/128/41 85/132/41 86/133/41
f 390/141/43 71/131/43 86/140/43
f 86/140/43 408/340/43 391/134/43
f 616/142/3 615/156/3 617/143/3
f 528/144/4 541/165/4 542/145/4
f 634/6/44 633/6/44 635/6/44
f 426/148/5 424/194/5 425/146/5
f 425/146/5 435/169/5 433/147/5
f 445/149/4 458/149/4 459/150/4
f 755/3/45 747/3/45 748/3/45
f 536/12/1 535/12/1 537/12/1
f 719/3/46 718/3/46 720/3/46
f 666/6/45 656/6/45 657/6/45
f 605/12/2 610/12/2 611/12/2
f 425/151/4 438/158/4 458/149/4
f 445/152/5 446/150/5 449/6/5
f 631/6/47 633/6/47 634/6/47
f 582/154/4 615/154/4 616/142/4
f 551/155/3 617/143/3 615/156/3
f 440/12/1 443/12/1 441/12/1
f 438/158/4 437/163/4 439/159/4
f 551/155/3 542/157/3 541/161/3
f 543/162/3 549/192/3 551/155/3
f 551/155/3 552/155/3 618/143/3
f 425/151/4 424/200/4 437/163/4
f 527/164/4 526/201/4 528/165/4
f 522/166/4 521/202/4 526/167/4
f 440/160/4 439/197/4 521/168/4
f 754/3/48 753/3/48 755/3/48
f 425/146/5 445/152/5 447/153/5
f 529/145/4 542/145/4 615/154/4
f 527/12/1 529/12/1 537/12/1
f 527/12/1 535/12/1 530/12/1
f 443/12/1 440/12/1 522/12/1
f 438/12/3 441/12/3 468/12/3
f 458/12/3 468/12/3 470/12/3
f 703/142/49 704/142/49 718/3/49
f 704/142/46 705/142/46 720/3/46
f 705/142/47 706/142/47 722/3/47
f 706/142/44 707/142/44 724/3/44
f 707/142/50 708/142/50 726/3/50
f 708/142/51 709/142/51 728/3/51
f 709/142/52 710/142/52 730/3/52
f 710/142/53 737/142/53 751/3/53
f 737/142/54 738/142/54 753/3/54
f 738/142/48 739/142/48 755/3/48
f 739/142/45 735/142/45 747/3/45
f 735/142/55 736/142/55 749/3/55
f 736/142/56 734/142/56 745/3/56
f 734/142/57 740/142/57 757/3/57
f 743/3/58 757/3/58 740/142/58
f 733/142/59 732/142/59 741/3/59
f 645/150/54 646/150/54 664/6/54
f 646/150/48 647/150/48 666/6/48
f 647/150/45 642/150/45 656/6/45
f 642/150/55 650/150/55 672/6/55
f 650/150/56 648/150/56 668/6/56
f 648/150/57 649/150/57 670/6/57
f 654/6/58 670/6/58 649/150/58
f 641/150/59 640/150/59 652/6/59
f 621/150/49 622/150/49 629/6/49
f 622/150/46 623/150/46 631/6/46
f 623/150/47 624/150/47 633/6/47
f 624/150/44 625/150/44 635/6/44
f 625/150/50 626/150/50 637/6/50
f 626/150/51 643/150/51 658/6/51
f 643/150/52 644/150/52 660/6/52
f 660/6/53 644/150/53 645/150/53
f 613/3/5 583/142/5 703/142/5
f 737/142/4 710/142/4 709/142/4
f 709/142/4 708/142/4 707/142/4
f 707/142/4 706/142/4 705/142/4
f 705/142/4 704/142/4 703/142/4
f 703/142/4 583/142/4 616/142/4
f 616/142/4 732/142/4 733/142/4
f 733/142/4 740/142/4 734/142/4
f 734/142/4 736/142/4 735/142/4
f 735/142/4 739/142/4 738/142/4
f 738/142/4 737/142/4 709/142/4
f 709/142/4 707/142/4 705/142/4
f 705/142/4 703/142/4 616/142/4
f 616/142/4 733/142/4 734/142/4
f 734/142/4 735/142/4 738/142/4
f 738/142/4 709/142/4 705/142/4
f 705/142/4 616/142/4 734/142/4
f 666/6/48 667/6/48 665/6/48
f 619/3/3 741/3/3 732/142/3
f 470/6/3 652/6/3 640/150/3
f 647/150/4 646/150/4 645/150/4
f 645/150/4 644/150/4 643/150/4
f 643/150/4 626/150/4 625/150/4
f 625/150/4 624/150/4 623/150/4
f 623/150/4 622/150/4 621/150/4
f 621/150/4 446/150/4 459/150/4
f 459/150/4 640/150/4 641/150/4
f 641/150/4 649/150/4 648/150/4
f 648/150/4 650/150/4 642/150/4
f 642/150/4 647/150/4 645/150/4
f 645/150/4 643/150/4 625/150/4
f 625/150/4 623/150/4 621/150/4
f 621/150/4 459/150/4 641/150/4
f 641/150/4 648/150/4 642/150/4
f 642/150/4 645/150/4 625/150/4
f 625/150/4 621/150/4 641/150/4
f 718/3/49 719/3/49 717/3/49
f 446/150/5 621/150/5 627/6/5
f 712/170/2 711/12/2 651/12/2
f 693/172/2 697/12/2 770/12/2
f 713/185/2 712/170/2 689/171/2
f 689/171/2 693/172/2 769/173/2
f 689/171/2 769/173/2 768/181/2
f 714/184/2 713/185/2 689/171/2
f 715/183/2 714/184/2 689/171/2
f 689/171/2 768/181/2 767/182/2
f 689/171/2 767/182/2 766/174/2
f 765/175/2 715/183/2 689/171/2
f 472/12/2 651/12/2 711/12/2
f 604/12/2 600/12/2 601/12/2
f 600/12/2 598/12/2 599/12/2
f 598/12/2 597/12/2 594/12/2
f 597/12/2 590/12/2 593/12/2
f 590/12/2 534/12/2 592/12/2
f 534/12/2 533/12/2 591/12/2
f 533/12/2 532/12/2 589/12/2
f 532/12/2 585/12/2 588/12/2
f 585/12/2 584/12/2 587/12/2
f 584/12/2 461/12/2 586/12/2
f 461/12/2 462/12/2 595/12/2
f 462/12/2 463/12/2 596/12/2
f 465/12/2 596/12/2 463/12/2
f 467/12/2 465/12/2 464/12/2
f 467/12/2 466/12/2 472/12/2
f 602/12/2 603/12/2 606/12/2
f 697/12/2 693/172/2 689/171/2
f 689/171/2 687/180/2 688/186/2
f 688/186/2 690/178/2 691/188/2
f 691/188/2 692/189/2 694/179/2
f 691/188/2 694/179/2 695/176/2
f 689/171/2 688/186/2 691/188/2
f 696/177/2 697/12/2 689/171/2
f 689/171/2 691/188/2 695/176/2
f 603/12/2 605/12/2 607/12/2
f 639/12/4 698/12/4 699/170/4
f 764/12/4 686/12/4 682/172/4
f 682/172/4 678/171/4 699/170/4
f 682/172/4 699/170/4 700/185/4
f 762/181/4 763/173/4 682/172/4
f 761/182/4 762/181/4 682/172/4
f 682/172/4 700/185/4 701/184/4
f 682/172/4 701/184/4 702/183/4
f 760/174/4 761/182/4 682/172/4
f 682/172/4 702/183/4 759/175/4
f 460/12/4 579/12/4 698/12/4
f 572/12/4 571/12/4 575/12/4
f 570/12/4 569/12/4 571/12/4
f 565/12/4 568/12/4 569/12/4
f 564/12/4 561/12/4 568/12/4
f 563/12/4 525/12/4 561/12/4
f 562/12/4 524/12/4 525/12/4
f 560/12/4 523/12/4 524/12/4
f 559/12/4 556/12/4 523/12/4
f 558/12/4 555/12/4 556/12/4
f 557/12/4 451/12/4 555/12/4
f 566/12/4 452/12/4 451/12/4
f 567/12/4 453/12/4 452/12/4
f 453/12/4 567/12/4 455/12/4
f 454/12/4 455/12/4 457/12/4
f 460/12/4 456/12/4 457/12/4
f 573/12/4 575/12/4 577/12/4
f 681/189/4 680/187/4 679/178/4
f 679/178/4 677/186/4 676/180/4
f 676/180/4 678/171/4 682/172/4
f 682/172/4 686/12/4 685/190/4
f 682/172/4 685/190/4 684/176/4
f 679/178/4 676/180/4 682/172/4
f 683/179/4 681/189/4 679/178/4
f 682/172/4 684/176/4 683/179/4
f 574/12/4 577/12/4 578/12/4
f 697/12/60 686/12/60 764/12/60
f 676/180/6 687/180/6 689/171/6
f 639/12/5 651/12/5 472/12/5
f 698/12/3 579/12/3 608/12/3
f 651/12/5 639/12/5 678/171/5
f 762/181/61 768/181/61 769/173/61
f 761/182/62 767/182/62 768/181/62
f 760/174/63 766/174/63 767/182/63
f 759/175/64 765/175/64 766/174/64
f 702/183/65 715/183/65 765/175/65
f 702/183/66 701/184/66 714/184/66
f 700/185/67 713/185/67 714/184/67
f 699/170/68 712/170/68 713/185/68
f 699/170/3 698/12/3 711/12/3
f 764/12/69 763/173/69 769/173/69
f 583/12/1 613/12/1 609/12/1
f 575/12/70 604/12/70 606/12/70
f 460/12/71 472/12/71 466/12/71
f 576/12/49 605/12/49 603/12/49
f 573/12/46 574/12/46 603/12/46
f 572/12/47 573/12/47 602/12/47
f 572/12/44 601/12/44 599/12/44
f 594/12/50 565/12/50 570/12/50
f 565/12/51 594/12/51 593/12/51
f 564/12/52 593/12/52 592/12/52
f 563/12/53 592/12/53 591/12/53
f 560/12/54 562/12/54 591/12/54
f 560/12/48 589/12/48 588/12/48
f 559/12/45 588/12/45 587/12/45
f 558/12/55 587/12/55 586/12/55
f 566/12/56 557/12/56 586/12/56
f 566/12/57 595/12/57 596/12/57
f 465/12/58 455/12/58 567/12/58
f 455/12/59 465/12/59 467/12/59
f 579/12/72 457/12/72 467/12/72
f 571/12/73 600/12/73 604/12/73
f 569/12/74 598/12/74 600/12/74
f 568/12/75 597/12/75 598/12/75
f 561/12/76 590/12/76 597/12/76
f 525/12/77 534/12/77 590/12/77
f 524/12/78 533/12/78 534/12/78
f 523/12/79 532/12/79 533/12/79
f 556/12/80 585/12/80 532/12/80
f 555/12/81 584/12/81 585/12/81
f 451/12/82 461/12/82 584/12/82
f 452/12/83 462/12/83 461/12/83
f 453/12/84 463/12/84 462/12/84
f 454/12/85 464/12/85 463/12/85
f 456/12/86 466/12/86 464/12/86
f 676/180/49 677/186/49 688/186/49
f 679/178/87 690/178/87 688/186/87
f 680/187/88 691/188/88 690/178/88
f 691/188/89 680/187/89 681/189/89
f 692/189/90 681/189/90 683/179/90
f 684/176/91 695/176/91 694/179/91
f 685/190/92 696/177/92 695/176/92
f 686/12/93 697/12/93 696/177/93
f 577/12/94 606/12/94 607/12/94
f 607/12/100 611/12/100 537/12/100
f 578/12/101 607/12/101 537/12/101
f 578/12/101 537/12/101 529/12/101
f 610/12/2 609/12/2 613/3/2
f 582/12/4 581/12/4 576/12/4
f 583/142/4 580/12/4 581/12/4
f 581/12/95 610/12/95 605/12/95
f 580/12/96 609/12/96 610/12/96
f 657/6/55 656/6/55 672/6/55
f 720/3/47 722/3/47 723/3/47
f 531/12/1 530/12/1 535/12/1
f 749/3/55 750/3/55 748/3/55
f 636/6/50 635/6/50 637/6/50
f 673/6/56 672/6/56 668/6/56
f 723/3/44 722/3/44 724/3/44
f 444/12/1 443/12/1 530/12/1
f 745/3/56 746/3/56 750/3/56
f 637/6/51 658/6/51 659/6/51
f 442/12/1 441/12/1 443/12/1
f 550/192/3 552/155/3 551/155/3
f 612/191/5 611/191/5 613/3/5
f 668/6/57 670/6/57 671/6/57
f 725/3/50 724/3/50 726/3/50
f 758/3/57 746/3/57 745/3/57
f 659/6/52 658/6/52 660/6/52
f 538/12/5 537/12/5 611/12/5
f 660/6/53 662/6/53 663/6/53
f 654/6/58 655/6/58 671/6/58
f 726/3/51 728/3/51 729/3/51
f 743/3/58 744/3/58 758/3/58
f 617/143/3 618/143/3 620/3/3
f 442/12/3 469/12/3 468/12/3
f 614/3/5 613/3/5 716/3/5
f 652/6/59 653/6/59 655/6/59
f 730/3/52 731/3/52 729/3/52
f 436/169/5 435/169/5 447/153/5
f 468/12/3 469/12/3 471/12/3
f 619/3/3 620/3/3 742/3/3
f 741/3/59 742/3/59 744/3/59
f 448/153/5 447/153/5 449/6/5
f 470/6/3 471/6/3 653/6/3
f 629/6/49 630/6/49 628/6/49
f 730/3/53 751/3/53 752/3/53
f 662/6/54 664/6/54 665/6/54
f 450/6/5 449/6/5 627/6/5
f 434/193/5 433/147/5 435/169/5
f 751/3/54 753/3/54 754/3/54
f 630/6/46 629/6/46 631/6/46
f 184/3/3 182/143/3 185/156/3
f 104/145/2 119/145/2 118/144/2
f 228/6/44 227/6/44 229/6/44
f 14/195/5 8/147/5 10/169/5
f 10/169/5 16/146/5 15/194/5
f 29/149/2 30/150/2 51/150/2
f 338/3/45 339/3/45 347/3/45
f 93/12/1 92/12/1 94/12/1
f 305/196/46 307/3/46 308/3/46
f 244/6/45 245/6/45 255/6/45
f 142/12/4 144/12/4 149/12/4
f 16/151/2 29/149/2 50/149/2
f 28/6/5 30/150/5 29/152/5
f 225/6/47 227/6/47 228/6/47
f 179/154/2 180/142/2 186/142/2
f 112/155/3 119/157/3 185/156/3
f 18/12/1 20/12/1 24/12/1
f 21/163/2 22/158/2 24/160/2
f 119/157/3 112/155/3 110/192/3
f 117/198/3 118/342/3 119/157/3
f 111/155/3 112/155/3 182/143/3
f 15/200/2 16/151/2 22/158/2
f 101/167/2 102/164/2 104/145/2
f 96/168/2 97/166/2 102/164/2
f 23/159/2 24/160/2 97/166/2
f 345/3/48 344/196/48 346/3/48
f 16/146/5 10/169/5 26/153/5
f 104/145/2 179/154/2 185/154/2
f 93/12/1 95/12/1 104/12/1
f 88/12/1 93/12/1 102/12/1
f 20/12/1 88/12/1 97/12/1
f 22/12/3 50/12/3 39/12/3
f 51/12/3 41/12/3 39/12/3
f 306/3/49 325/142/49 324/142/49
f 325/142/46 306/3/46 308/3/46
f 310/3/47 327/142/47 326/142/47
f 312/3/44 328/142/44 327/142/44
f 314/3/50 329/142/50 328/142/50
f 316/3/51 330/142/51 329/142/51
f 318/3/52 331/142/52 330/142/52
f 331/142/53 318/3/53 343/3/53
f 345/3/54 356/142/54 355/142/54
f 347/3/48 357/142/48 356/142/48
f 339/3/45 353/142/45 357/142/45
f 341/3/55 354/142/55 353/142/55
f 341/3/56 337/3/56 352/142/56
f 337/3/57 349/3/57 358/142/57
f 349/3/58 335/3/58 351/142/58
f 333/3/59 350/142/59 351/142/59
f 253/6/54 269/150/54 268/150/54
f 255/6/48 270/150/48 269/150/48
f 245/6/45 265/150/45 270/150/45
f 265/150/55 245/6/55 261/6/55
f 257/6/56 271/150/56 273/150/56
f 259/6/57 272/150/57 271/150/57
f 243/6/58 264/150/58 272/150/58
f 241/6/59 263/150/59 264/150/59
f 224/6/49 234/150/49 233/150/49
f 235/150/46 234/150/46 224/6/46
f 228/6/47 236/150/47 235/150/47
f 228/6/44 230/6/44 237/150/44
f 230/6/50 232/6/50 238/150/50
f 247/6/51 266/150/51 238/150/51
f 247/6/52 249/6/52 267/150/52
f 249/6/53 251/6/53 268/150/53
f 180/142/5 151/3/5 304/3/5
f 353/142/2 354/142/2 352/142/2
f 352/142/2 358/142/2 351/142/2
f 351/142/2 350/142/2 186/142/2
f 186/142/2 180/142/2 324/142/2
f 324/142/2 325/142/2 326/142/2
f 326/142/2 327/142/2 328/142/2
f 328/142/2 329/142/2 330/142/2
f 330/142/2 331/142/2 355/142/2
f 355/142/2 356/142/2 357/142/2
f 357/142/2 353/142/2 352/142/2
f 352/142/2 351/142/2 186/142/2
f 186/142/2 324/142/2 326/142/2
f 326/142/2 328/142/2 330/142/2
f 330/142/2 355/142/2 357/142/2
f 357/142/2 352/142/2 186/142/2
f 186/142/2 326/142/2 330/142/2
f 254/6/48 255/6/48 253/6/48
f 333/3/3 184/3/3 186/142/3
f 241/6/3 41/6/3 51/150/3
f 272/150/2 264/150/2 263/150/2
f 263/150/2 51/150/2 30/150/2
f 30/150/2 233/150/2 234/150/2
f 234/150/2 235/150/2 236/150/2
f 236/150/2 237/150/2 238/150/2
f 238/150/2 266/150/2 267/150/2
f 267/150/2 268/150/2 269/150/2
f 269/150/2 270/150/2 265/150/2
f 265/150/2 273/150/2 271/150/2
f 271/150/2 272/150/2 263/150/2
f 263/150/2 30/150/2 234/150/2
f 234/150/2 236/150/2 238/150/2
f 238/150/2 267/150/2 269/150/2
f 269/150/2 265/150/2 271/150/2
f 271/150/2 263/150/2 234/150/2
f 234/150/2 238/150/2 269/150/2
f 305/3/49 306/3/49 304/3/49
f 30/150/5 28/6/5 222/6/5
f 239/12/4 298/12/4 299/170/4
f 364/12/4 286/12/4 282/172/4
f 282/172/4 278/171/4 299/170/4
f 282/172/4 299/170/4 300/185/4
f 362/181/4 363/173/4 282/172/4
f 361/182/4 362/181/4 282/172/4
f 282/172/4 300/185/4 301/184/4
f 282/172/4 301/184/4 302/183/4
f 360/174/4 361/182/4 282/172/4
f 282/172/4 302/183/4 359/175/4
f 42/12/4 145/12/4 298/12/4
f 138/12/4 137/12/4 141/12/4
f 136/12/4 135/12/4 137/12/4
f 131/12/4 134/12/4 135/12/4
f 130/12/4 127/12/4 134/12/4
f 129/12/4 91/12/4 127/12/4
f 128/12/4 90/12/4 91/12/4
f 126/12/4 89/12/4 90/12/4
f 125/12/4 122/12/4 89/12/4
f 124/12/4 121/12/4 122/12/4
f 123/12/4 31/12/4 121/12/4
f 132/12/4 32/12/4 31/12/4
f 133/12/4 33/12/4 32/12/4
f 33/12/4 133/12/4 35/12/4
f 34/12/4 35/12/4 37/12/4
f 42/12/4 36/12/4 37/12/4
f 139/12/4 141/12/4 143/12/4
f 281/189/4 280/188/4 279/178/4
f 279/178/4 277/186/4 276/180/4
f 276/180/4 278/171/4 282/172/4
f 282/172/4 286/12/4 285/177/4
f 282/172/4 285/177/4 284/176/4
f 279/178/4 276/180/4 282/172/4
f 283/179/4 281/189/4 279/178/4
f 282/172/4 284/176/4 283/179/4
f 140/12/4 143/12/4 144/12/4
f 320/170/2 319/12/2 262/12/2
f 293/172/2 297/12/2 370/12/2
f 321/185/2 320/170/2 289/171/2
f 289/171/2 293/172/2 369/173/2
f 289/171/2 369/173/2 368/181/2
f 322/184/2 321/185/2 289/171/2
f 323/183/2 322/184/2 289/171/2
f 289/171/2 368/181/2 367/182/2
f 289/171/2 367/182/2 366/174/2
f 365/175/2 323/183/2 289/171/2
f 52/12/2 262/12/2 319/12/2
f 172/12/2 168/12/2 169/12/2
f 168/12/2 166/12/2 167/12/2
f 166/12/2 165/12/2 162/12/2
f 165/12/2 158/12/2 161/12/2
f 158/12/2 100/12/2 160/12/2
f 100/12/2 99/12/2 159/12/2
f 99/12/2 98/12/2 157/12/2
f 98/12/2 153/12/2 156/12/2
f 153/12/2 152/12/2 155/12/2
f 152/12/2 43/12/2 154/12/2
f 43/12/2 44/12/2 163/12/2
f 44/12/2 45/12/2 164/12/2
f 47/12/2 164/12/2 45/12/2
f 49/12/2 47/12/2 46/12/2
f 49/12/2 48/12/2 52/12/2
f 170/12/2 171/12/2 174/12/2
f 297/12/2 293/172/2 289/171/2
f 289/171/2 287/180/2 288/186/2
f 288/186/2 290/178/2 291/187/2
f 291/187/2 292/189/2 294/179/2
f 291/187/2 294/179/2 295/176/2
f 289/171/2 288/186/2 291/187/2
f 296/190/2 297/12/2 289/171/2
f 289/171/2 291/187/2 295/176/2
f 171/12/2 173/12/2 175/12/2
f 286/12/60 364/12/60 370/12/60
f 278/171/6 276/180/6 287/180/6
f 42/12/5 239/12/5 262/12/5
f 319/12/3 298/12/3 145/12/3
f 239/12/5 278/171/5 289/171/5
f 362/181/61 368/181/61 369/173/61
f 368/181/62 362/181/62 361/182/62
f 361/182/63 360/174/63 366/174/63
f 366/174/64 360/174/64 359/175/64
f 359/175/65 302/183/65 323/183/65
f 302/183/66 301/184/66 322/184/66
f 322/184/67 301/184/67 300/185/67
f 300/185/68 299/170/68 320/170/68
f 319/12/3 320/170/3 299/170/3
f 364/12/69 363/173/69 369/173/69
f 146/12/1 151/12/1 180/12/1
f 143/12/70 141/12/70 172/12/70
f 36/12/71 42/12/71 52/12/71
f 171/12/49 140/12/49 142/12/49
f 139/12/46 140/12/46 171/12/46
f 138/12/47 139/12/47 170/12/47
f 136/12/44 138/12/44 169/12/44
f 131/12/50 136/12/50 167/12/50
f 130/12/51 131/12/51 162/12/51
f 129/12/52 130/12/52 161/12/52
f 128/12/53 129/12/53 160/12/53
f 157/12/54 126/12/54 128/12/54
f 125/12/48 126/12/48 157/12/48
f 124/12/45 125/12/45 156/12/45
f 123/12/55 124/12/55 155/12/55
f 163/12/56 132/12/56 123/12/56
f 133/12/57 132/12/57 163/12/57
f 35/12/58 133/12/58 164/12/58
f 37/12/59 35/12/59 47/12/59
f 176/12/72 145/12/72 37/12/72
f 141/12/73 137/12/73 168/12/73
f 137/12/74 135/12/74 166/12/74
f 135/12/75 134/12/75 165/12/75
f 134/12/76 127/12/76 158/12/76
f 127/12/77 91/12/77 100/12/77
f 91/12/78 90/12/78 99/12/78
f 98/12/79 99/12/79 90/12/79
f 98/12/80 89/12/80 122/12/80
f 122/12/81 121/12/81 152/12/81
f 43/12/82 152/12/82 121/12/82
f 43/12/83 31/12/83 32/12/83
f 32/12/84 33/12/84 45/12/84
f 33/12/85 34/12/85 46/12/85
f 34/12/86 36/12/86 48/12/86
f 276/180/49 277/186/49 288/186/49
f 277/186/87 279/178/87 290/178/87
f 279/178/88 280/188/88 291/187/88
f 291/187/89 280/188/89 281/189/89
f 281/189/90 283/179/90 294/179/90
f 283/179/91 284/176/91 295/176/91
f 284/176/92 285/177/92 296/190/92
f 296/190/93 285/177/93 286/12/93
f 144/12/94 143/12/94 174/12/94
f 95/12/102 149/12/102 144/12/102
f 95/12/101 144/12/101 175/12/101
f 104/12/101 95/12/101 175/12/101
f 147/12/4 149/191/4 151/3/4
f 173/12/2 178/12/2 179/12/2
f 178/12/2 177/12/2 180/142/2
f 142/12/95 147/12/95 178/12/95
f 177/12/96 178/12/96 147/12/96
f 245/6/55 244/6/55 260/6/55
f 307/196/47 309/3/47 310/3/47
f 88/12/1 87/12/1 92/12/1
f 340/3/55 341/3/55 339/3/55
f 230/6/50 229/6/50 231/6/50
f 261/6/56 260/6/56 256/6/56
f 310/3/44 309/196/44 311/3/44
f 20/12/1 19/12/1 87/12/1
f 336/3/56 337/3/56 341/3/56
f 246/6/51 247/6/51 232/6/51
f 18/12/1 17/12/1 19/12/1
f 110/192/3 112/155/3 111/203/3
f 149/191/5 148/191/5 150/3/5
f 256/6/57 258/6/57 259/6/57
f 312/3/50 311/196/50 313/3/50
f 349/3/57 337/3/57 336/196/57
f 247/6/52 246/6/52 248/6/52
f 95/12/5 94/12/5 148/12/5
f 250/6/53 251/6/53 249/6/53
f 243/6/58 259/6/58 258/6/58
f 314/3/51 313/196/51 315/3/51
f 335/3/58 349/3/58 348/196/58
f 181/143/3 182/143/3 184/3/3
f 17/12/3 18/12/3 39/12/3
f 151/3/5 150/196/5 303/3/5
f 240/6/59 241/6/59 243/6/59
f 317/3/52 318/3/52 316/3/52
f 10/169/5 9/343/5 25/153/5
f 38/12/3 39/12/3 41/12/3
f 183/3/3 184/3/3 333/3/3
f 332/3/59 333/3/59 335/3/59
f 26/153/5 25/153/5 27/6/5
f 40/6/3 41/6/3 241/6/3
f 223/6/49 224/6/49 222/6/49
f 318/3/53 317/196/53 342/3/53
f 251/6/54 250/6/54 252/6/54
f 28/6/5 27/6/5 221/6/5
f 7/204/5 9/169/5 10/169/5
f 344/3/54 345/3/54 343/3/54
f 223/6/46 225/6/46 226/6/46
