# Blender 5.1.2
# www.blender.org
o Cube.009
v 146.512802 190.448547 38.446594
v 149.012695 211.009506 42.746593
v 149.012695 190.448547 38.446594
v 149.012695 212.509506 41.846592
v 146.512802 190.448547 46.746593
v 149.012695 206.509506 39.746593
v 149.012695 206.509506 41.246593
v 149.012695 190.448547 46.746593
v 146.512802 198.279297 38.446594
v 149.012695 202.208984 42.246593
v 149.012695 198.279297 38.446594
v 149.012695 198.279297 44.746593
v 146.512802 198.279297 46.746593
v 149.012695 202.208984 41.246593
v 146.512802 190.448547 49.546593
v 149.012695 198.279297 41.246593
v 149.012695 190.448547 49.546593
v 149.012695 198.279297 42.246593
v 149.012695 209.491165 42.577888
v 146.512802 198.279297 49.546593
v 149.012695 198.279297 49.546593
v 149.012695 203.509506 42.246593
v 146.512802 190.448547 35.646591
v 149.012695 209.502869 42.047035
v 149.012695 190.448547 35.646591
v 149.012695 208.851822 42.513256
v 146.512802 198.279297 35.646591
v 149.012695 208.121765 42.451107
v 149.012695 198.279297 35.646591
v 146.512802 190.448547 45.746590
v 149.012695 207.329056 42.393829
v 149.012695 206.504135 42.343628
v 146.512802 190.448547 42.746593
v 146.512802 190.448547 39.746593
v 149.012695 205.678726 42.302425
v 149.012695 204.884521 42.271812
v 149.012695 190.448547 39.746593
v 149.012695 190.448547 42.746593
v 149.012695 204.152069 42.252956
v 149.012695 194.480957 46.535976
v 149.012695 190.448547 45.746590
v 146.512802 196.279312 46.746593
v 149.012695 193.998642 46.278175
v 149.012695 193.575897 45.931236
v 146.512802 196.279312 38.446594
v 149.012695 193.228943 45.508488
v 149.012695 192.971146 45.026176
v 149.012695 196.279312 38.446594
v 146.512802 196.279312 49.546593
v 149.012695 192.812393 44.502834
v 149.012695 196.279312 49.546593
v 149.012695 192.758789 43.958584
v 146.512802 196.279312 35.646591
v 149.012695 192.812393 43.414330
v 149.012695 196.279312 35.646591
v 149.012695 192.971146 42.890991
v 146.512802 192.267014 46.746593
v 149.012695 193.228943 42.408680
v 149.012695 192.267014 38.446594
v 149.012695 193.575897 41.985928
v 146.512802 192.267014 49.546593
v 149.012695 193.998642 41.638988
v 149.012695 192.267014 35.646591
v 149.012695 194.480957 41.381187
v 146.512802 192.267014 45.746590
v 149.012695 195.004288 41.222435
v 146.512802 192.267014 42.746593
v 149.012695 195.548538 41.168827
v 146.512802 192.267014 39.746593
v 149.012695 195.197556 45.737358
v 149.012695 192.267029 46.746593
v 149.012695 195.548538 45.771931
v 149.012695 194.548996 45.468719
v 146.512802 192.267029 38.446594
v 149.012695 194.860046 45.634979
v 149.012695 192.267029 49.546593
v 146.512802 192.267029 35.646591
v 149.012695 194.276367 45.244976
v 149.012695 192.267029 45.746590
v 149.012695 194.052612 44.972340
v 149.012695 192.267029 42.746593
v 149.012695 193.886353 44.661297
v 149.012695 192.267029 39.746593
v 149.012695 193.783981 44.323795
v 149.012695 193.749405 43.972797
v 146.512802 205.279312 48.146591
v 146.512802 203.879303 46.746593
v 149.012695 193.783981 43.621803
v 149.012695 193.886353 43.284302
v 146.512802 205.252411 47.873466
v 149.012695 194.052612 42.973259
v 146.512802 205.172745 47.610836
v 149.012695 194.276367 42.700623
v 146.512802 205.043365 47.368793
v 149.012695 194.548996 42.476879
v 146.512802 204.869263 47.156643
v 146.512802 204.657104 46.982536
v 149.012695 194.860046 42.310619
v 146.512802 204.415070 46.853161
v 149.012695 195.197556 42.208241
v 149.012695 195.548538 42.173668
v 146.512802 204.152435 46.773495
v 149.012695 195.515701 46.739044
v 149.012695 203.879303 46.746593
v 149.012695 205.279312 48.146591
v 149.012695 211.763168 41.631680
v 149.012695 204.152435 46.773495
v 149.012695 207.336807 39.828075
v 149.012695 211.037277 41.372505
v 149.012695 204.415070 46.853161
v 149.012695 210.320343 41.022148
v 149.012695 204.657104 46.982536
v 149.012695 204.869263 47.156643
v 149.012695 209.628265 40.660641
v 149.012695 205.043365 47.368793
v 149.012695 208.939911 40.357815
v 149.012695 205.172745 47.610836
v 149.012695 208.191269 40.047203
v 149.012695 205.252411 47.873466
v 149.012695 194.996078 46.677536
v 146.512802 203.879303 49.546593
v 146.512802 204.152435 49.519691
v 146.512802 204.415070 49.440025
v 146.512802 204.657104 49.310650
v 146.512802 204.869263 49.136543
v 146.512802 211.009506 42.746593
v 146.512802 205.043365 48.924389
v 146.512802 212.509506 41.846592
v 146.512802 205.172745 48.682350
v 146.512802 206.509506 39.746593
v 146.512802 205.252411 48.419720
v 146.512802 206.509506 41.246593
v 146.512802 202.208984 42.246593
v 149.012695 203.879303 49.546593
v 149.012695 205.252411 48.419720
v 146.512802 198.279297 44.746593
v 149.012695 205.172745 48.682350
v 146.512802 202.208984 41.246593
v 149.012695 205.043365 48.924389
v 149.012695 204.869263 49.136543
v 146.512802 198.279297 41.246593
v 149.012695 204.657104 49.310650
v 146.512802 198.279297 42.246593
v 149.012695 204.415070 49.440025
v 146.512802 209.491165 42.577888
v 146.512802 203.509506 42.246593
v 149.012695 204.152435 49.519691
v 146.512802 203.879303 38.446594
v 146.512802 205.279312 37.046593
v 146.512802 209.502869 42.047035
v 146.512802 204.152435 38.419693
v 146.512802 208.851822 42.513252
v 146.512802 204.415070 38.340023
v 146.512802 208.121765 42.451107
v 146.512802 204.657104 38.210651
v 146.512802 207.329056 42.393829
v 146.512802 204.869263 38.036541
v 146.512802 206.504135 42.343628
v 146.512802 205.043365 37.824390
v 146.512802 205.678726 42.302425
v 146.512802 205.172745 37.582348
v 146.512802 204.884521 42.271809
v 146.512802 205.252411 37.319717
v 146.512802 204.152069 42.252956
v 149.012695 205.279312 37.046593
v 146.512802 194.480957 46.535976
v 149.012695 203.879303 38.446594
v 146.512802 193.998642 46.278175
v 146.512802 193.575897 45.931236
v 149.012695 205.252411 37.319717
v 149.012695 205.172745 37.582348
v 146.512802 193.228943 45.508488
v 146.512802 192.971146 45.026176
v 149.012695 205.043365 37.824390
v 149.012695 204.869263 38.036541
v 146.512802 192.812393 44.502834
v 146.512802 192.758789 43.958584
v 149.012695 204.657104 38.210651
v 149.012695 204.415070 38.340023
v 146.512802 192.812393 43.414330
v 146.512802 192.971146 42.890991
v 149.012695 204.152435 38.419693
v 146.512802 193.228943 42.408680
v 146.512802 193.575897 41.985928
v 146.512802 203.879303 35.646591
v 146.512802 205.252411 36.773468
v 146.512802 193.998642 41.638988
v 146.512802 194.480957 41.381187
v 146.512802 205.172745 36.510834
v 146.512802 205.043365 36.268795
v 146.512802 195.004288 41.222435
v 146.512802 195.548538 41.168827
v 146.512802 204.869263 36.056644
v 146.512802 204.657104 35.882534
v 146.512802 195.197556 45.737358
v 146.512802 204.415070 35.753159
v 146.512802 195.548538 45.771931
v 146.512802 194.548996 45.468719
v 146.512802 204.152435 35.673492
v 146.512802 194.860046 45.634979
v 149.012695 203.879303 35.646591
v 146.512802 194.276367 45.244976
v 146.512802 194.052612 44.972340
v 149.012695 204.152435 35.673492
v 149.012695 204.415070 35.753159
v 146.512802 193.886353 44.661297
v 149.012695 204.657104 35.882534
v 146.512802 193.783981 44.323795
v 149.012695 204.869263 36.056644
v 146.512802 193.749405 43.972797
v 149.012695 205.043365 36.268795
v 146.512802 193.783981 43.621803
v 149.012695 205.172745 36.510834
v 146.512802 193.886353 43.284302
v 146.512802 194.052612 42.973259
v 149.012695 205.252411 36.773468
v 146.512802 194.276367 42.700623
v 146.512802 194.548996 42.476879
v 146.512802 194.860046 42.310619
v 146.512802 195.197556 42.208241
v 146.512802 195.548538 42.173668
v 146.512802 195.515701 46.739044
v 146.512802 211.763168 41.631680
v 146.512802 207.336807 39.828075
v 146.512802 211.037277 41.372505
v 146.512802 210.320343 41.022148
v 146.512802 209.628265 40.660641
v 146.512802 208.939911 40.357815
v 146.512802 208.191269 40.047203
v 146.512802 194.996078 46.677536
v 149.012695 196.279312 46.746593
v 149.012695 198.279297 46.746593
v 149.012695 196.312149 45.779480
v 146.512802 196.312149 45.779480
v 146.512802 228.110046 38.446594
v 149.012695 207.549088 42.746593
v 149.012695 228.110046 38.446594
v 149.012695 206.049088 41.846592
v 146.512802 228.110046 46.746593
v 149.012695 212.049088 39.746593
v 149.012695 212.049088 41.246593
v 149.012695 228.110046 46.746593
v 146.512802 220.279297 38.446594
v 149.012695 216.349609 42.246593
v 149.012695 220.279297 38.446594
v 149.012695 220.279297 44.746593
v 146.512802 220.279297 46.746593
v 149.012695 216.349609 41.246593
v 146.512802 228.110046 49.546593
v 149.012695 220.279297 41.246593
v 149.012695 228.110046 49.546593
v 149.012695 220.279297 42.246593
v 149.012695 209.067429 42.577888
v 146.512802 220.279297 49.546593
v 149.012695 220.279297 49.546593
v 149.012695 215.049088 42.246593
v 146.512802 228.110046 35.646591
v 149.012695 209.055725 42.047035
v 149.012695 228.110046 35.646591
v 149.012695 209.706772 42.513256
v 146.512802 220.279297 35.646591
v 149.012695 210.436829 42.451107
v 149.012695 220.279297 35.646591
v 146.512802 228.110046 45.746590
v 149.012695 211.229538 42.393829
v 149.012695 212.054459 42.343628
v 146.512802 228.110046 42.746593
v 146.512802 228.110046 39.746593
v 149.012695 212.879868 42.302425
v 149.012695 213.674072 42.271812
v 149.012695 228.110046 39.746593
v 149.012695 228.110046 42.746593
v 149.012695 214.406525 42.252956
v 149.012695 224.077637 46.535976
v 149.012695 228.110046 45.746590
v 146.512802 222.279282 46.746593
v 149.012695 224.559952 46.278175
v 149.012695 224.982697 45.931236
v 146.512802 222.279282 38.446594
v 149.012695 225.329651 45.508488
v 149.012695 225.587448 45.026176
v 149.012695 222.279282 38.446594
v 146.512802 222.279282 49.546593
v 149.012695 225.746201 44.502834
v 149.012695 222.279282 49.546593
v 149.012695 225.799805 43.958584
v 146.512802 222.279282 35.646591
v 149.012695 225.746201 43.414330
v 149.012695 222.279282 35.646591
v 149.012695 225.587448 42.890991
v 146.512802 226.291580 46.746593
v 149.012695 225.329651 42.408680
v 149.012695 226.291580 38.446594
v 149.012695 224.982697 41.985928
v 146.512802 226.291580 49.546593
v 149.012695 224.559952 41.638988
v 149.012695 226.291580 35.646591
v 149.012695 224.077637 41.381187
v 146.512802 226.291580 45.746590
v 149.012695 223.554306 41.222435
v 146.512802 226.291580 42.746593
v 149.012695 223.010056 41.168827
v 146.512802 226.291580 39.746593
v 149.012695 223.361038 45.737358
v 149.012695 226.291565 46.746593
v 149.012695 223.010056 45.771931
v 149.012695 224.009598 45.468719
v 146.512802 226.291565 38.446594
v 149.012695 223.698547 45.634979
v 149.012695 226.291565 49.546593
v 146.512802 226.291565 35.646591
v 149.012695 224.282227 45.244976
v 149.012695 226.291565 45.746590
v 149.012695 224.505981 44.972340
v 149.012695 226.291565 42.746593
v 149.012695 224.672241 44.661297
v 149.012695 226.291565 39.746593
v 149.012695 224.774612 44.323795
v 149.012695 224.809189 43.972797
v 146.512802 213.279282 48.146591
v 146.512802 214.679291 46.746593
v 149.012695 224.774612 43.621803
v 149.012695 224.672241 43.284302
v 146.512802 213.306183 47.873466
v 149.012695 224.505981 42.973259
v 146.512802 213.385849 47.610836
v 149.012695 224.282227 42.700623
v 146.512802 213.515228 47.368793
v 149.012695 224.009598 42.476879
v 146.512802 213.689331 47.156643
v 146.512802 213.901489 46.982536
v 149.012695 223.698547 42.310619
v 146.512802 214.143524 46.853161
v 149.012695 223.361038 42.208241
v 149.012695 223.010056 42.173668
v 146.512802 214.406158 46.773495
v 149.012695 223.042892 46.739044
v 149.012695 214.679291 46.746593
v 149.012695 213.279282 48.146591
v 149.012695 206.795425 41.631680
v 149.012695 214.406158 46.773495
v 149.012695 211.221802 39.828075
v 149.012695 207.521317 41.372505
v 149.012695 214.143524 46.853161
v 149.012695 208.238251 41.022148
v 149.012695 213.901489 46.982536
v 149.012695 213.689331 47.156643
v 149.012695 208.930328 40.660641
v 149.012695 213.515228 47.368793
v 149.012695 209.618683 40.357815
v 149.012695 213.385849 47.610836
v 149.012695 210.367325 40.047203
v 149.012695 213.306183 47.873466
v 149.012695 223.562515 46.677536
v 146.512802 214.679291 49.546593
v 146.512802 214.406158 49.519691
v 146.512802 214.143524 49.440025
v 146.512802 213.901489 49.310650
v 146.512802 213.689331 49.136543
v 146.512802 207.549088 42.746593
v 146.512802 213.515228 48.924389
v 146.512802 206.049088 41.846592
v 146.512802 213.385849 48.682350
v 146.512802 212.049088 39.746593
v 146.512802 213.306183 48.419720
v 146.512802 212.049088 41.246593
v 146.512802 216.349609 42.246593
v 149.012695 214.679291 49.546593
v 149.012695 213.306183 48.419720
v 146.512802 220.279297 44.746593
v 149.012695 213.385849 48.682350
v 146.512802 216.349609 41.246593
v 149.012695 213.515228 48.924389
v 149.012695 213.689331 49.136543
v 146.512802 220.279297 41.246593
v 149.012695 213.901489 49.310650
v 146.512802 220.279297 42.246593
v 149.012695 214.143524 49.440025
v 146.512802 209.067429 42.577888
v 146.512802 215.049088 42.246593
v 149.012695 214.406158 49.519691
v 146.512802 214.679291 38.446594
v 146.512802 213.279282 37.046593
v 146.512802 209.055725 42.047035
v 146.512802 214.406158 38.419693
v 146.512802 209.706772 42.513252
v 146.512802 214.143524 38.340023
v 146.512802 210.436829 42.451107
v 146.512802 213.901489 38.210651
v 146.512802 211.229538 42.393829
v 146.512802 213.689331 38.036541
v 146.512802 212.054459 42.343628
v 146.512802 213.515228 37.824390
v 146.512802 212.879868 42.302425
v 146.512802 213.385849 37.582348
v 146.512802 213.674072 42.271809
v 146.512802 213.306183 37.319717
v 146.512802 214.406525 42.252956
v 149.012695 213.279282 37.046593
v 146.512802 224.077637 46.535976
v 149.012695 214.679291 38.446594
v 146.512802 224.559952 46.278175
v 146.512802 224.982697 45.931236
v 149.012695 213.306183 37.319717
v 149.012695 213.385849 37.582348
v 146.512802 225.329651 45.508488
v 146.512802 225.587448 45.026176
v 149.012695 213.515228 37.824390
v 149.012695 213.689331 38.036541
v 146.512802 225.746201 44.502834
v 146.512802 225.799805 43.958584
v 149.012695 213.901489 38.210651
v 149.012695 214.143524 38.340023
v 146.512802 225.746201 43.414330
v 146.512802 225.587448 42.890991
v 149.012695 214.406158 38.419693
v 146.512802 225.329651 42.408680
v 146.512802 224.982697 41.985928
v 146.512802 214.679291 35.646591
v 146.512802 213.306183 36.773468
v 146.512802 224.559952 41.638988
v 146.512802 224.077637 41.381187
v 146.512802 213.385849 36.510834
v 146.512802 213.515228 36.268795
v 146.512802 223.554306 41.222435
v 146.512802 223.010056 41.168827
v 146.512802 213.689331 36.056644
v 146.512802 213.901489 35.882534
v 146.512802 223.361038 45.737358
v 146.512802 214.143524 35.753159
v 146.512802 223.010056 45.771931
v 146.512802 224.009598 45.468719
v 146.512802 214.406158 35.673492
v 146.512802 223.698547 45.634979
v 149.012695 214.679291 35.646591
v 146.512802 224.282227 45.244976
v 146.512802 224.505981 44.972340
v 149.012695 214.406158 35.673492
v 149.012695 214.143524 35.753159
v 146.512802 224.672241 44.661297
v 149.012695 213.901489 35.882534
v 146.512802 224.774612 44.323795
v 149.012695 213.689331 36.056644
v 146.512802 224.809189 43.972797
v 149.012695 213.515228 36.268795
v 146.512802 224.774612 43.621803
v 149.012695 213.385849 36.510834
v 146.512802 224.672241 43.284302
v 146.512802 224.505981 42.973259
v 149.012695 213.306183 36.773468
v 146.512802 224.282227 42.700623
v 146.512802 224.009598 42.476879
v 146.512802 223.698547 42.310619
v 146.512802 223.361038 42.208241
v 146.512802 223.010056 42.173668
v 146.512802 223.042892 46.739044
v 146.512802 206.795425 41.631680
v 146.512802 211.221802 39.828075
v 146.512802 207.521317 41.372505
v 146.512802 208.238251 41.022148
v 146.512802 208.930328 40.660641
v 146.512802 209.618683 40.357815
v 146.512802 210.367325 40.047203
v 146.512802 223.562515 46.677536
v 149.012695 222.279282 46.746593
v 149.012695 220.279297 46.746593
v 149.012695 222.246445 45.779480
v 146.512802 222.246445 45.779480
v 134.512680 190.448547 38.446594
v 132.012787 211.009506 42.746593
v 132.012787 190.448547 38.446594
v 132.012787 212.509506 41.846592
v 134.512680 190.448547 46.746593
v 132.012787 206.509506 39.746593
v 132.012787 206.509506 41.246593
v 132.012787 190.448547 46.746593
v 134.512680 198.279297 38.446594
v 132.012787 202.208984 42.246593
v 132.012787 198.279297 38.446594
v 132.012787 198.279297 44.746593
v 134.512680 198.279297 46.746593
v 132.012787 202.208984 41.246593
v 134.512680 190.448547 49.546593
v 132.012787 198.279297 41.246593
v 132.012787 190.448547 49.546593
v 132.012787 198.279297 42.246593
v 132.012787 209.491165 42.577888
v 134.512680 198.279297 49.546593
v 132.012787 198.279297 49.546593
v 132.012787 203.509506 42.246593
v 134.512680 190.448547 35.646591
v 132.012787 209.502869 42.047035
v 132.012787 190.448547 35.646591
v 132.012787 208.851822 42.513256
v 134.512680 198.279297 35.646591
v 132.012787 208.121765 42.451107
v 132.012787 198.279297 35.646591
v 134.512680 190.448547 45.746590
v 132.012787 207.329056 42.393829
v 132.012787 206.504135 42.343628
v 134.512680 190.448547 42.746593
v 134.512680 190.448547 39.746593
v 132.012787 205.678726 42.302425
v 132.012787 204.884521 42.271812
v 132.012787 190.448547 39.746593
v 132.012787 190.448547 42.746593
v 132.012787 204.152069 42.252960
v 132.012787 194.480957 46.535976
v 132.012787 190.448547 45.746590
v 134.512680 196.279312 46.746593
v 132.012787 193.998642 46.278175
v 132.012787 193.575897 45.931240
v 134.512680 196.279312 38.446594
v 132.012787 193.228943 45.508488
v 132.012787 192.971146 45.026176
v 132.012787 196.279312 38.446594
v 134.512680 196.279312 49.546593
v 132.012787 192.812393 44.502834
v 132.012787 196.279312 49.546593
v 132.012787 192.758789 43.958584
v 134.512680 196.279312 35.646591
v 132.012787 192.812393 43.414330
v 132.012787 196.279312 35.646591
v 132.012787 192.971146 42.890991
v 134.512680 192.267014 46.746593
v 132.012787 193.228943 42.408680
v 132.012787 192.267014 38.446594
v 132.012787 193.575897 41.985928
v 134.512680 192.267014 49.546593
v 132.012787 193.998642 41.638992
v 132.012787 192.267014 35.646591
v 132.012787 194.480957 41.381191
v 134.512680 192.267014 45.746590
v 132.012787 195.004288 41.222435
v 134.512680 192.267014 42.746593
v 132.012787 195.548538 41.168831
v 134.512680 192.267014 39.746593
v 132.012787 195.197556 45.737358
v 132.012787 192.267029 46.746593
v 132.012787 195.548538 45.771931
v 132.012787 194.548996 45.468719
v 134.512680 192.267029 38.446594
v 132.012787 194.860046 45.634979
v 132.012787 192.267029 49.546593
v 134.512680 192.267029 35.646591
v 132.012787 194.276367 45.244976
v 132.012787 192.267029 45.746590
v 132.012787 194.052612 44.972343
v 132.012787 192.267029 42.746593
v 132.012787 193.886353 44.661297
v 132.012787 192.267029 39.746593
v 132.012787 193.783981 44.323795
v 132.012787 193.749405 43.972801
v 134.512680 205.279312 48.146595
v 134.512680 203.879303 46.746593
v 132.012787 193.783981 43.621803
v 132.012787 193.886353 43.284302
v 134.512680 205.252411 47.873466
v 132.012787 194.052612 42.973259
v 134.512680 205.172745 47.610836
v 132.012787 194.276367 42.700623
v 134.512680 205.043365 47.368797
v 132.012787 194.548996 42.476879
v 134.512680 204.869263 47.156643
v 134.512680 204.657104 46.982536
v 132.012787 194.860046 42.310623
v 134.512680 204.415070 46.853161
v 132.012787 195.197556 42.208241
v 132.012787 195.548538 42.173668
v 134.512680 204.152435 46.773495
v 132.012787 195.515701 46.739044
v 132.012787 203.879303 46.746593
v 132.012787 205.279312 48.146595
v 132.012787 211.763168 41.631680
v 132.012787 204.152435 46.773495
v 132.012787 207.336792 39.828075
v 132.012787 211.037277 41.372505
v 132.012787 204.415070 46.853161
v 132.012787 210.320343 41.022148
v 132.012787 204.657104 46.982536
v 132.012787 204.869263 47.156643
v 132.012787 209.628265 40.660641
v 132.012787 205.043365 47.368797
v 132.012787 208.939911 40.357819
v 132.012787 205.172745 47.610836
v 132.012787 208.191269 40.047203
v 132.012787 205.252411 47.873466
v 132.012787 194.996078 46.677536
v 134.512680 203.879303 49.546593
v 134.512680 204.152435 49.519691
v 134.512680 204.415070 49.440025
v 134.512680 204.657104 49.310650
v 134.512680 204.869263 49.136543
v 134.512680 211.009506 42.746593
v 134.512680 205.043365 48.924393
v 134.512680 212.509506 41.846592
v 134.512680 205.172745 48.682350
v 134.512680 206.509506 39.746593
v 134.512680 205.252411 48.419720
v 134.512680 206.509506 41.246593
v 134.512680 202.208984 42.246593
v 132.012787 203.879303 49.546593
v 132.012787 205.252411 48.419720
v 134.512680 198.279297 44.746593
v 132.012787 205.172745 48.682350
v 134.512680 202.208984 41.246593
v 132.012787 205.043365 48.924393
v 132.012787 204.869263 49.136543
v 134.512680 198.279297 41.246593
v 132.012787 204.657104 49.310650
v 134.512680 198.279297 42.246593
v 132.012787 204.415070 49.440025
v 134.512680 209.491165 42.577888
v 134.512680 203.509506 42.246593
v 132.012787 204.152435 49.519691
v 134.512680 203.879303 38.446594
v 134.512680 205.279312 37.046593
v 134.512680 209.502869 42.047035
v 134.512680 204.152435 38.419693
v 134.512680 208.851822 42.513256
v 134.512680 204.415070 38.340027
v 134.512680 208.121765 42.451107
v 134.512680 204.657104 38.210651
v 134.512680 207.329056 42.393829
v 134.512680 204.869263 38.036545
v 134.512680 206.504135 42.343628
v 134.512680 205.043365 37.824390
v 134.512680 205.678726 42.302425
v 134.512680 205.172745 37.582352
v 134.512680 204.884521 42.271812
v 134.512680 205.252411 37.319721
v 134.512680 204.152069 42.252960
v 132.012787 205.279312 37.046593
v 134.512680 194.480957 46.535976
v 132.012787 203.879303 38.446594
v 134.512680 193.998642 46.278175
v 134.512680 193.575897 45.931240
v 132.012787 205.252411 37.319721
v 132.012787 205.172745 37.582352
v 134.512680 193.228943 45.508488
v 134.512680 192.971146 45.026176
v 132.012787 205.043365 37.824390
v 132.012787 204.869263 38.036545
v 134.512680 192.812393 44.502834
v 134.512680 192.758789 43.958584
v 132.012787 204.657104 38.210651
v 132.012787 204.415070 38.340027
v 134.512680 192.812393 43.414330
v 134.512680 192.971146 42.890991
v 132.012787 204.152435 38.419693
v 134.512680 193.228943 42.408680
v 134.512680 193.575897 41.985928
v 134.512680 203.879303 35.646591
v 134.512680 205.252411 36.773468
v 134.512680 193.998642 41.638992
v 134.512680 194.480957 41.381187
v 134.512680 205.172745 36.510838
v 134.512680 205.043365 36.268795
v 134.512680 195.004288 41.222435
v 134.512680 195.548538 41.168831
v 134.512680 204.869263 36.056644
v 134.512680 204.657104 35.882534
v 134.512680 195.197556 45.737358
v 134.512680 204.415070 35.753162
v 134.512680 195.548538 45.771931
v 134.512680 194.548996 45.468719
v 134.512680 204.152435 35.673492
v 134.512680 194.860046 45.634979
v 132.012787 203.879303 35.646591
v 134.512680 194.276367 45.244976
v 134.512680 194.052612 44.972343
v 132.012787 204.152435 35.673492
v 132.012787 204.415070 35.753162
v 134.512680 193.886353 44.661297
v 132.012787 204.657104 35.882534
v 134.512680 193.783981 44.323795
v 132.012787 204.869263 36.056644
v 134.512680 193.749405 43.972797
v 132.012787 205.043365 36.268795
v 134.512680 193.783981 43.621803
v 132.012787 205.172745 36.510838
v 134.512680 193.886353 43.284302
v 134.512680 194.052612 42.973259
v 132.012787 205.252411 36.773468
v 134.512680 194.276367 42.700623
v 134.512680 194.548996 42.476879
v 134.512680 194.860046 42.310623
v 134.512680 195.197556 42.208241
v 134.512680 195.548538 42.173668
v 134.512680 195.515701 46.739044
v 134.512680 211.763168 41.631680
v 134.512680 207.336792 39.828075
v 134.512680 211.037277 41.372505
v 134.512680 210.320343 41.022148
v 134.512680 209.628265 40.660641
v 134.512680 208.939911 40.357819
v 134.512680 208.191269 40.047203
v 134.512680 194.996078 46.677536
v 132.012787 196.279312 46.746593
v 132.012787 198.279297 46.746593
v 132.012787 196.312149 45.779480
v 134.512680 196.312149 45.779480
v 134.512680 228.110046 38.446594
v 132.012787 207.549088 42.746593
v 132.012787 228.110046 38.446594
v 132.012787 206.049088 41.846592
v 134.512680 228.110046 46.746593
v 132.012787 212.049088 39.746593
v 132.012787 212.049088 41.246593
v 132.012787 228.110046 46.746593
v 134.512680 220.279297 38.446594
v 132.012787 216.349609 42.246593
v 132.012787 220.279297 38.446594
v 132.012787 220.279297 44.746593
v 134.512680 220.279297 46.746593
v 132.012787 216.349609 41.246593
v 134.512680 228.110046 49.546593
v 132.012787 220.279297 41.246593
v 132.012787 228.110046 49.546593
v 132.012787 220.279297 42.246593
v 132.012787 209.067429 42.577888
v 134.512680 220.279297 49.546593
v 132.012787 220.279297 49.546593
v 132.012787 215.049088 42.246593
v 134.512680 228.110046 35.646591
v 132.012787 209.055725 42.047035
v 132.012787 228.110046 35.646591
v 132.012787 209.706772 42.513256
v 134.512680 220.279297 35.646591
v 132.012787 210.436829 42.451107
v 132.012787 220.279297 35.646591
v 134.512680 228.110046 45.746590
v 132.012787 211.229538 42.393829
v 132.012787 212.054459 42.343628
v 134.512680 228.110046 42.746593
v 134.512680 228.110046 39.746593
v 132.012787 212.879868 42.302425
v 132.012787 213.674072 42.271812
v 132.012787 228.110046 39.746593
v 132.012787 228.110046 42.746593
v 132.012787 214.406525 42.252960
v 132.012787 224.077637 46.535976
v 132.012787 228.110046 45.746590
v 134.512680 222.279282 46.746593
v 132.012787 224.559952 46.278175
v 132.012787 224.982697 45.931240
v 134.512680 222.279282 38.446594
v 132.012787 225.329651 45.508488
v 132.012787 225.587448 45.026176
v 132.012787 222.279282 38.446594
v 134.512680 222.279282 49.546593
v 132.012787 225.746201 44.502834
v 132.012787 222.279282 49.546593
v 132.012787 225.799805 43.958584
v 134.512680 222.279282 35.646591
v 132.012787 225.746201 43.414330
v 132.012787 222.279282 35.646591
v 132.012787 225.587448 42.890991
v 134.512680 226.291580 46.746593
v 132.012787 225.329651 42.408680
v 132.012787 226.291580 38.446594
v 132.012787 224.982697 41.985928
v 134.512680 226.291580 49.546593
v 132.012787 224.559952 41.638992
v 132.012787 226.291580 35.646591
v 132.012787 224.077637 41.381191
v 134.512680 226.291580 45.746590
v 132.012787 223.554306 41.222435
v 134.512680 226.291580 42.746593
v 132.012787 223.010056 41.168831
v 134.512680 226.291580 39.746593
v 132.012787 223.361038 45.737358
v 132.012787 226.291565 46.746593
v 132.012787 223.010056 45.771931
v 132.012787 224.009598 45.468719
v 134.512680 226.291565 38.446594
v 132.012787 223.698547 45.634979
v 132.012787 226.291565 49.546593
v 134.512680 226.291565 35.646591
v 132.012787 224.282227 45.244976
v 132.012787 226.291565 45.746590
v 132.012787 224.505981 44.972343
v 132.012787 226.291565 42.746593
v 132.012787 224.672241 44.661297
v 132.012787 226.291565 39.746593
v 132.012787 224.774612 44.323795
v 132.012787 224.809189 43.972801
v 134.512680 213.279282 48.146595
v 134.512680 214.679291 46.746593
v 132.012787 224.774612 43.621803
v 132.012787 224.672241 43.284302
v 134.512680 213.306183 47.873466
v 132.012787 224.505981 42.973259
v 134.512680 213.385849 47.610836
v 132.012787 224.282227 42.700623
v 134.512680 213.515228 47.368797
v 132.012787 224.009598 42.476879
v 134.512680 213.689331 47.156643
v 134.512680 213.901489 46.982536
v 132.012787 223.698547 42.310623
v 134.512680 214.143524 46.853161
v 132.012787 223.361038 42.208241
v 132.012787 223.010056 42.173668
v 134.512680 214.406158 46.773495
v 132.012787 223.042892 46.739044
v 132.012787 214.679291 46.746593
v 132.012787 213.279282 48.146595
v 132.012787 206.795425 41.631680
v 132.012787 214.406158 46.773495
v 132.012787 211.221786 39.828075
v 132.012787 207.521317 41.372505
v 132.012787 214.143524 46.853161
v 132.012787 208.238251 41.022148
v 132.012787 213.901489 46.982536
v 132.012787 213.689331 47.156643
v 132.012787 208.930328 40.660641
v 132.012787 213.515228 47.368797
v 132.012787 209.618683 40.357819
v 132.012787 213.385849 47.610836
v 132.012787 210.367325 40.047203
v 132.012787 213.306183 47.873466
v 132.012787 223.562515 46.677536
v 134.512680 214.679291 49.546593
v 134.512680 214.406158 49.519691
v 134.512680 214.143524 49.440025
v 134.512680 213.901489 49.310650
v 134.512680 213.689331 49.136543
v 134.512680 207.549088 42.746593
v 134.512680 213.515228 48.924393
v 134.512680 206.049088 41.846592
v 134.512680 213.385849 48.682350
v 134.512680 212.049088 39.746593
v 134.512680 213.306183 48.419720
v 134.512680 212.049088 41.246593
v 134.512680 216.349609 42.246593
v 132.012787 214.679291 49.546593
v 132.012787 213.306183 48.419720
v 134.512680 220.279297 44.746593
v 132.012787 213.385849 48.682350
v 134.512680 216.349609 41.246593
v 132.012787 213.515228 48.924393
v 132.012787 213.689331 49.136543
v 134.512680 220.279297 41.246593
v 132.012787 213.901489 49.310650
v 134.512680 220.279297 42.246593
v 132.012787 214.143524 49.440025
v 134.512680 209.067429 42.577888
v 134.512680 215.049088 42.246593
v 132.012787 214.406158 49.519691
v 134.512680 214.679291 38.446594
v 134.512680 213.279282 37.046593
v 134.512680 209.055725 42.047035
v 134.512680 214.406158 38.419693
v 134.512680 209.706772 42.513256
v 134.512680 214.143524 38.340027
v 134.512680 210.436829 42.451107
v 134.512680 213.901489 38.210651
v 134.512680 211.229538 42.393829
v 134.512680 213.689331 38.036545
v 134.512680 212.054459 42.343628
v 134.512680 213.515228 37.824390
v 134.512680 212.879868 42.302425
v 134.512680 213.385849 37.582352
v 134.512680 213.674072 42.271812
v 134.512680 213.306183 37.319721
v 134.512680 214.406525 42.252960
v 132.012787 213.279282 37.046593
v 134.512680 224.077637 46.535976
v 132.012787 214.679291 38.446594
v 134.512680 224.559952 46.278175
v 134.512680 224.982697 45.931240
v 132.012787 213.306183 37.319721
v 132.012787 213.385849 37.582352
v 134.512680 225.329651 45.508488
v 134.512680 225.587448 45.026176
v 132.012787 213.515228 37.824390
v 132.012787 213.689331 38.036545
v 134.512680 225.746201 44.502834
v 134.512680 225.799805 43.958584
v 132.012787 213.901489 38.210651
v 132.012787 214.143524 38.340027
v 134.512680 225.746201 43.414330
v 134.512680 225.587448 42.890991
v 132.012787 214.406158 38.419693
v 134.512680 225.329651 42.408680
v 134.512680 224.982697 41.985928
v 134.512680 214.679291 35.646591
v 134.512680 213.306183 36.773468
v 134.512680 224.559952 41.638992
v 134.512680 224.077637 41.381187
v 134.512680 213.385849 36.510838
v 134.512680 213.515228 36.268795
v 134.512680 223.554306 41.222435
v 134.512680 223.010056 41.168831
v 134.512680 213.689331 36.056644
v 134.512680 213.901489 35.882534
v 134.512680 223.361038 45.737358
v 134.512680 214.143524 35.753162
v 134.512680 223.010056 45.771931
v 134.512680 224.009598 45.468719
v 134.512680 214.406158 35.673492
v 134.512680 223.698547 45.634979
v 132.012787 214.679291 35.646591
v 134.512680 224.282227 45.244976
v 134.512680 224.505981 44.972343
v 132.012787 214.406158 35.673492
v 132.012787 214.143524 35.753162
v 134.512680 224.672241 44.661297
v 132.012787 213.901489 35.882534
v 134.512680 224.774612 44.323795
v 132.012787 213.689331 36.056644
v 134.512680 224.809189 43.972797
v 132.012787 213.515228 36.268795
v 134.512680 224.774612 43.621803
v 132.012787 213.385849 36.510838
v 134.512680 224.672241 43.284302
v 134.512680 224.505981 42.973259
v 132.012787 213.306183 36.773468
v 134.512680 224.282227 42.700623
v 134.512680 224.009598 42.476879
v 134.512680 223.698547 42.310623
v 134.512680 223.361038 42.208241
v 134.512680 223.010056 42.173668
v 134.512680 223.042892 46.739044
v 134.512680 206.795425 41.631680
v 134.512680 211.221786 39.828075
v 134.512680 207.521317 41.372505
v 134.512680 208.238251 41.022148
v 134.512680 208.930328 40.660641
v 134.512680 209.618683 40.357819
v 134.512680 210.367325 40.047203
v 134.512680 223.562515 46.677536
v 132.012787 222.279282 46.746593
v 132.012787 220.279297 46.746593
v 132.012787 222.246445 45.779480
v 134.512680 222.246445 45.779480
vn -0.0000 -1.0000 -0.0000
vn 1.0000 -0.0000 -0.0000
vn -0.0000 -0.0000 1.0000
vn -1.0000 -0.0000 -0.0000
vn -0.0000 -0.0000 -1.0000
vn -0.0000 1.0000 -0.0000
vn -0.0000 0.0980 -0.9952
vn -0.0000 0.2903 -0.9569
vn -0.0000 0.4714 -0.8819
vn -0.0000 0.6344 -0.7730
vn -0.0000 0.7730 -0.6344
vn -0.0000 0.8819 -0.4714
vn -0.0000 0.9569 -0.2903
vn -0.0000 0.9952 -0.0980
vn -0.0000 0.9952 0.0980
vn -0.0000 0.9569 0.2903
vn -0.0000 0.8819 0.4714
vn -0.0000 0.7730 0.6344
vn -0.0000 0.6344 0.7730
vn -0.0000 0.4714 0.8819
vn -0.0000 0.2903 0.9569
vn -0.0000 0.0980 0.9952
vn -0.0000 0.5145 0.8575
vn -0.0000 -0.1006 0.9949
vn -0.0000 -0.0848 0.9964
vn -0.0000 -0.0721 0.9974
vn -0.0000 -0.0607 0.9982
vn -0.0000 -0.0499 0.9988
vn -0.0000 -0.0385 0.9993
vn -0.0000 -0.0257 0.9997
vn -0.0000 -0.0099 1.0000
vn -0.0000 -0.1104 0.9939
vn -0.0000 -0.2650 0.9643
vn -0.0000 0.0285 -0.9996
vn -0.0000 -0.0267 0.9996
vn -0.0000 -0.4714 0.8819
vn -0.0000 -0.6344 0.7730
vn -0.0000 -0.7730 0.6344
vn -0.0000 -0.8819 0.4714
vn -0.0000 -0.9569 0.2903
vn -0.0000 -0.9952 0.0980
vn -0.0000 -0.9952 -0.0980
vn -0.0000 -0.9569 -0.2903
vn -0.0000 -0.8819 -0.4714
vn -0.0000 -0.7730 -0.6344
vn -0.0000 -0.6344 -0.7730
vn -0.0000 -0.4714 -0.8819
vn -0.0000 -0.2903 -0.9569
vn -0.0000 -0.0980 -0.9952
vn -0.0000 0.2484 -0.9687
vn -0.0000 0.3832 -0.9237
vn -0.0000 0.4027 -0.9153
vn -0.0000 0.4630 -0.8864
vn -0.0000 0.4391 -0.8985
vn -0.0000 0.3363 -0.9418
vn -0.0000 0.2767 -0.9610
vn -0.0000 -0.1176 0.9931
vn -0.0000 0.0099 -1.0000
vn -0.0000 -0.4649 -0.8854
vn -0.0000 -0.2903 0.9569
vn -0.0000 -0.0980 0.9952
vn -0.0000 -0.5145 0.8575
vn -0.0000 0.1006 0.9949
vn -0.0000 0.0848 0.9964
vn -0.0000 0.0721 0.9974
vn -0.0000 0.0607 0.9982
vn -0.0000 0.0499 0.9988
vn -0.0000 0.0385 0.9993
vn -0.0000 0.0257 0.9997
vn -0.0000 0.0099 1.0000
vn -0.0000 0.1104 0.9939
vn -0.0000 0.2650 0.9643
vn -0.0000 -0.0285 -0.9996
vn -0.0000 0.0267 0.9996
vn -0.0000 -0.2484 -0.9687
vn -0.0000 -0.3832 -0.9237
vn -0.0000 -0.4027 -0.9153
vn -0.0000 -0.4630 -0.8864
vn -0.0000 -0.4391 -0.8985
vn -0.0000 -0.3363 -0.9418
vn -0.0000 -0.2767 -0.9610
vn -0.0000 0.1176 0.9931
vn -0.0000 -0.0099 -1.0000
vn -0.0000 0.4649 -0.8854
vn 1.0000 -0.0001 -0.0000
vn 1.0000 -0.0000 -0.0001
vn -0.0000 -0.0023 -1.0000
vn 1.0000 0.0001 -0.0000
vn -0.0000 0.0023 -1.0000
vn -1.0000 -0.0001 -0.0000
vn -1.0000 -0.0000 -0.0001
vn -1.0000 0.0001 -0.0000
vt 0.625000 0.187500
vt 0.375000 0.250000
vt 0.375000 0.187500
vt 0.625000 0.250000
vt 0.375000 0.000000
vt 0.625000 0.000000
vt 0.875000 0.687500
vt 0.781355 0.750000
vt 0.781355 0.687500
vt 0.625000 0.375000
vt 0.375000 0.500000
vt 0.375000 0.375000
vt 0.125000 0.500000
vt 0.218645 0.500000
vt 0.625000 0.500000
vt 0.750000 0.500000
vt 0.625000 0.906355
vt 0.375000 1.000000
vt 0.375000 0.906355
vt 0.375000 0.750000
vt 0.250000 0.750000
vt 0.875000 0.750000
vt 0.875000 0.500000
vt 0.781355 0.562500
vt 0.781355 0.500000
vt 0.875000 0.562500
vt 0.781354 0.625000
vt 0.875000 0.625000
vt 0.375000 0.062500
vt 0.625000 0.062500
vt 0.375000 0.125000
vt 0.625000 0.125000
vt 0.000000 0.000000
vt 0.750000 0.750000
vt 0.625000 0.750000
vt 0.218645 0.750000
vt 0.218645 0.750000
vt 0.375000 0.875000
vt 0.250000 0.500000
vt 0.625000 0.343646
vt 0.375000 0.343645
vt 0.218645 0.687500
vt 0.125000 0.750000
vt 0.125000 0.687500
vt 0.125000 0.562500
vt 0.218645 0.625000
vt 0.125000 0.625000
vt 0.625000 0.875000
vt 1.343415 1.243902
vt 0.810000 0.631250
vt 0.405897 0.375831
vt 0.661372 0.612382
vt 0.809039 0.749110
vt 0.190014 0.119058
vt 0.810000 0.500000
vt 0.273303 0.253058
vt 0.956615 0.885755
vt 0.295613 0.189189
vt 0.512914 0.323512
vt 0.810000 0.631250
vt 0.388257 0.359497
vt 0.519292 0.480826
vt 1.098432 1.017067
vt 1.229038 1.137998
vt 0.692927 0.427733
vt 0.609345 0.377996
vt 0.512914 0.323512
vt 0.408454 0.264550
vt 0.100130 0.061809
vt 0.100130 0.061809
vt 0.218645 0.562500
vt 0.625000 1.000000
s 0
f 41/1/1 5/2/1 30/3/1
f 8/4/1 15/2/1 5/2/1
f 1/5/1 25/6/1 3/6/1
f 37/7/2 59/8/2 83/9/2
f 51/10/3 20/11/3 49/12/3
f 5/13/4 61/14/4 57/14/4
f 232/15/2 51/16/2 231/16/2
f 63/17/5 23/18/5 77/19/5
f 9/20/4 53/21/4 45/21/4
f 3/22/2 63/8/2 59/8/2
f 8/23/2 79/24/2 71/25/2
f 41/26/2 81/27/2 79/24/2
f 38/28/2 83/9/2 81/27/2
f 3/6/1 34/29/1 1/5/1
f 37/30/1 33/31/1 34/29/1
f 38/32/1 30/3/1 33/31/1
f 231/33/2 72/33/2 233/33/2
f 48/34/2 29/35/2 11/35/2
f 45/21/4 77/36/4 74/37/4
f 29/35/5 53/38/5 27/20/5
f 231/16/2 76/25/2 71/25/2
f 42/39/4 20/11/4 13/11/4
f 76/40/3 49/12/3 61/41/3
f 69/33/6 59/33/6 74/33/6
f 69/42/4 1/43/4 34/44/4
f 17/4/3 61/41/3 15/2/3
f 71/25/2 17/23/2 8/23/2
f 74/37/4 23/43/4 1/43/4
f 57/14/4 30/45/4 5/13/4
f 30/45/4 67/46/4 33/47/4
f 33/47/4 69/42/4 34/44/4
f 59/8/2 55/34/2 48/34/2
f 55/48/5 77/19/5 53/38/5
f 57/14/4 49/39/4 42/39/4
f 57/33/6 79/33/6 65/33/6
f 65/33/6 81/33/6 67/33/6
f 67/33/6 83/33/6 69/33/6
f 74/33/3 48/33/3 45/33/3
f 45/33/3 11/33/3 9/33/3
f 87/11/7 107/15/7 104/15/7
f 102/11/8 110/15/8 107/15/8
f 99/11/9 112/15/9 110/15/9
f 97/11/10 113/15/10 112/15/10
f 96/11/11 115/15/11 113/15/11
f 94/11/12 117/15/12 115/15/12
f 92/11/13 119/15/13 117/15/13
f 90/11/14 105/15/14 119/15/14
f 86/11/15 135/15/15 105/15/15
f 131/11/16 137/15/16 135/15/16
f 129/11/17 139/15/17 137/15/17
f 127/11/18 140/15/18 139/15/18
f 125/11/19 142/15/19 140/15/19
f 124/11/20 144/15/20 142/15/20
f 123/11/21 147/15/21 144/15/21
f 122/11/22 134/15/22 147/15/22
f 149/20/15 170/35/15 165/35/15
f 163/20/16 171/35/16 170/35/16
f 161/20/17 174/35/17 171/35/17
f 159/20/18 175/35/18 174/35/18
f 157/20/19 178/35/19 175/35/19
f 155/20/20 179/35/20 178/35/20
f 153/20/21 182/35/21 179/35/21
f 151/20/22 167/35/22 182/35/22
f 185/20/7 204/35/7 201/35/7
f 199/20/8 205/35/8 204/35/8
f 196/20/9 207/35/9 205/35/9
f 194/20/10 209/35/10 207/35/10
f 193/20/11 211/35/11 209/35/11
f 190/20/12 213/35/12 211/35/12
f 189/20/13 216/35/13 213/35/13
f 186/20/14 165/35/14 216/35/14
f 87/11/5 232/15/5 13/11/5
f 97/11/4 123/11/4 129/11/4
f 140/15/2 107/15/2 115/15/2
f 21/15/3 121/11/3 20/11/3
f 11/35/3 148/20/3 9/20/3
f 148/20/4 149/20/4 193/20/4
f 175/35/2 204/35/2 211/35/2
f 27/20/5 201/35/5 29/35/5
f 22/49/2 14/33/2 7/50/2
f 2/33/2 24/51/2 4/33/2
f 7/50/2 31/52/2 32/53/2
f 10/33/2 16/33/2 14/33/2
f 73/33/2 40/33/2 43/33/2
f 78/33/2 43/33/2 44/33/2
f 80/33/2 44/33/2 46/33/2
f 82/33/2 46/33/2 47/33/2
f 84/33/2 47/33/2 50/33/2
f 85/33/2 50/33/2 52/33/2
f 88/33/2 52/33/2 54/33/2
f 89/33/2 54/33/2 56/33/2
f 91/33/2 56/33/2 58/33/2
f 93/33/2 58/33/2 60/33/2
f 95/33/2 60/33/2 62/33/2
f 98/33/2 62/33/2 64/33/2
f 100/33/2 64/33/2 66/33/2
f 101/33/2 66/33/2 68/33/2
f 16/33/2 101/33/2 68/33/2
f 120/33/2 75/33/2 70/33/2
f 109/54/2 24/51/2 6/55/2
f 103/33/2 70/33/2 72/33/2
f 146/49/4 138/33/4 133/33/4
f 126/33/4 150/51/4 145/56/4
f 150/51/4 160/57/4 158/53/4
f 141/33/4 133/33/4 138/33/4
f 198/33/4 166/33/4 200/33/4
f 202/33/4 168/33/4 198/33/4
f 203/33/4 169/33/4 202/33/4
f 206/33/4 172/33/4 203/33/4
f 208/33/4 173/33/4 206/33/4
f 210/33/4 176/33/4 208/33/4
f 212/33/4 177/33/4 210/33/4
f 214/33/4 180/33/4 212/33/4
f 215/33/4 181/33/4 214/33/4
f 217/33/4 183/33/4 215/33/4
f 218/33/4 184/33/4 217/33/4
f 219/33/4 187/33/4 218/33/4
f 220/33/4 188/33/4 219/33/4
f 221/33/4 191/33/4 220/33/4
f 141/33/4 221/33/4 143/33/4
f 200/33/4 230/33/4 195/33/4
f 150/51/4 226/58/4 228/59/4
f 195/33/4 222/33/4 197/33/4
f 2/33/23 128/33/23 126/33/23
f 7/60/1 130/55/1 6/55/1
f 16/33/5 138/33/5 14/33/5
f 10/33/3 143/33/3 18/33/3
f 14/33/5 132/50/5 7/50/5
f 19/56/24 152/61/24 26/61/24
f 26/61/25 154/62/25 28/62/25
f 28/62/26 156/52/26 31/52/26
f 31/52/27 158/53/27 32/53/27
f 32/53/28 160/57/28 35/57/28
f 35/57/29 162/63/29 36/63/29
f 36/63/30 164/64/30 39/64/30
f 39/64/31 146/49/31 22/49/31
f 22/49/3 133/33/3 10/33/3
f 2/33/32 145/56/32 19/56/32
f 12/33/6 13/33/6 232/33/6
f 120/33/33 166/33/33 40/33/33
f 68/33/34 141/33/34 16/33/34
f 70/33/7 197/33/7 72/33/7
f 75/33/8 195/33/8 70/33/8
f 73/33/9 200/33/9 75/33/9
f 78/33/10 198/33/10 73/33/10
f 80/33/11 202/33/11 78/33/11
f 82/33/12 203/33/12 80/33/12
f 84/33/13 206/33/13 82/33/13
f 85/33/14 208/33/14 84/33/14
f 85/33/15 212/33/15 210/33/15
f 89/33/16 212/33/16 88/33/16
f 91/33/17 214/33/17 89/33/17
f 93/33/18 215/33/18 91/33/18
f 93/33/19 218/33/19 217/33/19
f 98/33/20 218/33/20 95/33/20
f 100/33/21 219/33/21 98/33/21
f 101/33/22 220/33/22 100/33/22
f 18/33/35 221/33/35 101/33/35
f 40/33/36 168/33/36 43/33/36
f 43/33/37 169/33/37 44/33/37
f 44/33/38 172/33/38 46/33/38
f 46/33/39 173/33/39 47/33/39
f 47/33/40 176/33/40 50/33/40
f 50/33/41 177/33/41 52/33/41
f 52/33/42 180/33/42 54/33/42
f 54/33/43 181/33/43 56/33/43
f 56/33/44 183/33/44 58/33/44
f 58/33/45 184/33/45 60/33/45
f 60/33/46 187/33/46 62/33/46
f 62/33/47 188/33/47 64/33/47
f 64/33/48 191/33/48 66/33/48
f 66/33/49 192/33/49 68/33/49
f 6/55/7 224/65/7 108/65/7
f 108/65/50 229/66/50 118/66/50
f 118/66/51 228/59/51 116/67/51
f 116/67/52 227/68/52 114/68/52
f 114/68/53 226/58/53 111/58/53
f 111/58/54 225/54/54 109/54/54
f 109/54/55 223/69/55 106/70/55
f 106/70/56 128/33/56 4/33/56
f 103/33/57 230/33/57 120/33/57
f 42/33/4 222/33/4 57/33/4
f 232/15/2 233/33/2 12/33/2
f 197/33/4 42/33/4 234/33/4
f 13/11/4 234/33/4 42/39/4
f 72/33/58 234/33/58 233/33/58
f 233/33/59 136/33/59 12/33/59
f 239/2/6 275/1/6 264/3/6
f 249/2/6 242/4/6 239/2/6
f 259/6/6 235/5/6 237/6/6
f 293/8/2 271/7/2 317/9/2
f 254/11/3 285/10/3 283/12/3
f 295/14/4 239/13/4 291/14/4
f 285/16/2 466/15/2 465/16/2
f 257/18/5 297/17/5 311/19/5
f 287/21/4 243/20/4 279/21/4
f 297/8/2 237/22/2 293/8/2
f 313/24/2 242/23/2 305/25/2
f 315/27/2 275/26/2 313/24/2
f 317/9/2 272/28/2 315/27/2
f 268/29/6 237/6/6 235/5/6
f 267/31/6 271/30/6 268/29/6
f 264/3/6 272/32/6 267/31/6
f 306/33/2 465/33/2 467/33/2
f 263/35/2 282/34/2 245/35/2
f 311/36/4 279/21/4 308/37/4
f 287/38/5 263/35/5 261/20/5
f 310/25/2 465/16/2 305/25/2
f 254/11/4 276/39/4 247/11/4
f 283/12/3 310/40/3 295/41/3
f 293/33/1 303/33/1 308/33/1
f 235/43/4 303/42/4 268/44/4
f 249/2/3 310/40/3 251/4/3
f 251/23/2 305/25/2 242/23/2
f 257/43/4 308/37/4 235/43/4
f 264/45/4 291/14/4 239/13/4
f 264/45/4 301/46/4 299/71/4
f 267/47/4 303/42/4 301/46/4
f 289/34/2 293/8/2 282/34/2
f 311/19/5 289/48/5 287/38/5
f 283/39/4 291/14/4 276/39/4
f 313/33/1 291/33/1 299/33/1
f 315/33/1 299/33/1 301/33/1
f 317/33/1 301/33/1 303/33/1
f 282/33/3 308/33/3 279/33/3
f 245/33/3 279/33/3 243/33/3
f 341/15/49 321/11/49 338/15/49
f 344/15/48 336/11/48 341/15/48
f 346/15/47 333/11/47 344/15/47
f 347/15/46 331/11/46 346/15/46
f 349/15/45 330/11/45 347/15/45
f 351/15/44 328/11/44 349/15/44
f 353/15/43 326/11/43 351/15/43
f 339/15/42 324/11/42 353/15/42
f 369/15/41 320/11/41 339/15/41
f 371/15/40 365/11/40 369/15/40
f 373/15/39 363/11/39 371/15/39
f 374/15/38 361/11/38 373/15/38
f 376/15/37 359/11/37 374/15/37
f 378/15/36 358/11/36 376/15/36
f 381/15/60 357/11/60 378/15/60
f 368/15/61 356/11/61 381/15/61
f 404/35/41 383/20/41 399/35/41
f 405/35/40 397/20/40 404/35/40
f 408/35/39 395/20/39 405/35/39
f 409/35/38 393/20/38 408/35/38
f 412/35/37 391/20/37 409/35/37
f 413/35/36 389/20/36 412/35/36
f 416/35/60 387/20/60 413/35/60
f 401/35/61 385/20/61 416/35/61
f 438/35/49 419/20/49 435/35/49
f 439/35/48 433/20/48 438/35/48
f 441/35/47 430/20/47 439/35/47
f 443/35/46 428/20/46 441/35/46
f 445/35/45 427/20/45 443/35/45
f 447/35/44 424/20/44 445/35/44
f 450/35/43 423/20/43 447/35/43
f 399/35/42 420/20/42 450/35/42
f 466/15/5 321/11/5 247/11/5
f 358/11/4 333/11/4 326/11/4
f 344/15/2 376/15/2 369/15/2
f 355/11/3 255/15/3 254/11/3
f 382/20/3 245/35/3 243/20/3
f 420/20/4 385/20/4 419/20/4
f 439/35/2 412/35/2 404/35/2
f 435/35/5 261/20/5 263/35/5
f 256/49/2 248/33/2 244/33/2
f 236/33/2 258/51/2 253/56/2
f 269/57/2 266/53/2 258/51/2
f 250/33/2 244/33/2 248/33/2
f 307/33/2 274/33/2 309/33/2
f 312/33/2 277/33/2 307/33/2
f 314/33/2 278/33/2 312/33/2
f 316/33/2 280/33/2 314/33/2
f 318/33/2 281/33/2 316/33/2
f 319/33/2 284/33/2 318/33/2
f 322/33/2 286/33/2 319/33/2
f 323/33/2 288/33/2 322/33/2
f 325/33/2 290/33/2 323/33/2
f 327/33/2 292/33/2 325/33/2
f 329/33/2 294/33/2 327/33/2
f 332/33/2 296/33/2 329/33/2
f 334/33/2 298/33/2 332/33/2
f 335/33/2 300/33/2 334/33/2
f 250/33/2 335/33/2 252/33/2
f 309/33/2 354/33/2 304/33/2
f 241/60/2 343/54/2 350/67/2
f 304/33/2 337/33/2 306/33/2
f 380/49/4 372/33/4 366/50/4
f 360/33/4 384/51/4 362/33/4
f 390/52/4 392/53/4 366/50/4
f 367/33/4 375/33/4 372/33/4
f 432/33/4 400/33/4 402/33/4
f 436/33/4 402/33/4 403/33/4
f 437/33/4 403/33/4 406/33/4
f 440/33/4 406/33/4 407/33/4
f 442/33/4 407/33/4 410/33/4
f 444/33/4 410/33/4 411/33/4
f 446/33/4 411/33/4 414/33/4
f 448/33/4 414/33/4 415/33/4
f 449/33/4 415/33/4 417/33/4
f 451/33/4 417/33/4 418/33/4
f 452/33/4 418/33/4 421/33/4
f 453/33/4 421/33/4 422/33/4
f 454/33/4 422/33/4 425/33/4
f 455/33/4 425/33/4 426/33/4
f 375/33/4 455/33/4 426/33/4
f 464/33/4 434/33/4 429/33/4
f 463/66/4 459/54/4 384/51/4
f 456/33/4 429/33/4 431/33/4
f 236/33/62 362/33/62 238/33/62
f 364/55/6 241/60/6 240/55/6
f 372/33/5 250/33/5 248/33/5
f 377/33/3 244/33/3 252/33/3
f 366/50/5 248/33/5 241/50/5
f 386/61/63 253/56/63 260/61/63
f 388/62/64 260/61/64 262/62/64
f 390/52/65 262/62/65 265/52/65
f 392/53/66 265/52/66 266/53/66
f 394/57/67 266/53/67 269/57/67
f 396/63/68 269/57/68 270/63/68
f 398/64/69 270/63/69 273/64/69
f 380/49/70 273/64/70 256/49/70
f 367/33/3 256/49/3 244/33/3
f 253/56/71 360/33/71 236/33/71
f 247/33/1 246/33/1 466/33/1
f 400/33/72 354/33/72 274/33/72
f 375/33/73 302/33/73 250/33/73
f 431/33/49 304/33/49 306/33/49
f 429/33/48 309/33/48 304/33/48
f 434/33/47 307/33/47 309/33/47
f 432/33/46 312/33/46 307/33/46
f 436/33/45 314/33/45 312/33/45
f 437/33/44 316/33/44 314/33/44
f 440/33/43 318/33/43 316/33/43
f 442/33/42 319/33/42 318/33/42
f 319/33/41 446/33/41 322/33/41
f 446/33/40 323/33/40 322/33/40
f 448/33/39 325/33/39 323/33/39
f 449/33/38 327/33/38 325/33/38
f 327/33/37 452/33/37 329/33/37
f 452/33/36 332/33/36 329/33/36
f 453/33/60 334/33/60 332/33/60
f 454/33/61 335/33/61 334/33/61
f 455/33/74 252/33/74 335/33/74
f 402/33/20 274/33/20 277/33/20
f 403/33/19 277/33/19 278/33/19
f 406/33/18 278/33/18 280/33/18
f 407/33/17 280/33/17 281/33/17
f 410/33/16 281/33/16 284/33/16
f 411/33/15 284/33/15 286/33/15
f 414/33/14 286/33/14 288/33/14
f 415/33/13 288/33/13 290/33/13
f 417/33/12 290/33/12 292/33/12
f 418/33/11 292/33/11 294/33/11
f 421/33/10 294/33/10 296/33/10
f 422/33/9 296/33/9 298/33/9
f 425/33/8 298/33/8 300/33/8
f 426/33/7 300/33/7 302/33/7
f 458/65/49 240/55/49 342/65/49
f 463/66/75 342/65/75 352/66/75
f 462/59/76 352/66/76 350/67/76
f 461/68/77 350/67/77 348/68/77
f 460/58/78 348/68/78 345/58/78
f 459/54/79 345/58/79 343/54/79
f 457/69/80 343/54/80 340/70/80
f 362/33/81 340/70/81 238/33/81
f 464/33/82 337/33/82 354/33/82
f 276/33/4 291/33/4 456/33/4
f 467/33/2 466/15/2 246/33/2
f 431/33/4 276/33/4 456/33/4
f 247/11/4 468/33/4 370/33/4
f 468/33/83 306/33/83 467/33/83
f 370/33/84 467/33/84 246/33/84
f 473/2/1 509/1/1 498/3/1
f 483/2/1 476/4/1 473/2/1
f 493/6/1 469/5/1 471/6/1
f 527/8/4 505/7/4 551/9/4
f 488/11/3 519/10/3 517/12/3
f 529/14/2 473/13/2 525/14/2
f 519/16/4 700/15/4 699/16/4
f 491/18/5 531/17/5 545/19/5
f 521/21/2 477/20/2 513/21/2
f 531/8/4 471/22/4 527/8/4
f 547/24/4 476/23/4 539/25/4
f 549/27/4 509/26/4 547/24/4
f 551/9/4 506/28/4 549/27/4
f 502/29/1 471/6/1 469/5/1
f 501/31/1 505/30/1 502/29/1
f 498/3/1 506/32/1 501/31/1
f 540/33/4 699/33/4 701/33/4
f 497/35/4 516/34/4 479/35/4
f 545/36/2 513/21/2 542/37/2
f 521/38/5 497/35/5 495/20/5
f 544/25/4 699/16/4 539/25/4
f 488/11/2 510/39/2 481/11/2
f 517/12/3 544/40/3 529/41/3
f 527/33/6 537/33/6 542/33/6
f 469/43/2 537/42/2 502/44/2
f 483/2/3 544/40/3 485/4/3
f 485/23/4 539/25/4 476/23/4
f 491/43/2 542/37/2 469/43/2
f 498/45/2 525/14/2 473/13/2
f 498/45/2 535/46/2 533/71/2
f 501/47/2 537/42/2 535/46/2
f 523/34/4 527/8/4 516/34/4
f 545/19/5 523/48/5 521/38/5
f 517/39/2 525/14/2 510/39/2
f 547/33/6 525/33/6 533/33/6
f 549/33/6 533/33/6 535/33/6
f 551/33/6 535/33/6 537/33/6
f 516/33/3 542/33/3 513/33/3
f 479/33/3 513/33/3 477/33/3
f 575/15/7 555/11/7 572/15/7
f 578/15/8 570/11/8 575/15/8
f 580/15/9 567/11/9 578/15/9
f 581/15/10 565/11/10 580/15/10
f 583/15/11 564/11/11 581/15/11
f 585/15/12 562/11/12 583/15/12
f 587/15/13 560/11/13 585/15/13
f 573/15/14 558/11/14 587/15/14
f 603/15/15 554/11/15 573/15/15
f 605/15/16 599/11/16 603/15/16
f 607/15/17 597/11/17 605/15/17
f 608/15/18 595/11/18 607/15/18
f 610/15/19 593/11/19 608/15/19
f 612/15/20 592/11/20 610/15/20
f 615/15/21 591/11/21 612/15/21
f 602/15/22 590/11/22 615/15/22
f 638/35/15 617/20/15 633/35/15
f 639/35/16 631/20/16 638/35/16
f 642/35/17 629/20/17 639/35/17
f 643/35/18 627/20/18 642/35/18
f 646/35/19 625/20/19 643/35/19
f 647/35/20 623/20/20 646/35/20
f 650/35/21 621/20/21 647/35/21
f 635/35/22 619/20/22 650/35/22
f 672/35/7 653/20/7 669/35/7
f 673/35/8 667/20/8 672/35/8
f 675/35/9 664/20/9 673/35/9
f 677/35/10 662/20/10 675/35/10
f 679/35/11 661/20/11 677/35/11
f 681/35/12 658/20/12 679/35/12
f 684/35/13 657/20/13 681/35/13
f 633/35/14 654/20/14 684/35/14
f 700/15/5 555/11/5 481/11/5
f 592/11/2 567/11/2 560/11/2
f 578/15/4 610/15/4 603/15/4
f 589/11/3 489/15/3 488/11/3
f 616/20/3 479/35/3 477/20/3
f 654/20/2 619/20/2 653/20/2
f 673/35/4 646/35/4 638/35/4
f 669/35/5 495/20/5 497/35/5
f 490/49/4 482/33/4 478/33/4
f 470/33/4 492/51/4 487/56/4
f 503/57/4 500/53/4 492/51/4
f 484/33/4 478/33/4 482/33/4
f 541/33/4 508/33/4 543/33/4
f 546/33/4 511/33/4 541/33/4
f 548/33/4 512/33/4 546/33/4
f 550/33/4 514/33/4 548/33/4
f 552/33/4 515/33/4 550/33/4
f 553/33/4 518/33/4 552/33/4
f 556/33/4 520/33/4 553/33/4
f 557/33/4 522/33/4 556/33/4
f 559/33/4 524/33/4 557/33/4
f 561/33/4 526/33/4 559/33/4
f 563/33/4 528/33/4 561/33/4
f 566/33/4 530/33/4 563/33/4
f 568/33/4 532/33/4 566/33/4
f 569/33/4 534/33/4 568/33/4
f 484/33/4 569/33/4 486/33/4
f 543/33/4 588/33/4 538/33/4
f 475/60/4 577/54/4 584/67/4
f 538/33/4 571/33/4 540/33/4
f 614/49/2 606/33/2 600/50/2
f 594/33/2 618/51/2 596/33/2
f 624/52/2 626/53/2 600/50/2
f 601/33/2 609/33/2 606/33/2
f 666/33/2 634/33/2 636/33/2
f 670/33/2 636/33/2 637/33/2
f 671/33/2 637/33/2 640/33/2
f 674/33/2 640/33/2 641/33/2
f 676/33/2 641/33/2 644/33/2
f 678/33/2 644/33/2 645/33/2
f 680/33/2 645/33/2 648/33/2
f 682/33/2 648/33/2 649/33/2
f 683/33/2 649/33/2 651/33/2
f 685/33/2 651/33/2 652/33/2
f 686/33/2 652/33/2 655/33/2
f 687/33/2 655/33/2 656/33/2
f 688/33/2 656/33/2 659/33/2
f 689/33/2 659/33/2 660/33/2
f 609/33/2 689/33/2 660/33/2
f 698/33/2 668/33/2 663/33/2
f 697/66/2 693/54/2 618/51/2
f 690/33/2 663/33/2 665/33/2
f 470/33/23 596/33/23 472/33/23
f 598/55/1 475/60/1 474/55/1
f 606/33/5 484/33/5 482/33/5
f 611/33/3 478/33/3 486/33/3
f 600/50/5 482/33/5 475/50/5
f 620/61/24 487/56/24 494/61/24
f 622/62/25 494/61/25 496/62/25
f 624/52/26 496/62/26 499/52/26
f 626/53/27 499/52/27 500/53/27
f 628/57/28 500/53/28 503/57/28
f 630/63/29 503/57/29 504/63/29
f 632/64/30 504/63/30 507/64/30
f 614/49/31 507/64/31 490/49/31
f 601/33/3 490/49/3 478/33/3
f 487/56/32 594/33/32 470/33/32
f 481/33/6 480/33/6 700/33/6
f 634/33/33 588/33/33 508/33/33
f 609/33/34 536/33/34 484/33/34
f 665/33/7 538/33/7 540/33/7
f 663/33/8 543/33/8 538/33/8
f 668/33/9 541/33/9 543/33/9
f 666/33/10 546/33/10 541/33/10
f 670/33/11 548/33/11 546/33/11
f 671/33/12 550/33/12 548/33/12
f 674/33/13 552/33/13 550/33/13
f 676/33/14 553/33/14 552/33/14
f 553/33/15 680/33/15 556/33/15
f 680/33/16 557/33/16 556/33/16
f 682/33/17 559/33/17 557/33/17
f 683/33/18 561/33/18 559/33/18
f 561/33/19 686/33/19 563/33/19
f 686/33/20 566/33/20 563/33/20
f 687/33/21 568/33/21 566/33/21
f 688/33/22 569/33/22 568/33/22
f 689/33/35 486/33/35 569/33/35
f 636/33/36 508/33/36 511/33/36
f 637/33/37 511/33/37 512/33/37
f 640/33/38 512/33/38 514/33/38
f 641/33/39 514/33/39 515/33/39
f 644/33/40 515/33/40 518/33/40
f 645/33/41 518/33/41 520/33/41
f 648/33/42 520/33/42 522/33/42
f 649/33/43 522/33/43 524/33/43
f 651/33/44 524/33/44 526/33/44
f 652/33/45 526/33/45 528/33/45
f 655/33/46 528/33/46 530/33/46
f 656/33/47 530/33/47 532/33/47
f 659/33/48 532/33/48 534/33/48
f 660/33/49 534/33/49 536/33/49
f 692/65/7 474/55/7 576/65/7
f 697/66/50 576/65/50 586/66/50
f 696/59/51 586/66/51 584/67/51
f 695/68/52 584/67/52 582/68/52
f 694/58/53 582/68/53 579/58/53
f 693/54/54 579/58/54 577/54/54
f 691/69/55 577/54/55 574/70/55
f 596/33/56 574/70/56 472/33/56
f 698/33/57 571/33/57 588/33/57
f 510/33/2 525/33/2 690/33/2
f 701/33/4 700/15/4 480/33/4
f 665/33/2 510/33/2 690/33/2
f 481/11/2 702/33/2 604/33/2
f 702/33/58 540/33/58 701/33/58
f 604/33/59 701/33/59 480/33/59
f 743/1/6 707/2/6 732/3/6
f 710/4/6 717/2/6 707/2/6
f 703/5/6 727/6/6 705/6/6
f 739/7/4 761/8/4 785/9/4
f 753/10/3 722/11/3 751/12/3
f 707/13/2 763/14/2 759/14/2
f 934/15/4 753/16/4 933/16/4
f 765/17/5 725/18/5 779/19/5
f 711/20/2 755/21/2 747/21/2
f 705/22/4 765/8/4 761/8/4
f 710/23/4 781/24/4 773/25/4
f 743/26/4 783/27/4 781/24/4
f 740/28/4 785/9/4 783/27/4
f 705/6/6 736/29/6 703/5/6
f 739/30/6 735/31/6 736/29/6
f 740/32/6 732/3/6 735/31/6
f 933/33/4 774/33/4 935/33/4
f 750/34/4 731/35/4 713/35/4
f 747/21/2 779/36/2 776/37/2
f 731/35/5 755/38/5 729/20/5
f 933/16/4 778/25/4 773/25/4
f 744/39/2 722/11/2 715/11/2
f 778/40/3 751/12/3 763/41/3
f 771/33/1 761/33/1 776/33/1
f 771/42/2 703/43/2 736/44/2
f 719/4/3 763/41/3 717/2/3
f 773/25/4 719/23/4 710/23/4
f 776/37/2 725/43/2 703/43/2
f 759/14/2 732/45/2 707/13/2
f 732/45/2 769/46/2 735/47/2
f 735/47/2 771/42/2 736/44/2
f 761/8/4 757/34/4 750/34/4
f 757/48/5 779/19/5 755/38/5
f 759/14/2 751/39/2 744/39/2
f 759/33/1 781/33/1 767/33/1
f 767/33/1 783/33/1 769/33/1
f 769/33/1 785/33/1 771/33/1
f 776/33/3 750/33/3 747/33/3
f 747/33/3 713/33/3 711/33/3
f 789/11/49 809/15/49 806/15/49
f 804/11/48 812/15/48 809/15/48
f 801/11/47 814/15/47 812/15/47
f 799/11/46 815/15/46 814/15/46
f 798/11/45 817/15/45 815/15/45
f 796/11/44 819/15/44 817/15/44
f 794/11/43 821/15/43 819/15/43
f 792/11/42 807/15/42 821/15/42
f 788/11/41 837/15/41 807/15/41
f 833/11/40 839/15/40 837/15/40
f 831/11/39 841/15/39 839/15/39
f 829/11/38 842/15/38 841/15/38
f 827/11/37 844/15/37 842/15/37
f 826/11/36 846/15/36 844/15/36
f 825/11/60 849/15/60 846/15/60
f 824/11/61 836/15/61 849/15/61
f 851/20/41 872/35/41 867/35/41
f 865/20/40 873/35/40 872/35/40
f 863/20/39 876/35/39 873/35/39
f 861/20/38 877/35/38 876/35/38
f 859/20/37 880/35/37 877/35/37
f 857/20/36 881/35/36 880/35/36
f 855/20/60 884/35/60 881/35/60
f 853/20/61 869/35/61 884/35/61
f 887/20/49 906/35/49 903/35/49
f 901/20/48 907/35/48 906/35/48
f 898/20/47 909/35/47 907/35/47
f 896/20/46 911/35/46 909/35/46
f 895/20/45 913/35/45 911/35/45
f 892/20/44 915/35/44 913/35/44
f 891/20/43 918/35/43 915/35/43
f 888/20/42 867/35/42 918/35/42
f 789/11/5 934/15/5 715/11/5
f 799/11/2 825/11/2 831/11/2
f 842/15/4 809/15/4 817/15/4
f 723/15/3 823/11/3 722/11/3
f 713/35/3 850/20/3 711/20/3
f 850/20/2 851/20/2 895/20/2
f 877/35/4 906/35/4 913/35/4
f 729/20/5 903/35/5 731/35/5
f 724/49/4 716/33/4 709/50/4
f 704/33/4 726/51/4 706/33/4
f 709/50/4 733/52/4 734/53/4
f 712/33/4 718/33/4 716/33/4
f 775/33/4 742/33/4 745/33/4
f 780/33/4 745/33/4 746/33/4
f 782/33/4 746/33/4 748/33/4
f 784/33/4 748/33/4 749/33/4
f 786/33/4 749/33/4 752/33/4
f 787/33/4 752/33/4 754/33/4
f 790/33/4 754/33/4 756/33/4
f 791/33/4 756/33/4 758/33/4
f 793/33/4 758/33/4 760/33/4
f 795/33/4 760/33/4 762/33/4
f 797/33/4 762/33/4 764/33/4
f 800/33/4 764/33/4 766/33/4
f 802/33/4 766/33/4 768/33/4
f 803/33/4 768/33/4 770/33/4
f 718/33/4 803/33/4 770/33/4
f 822/33/4 777/33/4 772/33/4
f 811/54/4 726/51/4 708/55/4
f 805/33/4 772/33/4 774/33/4
f 848/49/2 840/33/2 835/33/2
f 828/33/2 852/51/2 847/56/2
f 852/51/2 862/57/2 860/53/2
f 843/33/2 835/33/2 840/33/2
f 900/33/2 868/33/2 902/33/2
f 904/33/2 870/33/2 900/33/2
f 905/33/2 871/33/2 904/33/2
f 908/33/2 874/33/2 905/33/2
f 910/33/2 875/33/2 908/33/2
f 912/33/2 878/33/2 910/33/2
f 914/33/2 879/33/2 912/33/2
f 916/33/2 882/33/2 914/33/2
f 917/33/2 883/33/2 916/33/2
f 919/33/2 885/33/2 917/33/2
f 920/33/2 886/33/2 919/33/2
f 921/33/2 889/33/2 920/33/2
f 922/33/2 890/33/2 921/33/2
f 923/33/2 893/33/2 922/33/2
f 843/33/2 923/33/2 845/33/2
f 902/33/2 932/33/2 897/33/2
f 852/51/2 928/58/2 930/59/2
f 897/33/2 924/33/2 899/33/2
f 704/33/62 830/33/62 828/33/62
f 709/60/6 832/55/6 708/55/6
f 718/33/5 840/33/5 716/33/5
f 712/33/3 845/33/3 720/33/3
f 716/33/5 834/50/5 709/50/5
f 721/56/63 854/61/63 728/61/63
f 728/61/64 856/62/64 730/62/64
f 730/62/65 858/52/65 733/52/65
f 733/52/66 860/53/66 734/53/66
f 734/53/67 862/57/67 737/57/67
f 737/57/68 864/63/68 738/63/68
f 738/63/69 866/64/69 741/64/69
f 741/64/70 848/49/70 724/49/70
f 724/49/3 835/33/3 712/33/3
f 704/33/71 847/56/71 721/56/71
f 714/33/1 715/33/1 934/33/1
f 822/33/72 868/33/72 742/33/72
f 770/33/73 843/33/73 718/33/73
f 772/33/49 899/33/49 774/33/49
f 777/33/48 897/33/48 772/33/48
f 775/33/47 902/33/47 777/33/47
f 780/33/46 900/33/46 775/33/46
f 782/33/45 904/33/45 780/33/45
f 784/33/44 905/33/44 782/33/44
f 786/33/43 908/33/43 784/33/43
f 787/33/42 910/33/42 786/33/42
f 787/33/41 914/33/41 912/33/41
f 791/33/40 914/33/40 790/33/40
f 793/33/39 916/33/39 791/33/39
f 795/33/38 917/33/38 793/33/38
f 795/33/37 920/33/37 919/33/37
f 800/33/36 920/33/36 797/33/36
f 802/33/60 921/33/60 800/33/60
f 803/33/61 922/33/61 802/33/61
f 720/33/74 923/33/74 803/33/74
f 742/33/20 870/33/20 745/33/20
f 745/33/19 871/33/19 746/33/19
f 746/33/18 874/33/18 748/33/18
f 748/33/17 875/33/17 749/33/17
f 749/33/16 878/33/16 752/33/16
f 752/33/15 879/33/15 754/33/15
f 754/33/14 882/33/14 756/33/14
f 756/33/13 883/33/13 758/33/13
f 758/33/12 885/33/12 760/33/12
f 760/33/11 886/33/11 762/33/11
f 762/33/10 889/33/10 764/33/10
f 764/33/9 890/33/9 766/33/9
f 766/33/8 893/33/8 768/33/8
f 768/33/7 894/33/7 770/33/7
f 708/55/49 926/65/49 810/65/49
f 810/65/75 931/66/75 820/66/75
f 820/66/76 930/59/76 818/67/76
f 818/67/77 929/68/77 816/68/77
f 816/68/78 928/58/78 813/58/78
f 813/58/79 927/54/79 811/54/79
f 811/54/80 925/69/80 808/70/80
f 808/70/81 830/33/81 706/33/81
f 805/33/82 932/33/82 822/33/82
f 744/33/2 924/33/2 759/33/2
f 934/15/4 935/33/4 714/33/4
f 899/33/2 744/33/2 936/33/2
f 715/11/2 936/33/2 744/39/2
f 774/33/83 936/33/83 935/33/83
f 935/33/84 838/33/84 714/33/84
f 41/1/1 8/4/1 5/2/1
f 8/4/1 17/4/1 15/2/1
f 1/5/1 23/5/1 25/6/1
f 37/7/2 3/22/2 59/8/2
f 51/10/3 21/15/3 20/11/3
f 5/13/4 15/13/4 61/14/4
f 232/15/2 21/15/2 51/16/2
f 63/17/5 25/72/5 23/18/5
f 9/20/4 27/20/4 53/21/4
f 3/22/2 25/22/2 63/8/2
f 8/23/2 41/26/2 79/24/2
f 41/26/2 38/28/2 81/27/2
f 38/28/2 37/7/2 83/9/2
f 3/6/1 37/30/1 34/29/1
f 37/30/1 38/32/1 33/31/1
f 38/32/1 41/1/1 30/3/1
f 231/33/2 103/33/2 72/33/2
f 48/34/2 55/34/2 29/35/2
f 45/21/4 53/21/4 77/36/4
f 29/35/5 55/48/5 53/38/5
f 231/16/2 51/16/2 76/25/2
f 42/39/4 49/39/4 20/11/4
f 76/40/3 51/10/3 49/12/3
f 69/33/6 83/33/6 59/33/6
f 69/42/4 74/37/4 1/43/4
f 17/4/3 76/40/3 61/41/3
f 71/25/2 76/25/2 17/23/2
f 74/37/4 77/36/4 23/43/4
f 57/14/4 65/71/4 30/45/4
f 30/45/4 65/71/4 67/46/4
f 33/47/4 67/46/4 69/42/4
f 59/8/2 63/8/2 55/34/2
f 55/48/5 63/17/5 77/19/5
f 57/14/4 61/14/4 49/39/4
f 57/33/6 71/33/6 79/33/6
f 65/33/6 79/33/6 81/33/6
f 67/33/6 81/33/6 83/33/6
f 74/33/3 59/33/3 48/33/3
f 45/33/3 48/33/3 11/33/3
f 87/11/7 102/11/7 107/15/7
f 102/11/8 99/11/8 110/15/8
f 99/11/9 97/11/9 112/15/9
f 97/11/10 96/11/10 113/15/10
f 96/11/11 94/11/11 115/15/11
f 94/11/12 92/11/12 117/15/12
f 92/11/13 90/11/13 119/15/13
f 90/11/14 86/11/14 105/15/14
f 86/11/15 131/11/15 135/15/15
f 131/11/16 129/11/16 137/15/16
f 129/11/17 127/11/17 139/15/17
f 127/11/18 125/11/18 140/15/18
f 125/11/19 124/11/19 142/15/19
f 124/11/20 123/11/20 144/15/20
f 123/11/21 122/11/21 147/15/21
f 122/11/22 121/11/22 134/15/22
f 149/20/15 163/20/15 170/35/15
f 163/20/16 161/20/16 171/35/16
f 161/20/17 159/20/17 174/35/17
f 159/20/18 157/20/18 175/35/18
f 157/20/19 155/20/19 178/35/19
f 155/20/20 153/20/20 179/35/20
f 153/20/21 151/20/21 182/35/21
f 151/20/22 148/20/22 167/35/22
f 185/20/7 199/20/7 204/35/7
f 199/20/8 196/20/8 205/35/8
f 196/20/9 194/20/9 207/35/9
f 194/20/10 193/20/10 209/35/10
f 193/20/11 190/20/11 211/35/11
f 190/20/12 189/20/12 213/35/12
f 189/20/13 186/20/13 216/35/13
f 186/20/14 149/20/14 165/35/14
f 87/11/5 104/15/5 232/15/5
f 131/11/4 86/11/4 90/11/4
f 90/11/4 92/11/4 94/11/4
f 94/11/4 96/11/4 97/11/4
f 97/11/4 99/11/4 102/11/4
f 102/11/4 87/11/4 13/11/4
f 13/11/4 20/11/4 121/11/4
f 121/11/4 122/11/4 123/11/4
f 123/11/4 124/11/4 125/11/4
f 125/11/4 127/11/4 129/11/4
f 129/11/4 131/11/4 90/11/4
f 90/11/4 94/11/4 97/11/4
f 97/11/4 102/11/4 13/11/4
f 13/11/4 121/11/4 123/11/4
f 123/11/4 125/11/4 129/11/4
f 129/11/4 90/11/4 97/11/4
f 97/11/4 13/11/4 123/11/4
f 117/15/2 119/15/2 105/15/2
f 105/15/2 135/15/2 137/15/2
f 137/15/2 139/15/2 140/15/2
f 140/15/2 142/15/2 144/15/2
f 144/15/2 147/15/2 134/15/2
f 134/15/2 21/15/2 232/15/2
f 232/15/2 104/15/2 107/15/2
f 107/15/2 110/15/2 112/15/2
f 112/15/2 113/15/2 115/15/2
f 115/15/2 117/15/2 105/15/2
f 105/15/2 137/15/2 140/15/2
f 140/15/2 144/15/2 134/15/2
f 134/15/2 232/15/2 107/15/2
f 107/15/2 112/15/2 115/15/2
f 115/15/2 105/15/2 140/15/2
f 140/15/2 134/15/2 107/15/2
f 21/15/3 134/15/3 121/11/3
f 11/35/3 167/35/3 148/20/3
f 194/20/4 196/20/4 199/20/4
f 199/20/4 185/20/4 27/20/4
f 27/20/4 9/20/4 148/20/4
f 148/20/4 151/20/4 153/20/4
f 153/20/4 155/20/4 157/20/4
f 157/20/4 159/20/4 161/20/4
f 161/20/4 163/20/4 149/20/4
f 149/20/4 186/20/4 189/20/4
f 189/20/4 190/20/4 193/20/4
f 193/20/4 194/20/4 199/20/4
f 199/20/4 27/20/4 148/20/4
f 148/20/4 153/20/4 157/20/4
f 157/20/4 161/20/4 149/20/4
f 149/20/4 189/20/4 193/20/4
f 193/20/4 199/20/4 148/20/4
f 148/20/4 157/20/4 149/20/4
f 213/35/2 216/35/2 165/35/2
f 165/35/2 170/35/2 171/35/2
f 171/35/2 174/35/2 175/35/2
f 175/35/2 178/35/2 179/35/2
f 179/35/2 182/35/2 167/35/2
f 167/35/2 11/35/2 29/35/2
f 29/35/2 201/35/2 204/35/2
f 204/35/2 205/35/2 207/35/2
f 207/35/2 209/35/2 211/35/2
f 211/35/2 213/35/2 165/35/2
f 165/35/2 171/35/2 175/35/2
f 175/35/2 179/35/2 167/35/2
f 167/35/2 29/35/2 204/35/2
f 204/35/2 207/35/2 211/35/2
f 211/35/2 165/35/2 175/35/2
f 175/35/2 167/35/2 204/35/2
f 27/20/5 185/20/5 201/35/5
f 22/49/2 10/33/2 14/33/2
f 2/33/2 19/56/2 24/51/2
f 39/64/2 22/49/2 7/50/2
f 7/50/2 24/51/2 19/56/2
f 7/50/2 19/56/2 26/61/2
f 36/63/2 39/64/2 7/50/2
f 35/57/2 36/63/2 7/50/2
f 7/50/2 26/61/2 28/62/2
f 7/50/2 28/62/2 31/52/2
f 32/53/2 35/57/2 7/50/2
f 10/33/2 18/33/2 16/33/2
f 73/33/2 75/33/2 40/33/2
f 78/33/2 73/33/2 43/33/2
f 80/33/2 78/33/2 44/33/2
f 82/33/2 80/33/2 46/33/2
f 84/33/2 82/33/2 47/33/2
f 85/33/2 84/33/2 50/33/2
f 88/33/2 85/33/2 52/33/2
f 89/33/2 88/33/2 54/33/2
f 91/33/2 89/33/2 56/33/2
f 93/33/2 91/33/2 58/33/2
f 95/33/2 93/33/2 60/33/2
f 98/33/2 95/33/2 62/33/2
f 100/33/2 98/33/2 64/33/2
f 101/33/2 100/33/2 66/33/2
f 16/33/2 18/33/2 101/33/2
f 120/33/2 40/33/2 75/33/2
f 108/65/2 118/66/2 116/67/2
f 116/67/2 114/68/2 111/58/2
f 116/67/85 111/58/85 109/54/85
f 6/55/2 108/65/2 116/67/2
f 24/51/2 7/60/2 6/55/2
f 106/70/2 4/33/2 24/51/2
f 6/55/2 116/67/2 109/54/2
f 109/54/2 106/70/2 24/51/2
f 103/33/2 120/33/2 70/33/2
f 146/49/4 132/50/4 138/33/4
f 126/33/4 128/33/4 150/51/4
f 152/61/4 145/56/4 150/51/4
f 150/51/4 132/50/4 146/49/4
f 150/51/4 146/49/4 164/64/4
f 154/62/4 152/61/4 150/51/4
f 156/52/4 154/62/4 150/51/4
f 150/51/4 164/64/4 162/63/4
f 150/51/4 162/63/4 160/57/4
f 158/53/4 156/52/4 150/51/4
f 141/33/4 143/33/4 133/33/4
f 198/33/4 168/33/4 166/33/4
f 202/33/4 169/33/4 168/33/4
f 203/33/4 172/33/4 169/33/4
f 206/33/4 173/33/4 172/33/4
f 208/33/4 176/33/4 173/33/4
f 210/33/4 177/33/4 176/33/4
f 212/33/4 180/33/4 177/33/4
f 214/33/4 181/33/4 180/33/4
f 215/33/4 183/33/4 181/33/4
f 217/33/4 184/33/4 183/33/4
f 218/33/4 187/33/4 184/33/4
f 219/33/4 188/33/4 187/33/4
f 220/33/4 191/33/4 188/33/4
f 221/33/4 192/33/4 191/33/4
f 141/33/4 192/33/4 221/33/4
f 200/33/4 166/33/4 230/33/4
f 130/55/4 132/50/4 150/51/4
f 150/51/4 128/33/4 223/69/4
f 150/51/4 223/69/4 225/54/4
f 224/65/4 130/55/4 150/51/4
f 228/59/4 229/66/4 224/65/4
f 226/58/4 227/68/4 228/59/4
f 150/51/4 225/54/4 226/58/4
f 228/59/4 224/65/4 150/51/4
f 195/33/4 230/33/4 222/33/4
f 2/33/23 4/33/23 128/33/23
f 7/60/1 132/50/1 130/55/1
f 16/33/5 141/33/5 138/33/5
f 10/33/3 133/33/3 143/33/3
f 14/33/5 138/33/5 132/50/5
f 19/56/24 145/56/24 152/61/24
f 26/61/25 152/61/25 154/62/25
f 28/62/26 154/62/26 156/52/26
f 31/52/27 156/52/27 158/53/27
f 32/53/28 158/53/28 160/57/28
f 35/57/29 160/57/29 162/63/29
f 36/63/30 162/63/30 164/64/30
f 39/64/31 164/64/31 146/49/31
f 22/49/3 146/49/3 133/33/3
f 2/33/32 126/33/32 145/56/32
f 12/33/6 136/33/6 13/33/6
f 120/33/33 230/33/33 166/33/33
f 68/33/34 192/33/34 141/33/34
f 70/33/7 195/33/7 197/33/7
f 75/33/8 200/33/8 195/33/8
f 73/33/9 198/33/9 200/33/9
f 78/33/10 202/33/10 198/33/10
f 80/33/11 203/33/11 202/33/11
f 82/33/12 206/33/12 203/33/12
f 84/33/13 208/33/13 206/33/13
f 85/33/14 210/33/14 208/33/14
f 85/33/15 88/33/15 212/33/15
f 89/33/16 214/33/16 212/33/16
f 91/33/17 215/33/17 214/33/17
f 93/33/18 217/33/18 215/33/18
f 93/33/19 95/33/19 218/33/19
f 98/33/20 219/33/20 218/33/20
f 100/33/21 220/33/21 219/33/21
f 101/33/22 221/33/22 220/33/22
f 18/33/35 143/33/35 221/33/35
f 40/33/36 166/33/36 168/33/36
f 43/33/37 168/33/37 169/33/37
f 44/33/38 169/33/38 172/33/38
f 46/33/39 172/33/39 173/33/39
f 47/33/40 173/33/40 176/33/40
f 50/33/41 176/33/41 177/33/41
f 52/33/42 177/33/42 180/33/42
f 54/33/43 180/33/43 181/33/43
f 56/33/44 181/33/44 183/33/44
f 58/33/45 183/33/45 184/33/45
f 60/33/46 184/33/46 187/33/46
f 62/33/47 187/33/47 188/33/47
f 64/33/48 188/33/48 191/33/48
f 66/33/49 191/33/49 192/33/49
f 6/55/7 130/55/7 224/65/7
f 108/65/50 224/65/50 229/66/50
f 118/66/51 229/66/51 228/59/51
f 116/67/52 228/59/52 227/68/52
f 114/68/53 227/68/53 226/58/53
f 111/58/54 226/58/54 225/54/54
f 109/54/55 225/54/55 223/69/55
f 106/70/56 223/69/56 128/33/56
f 103/33/57 222/33/57 230/33/57
f 103/33/86 231/33/86 71/33/86
f 222/33/87 103/33/87 71/33/87
f 222/33/87 71/33/87 57/33/87
f 232/15/2 231/16/2 233/33/2
f 197/33/4 222/33/4 42/33/4
f 13/11/4 136/33/4 234/33/4
f 72/33/58 197/33/58 234/33/58
f 233/33/59 234/33/59 136/33/59
f 239/2/6 242/4/6 275/1/6
f 249/2/6 251/4/6 242/4/6
f 259/6/6 257/5/6 235/5/6
f 293/8/2 237/22/2 271/7/2
f 254/11/3 255/15/3 285/10/3
f 295/14/4 249/13/4 239/13/4
f 285/16/2 255/15/2 466/15/2
f 257/18/5 259/72/5 297/17/5
f 287/21/4 261/20/4 243/20/4
f 297/8/2 259/22/2 237/22/2
f 313/24/2 275/26/2 242/23/2
f 315/27/2 272/28/2 275/26/2
f 317/9/2 271/7/2 272/28/2
f 268/29/6 271/30/6 237/6/6
f 267/31/6 272/32/6 271/30/6
f 264/3/6 275/1/6 272/32/6
f 306/33/2 337/33/2 465/33/2
f 263/35/2 289/34/2 282/34/2
f 311/36/4 287/21/4 279/21/4
f 287/38/5 289/48/5 263/35/5
f 310/25/2 285/16/2 465/16/2
f 254/11/4 283/39/4 276/39/4
f 283/12/3 285/10/3 310/40/3
f 293/33/1 317/33/1 303/33/1
f 235/43/4 308/37/4 303/42/4
f 249/2/3 295/41/3 310/40/3
f 251/23/2 310/25/2 305/25/2
f 257/43/4 311/36/4 308/37/4
f 264/45/4 299/71/4 291/14/4
f 264/45/4 267/47/4 301/46/4
f 267/47/4 268/44/4 303/42/4
f 289/34/2 297/8/2 293/8/2
f 311/19/5 297/17/5 289/48/5
f 283/39/4 295/14/4 291/14/4
f 313/33/1 305/33/1 291/33/1
f 315/33/1 313/33/1 299/33/1
f 317/33/1 315/33/1 301/33/1
f 282/33/3 293/33/3 308/33/3
f 245/33/3 282/33/3 279/33/3
f 341/15/49 336/11/49 321/11/49
f 344/15/48 333/11/48 336/11/48
f 346/15/47 331/11/47 333/11/47
f 347/15/46 330/11/46 331/11/46
f 349/15/45 328/11/45 330/11/45
f 351/15/44 326/11/44 328/11/44
f 353/15/43 324/11/43 326/11/43
f 339/15/42 320/11/42 324/11/42
f 369/15/41 365/11/41 320/11/41
f 371/15/40 363/11/40 365/11/40
f 373/15/39 361/11/39 363/11/39
f 374/15/38 359/11/38 361/11/38
f 376/15/37 358/11/37 359/11/37
f 378/15/36 357/11/36 358/11/36
f 381/15/60 356/11/60 357/11/60
f 368/15/61 355/11/61 356/11/61
f 404/35/41 397/20/41 383/20/41
f 405/35/40 395/20/40 397/20/40
f 408/35/39 393/20/39 395/20/39
f 409/35/38 391/20/38 393/20/38
f 412/35/37 389/20/37 391/20/37
f 413/35/36 387/20/36 389/20/36
f 416/35/60 385/20/60 387/20/60
f 401/35/61 382/20/61 385/20/61
f 438/35/49 433/20/49 419/20/49
f 439/35/48 430/20/48 433/20/48
f 441/35/47 428/20/47 430/20/47
f 443/35/46 427/20/46 428/20/46
f 445/35/45 424/20/45 427/20/45
f 447/35/44 423/20/44 424/20/44
f 450/35/43 420/20/43 423/20/43
f 399/35/42 383/20/42 420/20/42
f 466/15/5 338/15/5 321/11/5
f 324/11/4 320/11/4 365/11/4
f 365/11/4 363/11/4 361/11/4
f 361/11/4 359/11/4 358/11/4
f 358/11/4 357/11/4 356/11/4
f 356/11/4 355/11/4 254/11/4
f 254/11/4 247/11/4 321/11/4
f 321/11/4 336/11/4 333/11/4
f 333/11/4 331/11/4 330/11/4
f 330/11/4 328/11/4 326/11/4
f 326/11/4 324/11/4 365/11/4
f 365/11/4 361/11/4 358/11/4
f 358/11/4 356/11/4 254/11/4
f 254/11/4 321/11/4 333/11/4
f 333/11/4 330/11/4 326/11/4
f 326/11/4 365/11/4 358/11/4
f 358/11/4 254/11/4 333/11/4
f 339/15/2 353/15/2 351/15/2
f 351/15/2 349/15/2 347/15/2
f 347/15/2 346/15/2 344/15/2
f 344/15/2 341/15/2 338/15/2
f 338/15/2 466/15/2 255/15/2
f 255/15/2 368/15/2 381/15/2
f 381/15/2 378/15/2 376/15/2
f 376/15/2 374/15/2 373/15/2
f 373/15/2 371/15/2 369/15/2
f 369/15/2 339/15/2 351/15/2
f 351/15/2 347/15/2 344/15/2
f 344/15/2 338/15/2 255/15/2
f 255/15/2 381/15/2 376/15/2
f 376/15/2 373/15/2 369/15/2
f 369/15/2 351/15/2 344/15/2
f 344/15/2 255/15/2 376/15/2
f 355/11/3 368/15/3 255/15/3
f 382/20/3 401/35/3 245/35/3
f 433/20/4 430/20/4 428/20/4
f 428/20/4 427/20/4 424/20/4
f 424/20/4 423/20/4 420/20/4
f 420/20/4 383/20/4 397/20/4
f 397/20/4 395/20/4 393/20/4
f 393/20/4 391/20/4 389/20/4
f 389/20/4 387/20/4 385/20/4
f 385/20/4 382/20/4 243/20/4
f 243/20/4 261/20/4 419/20/4
f 419/20/4 433/20/4 428/20/4
f 428/20/4 424/20/4 420/20/4
f 420/20/4 397/20/4 393/20/4
f 393/20/4 389/20/4 385/20/4
f 385/20/4 243/20/4 419/20/4
f 419/20/4 428/20/4 420/20/4
f 420/20/4 393/20/4 385/20/4
f 399/35/2 450/35/2 447/35/2
f 447/35/2 445/35/2 443/35/2
f 443/35/2 441/35/2 439/35/2
f 439/35/2 438/35/2 435/35/2
f 435/35/2 263/35/2 245/35/2
f 245/35/2 401/35/2 416/35/2
f 416/35/2 413/35/2 412/35/2
f 412/35/2 409/35/2 408/35/2
f 408/35/2 405/35/2 404/35/2
f 404/35/2 399/35/2 447/35/2
f 447/35/2 443/35/2 439/35/2
f 439/35/2 435/35/2 245/35/2
f 245/35/2 416/35/2 412/35/2
f 412/35/2 408/35/2 404/35/2
f 404/35/2 447/35/2 439/35/2
f 439/35/2 245/35/2 412/35/2
f 435/35/5 419/20/5 261/20/5
f 256/49/2 241/50/2 248/33/2
f 236/33/2 238/33/2 258/51/2
f 260/61/2 253/56/2 258/51/2
f 258/51/2 241/50/2 256/49/2
f 258/51/2 256/49/2 273/64/2
f 262/62/2 260/61/2 258/51/2
f 265/52/2 262/62/2 258/51/2
f 258/51/2 273/64/2 270/63/2
f 258/51/2 270/63/2 269/57/2
f 266/53/2 265/52/2 258/51/2
f 250/33/2 252/33/2 244/33/2
f 307/33/2 277/33/2 274/33/2
f 312/33/2 278/33/2 277/33/2
f 314/33/2 280/33/2 278/33/2
f 316/33/2 281/33/2 280/33/2
f 318/33/2 284/33/2 281/33/2
f 319/33/2 286/33/2 284/33/2
f 322/33/2 288/33/2 286/33/2
f 323/33/2 290/33/2 288/33/2
f 325/33/2 292/33/2 290/33/2
f 327/33/2 294/33/2 292/33/2
f 329/33/2 296/33/2 294/33/2
f 332/33/2 298/33/2 296/33/2
f 334/33/2 300/33/2 298/33/2
f 335/33/2 302/33/2 300/33/2
f 250/33/2 302/33/2 335/33/2
f 309/33/2 274/33/2 354/33/2
f 350/67/2 352/66/2 342/65/2
f 342/65/2 240/55/2 241/60/2
f 241/60/2 258/51/2 238/33/2
f 241/60/2 238/33/2 340/70/2
f 350/67/2 342/65/2 241/60/2
f 345/58/2 348/68/2 350/67/2
f 241/60/2 340/70/2 343/54/2
f 343/54/88 345/58/88 350/67/88
f 304/33/2 354/33/2 337/33/2
f 380/49/4 367/33/4 372/33/4
f 360/33/4 379/56/4 384/51/4
f 398/64/4 380/49/4 366/50/4
f 366/50/4 384/51/4 379/56/4
f 366/50/4 379/56/4 386/61/4
f 396/63/4 398/64/4 366/50/4
f 394/57/4 396/63/4 366/50/4
f 366/50/4 386/61/4 388/62/4
f 366/50/4 388/62/4 390/52/4
f 392/53/4 394/57/4 366/50/4
f 367/33/4 377/33/4 375/33/4
f 432/33/4 434/33/4 400/33/4
f 436/33/4 432/33/4 402/33/4
f 437/33/4 436/33/4 403/33/4
f 440/33/4 437/33/4 406/33/4
f 442/33/4 440/33/4 407/33/4
f 444/33/4 442/33/4 410/33/4
f 446/33/4 444/33/4 411/33/4
f 448/33/4 446/33/4 414/33/4
f 449/33/4 448/33/4 415/33/4
f 451/33/4 449/33/4 417/33/4
f 452/33/4 451/33/4 418/33/4
f 453/33/4 452/33/4 421/33/4
f 454/33/4 453/33/4 422/33/4
f 455/33/4 454/33/4 425/33/4
f 375/33/4 377/33/4 455/33/4
f 464/33/4 400/33/4 434/33/4
f 384/51/4 366/50/4 364/55/4
f 364/55/4 458/65/4 463/66/4
f 463/66/4 462/59/4 461/68/4
f 463/66/4 461/68/4 460/58/4
f 384/51/4 364/55/4 463/66/4
f 457/69/4 362/33/4 384/51/4
f 463/66/4 460/58/4 459/54/4
f 459/54/4 457/69/4 384/51/4
f 456/33/4 464/33/4 429/33/4
f 236/33/62 360/33/62 362/33/62
f 364/55/6 366/50/6 241/60/6
f 372/33/5 375/33/5 250/33/5
f 377/33/3 367/33/3 244/33/3
f 366/50/5 372/33/5 248/33/5
f 386/61/63 379/56/63 253/56/63
f 388/62/64 386/61/64 260/61/64
f 390/52/65 388/62/65 262/62/65
f 392/53/66 390/52/66 265/52/66
f 394/57/67 392/53/67 266/53/67
f 396/63/68 394/57/68 269/57/68
f 398/64/69 396/63/69 270/63/69
f 380/49/70 398/64/70 273/64/70
f 367/33/3 380/49/3 256/49/3
f 253/56/71 379/56/71 360/33/71
f 247/33/1 370/33/1 246/33/1
f 400/33/72 464/33/72 354/33/72
f 375/33/73 426/33/73 302/33/73
f 431/33/49 429/33/49 304/33/49
f 429/33/48 434/33/48 309/33/48
f 434/33/47 432/33/47 307/33/47
f 432/33/46 436/33/46 312/33/46
f 436/33/45 437/33/45 314/33/45
f 437/33/44 440/33/44 316/33/44
f 440/33/43 442/33/43 318/33/43
f 442/33/42 444/33/42 319/33/42
f 319/33/41 444/33/41 446/33/41
f 446/33/40 448/33/40 323/33/40
f 448/33/39 449/33/39 325/33/39
f 449/33/38 451/33/38 327/33/38
f 327/33/37 451/33/37 452/33/37
f 452/33/36 453/33/36 332/33/36
f 453/33/60 454/33/60 334/33/60
f 454/33/61 455/33/61 335/33/61
f 455/33/74 377/33/74 252/33/74
f 402/33/20 400/33/20 274/33/20
f 403/33/19 402/33/19 277/33/19
f 406/33/18 403/33/18 278/33/18
f 407/33/17 406/33/17 280/33/17
f 410/33/16 407/33/16 281/33/16
f 411/33/15 410/33/15 284/33/15
f 414/33/14 411/33/14 286/33/14
f 415/33/13 414/33/13 288/33/13
f 417/33/12 415/33/12 290/33/12
f 418/33/11 417/33/11 292/33/11
f 421/33/10 418/33/10 294/33/10
f 422/33/9 421/33/9 296/33/9
f 425/33/8 422/33/8 298/33/8
f 426/33/7 425/33/7 300/33/7
f 458/65/49 364/55/49 240/55/49
f 463/66/75 458/65/75 342/65/75
f 462/59/76 463/66/76 352/66/76
f 461/68/77 462/59/77 350/67/77
f 460/58/78 461/68/78 348/68/78
f 459/54/79 460/58/79 345/58/79
f 457/69/80 459/54/80 343/54/80
f 362/33/81 457/69/81 340/70/81
f 464/33/82 456/33/82 337/33/82
f 305/33/86 465/33/86 337/33/86
f 305/33/89 337/33/89 456/33/89
f 291/33/89 305/33/89 456/33/89
f 467/33/2 465/16/2 466/15/2
f 431/33/4 468/33/4 276/33/4
f 247/11/4 276/39/4 468/33/4
f 468/33/83 431/33/83 306/33/83
f 370/33/84 468/33/84 467/33/84
f 473/2/1 476/4/1 509/1/1
f 483/2/1 485/4/1 476/4/1
f 493/6/1 491/5/1 469/5/1
f 527/8/4 471/22/4 505/7/4
f 488/11/3 489/15/3 519/10/3
f 529/14/2 483/13/2 473/13/2
f 519/16/4 489/15/4 700/15/4
f 491/18/5 493/72/5 531/17/5
f 521/21/2 495/20/2 477/20/2
f 531/8/4 493/22/4 471/22/4
f 547/24/4 509/26/4 476/23/4
f 549/27/4 506/28/4 509/26/4
f 551/9/4 505/7/4 506/28/4
f 502/29/1 505/30/1 471/6/1
f 501/31/1 506/32/1 505/30/1
f 498/3/1 509/1/1 506/32/1
f 540/33/4 571/33/4 699/33/4
f 497/35/4 523/34/4 516/34/4
f 545/36/2 521/21/2 513/21/2
f 521/38/5 523/48/5 497/35/5
f 544/25/4 519/16/4 699/16/4
f 488/11/2 517/39/2 510/39/2
f 517/12/3 519/10/3 544/40/3
f 527/33/6 551/33/6 537/33/6
f 469/43/2 542/37/2 537/42/2
f 483/2/3 529/41/3 544/40/3
f 485/23/4 544/25/4 539/25/4
f 491/43/2 545/36/2 542/37/2
f 498/45/2 533/71/2 525/14/2
f 498/45/2 501/47/2 535/46/2
f 501/47/2 502/44/2 537/42/2
f 523/34/4 531/8/4 527/8/4
f 545/19/5 531/17/5 523/48/5
f 517/39/2 529/14/2 525/14/2
f 547/33/6 539/33/6 525/33/6
f 549/33/6 547/33/6 533/33/6
f 551/33/6 549/33/6 535/33/6
f 516/33/3 527/33/3 542/33/3
f 479/33/3 516/33/3 513/33/3
f 575/15/7 570/11/7 555/11/7
f 578/15/8 567/11/8 570/11/8
f 580/15/9 565/11/9 567/11/9
f 581/15/10 564/11/10 565/11/10
f 583/15/11 562/11/11 564/11/11
f 585/15/12 560/11/12 562/11/12
f 587/15/13 558/11/13 560/11/13
f 573/15/14 554/11/14 558/11/14
f 603/15/15 599/11/15 554/11/15
f 605/15/16 597/11/16 599/11/16
f 607/15/17 595/11/17 597/11/17
f 608/15/18 593/11/18 595/11/18
f 610/15/19 592/11/19 593/11/19
f 612/15/20 591/11/20 592/11/20
f 615/15/21 590/11/21 591/11/21
f 602/15/22 589/11/22 590/11/22
f 638/35/15 631/20/15 617/20/15
f 639/35/16 629/20/16 631/20/16
f 642/35/17 627/20/17 629/20/17
f 643/35/18 625/20/18 627/20/18
f 646/35/19 623/20/19 625/20/19
f 647/35/20 621/20/20 623/20/20
f 650/35/21 619/20/21 621/20/21
f 635/35/22 616/20/22 619/20/22
f 672/35/7 667/20/7 653/20/7
f 673/35/8 664/20/8 667/20/8
f 675/35/9 662/20/9 664/20/9
f 677/35/10 661/20/10 662/20/10
f 679/35/11 658/20/11 661/20/11
f 681/35/12 657/20/12 658/20/12
f 684/35/13 654/20/13 657/20/13
f 633/35/14 617/20/14 654/20/14
f 700/15/5 572/15/5 555/11/5
f 558/11/2 554/11/2 599/11/2
f 599/11/2 597/11/2 595/11/2
f 595/11/2 593/11/2 592/11/2
f 592/11/2 591/11/2 590/11/2
f 590/11/2 589/11/2 488/11/2
f 488/11/2 481/11/2 555/11/2
f 555/11/2 570/11/2 567/11/2
f 567/11/2 565/11/2 564/11/2
f 564/11/2 562/11/2 560/11/2
f 560/11/2 558/11/2 599/11/2
f 599/11/2 595/11/2 592/11/2
f 592/11/2 590/11/2 488/11/2
f 488/11/2 555/11/2 567/11/2
f 567/11/2 564/11/2 560/11/2
f 560/11/2 599/11/2 592/11/2
f 592/11/2 488/11/2 567/11/2
f 573/15/4 587/15/4 585/15/4
f 585/15/4 583/15/4 581/15/4
f 581/15/4 580/15/4 578/15/4
f 578/15/4 575/15/4 572/15/4
f 572/15/4 700/15/4 489/15/4
f 489/15/4 602/15/4 615/15/4
f 615/15/4 612/15/4 610/15/4
f 610/15/4 608/15/4 607/15/4
f 607/15/4 605/15/4 603/15/4
f 603/15/4 573/15/4 585/15/4
f 585/15/4 581/15/4 578/15/4
f 578/15/4 572/15/4 489/15/4
f 489/15/4 615/15/4 610/15/4
f 610/15/4 607/15/4 603/15/4
f 603/15/4 585/15/4 578/15/4
f 578/15/4 489/15/4 610/15/4
f 589/11/3 602/15/3 489/15/3
f 616/20/3 635/35/3 479/35/3
f 667/20/2 664/20/2 662/20/2
f 662/20/2 661/20/2 658/20/2
f 658/20/2 657/20/2 654/20/2
f 654/20/2 617/20/2 631/20/2
f 631/20/2 629/20/2 627/20/2
f 627/20/2 625/20/2 623/20/2
f 623/20/2 621/20/2 619/20/2
f 619/20/2 616/20/2 477/20/2
f 477/20/2 495/20/2 653/20/2
f 653/20/2 667/20/2 662/20/2
f 662/20/2 658/20/2 654/20/2
f 654/20/2 631/20/2 627/20/2
f 627/20/2 623/20/2 619/20/2
f 619/20/2 477/20/2 653/20/2
f 653/20/2 662/20/2 654/20/2
f 654/20/2 627/20/2 619/20/2
f 633/35/4 684/35/4 681/35/4
f 681/35/4 679/35/4 677/35/4
f 677/35/4 675/35/4 673/35/4
f 673/35/4 672/35/4 669/35/4
f 669/35/4 497/35/4 479/35/4
f 479/35/4 635/35/4 650/35/4
f 650/35/4 647/35/4 646/35/4
f 646/35/4 643/35/4 642/35/4
f 642/35/4 639/35/4 638/35/4
f 638/35/4 633/35/4 681/35/4
f 681/35/4 677/35/4 673/35/4
f 673/35/4 669/35/4 479/35/4
f 479/35/4 650/35/4 646/35/4
f 646/35/4 642/35/4 638/35/4
f 638/35/4 681/35/4 673/35/4
f 673/35/4 479/35/4 646/35/4
f 669/35/5 653/20/5 495/20/5
f 490/49/4 475/50/4 482/33/4
f 470/33/4 472/33/4 492/51/4
f 494/61/4 487/56/4 492/51/4
f 492/51/4 475/50/4 490/49/4
f 492/51/4 490/49/4 507/64/4
f 496/62/4 494/61/4 492/51/4
f 499/52/4 496/62/4 492/51/4
f 492/51/4 507/64/4 504/63/4
f 492/51/4 504/63/4 503/57/4
f 500/53/4 499/52/4 492/51/4
f 484/33/4 486/33/4 478/33/4
f 541/33/4 511/33/4 508/33/4
f 546/33/4 512/33/4 511/33/4
f 548/33/4 514/33/4 512/33/4
f 550/33/4 515/33/4 514/33/4
f 552/33/4 518/33/4 515/33/4
f 553/33/4 520/33/4 518/33/4
f 556/33/4 522/33/4 520/33/4
f 557/33/4 524/33/4 522/33/4
f 559/33/4 526/33/4 524/33/4
f 561/33/4 528/33/4 526/33/4
f 563/33/4 530/33/4 528/33/4
f 566/33/4 532/33/4 530/33/4
f 568/33/4 534/33/4 532/33/4
f 569/33/4 536/33/4 534/33/4
f 484/33/4 536/33/4 569/33/4
f 543/33/4 508/33/4 588/33/4
f 584/67/4 586/66/4 576/65/4
f 576/65/4 474/55/4 475/60/4
f 475/60/4 492/51/4 472/33/4
f 475/60/4 472/33/4 574/70/4
f 584/67/4 576/65/4 475/60/4
f 579/58/4 582/68/4 584/67/4
f 475/60/4 574/70/4 577/54/4
f 577/54/90 579/58/90 584/67/90
f 538/33/4 588/33/4 571/33/4
f 614/49/2 601/33/2 606/33/2
f 594/33/2 613/56/2 618/51/2
f 632/64/2 614/49/2 600/50/2
f 600/50/2 618/51/2 613/56/2
f 600/50/2 613/56/2 620/61/2
f 630/63/2 632/64/2 600/50/2
f 628/57/2 630/63/2 600/50/2
f 600/50/2 620/61/2 622/62/2
f 600/50/2 622/62/2 624/52/2
f 626/53/2 628/57/2 600/50/2
f 601/33/2 611/33/2 609/33/2
f 666/33/2 668/33/2 634/33/2
f 670/33/2 666/33/2 636/33/2
f 671/33/2 670/33/2 637/33/2
f 674/33/2 671/33/2 640/33/2
f 676/33/2 674/33/2 641/33/2
f 678/33/2 676/33/2 644/33/2
f 680/33/2 678/33/2 645/33/2
f 682/33/2 680/33/2 648/33/2
f 683/33/2 682/33/2 649/33/2
f 685/33/2 683/33/2 651/33/2
f 686/33/2 685/33/2 652/33/2
f 687/33/2 686/33/2 655/33/2
f 688/33/2 687/33/2 656/33/2
f 689/33/2 688/33/2 659/33/2
f 609/33/2 611/33/2 689/33/2
f 698/33/2 634/33/2 668/33/2
f 618/51/2 600/50/2 598/55/2
f 598/55/2 692/65/2 697/66/2
f 697/66/2 696/59/2 695/68/2
f 697/66/2 695/68/2 694/58/2
f 618/51/2 598/55/2 697/66/2
f 691/69/2 596/33/2 618/51/2
f 697/66/2 694/58/2 693/54/2
f 693/54/2 691/69/2 618/51/2
f 690/33/2 698/33/2 663/33/2
f 470/33/23 594/33/23 596/33/23
f 598/55/1 600/50/1 475/60/1
f 606/33/5 609/33/5 484/33/5
f 611/33/3 601/33/3 478/33/3
f 600/50/5 606/33/5 482/33/5
f 620/61/24 613/56/24 487/56/24
f 622/62/25 620/61/25 494/61/25
f 624/52/26 622/62/26 496/62/26
f 626/53/27 624/52/27 499/52/27
f 628/57/28 626/53/28 500/53/28
f 630/63/29 628/57/29 503/57/29
f 632/64/30 630/63/30 504/63/30
f 614/49/31 632/64/31 507/64/31
f 601/33/3 614/49/3 490/49/3
f 487/56/32 613/56/32 594/33/32
f 481/33/6 604/33/6 480/33/6
f 634/33/33 698/33/33 588/33/33
f 609/33/34 660/33/34 536/33/34
f 665/33/7 663/33/7 538/33/7
f 663/33/8 668/33/8 543/33/8
f 668/33/9 666/33/9 541/33/9
f 666/33/10 670/33/10 546/33/10
f 670/33/11 671/33/11 548/33/11
f 671/33/12 674/33/12 550/33/12
f 674/33/13 676/33/13 552/33/13
f 676/33/14 678/33/14 553/33/14
f 553/33/15 678/33/15 680/33/15
f 680/33/16 682/33/16 557/33/16
f 682/33/17 683/33/17 559/33/17
f 683/33/18 685/33/18 561/33/18
f 561/33/19 685/33/19 686/33/19
f 686/33/20 687/33/20 566/33/20
f 687/33/21 688/33/21 568/33/21
f 688/33/22 689/33/22 569/33/22
f 689/33/35 611/33/35 486/33/35
f 636/33/36 634/33/36 508/33/36
f 637/33/37 636/33/37 511/33/37
f 640/33/38 637/33/38 512/33/38
f 641/33/39 640/33/39 514/33/39
f 644/33/40 641/33/40 515/33/40
f 645/33/41 644/33/41 518/33/41
f 648/33/42 645/33/42 520/33/42
f 649/33/43 648/33/43 522/33/43
f 651/33/44 649/33/44 524/33/44
f 652/33/45 651/33/45 526/33/45
f 655/33/46 652/33/46 528/33/46
f 656/33/47 655/33/47 530/33/47
f 659/33/48 656/33/48 532/33/48
f 660/33/49 659/33/49 534/33/49
f 692/65/7 598/55/7 474/55/7
f 697/66/50 692/65/50 576/65/50
f 696/59/51 697/66/51 586/66/51
f 695/68/52 696/59/52 584/67/52
f 694/58/53 695/68/53 582/68/53
f 693/54/54 694/58/54 579/58/54
f 691/69/55 693/54/55 577/54/55
f 596/33/56 691/69/56 574/70/56
f 698/33/57 690/33/57 571/33/57
f 539/33/91 699/33/91 571/33/91
f 539/33/87 571/33/87 690/33/87
f 525/33/87 539/33/87 690/33/87
f 701/33/4 699/16/4 700/15/4
f 665/33/2 702/33/2 510/33/2
f 481/11/2 510/39/2 702/33/2
f 702/33/58 665/33/58 540/33/58
f 604/33/59 702/33/59 701/33/59
f 743/1/6 710/4/6 707/2/6
f 710/4/6 719/4/6 717/2/6
f 703/5/6 725/5/6 727/6/6
f 739/7/4 705/22/4 761/8/4
f 753/10/3 723/15/3 722/11/3
f 707/13/2 717/13/2 763/14/2
f 934/15/4 723/15/4 753/16/4
f 765/17/5 727/72/5 725/18/5
f 711/20/2 729/20/2 755/21/2
f 705/22/4 727/22/4 765/8/4
f 710/23/4 743/26/4 781/24/4
f 743/26/4 740/28/4 783/27/4
f 740/28/4 739/7/4 785/9/4
f 705/6/6 739/30/6 736/29/6
f 739/30/6 740/32/6 735/31/6
f 740/32/6 743/1/6 732/3/6
f 933/33/4 805/33/4 774/33/4
f 750/34/4 757/34/4 731/35/4
f 747/21/2 755/21/2 779/36/2
f 731/35/5 757/48/5 755/38/5
f 933/16/4 753/16/4 778/25/4
f 744/39/2 751/39/2 722/11/2
f 778/40/3 753/10/3 751/12/3
f 771/33/1 785/33/1 761/33/1
f 771/42/2 776/37/2 703/43/2
f 719/4/3 778/40/3 763/41/3
f 773/25/4 778/25/4 719/23/4
f 776/37/2 779/36/2 725/43/2
f 759/14/2 767/71/2 732/45/2
f 732/45/2 767/71/2 769/46/2
f 735/47/2 769/46/2 771/42/2
f 761/8/4 765/8/4 757/34/4
f 757/48/5 765/17/5 779/19/5
f 759/14/2 763/14/2 751/39/2
f 759/33/1 773/33/1 781/33/1
f 767/33/1 781/33/1 783/33/1
f 769/33/1 783/33/1 785/33/1
f 776/33/3 761/33/3 750/33/3
f 747/33/3 750/33/3 713/33/3
f 789/11/49 804/11/49 809/15/49
f 804/11/48 801/11/48 812/15/48
f 801/11/47 799/11/47 814/15/47
f 799/11/46 798/11/46 815/15/46
f 798/11/45 796/11/45 817/15/45
f 796/11/44 794/11/44 819/15/44
f 794/11/43 792/11/43 821/15/43
f 792/11/42 788/11/42 807/15/42
f 788/11/41 833/11/41 837/15/41
f 833/11/40 831/11/40 839/15/40
f 831/11/39 829/11/39 841/15/39
f 829/11/38 827/11/38 842/15/38
f 827/11/37 826/11/37 844/15/37
f 826/11/36 825/11/36 846/15/36
f 825/11/60 824/11/60 849/15/60
f 824/11/61 823/11/61 836/15/61
f 851/20/41 865/20/41 872/35/41
f 865/20/40 863/20/40 873/35/40
f 863/20/39 861/20/39 876/35/39
f 861/20/38 859/20/38 877/35/38
f 859/20/37 857/20/37 880/35/37
f 857/20/36 855/20/36 881/35/36
f 855/20/60 853/20/60 884/35/60
f 853/20/61 850/20/61 869/35/61
f 887/20/49 901/20/49 906/35/49
f 901/20/48 898/20/48 907/35/48
f 898/20/47 896/20/47 909/35/47
f 896/20/46 895/20/46 911/35/46
f 895/20/45 892/20/45 913/35/45
f 892/20/44 891/20/44 915/35/44
f 891/20/43 888/20/43 918/35/43
f 888/20/42 851/20/42 867/35/42
f 789/11/5 806/15/5 934/15/5
f 833/11/2 788/11/2 792/11/2
f 792/11/2 794/11/2 796/11/2
f 796/11/2 798/11/2 799/11/2
f 799/11/2 801/11/2 804/11/2
f 804/11/2 789/11/2 715/11/2
f 715/11/2 722/11/2 823/11/2
f 823/11/2 824/11/2 825/11/2
f 825/11/2 826/11/2 827/11/2
f 827/11/2 829/11/2 831/11/2
f 831/11/2 833/11/2 792/11/2
f 792/11/2 796/11/2 799/11/2
f 799/11/2 804/11/2 715/11/2
f 715/11/2 823/11/2 825/11/2
f 825/11/2 827/11/2 831/11/2
f 831/11/2 792/11/2 799/11/2
f 799/11/2 715/11/2 825/11/2
f 819/15/4 821/15/4 807/15/4
f 807/15/4 837/15/4 839/15/4
f 839/15/4 841/15/4 842/15/4
f 842/15/4 844/15/4 846/15/4
f 846/15/4 849/15/4 836/15/4
f 836/15/4 723/15/4 934/15/4
f 934/15/4 806/15/4 809/15/4
f 809/15/4 812/15/4 814/15/4
f 814/15/4 815/15/4 817/15/4
f 817/15/4 819/15/4 807/15/4
f 807/15/4 839/15/4 842/15/4
f 842/15/4 846/15/4 836/15/4
f 836/15/4 934/15/4 809/15/4
f 809/15/4 814/15/4 817/15/4
f 817/15/4 807/15/4 842/15/4
f 842/15/4 836/15/4 809/15/4
f 723/15/3 836/15/3 823/11/3
f 713/35/3 869/35/3 850/20/3
f 896/20/2 898/20/2 901/20/2
f 901/20/2 887/20/2 729/20/2
f 729/20/2 711/20/2 850/20/2
f 850/20/2 853/20/2 855/20/2
f 855/20/2 857/20/2 859/20/2
f 859/20/2 861/20/2 863/20/2
f 863/20/2 865/20/2 851/20/2
f 851/20/2 888/20/2 891/20/2
f 891/20/2 892/20/2 895/20/2
f 895/20/2 896/20/2 901/20/2
f 901/20/2 729/20/2 850/20/2
f 850/20/2 855/20/2 859/20/2
f 859/20/2 863/20/2 851/20/2
f 851/20/2 891/20/2 895/20/2
f 895/20/2 901/20/2 850/20/2
f 850/20/2 859/20/2 851/20/2
f 915/35/4 918/35/4 867/35/4
f 867/35/4 872/35/4 873/35/4
f 873/35/4 876/35/4 877/35/4
f 877/35/4 880/35/4 881/35/4
f 881/35/4 884/35/4 869/35/4
f 869/35/4 713/35/4 731/35/4
f 731/35/4 903/35/4 906/35/4
f 906/35/4 907/35/4 909/35/4
f 909/35/4 911/35/4 913/35/4
f 913/35/4 915/35/4 867/35/4
f 867/35/4 873/35/4 877/35/4
f 877/35/4 881/35/4 869/35/4
f 869/35/4 731/35/4 906/35/4
f 906/35/4 909/35/4 913/35/4
f 913/35/4 867/35/4 877/35/4
f 877/35/4 869/35/4 906/35/4
f 729/20/5 887/20/5 903/35/5
f 724/49/4 712/33/4 716/33/4
f 704/33/4 721/56/4 726/51/4
f 741/64/4 724/49/4 709/50/4
f 709/50/4 726/51/4 721/56/4
f 709/50/4 721/56/4 728/61/4
f 738/63/4 741/64/4 709/50/4
f 737/57/4 738/63/4 709/50/4
f 709/50/4 728/61/4 730/62/4
f 709/50/4 730/62/4 733/52/4
f 734/53/4 737/57/4 709/50/4
f 712/33/4 720/33/4 718/33/4
f 775/33/4 777/33/4 742/33/4
f 780/33/4 775/33/4 745/33/4
f 782/33/4 780/33/4 746/33/4
f 784/33/4 782/33/4 748/33/4
f 786/33/4 784/33/4 749/33/4
f 787/33/4 786/33/4 752/33/4
f 790/33/4 787/33/4 754/33/4
f 791/33/4 790/33/4 756/33/4
f 793/33/4 791/33/4 758/33/4
f 795/33/4 793/33/4 760/33/4
f 797/33/4 795/33/4 762/33/4
f 800/33/4 797/33/4 764/33/4
f 802/33/4 800/33/4 766/33/4
f 803/33/4 802/33/4 768/33/4
f 718/33/4 720/33/4 803/33/4
f 822/33/4 742/33/4 777/33/4
f 810/65/4 820/66/4 818/67/4
f 818/67/4 816/68/4 813/58/4
f 818/67/92 813/58/92 811/54/92
f 708/55/4 810/65/4 818/67/4
f 726/51/4 709/60/4 708/55/4
f 808/70/4 706/33/4 726/51/4
f 708/55/4 818/67/4 811/54/4
f 811/54/4 808/70/4 726/51/4
f 805/33/4 822/33/4 772/33/4
f 848/49/2 834/50/2 840/33/2
f 828/33/2 830/33/2 852/51/2
f 854/61/2 847/56/2 852/51/2
f 852/51/2 834/50/2 848/49/2
f 852/51/2 848/49/2 866/64/2
f 856/62/2 854/61/2 852/51/2
f 858/52/2 856/62/2 852/51/2
f 852/51/2 866/64/2 864/63/2
f 852/51/2 864/63/2 862/57/2
f 860/53/2 858/52/2 852/51/2
f 843/33/2 845/33/2 835/33/2
f 900/33/2 870/33/2 868/33/2
f 904/33/2 871/33/2 870/33/2
f 905/33/2 874/33/2 871/33/2
f 908/33/2 875/33/2 874/33/2
f 910/33/2 878/33/2 875/33/2
f 912/33/2 879/33/2 878/33/2
f 914/33/2 882/33/2 879/33/2
f 916/33/2 883/33/2 882/33/2
f 917/33/2 885/33/2 883/33/2
f 919/33/2 886/33/2 885/33/2
f 920/33/2 889/33/2 886/33/2
f 921/33/2 890/33/2 889/33/2
f 922/33/2 893/33/2 890/33/2
f 923/33/2 894/33/2 893/33/2
f 843/33/2 894/33/2 923/33/2
f 902/33/2 868/33/2 932/33/2
f 832/55/2 834/50/2 852/51/2
f 852/51/2 830/33/2 925/69/2
f 852/51/2 925/69/2 927/54/2
f 926/65/2 832/55/2 852/51/2
f 930/59/2 931/66/2 926/65/2
f 928/58/2 929/68/2 930/59/2
f 852/51/2 927/54/2 928/58/2
f 930/59/2 926/65/2 852/51/2
f 897/33/2 932/33/2 924/33/2
f 704/33/62 706/33/62 830/33/62
f 709/60/6 834/50/6 832/55/6
f 718/33/5 843/33/5 840/33/5
f 712/33/3 835/33/3 845/33/3
f 716/33/5 840/33/5 834/50/5
f 721/56/63 847/56/63 854/61/63
f 728/61/64 854/61/64 856/62/64
f 730/62/65 856/62/65 858/52/65
f 733/52/66 858/52/66 860/53/66
f 734/53/67 860/53/67 862/57/67
f 737/57/68 862/57/68 864/63/68
f 738/63/69 864/63/69 866/64/69
f 741/64/70 866/64/70 848/49/70
f 724/49/3 848/49/3 835/33/3
f 704/33/71 828/33/71 847/56/71
f 714/33/1 838/33/1 715/33/1
f 822/33/72 932/33/72 868/33/72
f 770/33/73 894/33/73 843/33/73
f 772/33/49 897/33/49 899/33/49
f 777/33/48 902/33/48 897/33/48
f 775/33/47 900/33/47 902/33/47
f 780/33/46 904/33/46 900/33/46
f 782/33/45 905/33/45 904/33/45
f 784/33/44 908/33/44 905/33/44
f 786/33/43 910/33/43 908/33/43
f 787/33/42 912/33/42 910/33/42
f 787/33/41 790/33/41 914/33/41
f 791/33/40 916/33/40 914/33/40
f 793/33/39 917/33/39 916/33/39
f 795/33/38 919/33/38 917/33/38
f 795/33/37 797/33/37 920/33/37
f 800/33/36 921/33/36 920/33/36
f 802/33/60 922/33/60 921/33/60
f 803/33/61 923/33/61 922/33/61
f 720/33/74 845/33/74 923/33/74
f 742/33/20 868/33/20 870/33/20
f 745/33/19 870/33/19 871/33/19
f 746/33/18 871/33/18 874/33/18
f 748/33/17 874/33/17 875/33/17
f 749/33/16 875/33/16 878/33/16
f 752/33/15 878/33/15 879/33/15
f 754/33/14 879/33/14 882/33/14
f 756/33/13 882/33/13 883/33/13
f 758/33/12 883/33/12 885/33/12
f 760/33/11 885/33/11 886/33/11
f 762/33/10 886/33/10 889/33/10
f 764/33/9 889/33/9 890/33/9
f 766/33/8 890/33/8 893/33/8
f 768/33/7 893/33/7 894/33/7
f 708/55/49 832/55/49 926/65/49
f 810/65/75 926/65/75 931/66/75
f 820/66/76 931/66/76 930/59/76
f 818/67/77 930/59/77 929/68/77
f 816/68/78 929/68/78 928/58/78
f 813/58/79 928/58/79 927/54/79
f 811/54/80 927/54/80 925/69/80
f 808/70/81 925/69/81 830/33/81
f 805/33/82 924/33/82 932/33/82
f 805/33/91 933/33/91 773/33/91
f 924/33/89 805/33/89 773/33/89
f 924/33/89 773/33/89 759/33/89
f 934/15/4 933/16/4 935/33/4
f 899/33/2 924/33/2 744/33/2
f 715/11/2 838/33/2 936/33/2
f 774/33/83 899/33/83 936/33/83
f 935/33/84 936/33/84 838/33/84
