# Blender 5.1.2
# www.blender.org
o Cube.010
v 133.612762 158.279297 20.000002
v 133.612762 158.279297 23.000000
v 136.178391 164.069061 22.999998
v 136.178391 164.069061 23.000000
v 136.092331 164.435974 22.999998
v 136.092331 164.435974 23.000000
v 136.037277 164.808838 22.999998
v 136.037277 164.808838 23.000000
v 136.013611 165.184967 22.999998
v 136.013611 165.184967 23.000000
v 136.021500 165.561768 22.999998
v 136.021500 165.561768 23.000000
v 136.294846 163.710632 22.999998
v 136.294846 163.710632 23.000000
v 136.440903 163.363190 22.999998
v 136.440903 163.363190 23.000000
v 136.615509 163.029205 22.999998
v 136.615509 163.029205 23.000000
v 136.817444 162.710999 22.999998
v 136.817444 162.710999 23.000000
v 137.045303 162.410797 22.999998
v 137.045303 162.410797 23.000000
v 136.060898 165.936584 22.999998
v 136.060898 165.936584 23.000000
v 136.131516 166.306793 22.999998
v 136.131516 166.306793 23.000000
v 136.232864 166.669769 22.999998
v 136.232864 166.669769 23.000000
v 136.364243 167.023010 22.999998
v 136.364243 167.023010 23.000000
v 136.524704 167.364044 22.999998
v 136.524704 167.364044 23.000000
v 136.713150 167.690430 22.999998
v 136.713150 167.690430 23.000000
v 136.928238 167.999908 22.999998
v 136.928238 167.999908 23.000000
v 137.572220 161.872742 22.999998
v 137.572220 161.872742 23.000000
v 137.867584 161.638641 22.999998
v 137.867584 161.638641 23.000000
v 138.181503 161.430054 22.999998
v 138.181503 161.430054 23.000000
v 138.511765 161.248505 22.999998
v 138.511765 161.248505 23.000000
v 137.297485 162.130707 22.999998
v 137.297485 162.130707 23.000000
v 138.610504 164.661163 20.000002
v 138.610504 164.661163 20.500000
v 138.702972 164.427643 20.000002
v 138.702972 164.427643 20.500000
v 138.548050 164.904449 20.000002
v 138.548050 164.904449 20.500000
v 138.516571 165.153625 20.000002
v 138.516571 165.153625 20.500000
v 138.516571 165.404785 20.000002
v 138.516571 165.404785 20.500000
v 138.548050 165.653961 20.000002
v 138.548050 165.653961 20.500000
v 139.211975 160.971252 22.999998
v 139.211975 160.971252 23.000000
v 138.856064 161.095215 22.999998
v 138.856064 161.095215 23.000000
v 139.577011 160.877533 22.999998
v 139.577011 160.877533 23.000000
v 139.948624 160.814697 22.999998
v 139.948624 160.814697 23.000000
v 140.324173 160.783142 22.999998
v 140.324173 160.783142 23.000000
v 139.143524 163.821259 20.000002
v 139.143524 163.821259 20.500000
v 139.337051 163.661163 20.000002
v 139.337051 163.661163 20.500000
v 139.549118 163.526581 20.000002
v 139.549118 163.526581 20.500000
v 138.823959 164.207550 20.000002
v 138.823959 164.207550 20.500000
v 138.971588 164.004364 20.000002
v 138.971588 164.004364 20.500000
v 139.776367 163.419647 20.000002
v 139.776367 163.419647 20.500000
v 140.015244 163.342041 20.000002
v 140.015244 163.342041 20.500000
v 140.261948 163.294983 20.000002
v 140.261948 163.294983 20.500000
v 140.512619 163.279205 20.000002
v 140.512619 163.279205 20.500000
v 137.168472 168.290283 22.999998
v 137.168472 168.290283 23.000000
v 137.432159 168.559570 22.999998
v 137.432159 168.559570 23.000000
v 137.717453 168.805817 22.999998
v 137.717453 168.805817 23.000000
v 138.610504 165.897247 20.000002
v 138.610504 165.897247 20.500000
v 138.702972 166.130768 20.000002
v 138.702972 166.130768 20.500000
v 138.022354 169.027344 22.999998
v 138.022354 169.027344 23.000000
v 138.344727 169.222595 22.999998
v 138.344727 169.222595 23.000000
v 138.682297 169.390167 22.999998
v 138.682297 169.390167 23.000000
v 137.297485 173.130722 22.999998
v 137.297485 173.130722 23.000000
v 137.572220 172.872757 22.999998
v 137.572220 172.872757 23.000000
v 137.867584 172.638657 22.999998
v 137.867584 172.638657 23.000000
v 138.181503 172.430069 22.999998
v 138.181503 172.430069 23.000000
v 138.511765 172.248520 22.999998
v 138.511765 172.248520 23.000000
v 138.823959 166.350861 20.000002
v 138.823959 166.350861 20.500000
v 138.971588 166.554047 20.000002
v 138.971588 166.554047 20.500000
v 139.143524 166.737152 20.000002
v 139.143524 166.737152 20.500000
v 139.337051 166.897247 20.000002
v 139.337051 166.897247 20.500000
v 139.549118 167.031830 20.000002
v 139.549118 167.031830 20.500000
v 139.032715 169.528900 22.999998
v 139.032715 169.528900 23.000000
v 139.776367 167.138763 20.000002
v 139.776367 167.138763 20.500000
v 140.015244 167.216370 20.000002
v 140.015244 167.216370 20.500000
v 140.261948 167.263428 20.000002
v 140.261948 167.263428 20.500000
v 140.512619 167.279205 20.000002
v 140.512619 167.279205 20.500000
v 139.393509 169.637817 22.999998
v 139.393509 169.637817 23.000000
v 138.856064 172.095230 22.999998
v 138.856064 172.095230 23.000000
v 139.211975 171.971268 22.999998
v 139.211975 171.971268 23.000000
v 139.577011 171.877548 22.999998
v 139.577011 171.877548 23.000000
v 139.762161 169.716187 22.999998
v 139.762161 169.716187 23.000000
v 140.136063 169.763428 22.999998
v 140.136063 169.763428 23.000000
v 140.512619 169.779205 22.999998
v 140.512619 169.779205 23.000000
v 139.948624 171.814713 22.999998
v 139.948624 171.814713 23.000000
v 140.324173 171.783157 22.999998
v 140.324173 171.783157 23.000000
v 133.612762 175.279297 23.000000
v 133.612762 176.259460 23.048155
v 133.612762 177.230194 23.192148
v 133.612762 178.182144 23.430597
v 133.612762 179.106125 23.761204
v 133.612762 179.993271 24.180788
v 136.178391 175.069077 22.999998
v 136.178391 175.069077 23.000000
v 136.092331 175.435989 22.999998
v 136.092331 175.435989 23.007698
v 136.129089 175.279297 23.000000
v 136.037277 175.808853 22.999998
v 136.037277 175.808853 23.026016
v 136.013611 176.184982 22.999998
v 136.013611 176.184982 23.044495
v 136.015167 176.259460 23.048155
v 136.021500 176.561783 22.999998
v 136.021500 176.561783 23.092999
v 136.060898 176.936600 22.999998
v 136.060898 176.936600 23.148596
v 136.615509 174.029221 22.999998
v 136.615509 174.029221 23.000000
v 136.294846 174.710648 22.999998
v 136.294846 174.710648 23.000000
v 136.440903 174.363205 22.999998
v 136.440903 174.363205 23.000000
v 136.817444 173.711014 22.999998
v 136.817444 173.711014 23.000000
v 137.045303 173.410812 22.999998
v 137.045303 173.410812 23.000000
v 136.116913 177.230194 23.192148
v 136.131516 177.306808 22.999998
v 136.131516 177.306808 23.211338
v 136.232864 177.669785 22.999998
v 136.232864 177.669785 23.302258
v 136.364243 178.023026 22.999998
v 136.364243 178.023026 23.390738
v 136.439117 178.182144 23.430597
v 136.524704 178.364059 22.999998
v 136.524704 178.364059 23.495686
v 136.713150 178.690445 22.999998
v 136.713150 178.690445 23.612467
v 136.928238 178.999924 22.999998
v 136.928238 178.999924 23.723202
v 137.016113 179.106125 23.761204
v 133.612762 180.835007 24.685307
v 133.612762 181.623230 25.269897
v 133.612762 182.350372 25.928932
v 133.612762 183.009399 26.656069
v 133.612762 183.593994 27.444298
v 133.612762 184.098511 28.286034
v 133.612762 184.518097 29.173168
v 133.612762 185.279297 20.000002
v 133.612762 185.279297 20.049999
v 133.612762 188.279297 20.000002
v 133.612762 188.229294 23.000000
v 133.612762 188.279297 23.000000
v 133.612762 184.848709 30.097155
v 133.612762 185.087143 31.049099
v 133.612762 185.231140 32.019829
v 133.612762 185.279297 33.000000
v 138.548050 175.904465 20.000002
v 138.548050 175.904465 20.500000
v 138.702972 175.427658 20.000002
v 138.702972 175.427658 20.500000
v 138.610504 175.661179 20.000002
v 138.610504 175.661179 20.500000
v 138.516571 176.153641 20.000002
v 138.516571 176.153641 20.500000
v 138.516571 176.404800 20.000002
v 138.516571 176.404800 20.500000
v 138.548050 176.653976 20.000002
v 138.548050 176.653976 20.500000
v 138.610504 176.897263 20.000002
v 138.610504 176.897263 20.500000
v 137.168472 179.290298 22.999998
v 137.168472 179.290298 23.848305
v 137.432159 179.559586 22.999998
v 137.432159 179.559586 23.975670
v 137.717453 179.805832 22.999998
v 137.717453 179.805832 24.092136
v 138.702972 177.130783 20.000002
v 138.702972 177.130783 20.500000
v 138.022354 180.027359 22.999998
v 137.975433 179.993271 24.180788
v 138.022354 180.027359 24.201220
v 138.344727 180.222610 22.999998
v 138.344727 180.222610 24.318249
v 138.682297 180.390182 22.999998
v 138.682297 180.390182 24.418686
v 138.971588 175.004379 20.000002
v 138.971588 175.004379 20.500000
v 139.143524 174.821274 20.000002
v 139.143524 174.821274 20.500000
v 139.337051 174.661179 20.000002
v 139.337051 174.661179 20.500000
v 139.549118 174.526596 20.000002
v 139.549118 174.526596 20.500000
v 138.823959 175.207565 20.000002
v 138.823959 175.207565 20.500000
v 139.776367 174.419662 20.000002
v 139.776367 174.419662 20.500000
v 140.015244 174.342056 20.000002
v 140.015244 174.342056 20.500000
v 140.261948 174.294998 20.000002
v 140.261948 174.294998 20.500000
v 140.512619 174.279221 20.000002
v 140.512619 174.279221 20.500000
v 138.823959 177.350876 20.000002
v 138.823959 177.350876 20.500000
v 138.971588 177.554062 20.000002
v 138.971588 177.554062 20.500000
v 139.143524 177.737167 20.000002
v 139.143524 177.737167 20.500000
v 139.337051 177.897263 20.000002
v 139.337051 177.897263 20.500000
v 139.549118 178.031845 20.000002
v 139.549118 178.031845 20.500000
v 139.032715 180.528915 22.999998
v 139.032715 180.528915 24.501842
v 139.393509 180.637833 22.999998
v 139.393509 180.637833 24.567123
v 139.776367 178.138779 20.000002
v 139.776367 178.138779 20.500000
v 140.015244 178.216385 20.000002
v 140.015244 178.216385 20.500000
v 140.261948 178.263443 20.000002
v 140.261948 178.263443 20.500000
v 140.512619 178.279221 20.000002
v 140.512619 178.279221 20.500000
v 139.762161 180.716202 22.999998
v 139.762161 180.716202 24.614098
v 140.136063 180.763443 22.999998
v 140.512619 180.779221 22.999998
v 140.136063 180.763443 24.642410
v 140.512619 180.779221 24.651867
v 139.623840 184.279938 28.669643
v 139.149216 184.518097 29.173168
v 139.182404 184.488724 29.111080
v 139.381378 184.374054 28.868622
v 139.900467 184.210007 28.521786
v 140.200607 184.166946 28.430737
v 138.943497 184.702255 29.687849
v 138.912750 184.813934 29.999992
v 138.912750 184.848709 30.097155
v 139.034546 184.594849 29.387699
v 138.912750 185.087143 31.049099
v 139.623840 188.279297 28.669643
v 138.943497 188.279297 29.687849
v 138.912750 188.279297 29.999992
v 139.034546 188.279297 29.387699
v 139.182404 188.279297 29.111080
v 139.381378 188.279297 28.868622
v 139.900467 188.279297 28.521786
v 140.200607 188.279297 28.430737
v 138.912750 185.231140 32.019829
v 138.912750 185.279297 33.000000
v 133.612762 185.279297 61.578941
v 133.636826 185.279297 62.069031
v 133.708832 185.279297 62.554398
v 133.828049 185.279297 63.030369
v 133.993362 185.279297 63.492363
v 134.203156 185.279297 63.935928
v 134.455414 185.279297 64.356796
v 133.612762 188.279297 61.578941
v 133.636826 188.279297 62.069031
v 133.708832 188.279297 62.554398
v 133.828049 188.279297 63.030369
v 133.993362 188.279297 63.492363
v 134.203156 188.279297 63.935928
v 134.455414 188.279297 64.356796
v 134.747711 185.279297 64.750916
v 135.077225 185.279297 65.114479
v 134.747711 188.279297 64.750916
v 135.077225 188.279297 65.114479
v 135.440796 185.279297 65.444000
v 135.834900 185.279297 65.736298
v 135.440796 188.279297 65.444000
v 135.834900 188.279297 65.736298
v 136.255768 185.279297 65.988556
v 136.699341 185.279297 66.198349
v 136.255768 188.279297 65.988556
v 136.699341 188.279297 66.198349
v 137.161331 185.279297 66.363647
v 137.637299 185.279297 66.482872
v 137.161331 188.279297 66.363647
v 137.637299 188.279297 66.482872
v 138.122665 185.279297 66.554871
v 138.612762 185.279297 66.578949
v 138.122665 188.279297 66.554871
v 138.612762 188.279297 66.578949
v 138.912750 185.279297 61.623360
v 138.943497 185.279297 61.935509
v 139.034546 185.279297 62.235653
v 139.182404 185.279297 62.512272
v 139.381378 185.279297 62.754730
v 139.623840 185.279297 62.953712
v 138.912750 188.279297 61.623360
v 138.943497 188.279297 61.935509
v 139.034546 188.279297 62.235653
v 139.182404 188.279297 62.512272
v 139.381378 188.279297 62.754730
v 139.623840 188.279297 62.953712
v 139.900467 185.279297 63.101566
v 140.200607 185.279297 63.192619
v 139.900467 188.279297 63.101566
v 140.200607 188.279297 63.192619
v 140.701065 160.783142 22.999998
v 140.701065 160.783142 23.000000
v 141.076614 160.814697 22.999998
v 141.076614 160.814697 23.000000
v 141.448227 160.877533 22.999998
v 141.448227 160.877533 23.000000
v 141.813263 160.971252 23.000000
v 142.169174 161.095215 23.000000
v 140.763290 163.294983 20.000002
v 140.763290 163.294983 20.500000
v 141.009995 163.342041 20.000002
v 141.009995 163.342041 20.500000
v 141.248871 163.419647 20.000002
v 141.248871 163.419647 20.500000
v 141.476120 163.526581 20.000002
v 141.476120 163.526581 20.500000
v 141.688187 163.661163 20.000002
v 141.688187 163.661163 20.500000
v 141.881714 163.821259 20.000002
v 141.881714 163.821259 20.500000
v 142.053650 164.004364 20.000002
v 142.053650 164.004364 20.500000
v 142.201279 164.207550 20.000002
v 142.201279 164.207550 20.500000
v 142.513474 161.248505 23.000000
v 142.843735 161.430054 23.000000
v 143.157654 161.638641 23.000000
v 143.453018 161.872742 23.000000
v 142.322266 164.427643 20.000002
v 142.322266 164.427643 20.500000
v 142.414734 164.661163 20.000002
v 142.414734 164.661163 20.500000
v 142.477188 164.904449 20.000002
v 142.477188 164.904449 20.500000
v 142.508667 165.153625 20.000002
v 142.508667 165.153625 20.500000
v 142.508667 165.404785 20.000002
v 142.508667 165.404785 20.500000
v 142.477188 165.653961 20.000002
v 142.477188 165.653961 20.500000
v 143.727753 162.130707 23.000000
v 140.763290 167.263428 20.000002
v 140.763290 167.263428 20.500000
v 141.009995 167.216370 20.000002
v 141.009995 167.216370 20.500000
v 141.248871 167.138763 20.000002
v 141.248871 167.138763 20.500000
v 141.476120 167.031830 20.000002
v 141.476120 167.031830 20.500000
v 141.688187 166.897247 20.000002
v 141.688187 166.897247 20.500000
v 142.053650 166.554047 20.000002
v 142.053650 166.554047 20.500000
v 142.201279 166.350861 20.000002
v 142.201279 166.350861 20.500000
v 141.881714 166.737152 20.000002
v 141.881714 166.737152 20.500000
v 141.992523 169.528900 23.000000
v 140.889175 169.763428 22.999998
v 140.889175 169.763428 23.000000
v 141.263077 169.716187 22.999998
v 141.263077 169.716187 23.000000
v 140.701065 171.783157 22.999998
v 140.701065 171.783157 23.000000
v 141.076614 171.814713 22.999998
v 141.076614 171.814713 23.000000
v 141.631729 169.637817 23.000000
v 141.448227 171.877548 22.999998
v 141.448227 171.877548 23.000000
v 141.813263 171.971268 23.000000
v 142.169174 172.095230 23.000000
v 142.322266 166.130768 20.000002
v 142.322266 166.130768 20.500000
v 142.414734 165.897247 20.000002
v 142.414734 165.897247 20.500000
v 142.342941 169.390167 23.000000
v 142.680511 169.222595 23.000000
v 143.002884 169.027344 23.000000
v 143.307785 168.805817 23.000000
v 143.593079 168.559570 23.000000
v 143.856766 168.290283 23.000000
v 142.513474 172.248520 23.000000
v 142.843735 172.430069 23.000000
v 143.157654 172.638657 23.000000
v 143.453018 172.872757 23.000000
v 143.727753 173.130722 23.000000
v 143.979935 162.410797 23.000000
v 144.207794 162.710999 23.000000
v 144.409729 163.029205 23.000000
v 144.584335 163.363190 23.000000
v 144.730392 163.710632 23.000000
v 144.846848 164.069061 23.000000
v 144.932907 164.435974 23.000000
v 144.987961 164.808838 23.000000
v 145.011627 165.184967 23.000000
v 145.003738 165.561768 23.000000
v 147.412750 158.279297 20.000002
v 147.412750 158.279297 23.000000
v 144.792374 166.669769 23.000000
v 144.500534 167.364044 23.000000
v 144.660995 167.023010 23.000000
v 144.097000 167.999908 23.000000
v 144.312088 167.690430 23.000000
v 144.964340 165.936584 23.000000
v 144.893723 166.306793 23.000000
v 140.763290 174.294998 20.000002
v 140.763290 174.294998 20.500000
v 141.009995 174.342056 20.000002
v 141.009995 174.342056 20.500000
v 141.248871 174.419662 20.000002
v 141.248871 174.419662 20.500000
v 141.476120 174.526596 20.000002
v 141.476120 174.526596 20.500000
v 141.688187 174.661179 20.000002
v 141.688187 174.661179 20.500000
v 141.881714 174.821274 20.000002
v 141.881714 174.821274 20.500000
v 142.053650 175.004379 20.000002
v 142.053650 175.004379 20.500000
v 142.201279 175.207565 20.000002
v 142.201279 175.207565 20.500000
v 140.763290 178.263443 20.000002
v 140.763290 178.263443 20.500000
v 141.009995 178.216385 20.000002
v 141.009995 178.216385 20.500000
v 141.248871 178.138779 20.000002
v 141.248871 178.138779 20.500000
v 140.889175 180.763443 22.999998
v 140.889175 180.763443 24.642410
v 141.263077 180.716202 22.999998
v 141.263077 180.716202 24.614098
v 141.688187 177.897263 20.000002
v 141.688187 177.897263 20.500000
v 141.476120 178.031845 20.000002
v 141.476120 178.031845 20.500000
v 141.881714 177.737167 20.000002
v 141.881714 177.737167 20.500000
v 142.201279 177.350876 20.000002
v 142.201279 177.350876 20.500000
v 142.053650 177.554062 20.000002
v 142.053650 177.554062 20.500000
v 141.631729 180.637833 23.000000
v 141.631729 180.637833 24.567123
v 141.992523 180.528915 23.000000
v 141.992523 180.528915 24.501842
v 142.322266 175.427658 20.000002
v 142.322266 175.427658 20.500000
v 142.414734 175.661179 20.000002
v 142.414734 175.661179 20.500000
v 142.477188 175.904465 20.000002
v 142.477188 175.904465 20.500000
v 142.414734 176.897263 20.000002
v 142.414734 176.897263 20.500000
v 142.508667 176.153641 20.000002
v 142.508667 176.153641 20.500000
v 142.508667 176.404800 20.000002
v 142.508667 176.404800 20.500000
v 142.477188 176.653976 20.000002
v 142.477188 176.653976 20.500000
v 142.322266 177.130783 20.000002
v 142.322266 177.130783 20.500000
v 142.342941 180.390182 23.000000
v 142.342941 180.390182 24.418686
v 142.680511 180.222610 23.000000
v 142.680511 180.222610 24.318249
v 143.002884 180.027359 23.000000
v 143.002884 180.027359 24.201220
v 143.049805 179.993271 24.180788
v 143.307785 179.805832 23.000000
v 143.307785 179.805832 24.092136
v 143.593079 179.559586 23.000000
v 143.593079 179.559586 23.975670
v 143.856766 179.290298 23.000000
v 143.856766 179.290298 23.848309
v 140.512756 184.152405 28.399994
v 140.824905 184.166946 28.430737
v 141.125046 184.210007 28.521786
v 141.401672 184.279938 28.669643
v 141.644135 184.374054 28.868622
v 141.843109 184.488724 29.111080
v 141.876297 184.518097 29.173168
v 140.512756 188.279297 28.399994
v 140.824905 188.279297 28.430737
v 141.125046 188.279297 28.521786
v 141.990967 184.594849 29.387699
v 142.082016 184.702255 29.687849
v 142.112762 184.813934 29.999992
v 142.112762 184.848709 30.097155
v 142.112762 185.087143 31.049099
v 141.401672 188.279297 28.669643
v 141.644135 188.279297 28.868622
v 141.843109 188.279297 29.111080
v 141.990967 188.279297 29.387699
v 142.082016 188.279297 29.687849
v 142.112762 188.279297 29.999992
v 142.112762 185.231140 32.019829
v 142.112762 185.279297 33.000000
v 143.979935 173.410812 23.000000
v 144.207794 173.711014 23.000000
v 144.409729 174.029221 23.000000
v 144.584335 174.363205 23.000000
v 144.730392 174.710648 23.000000
v 144.846848 175.069077 23.000000
v 144.896149 175.279297 23.000000
v 144.932907 175.435989 23.000000
v 144.932907 175.435989 23.007698
v 144.987961 175.808853 23.000000
v 144.987961 175.808853 23.026016
v 145.011627 176.184982 23.000000
v 145.011627 176.184982 23.044495
v 145.010071 176.259460 23.048155
v 145.003738 176.561783 23.000000
v 145.003738 176.561783 23.092999
v 144.964340 176.936600 23.000000
v 144.964340 176.936600 23.148596
v 144.312088 178.690445 23.000000
v 144.312088 178.690445 23.612467
v 144.792374 177.669785 23.000000
v 144.792374 177.669785 23.302258
v 144.500534 178.364059 23.000000
v 144.500534 178.364059 23.495686
v 144.586121 178.182144 23.430597
v 144.660995 178.023026 23.000000
v 144.660995 178.023026 23.390738
v 144.097000 178.999924 23.000000
v 144.009125 179.106125 23.761204
v 144.097000 178.999924 23.723202
v 144.908325 177.230194 23.192148
v 144.893723 177.306808 23.000000
v 144.893723 177.306808 23.211338
v 147.412750 175.279297 23.000000
v 147.412750 176.259460 23.048155
v 147.412750 177.230194 23.192148
v 147.412750 178.182144 23.430597
v 147.412750 179.106125 23.761204
v 147.412750 179.993271 24.180788
v 147.412750 180.835007 24.685307
v 147.412750 181.623230 25.269897
v 147.412750 182.350372 25.928932
v 147.412750 183.009399 26.656069
v 147.412750 183.593994 27.444298
v 147.412750 184.098511 28.286034
v 147.412750 184.518097 29.173168
v 147.412750 185.279297 20.000002
v 147.412750 185.279297 20.049999
v 147.412750 188.279297 20.000002
v 147.412750 188.229294 23.000000
v 147.412750 188.279297 23.000000
v 147.412750 184.848709 30.097155
v 147.412750 185.087143 31.049099
v 147.412750 185.231140 32.019829
v 147.412750 185.279297 33.000000
v 140.512756 185.279297 63.223362
v 140.824905 185.279297 63.192619
v 141.125046 185.279297 63.101566
v 140.512756 188.279297 63.223362
v 140.824905 188.279297 63.192619
v 141.125046 188.279297 63.101566
v 141.401672 185.279297 62.953712
v 141.644119 185.279297 62.754730
v 142.112762 185.279297 61.623360
v 142.082016 185.279297 61.935509
v 141.843109 185.279297 62.512272
v 141.990967 185.279297 62.235653
v 141.401672 188.279297 62.953712
v 141.644119 188.279297 62.754730
v 142.112762 188.279297 61.623360
v 142.082016 188.279297 61.935509
v 141.843109 188.279297 62.512272
v 141.990967 188.279297 62.235653
v 142.412750 185.279297 66.578949
v 142.902832 185.279297 66.554871
v 142.412750 188.279297 66.578949
v 142.902832 188.279297 66.554871
v 143.388199 185.279297 66.482872
v 143.864182 185.279297 66.363647
v 143.388199 188.279297 66.482872
v 143.864182 188.279297 66.363647
v 144.326172 185.279297 66.198349
v 144.769730 185.279297 65.988556
v 144.326172 188.279297 66.198349
v 144.769730 188.279297 65.988556
v 145.190598 185.279297 65.736298
v 145.584717 185.279297 65.444000
v 145.190598 188.279297 65.736298
v 145.584717 188.279297 65.444000
v 145.948288 185.279297 65.114479
v 146.277802 185.279297 64.750916
v 145.948288 188.279297 65.114479
v 146.277802 188.279297 64.750916
v 147.412750 185.279297 61.578941
v 147.388672 185.279297 62.069031
v 147.032150 185.279297 63.492363
v 147.316681 185.279297 62.554398
v 147.197449 185.279297 63.030369
v 146.570099 185.279297 64.356796
v 146.822357 185.279297 63.935928
v 147.412750 188.279297 61.578941
v 147.388672 188.279297 62.069031
v 147.032150 188.279297 63.492363
v 147.316681 188.279297 62.554398
v 147.197449 188.279297 63.030369
v 146.570099 188.279297 64.356796
v 146.822357 188.279297 63.935928
vn -0.0000 -0.0000 -1.0000
vn -0.0000 1.0000 -0.0000
vn -0.0000 -1.0000 -0.0000
vn -0.0001 -0.0000 -1.0000
vn -1.0000 -0.0000 -0.0000
vn 1.0000 -0.0000 -0.0000
vn -0.0491 -0.0000 0.9988
vn -0.1467 -0.0000 0.9892
vn -0.2430 -0.0000 0.9700
vn -0.3369 -0.0000 0.9415
vn -0.4276 -0.0000 0.9040
vn -0.5141 -0.0000 0.8577
vn -0.5957 -0.0000 0.8032
vn -0.6716 -0.0000 0.7410
vn -0.7409 -0.0000 0.6716
vn -0.8032 -0.0000 0.5957
vn -0.8577 -0.0000 0.5141
vn -0.9040 -0.0000 0.4276
vn -0.9415 -0.0000 0.3369
vn -0.9700 -0.0000 0.2430
vn -0.9892 -0.0000 0.1467
vn -0.9988 -0.0000 0.0491
vn 0.0491 -0.0000 0.9988
vn 0.1467 -0.0000 0.9892
vn 0.2430 -0.0000 0.9700
vn 0.3369 -0.0000 0.9415
vn 0.4276 -0.0000 0.9040
vn 0.5141 -0.0000 0.8577
vn 0.5957 -0.0000 0.8032
vn 0.6716 -0.0000 0.7410
vn 0.7410 -0.0000 0.6716
vn 0.8032 -0.0000 0.5957
vn 0.8577 -0.0000 0.5141
vn 0.9040 -0.0000 0.4276
vn 0.9415 -0.0000 0.3369
vn 0.9700 -0.0000 0.2430
vn 0.9892 -0.0000 0.1467
vn 0.9988 -0.0000 0.0491
vn -0.0000 -0.9988 0.0491
vn -0.0000 -0.9892 0.1467
vn -0.0000 -0.9700 0.2430
vn -0.0000 -0.9415 0.3369
vn -0.0000 -0.9040 0.4276
vn -0.0000 -0.8577 0.5141
vn -0.0000 -0.8032 0.5957
vn -0.0000 -0.7410 0.6716
vn -0.0000 -0.6716 0.7410
vn -0.0000 -0.5957 0.8032
vn -0.0000 -0.5141 0.8577
vn -0.0000 -0.4276 0.9040
vn -0.0000 -0.3369 0.9415
vn -0.0000 -0.2430 0.9700
vn -0.0000 -0.1467 0.9892
vn -0.0000 -0.0491 0.9988
vn -0.0000 -0.0000 1.0000
vn 0.0564 -0.7051 0.7069
vn -0.0000 -0.7065 0.7077
vn -0.0000 -0.7073 0.7069
vn 0.6531 -0.2715 0.7069
vn 0.6721 -0.2183 0.7075
vn 0.6394 -0.3009 0.7075
vn -0.0885 -0.7012 0.7074
vn -0.1207 -0.6969 0.7069
vn -0.0564 -0.7051 0.7069
vn 0.2300 -0.6689 0.7069
vn 0.1756 -0.6842 0.7078
vn 0.1760 -0.6853 0.7067
vn -0.2602 -0.6573 0.7073
vn -0.2902 -0.6450 0.7069
vn -0.2300 -0.6689 0.7069
vn 0.3404 -0.6191 0.7076
vn 0.2902 -0.6450 0.7069
vn 0.3408 -0.6199 0.7068
vn 0.4601 0.5372 0.7069
vn 0.4151 0.5715 0.7078
vn 0.4837 0.5152 0.7075
vn -0.4156 -0.5719 0.7072
vn -0.4415 -0.5526 0.7069
vn -0.3891 -0.5907 0.7069
vn -0.3405 -0.6193 0.7075
vn -0.3408 -0.6199 0.7068
vn -0.5651 -0.4254 0.7069
vn -0.5964 -0.3785 0.7078
vn -0.5973 -0.3791 0.7068
vn -0.5447 -0.4506 0.7073
vn -0.5238 -0.4754 0.7069
vn 0.5651 -0.4254 0.7069
vn 0.5966 -0.3786 0.7076
vn 0.5447 -0.4506 0.7073
vn 0.6255 -0.3301 0.7069
vn -0.6396 -0.3009 0.7074
vn -0.6531 -0.2715 0.7069
vn -0.6255 -0.3301 0.7069
vn 0.6880 -0.1643 0.7069
vn 0.6941 -0.1324 0.7076
vn -0.6942 -0.1324 0.7075
vn -0.7001 -0.1006 0.7069
vn -0.6880 -0.1643 0.7069
vn 0.7001 -0.1006 0.7069
vn 0.7051 -0.0444 0.7077
vn -0.7052 -0.0444 0.7076
vn -0.7062 -0.0444 0.7066
vn -0.7055 0.0444 0.7073
vn -0.7031 0.0767 0.7069
vn -0.7072 0.0121 0.7069
vn 0.7072 0.0121 0.7069
vn 0.7054 0.0444 0.7075
vn -0.6392 0.3008 0.7078
vn -0.6139 0.3513 0.7069
vn -0.6402 0.3013 0.7067
vn -0.6724 0.2185 0.7072
vn -0.6620 0.2491 0.7069
vn -0.6820 0.1875 0.7069
vn -0.5792 0.4059 0.7069
vn -0.5444 0.4503 0.7076
vn -0.5451 0.4509 0.7068
vn 0.6392 0.3008 0.7078
vn 0.6139 0.3513 0.7069
vn 0.5967 0.3786 0.7075
vn -0.5969 0.3788 0.7072
vn 0.5792 0.4059 0.7069
vn 0.5445 0.4504 0.7075
vn -0.1756 -0.6842 0.7078
vn -0.1760 -0.6853 0.7067
vn -0.4837 0.5151 0.7076
vn -0.4601 0.5372 0.7069
vn -0.5073 0.4929 0.7069
vn 0.7031 0.0767 0.7069
vn 0.6941 0.1324 0.7076
vn 0.1207 -0.6969 0.7069
vn -0.3405 0.6194 0.7074
vn -0.3120 0.6348 0.7069
vn -0.3688 0.6036 0.7069
vn 0.3120 0.6348 0.7069
vn 0.2599 0.6565 0.7081
vn 0.3404 0.6193 0.7075
vn 0.2071 0.6763 0.7069
vn 0.1758 0.6846 0.7074
vn -0.1759 0.6848 0.7072
vn -0.1443 0.6924 0.7069
vn -0.2071 0.6763 0.7069
vn 0.4837 -0.5150 0.7076
vn 0.5238 -0.4754 0.7069
vn 0.0886 0.7010 0.7076
vn 0.0324 0.7066 0.7069
vn -0.0000 0.7070 0.7072
vn -0.0324 0.7066 0.7069
vn -0.2599 0.6565 0.7081
vn -0.0886 0.7011 0.7075
vn 0.1443 0.6924 0.7069
vn 0.4415 -0.5526 0.7069
vn 0.4843 -0.5157 0.7068
vn 0.3688 0.6036 0.7069
vn -0.4151 0.5715 0.7078
vn -0.4159 0.5725 0.7066
vn 0.5073 0.4929 0.7069
vn 0.6620 0.2491 0.7069
vn 0.6723 0.2184 0.7073
vn 0.6820 0.1875 0.7069
vn -0.6939 0.1324 0.7078
vn -0.6897 0.1609 0.7060
vn -0.6949 0.1326 0.7068
vn -0.6720 -0.2183 0.7076
vn -0.6730 -0.2187 0.7066
vn -0.4837 -0.5150 0.7076
vn -0.4843 -0.5157 0.7068
vn 0.4156 -0.5719 0.7072
vn 0.3891 -0.5907 0.7069
vn 0.2602 -0.6572 0.7074
vn 0.0885 -0.7012 0.7074
vn -0.1253 -0.9921 -0.0000
vn 0.1253 -0.9921 -0.0000
vn 0.2487 -0.9686 -0.0000
vn 0.3681 -0.9298 -0.0000
vn 0.4818 -0.8763 -0.0000
vn 0.5878 -0.8090 -0.0000
vn 0.6846 -0.7290 -0.0000
vn 0.7705 -0.6374 -0.0000
vn 0.8443 -0.5358 -0.0000
vn 0.9048 -0.4258 -0.0000
vn 0.9511 -0.3090 -0.0000
vn 0.9823 -0.1874 -0.0000
vn 0.9980 -0.0628 -0.0000
vn 0.9980 0.0628 -0.0000
vn 0.9823 0.1874 -0.0000
vn 0.9511 0.3090 -0.0000
vn 0.9048 0.4258 -0.0000
vn 0.8443 0.5358 -0.0000
vn 0.7705 0.6374 -0.0000
vn 0.6846 0.7290 -0.0000
vn 0.5878 0.8090 -0.0000
vn 0.4818 0.8763 -0.0000
vn 0.3681 0.9298 -0.0000
vn 0.2487 0.9686 -0.0000
vn 0.1253 0.9921 -0.0000
vn -0.1253 0.9921 -0.0000
vn -0.2487 0.9686 -0.0000
vn -0.3681 0.9298 -0.0000
vn -0.4818 0.8763 -0.0000
vn -0.5878 0.8090 -0.0000
vn -0.6846 0.7290 -0.0000
vn -0.7705 0.6374 -0.0000
vn -0.8443 0.5358 -0.0000
vn -0.9048 0.4258 -0.0000
vn -0.9511 0.3090 -0.0000
vn -0.9823 0.1874 -0.0000
vn -0.9980 0.0628 -0.0000
vn -0.9980 -0.0628 -0.0000
vn -0.9823 -0.1874 -0.0000
vn -0.9511 -0.3090 -0.0000
vn -0.9048 -0.4258 -0.0000
vn -0.8443 -0.5358 -0.0000
vn -0.7705 -0.6374 -0.0000
vn -0.6846 -0.7290 -0.0000
vn -0.5878 -0.8090 -0.0000
vn -0.4818 -0.8763 -0.0000
vn -0.3681 -0.9298 -0.0000
vn -0.2487 -0.9686 -0.0000
vn 0.0028 1.0000 -0.0000
vn 0.6216 0.7834 -0.0000
vn -0.0026 1.0000 -0.0000
vn -0.5441 -0.8390 -0.0009
vn -0.4818 -0.8763 0.0005
vn -0.5556 -0.8314 -0.0000
vn -0.3171 0.9484 -0.0000
vn -0.0805 0.9968 -0.0006
vn -0.3121 0.9501 -0.0000
vn -0.4043 -0.9146 -0.0000
vn -0.4752 -0.8799 -0.0005
vn -0.4032 -0.9151 0.0005
vn 0.9889 -0.1487 -0.0000
vn 0.9715 -0.2371 -0.0007
vn 0.9819 -0.1892 -0.0020
vn 0.9492 -0.3148 -0.0007
vn 0.9208 -0.3899 -0.0000
vn 0.9205 -0.3907 0.0005
vn 0.2936 0.9559 -0.0000
vn 0.3035 0.9528 -0.0005
vn 0.2986 0.9544 -0.0000
vn 0.1633 0.9866 -0.0000
vn 0.1580 0.9874 -0.0000
vn 0.5579 0.8299 -0.0000
vn 0.5782 0.8159 -0.0001
vn 0.5535 0.8329 -0.0001
vn -0.9492 -0.3148 -0.0007
vn -0.9208 -0.3899 -0.0000
vn -0.9511 -0.3090 0.0007
vn 0.5441 -0.8390 -0.0009
vn 0.4818 -0.8763 0.0005
vn 0.4752 -0.8799 -0.0005
vn 0.6191 -0.7853 -0.0000
vn 0.6785 -0.7346 -0.0004
vn 0.6846 -0.7290 0.0005
vn 0.3154 0.9490 -0.0000
vn 0.4815 0.8764 -0.0000
vn 0.3104 0.9506 -0.0000
vn -0.9053 -0.4249 -0.0025
vn -0.8812 -0.4728 -0.0009
vn 0.5372 0.8435 0.0004
vn 0.5372 0.8435 -0.0005
vn -0.9823 0.1873 0.0005
vn -0.9733 0.2297 -0.0000
vn -0.9825 0.1861 -0.0005
vn 0.1580 0.9874 0.0006
vn 0.1580 0.9874 -0.0006
vn 0.9978 -0.0666 -0.0007
vn 0.9891 -0.1473 0.0003
vn -0.0000 -1.0000 0.0003
vn -0.0797 -0.9968 -0.0002
vn -0.0000 -1.0000 -0.0003
vn 0.5973 0.8021 0.0006
vn 0.6174 0.7866 -0.0001
vn 0.5973 0.8021 -0.0007
vn 0.9997 0.0236 -0.0000
vn 0.9997 -0.0231 -0.0009
vn 0.0797 -0.9968 -0.0002
vn 0.0863 -0.9963 -0.0000
vn 0.9511 -0.3090 0.0007
vn 0.7949 -0.6067 -0.0000
vn 0.7353 -0.6777 -0.0010
vn 0.7716 -0.6361 -0.0020
vn -0.1641 -0.9864 -0.0000
vn -0.2449 -0.9695 -0.0006
vn -0.1668 -0.9860 0.0002
vn 0.0778 0.9970 -0.0000
vn 0.0831 0.9965 -0.0000
vn 0.5180 0.8554 -0.0000
vn -0.0863 -0.9963 -0.0000
vn -0.3313 -0.9435 -0.0000
vn -0.3214 -0.9469 -0.0006
vn 0.1668 -0.9860 0.0002
vn 0.9944 0.1058 0.0001
vn 0.9999 0.0170 -0.0002
vn 0.1641 -0.9864 -0.0000
vn 0.2449 -0.9695 -0.0006
vn 0.2487 -0.9686 0.0006
vn -0.7949 -0.6067 -0.0000
vn -0.7716 -0.6361 -0.0020
vn -0.7353 -0.6777 -0.0010
vn 0.5070 0.8619 -0.0000
vn 0.5225 0.8526 -0.0000
vn 0.5025 0.8646 -0.0000
vn 0.5556 -0.8314 -0.0000
vn 0.5862 -0.8101 -0.0019
vn 0.6171 -0.7869 0.0007
vn -0.8443 -0.5358 0.0005
vn -0.8874 -0.4609 -0.0000
vn 0.0026 1.0000 -0.0000
vn 0.9825 0.1861 -0.0005
vn 0.9948 0.1019 -0.0000
vn 0.4911 0.8711 0.0007
vn 0.4911 0.8711 -0.0007
vn -0.6846 -0.7290 0.0005
vn -0.7449 -0.6671 -0.0000
vn 0.8402 -0.5423 -0.0005
vn 0.7936 -0.6085 0.0007
vn -0.9948 0.1019 -0.0000
vn -0.9944 0.1059 0.0001
vn -0.9999 0.0170 -0.0002
vn -0.9997 -0.0231 -0.0009
vn -0.9980 -0.0628 0.0007
vn -0.2487 -0.9686 0.0006
vn 0.8812 -0.4728 -0.0009
vn 0.8443 -0.5358 0.0005
vn -0.8402 -0.5423 -0.0005
vn 0.9823 0.1875 0.0005
vn 0.9803 0.1976 -0.0012
vn -0.9889 -0.1487 -0.0000
vn -0.9978 -0.0666 -0.0007
vn -0.9891 -0.1473 0.0003
vn 0.3214 -0.9469 -0.0006
vn -0.3196 0.9476 -0.0001
vn 0.3313 -0.9435 -0.0000
vn 0.4032 -0.9151 0.0005
vn 0.4043 -0.9146 -0.0000
vn -0.6191 -0.7853 -0.0000
vn -0.5862 -0.8101 -0.0019
vn -0.0805 0.9968 0.0006
vn -0.6785 -0.7346 -0.0004
vn -0.6171 -0.7869 0.0007
vn -0.9997 0.0236 -0.0000
vn -0.9819 -0.1892 -0.0020
vn -0.9742 -0.2257 -0.0000
vn 0.4769 0.8790 -0.0000
vn 0.9053 -0.4249 -0.0025
vn 0.3035 0.9528 0.0005
vn -0.9715 -0.2371 -0.0007
vn 0.5739 0.8189 -0.0000
vn -0.0000 -0.7064 0.7078
vn -0.0000 -0.7071 0.7071
vn 0.6394 -0.3009 0.7076
vn 0.1756 -0.6839 0.7081
vn 0.1760 -0.6854 0.7066
vn -0.2602 -0.6572 0.7074
vn 0.3405 -0.6192 0.7075
vn 0.2601 -0.6571 0.7075
vn 0.4151 0.5714 0.7079
vn -0.4156 -0.5718 0.7073
vn -0.3405 -0.6192 0.7076
vn -0.3408 -0.6198 0.7069
vn -0.5237 -0.4754 0.7069
vn 0.5965 -0.3785 0.7077
vn 0.6256 -0.3301 0.7069
vn 0.7050 -0.0444 0.7078
vn -0.7054 0.0444 0.7075
vn -0.7031 0.0766 0.7069
vn 0.7053 0.0444 0.7076
vn -0.6391 0.3007 0.7079
vn -0.6723 0.2185 0.7073
vn -0.6820 0.1876 0.7069
vn -0.5793 0.4059 0.7069
vn -0.5448 0.4507 0.7071
vn 0.5966 0.3786 0.7076
vn -0.5969 0.3788 0.7073
vn 0.5793 0.4059 0.7069
vn 0.5445 0.4504 0.7076
vn -0.1759 -0.6852 0.7068
vn -0.4836 0.5151 0.7077
vn 0.7031 0.0766 0.7069
vn 0.6940 0.1324 0.7077
vn 0.2599 0.6565 0.7082
vn -0.1759 0.6847 0.7073
vn 0.4837 -0.5150 0.7077
vn 0.5237 -0.4754 0.7069
vn -0.0000 0.7069 0.7073
vn 0.4840 -0.5155 0.7071
vn 0.6820 0.1876 0.7069
vn -0.6946 0.1325 0.7071
vn -0.4837 -0.5150 0.7077
vn -0.4840 -0.5155 0.7071
vn 0.4156 -0.5718 0.7073
vn 0.0885 -0.7012 0.7075
vn 0.6774 0.7356 -0.0001
vn 0.6216 0.7833 -0.0000
vn 0.6735 0.7392 -0.0000
vn -0.0805 0.9968 -0.0003
vn 0.6678 -0.7443 -0.0000
vn 0.6790 -0.7341 0.0001
vn 0.6718 -0.7407 0.0001
vn 0.5884 -0.8086 -0.0000
vn 0.6084 -0.7937 0.0008
vn 0.5841 -0.8117 0.0001
vn 0.3035 0.9528 -0.0000
vn 0.5781 0.8159 -0.0000
vn 0.4644 -0.8856 -0.0000
vn 0.3210 -0.9471 -0.0000
vn 0.4872 -0.8733 -0.0000
vn 0.4977 -0.8673 0.0003
vn 0.4825 -0.8759 -0.0000
vn 0.4713 0.8820 -0.0000
vn 0.4666 0.8845 -0.0000
vn 0.5372 0.8435 0.0007
vn 0.5372 0.8435 -0.0007
vn 0.1580 0.9874 0.0003
vn 0.1580 0.9874 -0.0003
vn 0.6828 -0.7306 -0.0000
vn 0.6781 -0.7350 0.0007
vn -0.1546 -0.9880 -0.0000
vn -0.0404 -0.9992 0.0003
vn -0.1597 -0.9872 -0.0000
vn 0.5973 0.8021 0.0004
vn 0.6174 0.7867 -0.0001
vn 0.5973 0.8021 -0.0005
vn 0.6781 -0.7350 -0.0005
vn 0.7112 0.7030 -0.0000
vn -0.0404 -0.9992 -0.0003
vn 0.0430 -0.9991 -0.0000
vn 0.6083 -0.7937 -0.0006
vn 0.6060 -0.7955 -0.0000
vn 0.5260 -0.8505 0.0001
vn 0.6101 -0.7923 -0.0000
vn -0.2857 -0.9583 -0.0000
vn -0.5518 -0.8340 -0.0000
vn -0.2908 -0.9568 -0.0000
vn 0.4979 -0.8673 -0.0003
vn 0.0379 -0.9993 -0.0000
vn 0.1545 -0.9880 -0.0000
vn 0.7148 0.6993 -0.0001
vn 0.6915 0.7224 -0.0000
vn 0.1597 -0.9872 -0.0000
vn 0.2883 -0.9575 0.0006
vn 0.3162 -0.9487 -0.0000
vn 0.6877 0.7260 -0.0001
vn 0.6663 0.7457 0.0005
vn 0.4912 0.8711 -0.0007
vn 0.5307 -0.8476 -0.0000
vn 0.6264 -0.7795 0.0005
vn 0.6265 -0.7795 -0.0004
vn 0.6388 -0.7694 0.0001
vn 0.6664 0.7456 -0.0007
vn 0.2883 -0.9575 -0.0006
vn 0.2956 -0.9553 -0.0000
vn 0.2907 -0.9568 -0.0000
vn 0.4542 -0.8909 -0.0000
vn -0.0805 0.9968 0.0003
vn 0.4768 0.8790 -0.0000
vn 0.6347 -0.7728 -0.0000
vn 0.4589 -0.8885 -0.0000
vn -0.9952 -0.0000 0.0980
vn -0.9569 -0.0000 0.2903
vn -0.8819 -0.0000 0.4714
vn -0.7730 -0.0000 0.6344
vn -0.6344 -0.0000 0.7730
vn -0.4714 -0.0000 0.8819
vn -0.2903 -0.0000 0.9569
vn -0.0980 -0.0000 0.9952
vn 0.0980 -0.0000 0.9952
vn 0.2903 -0.0000 0.9569
vn 0.4714 -0.0000 0.8819
vn 0.6344 -0.0000 0.7730
vn 0.7730 -0.0000 0.6344
vn 0.8819 -0.0000 0.4714
vn 0.9569 -0.0000 0.2903
vn 0.9952 -0.0000 0.0980
vn -0.0980 -0.0000 -0.9952
vn -0.2903 -0.0000 -0.9569
vn -0.4714 -0.0000 -0.8819
vn -0.6344 -0.0000 -0.7730
vn -0.7730 -0.0000 -0.6344
vn -0.8819 -0.0000 -0.4714
vn -0.9569 -0.0000 -0.2903
vn -0.9952 -0.0000 -0.0980
vn 0.9952 -0.0000 -0.0980
vn 0.9569 -0.0000 -0.2903
vn 0.8819 -0.0000 -0.4714
vn 0.7730 -0.0000 -0.6344
vn 0.6344 -0.0000 -0.7730
vn 0.4714 -0.0000 -0.8819
vn 0.2903 -0.0000 -0.9569
vn 0.0980 -0.0000 -0.9952
vn -0.0011 -0.0000 -1.0000
vn 0.0001 -0.0000 -1.0000
vn 0.0004 -0.0000 -1.0000
vn -0.7410 -0.0000 0.6716
vn 0.7409 -0.0000 0.6716
vn 0.0001 -0.0000 1.0000
vn 0.6730 -0.2187 0.7066
vn 0.4159 0.5725 0.7066
vn 0.5973 -0.3791 0.7068
vn 0.7062 -0.0444 0.7066
vn 0.6402 0.3013 0.7067
vn 0.5451 0.4509 0.7068
vn 0.6949 0.1326 0.7068
vn 0.2605 0.6578 0.7068
vn 0.0887 0.7020 0.7067
vn -0.2605 0.6578 0.7068
vn -0.0887 0.7020 0.7067
vn 0.9742 -0.2257 -0.0000
vn -0.9205 -0.3907 0.0005
vn 0.9980 -0.0628 0.0007
vn 0.7449 -0.6671 -0.0000
vn -0.7936 -0.6085 0.0007
vn 0.8874 -0.4609 -0.0000
vn 0.3408 -0.6198 0.7069
vn 0.5970 -0.3789 0.7071
vn 0.6401 0.3012 0.7068
vn 0.5448 0.4507 0.7071
vn 0.6946 0.1325 0.7071
vn 0.2604 0.6577 0.7069
vn 0.0887 0.7020 0.7066
vn -0.2604 0.6577 0.7069
vt 0.125000 0.750000
vt 0.375000 0.500000
vt 0.375000 0.750000
vt 0.400000 0.250000
vt 0.375000 0.250000
vt 0.375000 1.000000
vt 0.400000 0.750000
vt 0.400000 1.000000
vt 0.217214 0.750000
vt 0.219406 0.750000
vt 0.217214 0.750000
vt 0.284456 0.750000
vt 0.282781 0.750000
vt 0.412584 1.000000
vt 0.418876 0.750000
vt 0.405041 0.750000
vt 0.375417 0.750000
vt 0.793299 0.750000
vt 0.784420 0.500000
vt 0.793299 0.500000
vt 0.802091 0.750000
vt 0.802091 0.500000
vt 0.810714 0.750000
vt 0.810714 0.500000
vt 0.819084 0.750000
vt 0.819084 0.500000
vt 0.827119 0.750000
vt 0.827119 0.500000
vt 0.834744 0.750000
vt 0.834744 0.500000
vt 0.841883 0.750000
vt 0.841883 0.500000
vt 0.875000 0.750000
vt 0.875000 0.500000
vt 0.615562 0.000000
vt 0.621219 0.263265
vt 0.615562 0.256854
vt 0.613527 0.000000
vt 0.613527 0.255089
vt 0.611354 0.000000
vt 0.611354 0.253565
vt 0.609064 0.000000
vt 0.609064 0.252298
vt 0.606679 0.000000
vt 0.606679 0.251300
vt 0.604221 0.000000
vt 0.604221 0.250580
vt 0.601715 0.000000
vt 0.601715 0.250145
vt 0.599185 0.000000
vt 0.599185 0.250000
vt 0.685387 0.780193
vt 0.679426 0.472766
vt 0.685387 0.469807
vt 0.679426 0.777234
vt 0.673440 0.475697
vt 0.673440 0.774303
vt 0.667487 0.478571
vt 0.667487 0.771429
vt 0.661623 0.481361
vt 0.661623 0.768639
vt 0.655904 0.484040
vt 0.655904 0.765960
vt 0.650387 0.486581
vt 0.650387 0.763419
vt 0.645124 0.488961
vt 0.645124 0.761039
vt 0.622480 0.491157
vt 0.622480 0.758843
vt 0.615562 0.493146
vt 0.615562 0.756854
vt 0.613527 0.494912
vt 0.613527 0.755089
vt 0.611354 0.496435
vt 0.611354 0.753565
vt 0.609064 0.497702
vt 0.609064 0.752298
vt 0.606679 0.498700
vt 0.606679 0.751300
vt 0.604221 0.499420
vt 0.604221 0.750580
vt 0.601715 0.499855
vt 0.601715 0.750145
vt 0.599185 0.500000
vt 0.437008 0.903986
vt 0.434420 1.000000
vt 0.431046 1.000000
vt 0.451630 0.750000
vt 0.440608 0.846014
vt 0.446570 0.750000
vt 0.433025 0.903985
vt 0.427705 1.000000
vt 0.436238 0.846014
vt 0.441558 0.750000
vt 0.429120 0.903986
vt 0.424429 1.000000
vt 0.431952 0.846014
vt 0.436643 0.750000
vt 0.421248 1.000000
vt 0.427466 0.903428
vt 0.428721 0.903986
vt 0.430084 0.846571
vt 0.431872 0.750000
vt 0.431515 0.846015
vt 0.423234 0.875000
vt 0.418195 1.000000
vt 0.427292 0.750000
vt 0.422946 0.750000
vt 0.415297 1.000000
vt 0.403907 0.750000
vt 0.402900 0.750000
vt 0.401421 0.875003
vt 0.400465 0.930808
vt 0.400559 0.925640
vt 0.401214 0.819197
vt 0.401310 0.750000
vt 0.401321 0.824365
vt 0.400237 0.943833
vt 0.400299 0.939937
vt 0.400817 0.806172
vt 0.400741 0.750000
vt 0.400946 0.810068
vt 0.400000 1.000000
vt 0.400099 0.952534
vt 0.400134 0.950154
vt 0.400421 0.797471
vt 0.400331 0.750000
vt 0.400539 0.799851
vt 0.400028 0.956363
vt 0.400045 0.955649
vt 0.400083 0.750000
vt 0.400271 0.795370
vt 0.400211 0.794355
vt 0.400008 0.956077
vt 0.400013 0.956506
vt 0.400037 0.793928
vt 0.400063 0.793499
vt 0.620919 0.866369
vt 0.622341 0.859417
vt 0.400000 0.245833
vt 0.606877 0.352623
vt 0.436409 0.346276
vt 0.614041 0.416821
vt 0.400000 0.504167
vt 0.599185 0.750000
vt 0.375417 0.000000
vt 0.400000 0.793642
vt 0.400000 0.793499
vt 0.400000 0.948765
vt 0.400000 0.951411
vt 0.400000 0.000000
vt 0.375000 0.000000
vt 0.400000 0.500000
vt 0.176777 -0.993790
vt -0.176777 -1.021018
vt 0.176777 -1.021018
vt 0.176777 -0.639838
vt -0.176777 -0.612611
vt -0.176777 -0.653451
vt -0.176777 0.980177
vt 0.176777 0.966563
vt 0.176777 0.993790
vt -0.176777 1.021018
vt 0.176777 1.021018
vt 0.176777 -0.912109
vt -0.176777 -0.939336
vt 0.176777 -0.939336
vt -0.176777 0.898495
vt 0.176777 0.884882
vt 0.176777 0.912109
vt -0.176777 -0.857655
vt 0.176777 -0.884882
vt 0.176777 -0.857655
vt 0.176777 -0.231431
vt -0.176777 -0.204204
vt -0.176777 -0.245044
vt -0.176777 0.816814
vt 0.176777 0.803201
vt 0.176777 0.830428
vt -0.176777 0.857655
vt 0.176777 0.857655
vt 0.176777 0.721519
vt -0.176777 0.694292
vt 0.176777 0.694292
vt -0.176777 0.735133
vt 0.176777 0.748746
vt 0.176777 -0.721519
vt -0.176777 -0.694292
vt -0.176777 -0.735133
vt 0.176777 -0.667065
vt -0.176777 0.653451
vt 0.176777 0.639838
vt 0.176777 0.667065
vt 0.176777 -0.585383
vt -0.176777 -0.571770
vt -0.176777 0.571770
vt 0.176777 0.558156
vt 0.176777 0.585383
vt 0.176777 -0.558156
vt -0.176777 -0.530929
vt -0.176777 0.530929
vt 0.176777 0.530929
vt -0.176777 0.490088
vt 0.176777 0.476475
vt 0.176777 0.503702
vt 0.176777 -0.503702
vt -0.176777 -0.490088
vt -0.176777 0.367566
vt 0.176777 0.340339
vt 0.176777 0.367566
vt -0.176777 0.408407
vt 0.176777 0.394793
vt 0.176777 0.422021
vt 0.176777 0.313112
vt -0.176777 0.285885
vt 0.176777 0.285885
vt -0.176777 -0.367566
vt 0.176777 -0.340339
vt -0.176777 -0.326726
vt -0.176777 0.326726
vt 0.176777 -0.313112
vt -0.176777 -0.285885
vt -0.176777 0.939336
vt 0.176777 0.939336
vt -0.176777 0.245044
vt 0.176777 0.231431
vt 0.176777 0.258658
vt 0.176777 -0.476475
vt -0.176777 -0.449248
vt 0.176777 -0.966563
vt -0.176777 0.163363
vt 0.176777 0.149749
vt 0.176777 0.176976
vt 0.176777 -0.149749
vt -0.176777 -0.122522
vt -0.176777 -0.163363
vt 0.176777 -0.095295
vt -0.176777 -0.081681
vt -0.176777 0.081681
vt 0.176777 0.068068
vt 0.176777 0.095295
vt -0.176777 -0.775973
vt 0.176777 -0.748746
vt -0.176777 -0.040841
vt 0.176777 -0.013614
vt -0.176777 -0.000000
vt 0.176777 0.013614
vt -0.176777 0.122522
vt -0.176777 0.040841
vt 0.176777 -0.068068
vt 0.176777 -0.803201
vt 0.176777 -0.775973
vt 0.176777 -0.176976
vt -0.176777 0.204204
vt 0.176777 0.204204
vt 0.176777 -0.258658
vt 0.176777 -0.394793
vt -0.176777 -0.408407
vt 0.176777 -0.422021
vt -0.176777 0.449248
vt 0.176777 0.437621
vt 0.176777 0.449248
vt -0.176777 0.612611
vt 0.176777 0.612611
vt -0.176777 0.775973
vt 0.176777 0.775973
vt -0.176777 -0.816814
vt 0.176777 -0.830428
vt -0.176777 -0.898495
vt -0.176777 -0.980177
vt 0.000000 0.000000
vt 0.176777 0.040841
vt 0.176777 -0.579749
vt 0.176777 -0.612611
vt 0.176777 -0.122522
vt 0.176777 -0.775973
vt 0.176777 0.652542
vt 0.176777 -0.285885
vt 0.176777 0.437621
vt 0.176777 -0.040841
vt 0.176777 -0.530929
vt 0.176777 0.993790
vt 0.176777 -0.367566
vt 0.176777 -0.530929
vt 0.176777 -0.509084
vt 0.176777 -0.585383
vt 0.176777 -0.748746
vt 0.176777 -0.731478
vt 0.176777 -0.993790
vt 0.176777 -0.476475
vt 0.176777 0.731478
vt 0.176777 -0.826239
vt 0.176777 -0.449248
vt 0.176777 -0.204204
vt 0.176777 0.748746
vt 0.176777 -0.694292
vt 0.176777 0.509085
vt 0.176777 -0.449248
vt 0.176777 -0.437621
vt 0.176777 0.530929
vt 0.176777 -0.939336
vt 0.176777 0.826238
vt 0.176777 0.803201
vt 0.176777 0.503702
vt 0.176777 0.579749
vt 0.176777 -0.652542
vt 0.176777 0.585383
vt 0.250000 0.752408
vt 0.250000 0.759607
vt 0.250000 0.600000
vt 0.750000 0.773268
vt 0.718750 0.600000
vt 0.718750 0.778852
vt 0.687500 0.600000
vt 0.687500 0.784222
vt 0.663264 0.788060
vt 0.656250 0.789528
vt 0.625000 0.600000
vt 0.625000 0.795262
vt 0.593750 0.600000
vt 0.593750 0.799968
vt 0.562500 0.600000
vt 0.562500 0.803464
vt 0.562500 0.803464
vt 0.531250 0.600000
vt 0.531250 0.805617
vt 0.500000 0.600000
vt 0.500000 0.806344
vt 0.468750 0.805617
vt 0.468750 0.600000
vt 0.437500 0.803464
vt 0.437500 0.600000
vt 0.406250 0.799968
vt 0.437500 0.600000
vt 0.406250 0.600000
vt 0.375000 0.795262
vt 0.375000 0.600000
vt 0.343750 0.789528
vt 0.343750 0.600000
vt 0.336736 0.788060
vt 0.312500 0.784222
vt 0.281250 0.778852
vt 0.312500 0.600000
vt 0.281250 0.600000
vt 0.250000 0.773268
vt 1.000000 0.750000
vt 0.968750 0.600000
vt 0.968750 0.750000
vt 0.968750 0.750000
vt 0.937500 0.600000
vt 0.937500 0.750000
vt 0.937500 0.750000
vt 0.906250 0.600000
vt 0.906250 0.750000
vt 0.906250 0.750000
vt 0.875000 0.600000
vt 0.875000 0.750000
vt 0.875000 0.750000
vt 0.843750 0.600000
vt 0.843750 0.750000
vt 0.843750 0.750000
vt 0.812500 0.600000
vt 0.812500 0.750000
vt 0.812500 0.750000
vt 0.781250 0.600000
vt 0.781250 0.750000
vt 0.781250 0.750000
vt 0.750000 0.600000
vt 0.750000 0.750000
vt 0.250000 0.750000
vt 0.218750 0.600000
vt 0.218750 0.750000
vt 0.218750 0.750000
vt 0.187500 0.600000
vt 0.187500 0.750000
vt 0.187500 0.750000
vt 0.156250 0.600000
vt 0.156250 0.750000
vt 0.156250 0.750000
vt 0.125000 0.600000
vt 0.125000 0.750000
vt 0.125000 0.750000
vt 0.093750 0.600000
vt 0.093750 0.750000
vt 0.093750 0.750000
vt 0.062500 0.600000
vt 0.062500 0.750000
vt 0.062500 0.750000
vt 0.031250 0.600000
vt 0.031250 0.750000
vt 0.031250 0.750000
vt 0.000000 0.600000
vt 0.000000 0.750000
vt 0.750000 0.600000
vt 0.750000 0.752408
vt 0.125000 0.500000
vt 0.284456 0.750000
vt 0.282781 0.750000
vt 0.280589 0.750000
vt 0.277915 0.750000
vt 0.274800 0.750000
vt 0.285588 0.750000
vt 0.286158 0.750000
vt 0.271294 0.750000
vt 0.267452 0.750000
vt 0.286158 0.750000
vt 0.285588 0.750000
vt 0.263335 0.750000
vt 0.259008 0.750000
vt 0.282781 0.750000
vt 0.254539 0.750000
vt 0.249998 0.750000
vt 0.280589 0.750000
vt 0.245456 0.750000
vt 0.240987 0.750000
vt 0.274800 0.750000
vt 0.271294 0.750000
vt 0.236660 0.750000
vt 0.232543 0.750000
vt 0.267452 0.750000
vt 0.228701 0.750000
vt 0.225195 0.750000
vt 0.263335 0.750000
vt 0.259008 0.750000
vt 0.222080 0.750000
vt 0.254539 0.750000
vt 0.249998 0.750000
vt 0.217214 0.750000
vt 0.245456 0.750000
vt 0.215539 0.750000
vt 0.214408 0.750000
vt 0.236660 0.750000
vt 0.213837 0.750000
vt 0.213837 0.750000
vt 0.228701 0.750000
vt 0.225195 0.750000
vt 0.214408 0.750000
vt 0.215539 0.750000
vt 0.285588 0.750000
vt 0.277915 0.750000
vt 0.263335 0.750000
vt 0.282781 0.750000
vt 0.254539 0.750000
vt 0.249998 0.750000
vt 0.245456 0.750000
vt 0.271294 0.750000
vt 0.240987 0.750000
vt 0.232543 0.750000
vt 0.228701 0.750000
vt 0.249998 0.750000
vt 0.225195 0.750000
vt 0.245456 0.750000
vt 0.240987 0.750000
vt 0.217214 0.750000
vt 0.236660 0.750000
vt 0.214408 0.750000
vt 0.228701 0.750000
vt 0.213837 0.750000
vt 0.213837 0.750000
vt 0.222080 0.750000
vt 0.214408 0.750000
vt 0.402032 0.750000
vt 0.784420 0.750000
vt 0.625000 0.000000
vt 0.441030 0.903986
vt 0.445021 0.846014
vt 0.440608 0.846014
vt 0.433025 0.903986
vt 0.436238 0.846014
vt 0.425511 0.899702
vt 0.426306 0.901779
vt 0.428661 0.848221
vt 0.427610 0.850298
vt 0.425279 0.899100
vt 0.427610 0.850298
vt 0.427307 0.850899
vt 0.424422 0.895496
vt 0.426078 0.854504
vt 0.425022 0.858896
vt 0.423765 0.891104
vt 0.423336 0.886092
vt 0.424179 0.863908
vt 0.423577 0.869345
vt 0.423155 0.880655
vt 0.400642 0.920966
vt 0.400661 0.920116
vt 0.401390 0.829039
vt 0.401407 0.829889
vt 0.400778 0.914276
vt 0.400897 0.908160
vt 0.401491 0.835729
vt 0.401545 0.841844
vt 0.401015 0.901812
vt 0.401130 0.895276
vt 0.401570 0.848193
vt 0.401567 0.854729
vt 0.401238 0.888598
vt 0.401336 0.881824
vt 0.401540 0.861407
vt 0.401490 0.868181
vt 0.400323 0.938345
vt 0.400376 0.935585
vt 0.401084 0.814420
vt 0.400987 0.811660
vt 0.401390 0.829039
vt 0.400152 0.948798
vt 0.400180 0.947247
vt 0.400673 0.802758
vt 0.400589 0.801207
vt 0.400987 0.811660
vt 0.400152 0.948798
vt 0.400060 0.954635
vt 0.400066 0.954370
vt 0.400297 0.795635
vt 0.400060 0.954635
vt 0.400014 0.956478
vt 0.400132 0.793642
vt 0.400068 0.793527
vt 0.400014 0.956478
vt 0.400000 0.954414
vt 0.400002 0.955080
vt 0.400011 0.794925
vt 0.400000 0.795591
vt 0.400068 0.793527
vt 0.625000 0.909420
vt 0.624876 0.918299
vt 0.624504 0.927091
vt 0.623888 0.935714
vt 0.623035 0.944084
vt 0.621952 0.952119
vt 0.620649 0.959744
vt 0.619140 0.966883
vt 0.617439 0.973470
vt 0.615562 0.979439
vt 0.613527 0.984734
vt 0.611354 0.989304
vt 0.609064 0.993105
vt 0.606679 0.996100
vt 0.604221 0.998259
vt 0.601715 0.999564
vt 0.599185 1.000000
vt 0.606035 0.896301
vt 0.445021 0.846014
vt 0.610610 0.833315
vt 0.608114 0.895341
vt 0.613340 0.832789
vt 0.616058 0.833329
vt 0.610282 0.893126
vt 0.612505 0.889693
vt 0.618599 0.834979
vt 0.614748 0.885125
vt 0.616963 0.879559
vt 0.620758 0.837772
vt 0.622330 0.841719
vt 0.619065 0.873208
vt 0.623145 0.846767
vt 0.623133 0.852758
vt 0.451630 0.000000
vt 0.436409 0.404245
vt 0.611351 0.416292
vt 0.619140 0.283117
vt 0.620649 0.290256
vt 0.621952 0.297881
vt 0.623035 0.305916
vt 0.623888 0.314286
vt 0.624504 0.322908
vt 0.624876 0.331701
vt 0.625000 0.340580
vt 0.616724 0.416279
vt 0.619234 0.414621
vt 0.434790 0.403681
vt 0.433234 0.402025
vt 0.621369 0.411812
vt 0.622920 0.407840
vt 0.431801 0.399342
vt 0.430544 0.395733
vt 0.623722 0.402756
vt 0.429513 0.391337
vt 0.428747 0.386324
vt 0.623702 0.396715
vt 0.622909 0.389993
vt 0.428276 0.380885
vt 0.621494 0.382961
vt 0.619655 0.376030
vt 0.428117 0.375230
vt 0.428276 0.369576
vt 0.617577 0.369580
vt 0.615395 0.363917
vt 0.428748 0.364140
vt 0.429513 0.359132
vt 0.613192 0.359269
vt 0.611015 0.355787
vt 0.430544 0.354743
vt 0.431801 0.351143
vt 0.608899 0.353560
vt 0.433234 0.348469
vt 0.434790 0.346826
vt 0.400000 0.793927
vt 0.400000 0.794925
vt 0.400000 0.795635
vt 0.400000 0.794355
vt 0.400000 0.953521
vt 0.400000 0.954414
vt 0.400000 0.796484
vt 0.400000 0.798594
vt 0.400000 0.951411
vt 0.400000 0.801240
vt 0.400000 0.804403
vt 0.400000 0.948766
vt 0.400000 0.945602
vt 0.400000 0.808061
vt 0.400000 0.812189
vt 0.400000 0.941944
vt 0.400000 0.937816
vt 0.400000 0.816757
vt 0.400000 0.821734
vt 0.400000 0.933248
vt 0.400000 0.928271
vt 0.400000 0.827085
vt 0.400000 0.832772
vt 0.400000 0.922920
vt 0.400000 0.838755
vt 0.400000 0.844992
vt 0.400000 0.796484
vt 0.400000 0.797471
vt 0.400000 0.799851
vt 0.400000 0.798594
vt 0.400000 0.801240
vt 0.400000 0.802758
vt 0.400000 0.806171
vt 0.400000 0.804403
vt 0.400000 0.810068
vt 0.400000 0.814420
vt 0.400000 0.812189
vt 0.400000 0.816757
vt 0.400000 0.819197
vt 0.400000 0.824365
vt 0.400000 0.821734
vt 0.400000 0.827085
vt 0.400000 0.829889
vt 0.400000 0.835729
vt 0.400000 0.832772
vt 0.400000 0.841844
vt 0.400000 0.848193
vt 0.400000 0.844992
vt 0.400000 0.854729
vt 0.400000 0.851440
vt 0.400000 0.861407
vt 0.400000 0.858053
vt 0.400000 0.868181
vt 0.400000 0.864785
vt 0.400000 0.875003
vt 0.400000 0.871589
vt 0.400000 0.881824
vt 0.400000 0.878416
vt 0.400000 0.888598
vt 0.400000 0.885220
vt 0.400000 0.895276
vt 0.400000 0.891952
vt 0.400000 0.901812
vt 0.400000 0.898565
vt 0.400000 0.908161
vt 0.400000 0.905012
vt 0.400000 0.914276
vt 0.400000 0.911250
vt 0.400000 0.920116
vt 0.400000 0.917233
vt 0.400000 0.925640
vt 0.400000 0.851440
vt 0.400000 0.858053
vt 0.400000 0.930808
vt 0.400000 0.935585
vt 0.400000 0.939937
vt 0.400000 0.871589
vt 0.400000 0.878416
vt 0.400000 0.943833
vt 0.400000 0.947247
vt 0.400000 0.885220
vt 0.400000 0.891952
vt 0.400000 0.950154
vt 0.400000 0.952534
vt 0.400000 0.898565
vt 0.400000 0.905012
vt 0.400000 0.954370
vt 0.400000 0.911250
vt 0.400000 0.917233
vt 0.400000 0.955649
vt 0.400000 0.956363
vt 0.400000 0.922920
vt 0.400000 0.928270
vt 0.400000 0.956506
vt 0.400000 0.956077
vt 0.400000 0.933248
vt 0.400000 0.937816
vt 0.400000 0.955080
vt 0.400000 0.953521
vt 0.400000 0.941944
vt 0.400000 0.945602
vt 0.400000 0.000000
vt 0.176777 0.122522
vt 0.176777 -0.558156
vt 0.176777 0.775973
vt 0.250000 0.600000
vt 0.250000 0.750000
vt 0.250000 0.771530
vt 0.656250 0.600000
vt 0.437500 0.803464
vt 0.406250 0.799968
vt 1.000000 0.600000
vt 0.968750 0.600000
vt 0.937500 0.600000
vt 0.906250 0.600000
vt 0.875000 0.600000
vt 0.843750 0.600000
vt 0.812500 0.600000
vt 0.781250 0.600000
vt 0.187500 0.600000
vt 0.156250 0.600000
vt 0.125000 0.600000
vt 0.093750 0.600000
vt 0.062500 0.600000
vt 0.031250 0.600000
vt 0.750000 0.750000
vt 0.750000 0.771530
vt 0.750000 0.759607
s 0
f 203/1/1 603/2/1 601/3/1
f 207/4/2 603/2/2 205/5/2
f 1/6/3 455/7/3 2/8/3
f 49/9/1 75/10/1 1/1/1
f 214/11/4 454/3/4 203/1/4
f 509/12/1 517/13/1 601/3/1
f 198/8/5 199/14/5 206/8/5
f 597/15/6 596/16/6 602/17/6
f 338/18/7 341/19/7 340/20/7
f 335/21/8 340/20/8 337/22/8
f 334/23/9 337/22/9 336/24/9
f 331/25/10 336/24/10 333/26/10
f 330/27/11 333/26/11 332/28/11
f 327/29/12 332/28/12 329/30/12
f 326/31/13 329/30/13 328/32/13
f 323/33/14 328/32/14 325/34/14
f 322/35/15 325/36/15 324/37/15
f 314/38/16 324/37/16 321/39/16
f 313/40/17 321/39/17 320/41/17
f 312/42/18 320/41/18 319/43/18
f 311/44/19 319/43/19 318/45/19
f 310/46/20 318/45/20 317/47/20
f 309/48/21 317/47/21 316/49/21
f 308/50/22 316/49/22 315/51/22
f 628/52/23 631/53/23 630/54/23
f 629/55/24 634/56/24 631/53/24
f 632/57/25 635/58/25 634/56/25
f 633/59/26 638/60/26 635/58/26
f 636/61/27 639/62/27 638/60/27
f 637/63/28 642/64/28 639/62/28
f 640/65/29 643/66/29 642/64/29
f 641/67/30 646/68/30 643/66/30
f 644/69/31 647/70/31 646/68/31
f 645/71/32 660/72/32 647/70/32
f 653/73/33 661/74/33 660/72/33
f 654/75/34 657/76/34 661/74/34
f 650/77/35 659/78/35 657/76/35
f 652/79/36 658/80/36 659/78/36
f 651/81/37 656/82/37 658/80/37
f 649/83/38 655/84/38 656/82/38
f 306/85/39 211/86/39 210/87/39
f 609/88/39 553/89/39 608/90/39
f 297/91/40 210/87/40 209/92/40
f 608/90/40 546/93/40 607/94/40
f 295/95/41 209/92/41 208/96/41
f 607/94/41 545/97/41 606/98/41
f 202/99/42 293/100/42 294/101/42
f 543/102/42 600/103/42 544/104/42
f 532/105/43 201/106/43 599/107/43
f 201/106/44 598/108/44 599/107/44
f 200/109/45 597/15/45 598/108/45
f 199/14/46 596/16/46 597/15/46
f 198/8/47 595/110/47 596/16/47
f 197/8/48 594/111/48 595/110/48
f 196/8/49 286/112/49 594/111/49
f 155/8/50 229/113/50 231/114/50
f 529/115/50 592/116/50 527/117/50
f 154/8/51 192/118/51 194/119/51
f 574/120/51 591/121/51 584/122/51
f 153/123/52 185/124/52 187/125/52
f 576/126/52 590/127/52 581/128/52
f 152/8/53 168/129/53 170/130/53
f 589/131/53 585/132/53 572/133/53
f 151/8/54 163/134/54 165/135/54
f 565/136/54 588/7/54 567/137/54
f 633/59/3 355/138/3 610/139/3
f 206/140/5 308/50/5 315/51/5
f 341/19/55 628/52/55 630/54/55
f 348/141/2 300/142/2 207/4/2
f 655/84/2 625/143/2 659/78/2
f 604/144/6 655/84/6 648/145/6
f 204/146/5 207/4/5 205/5/5
f 453/147/55 452/148/55 455/7/55
f 2/8/55 16/149/55 14/150/55
f 2/151/5 204/146/5 203/152/5
f 601/3/6 605/153/6 604/144/6
f 454/3/6 602/17/6 588/7/6
s 1
f 283/154/56 280/155/57 284/156/58
f 186/157/59 225/158/60 233/159/61
f 480/160/62 487/161/63 485/162/64
f 280/163/57 485/162/64 284/164/58
f 269/165/65 276/166/66 271/167/67
f 484/168/68 519/169/69 501/170/70
f 268/171/71 239/172/72 237/173/73
f 105/174/74 246/175/75 244/176/76
f 490/177/77 526/178/78 523/179/79
f 519/169/69 492/180/80 521/181/81
f 582/182/82 496/183/83 573/184/84
f 498/185/85 582/182/82 530/186/86
f 193/187/87 260/188/88 262/189/89
f 260/188/88 189/190/90 233/159/61
f 518/191/91 580/192/92 577/193/93
f 225/158/60 182/194/94 223/195/95
f 496/183/83 577/193/93 573/184/84
f 516/196/96 571/197/97 586/198/98
f 169/199/99 221/200/100 223/195/95
f 571/197/97 514/201/101 569/202/102
f 512/203/103 564/204/104 566/205/105
f 221/200/100 164/206/106 219/207/107
f 504/208/108 557/209/109 558/210/110
f 506/211/111 559/212/112 560/213/113
f 556/214/114 476/215/115 555/216/116
f 215/217/117 171/218/118 250/219/119
f 478/220/120 556/214/114 557/209/109
f 177/221/121 242/222/122 250/219/119
f 482/223/123 501/170/70 499/224/124
f 474/225/125 442/226/126 443/227/127
f 162/228/128 213/229/129 219/207/107
f 276/166/66 281/230/130 271/167/67
f 470/231/131 439/232/132 440/233/133
f 111/234/134 252/235/135 248/236/136
f 252/235/135 137/237/137 254/238/138
f 466/239/139 425/240/140 427/241/141
f 264/242/142 226/243/143 262/189/89
f 256/244/144 149/245/145 258/246/146
f 149/245/145 420/247/147 258/246/146
f 468/248/148 439/232/132 470/231/131
f 464/249/149 425/240/140 466/239/139
f 137/237/137 139/250/150 254/238/138
f 264/242/142 230/251/151 228/252/152
f 109/253/153 111/234/134 248/236/136
f 440/233/133 472/254/154 470/231/131
f 442/226/126 472/254/154 441/255/155
f 103/256/156 105/174/74 244/176/76
f 476/215/115 443/227/127 555/216/116
f 242/222/122 103/256/156 244/176/76
f 171/218/118 177/221/121 250/219/119
f 173/257/157 215/217/117 217/258/158
f 504/208/108 559/212/112 506/211/111
f 157/259/159 173/257/157 217/258/158
f 508/260/160 560/213/113 561/261/161
f 564/204/104 508/260/160 562/262/162
f 162/228/128 219/207/107 164/206/106
f 514/201/101 566/205/105 569/202/102
f 420/247/147 464/249/149 258/246/146
f 169/199/99 223/195/95 182/194/94
f 510/263/163 586/198/98 575/264/164
f 580/192/92 510/263/163 575/264/164
f 186/157/59 233/159/61 189/190/90
f 427/241/141 468/248/148 466/239/139
f 246/175/75 109/253/153 248/236/136
f 193/187/87 262/189/89 226/243/143
f 494/265/165 530/186/86 528/266/166
f 526/178/78 494/265/165 528/266/166
f 230/251/151 266/267/167 234/268/168
f 492/180/80 523/179/79 521/181/81
f 139/250/150 256/244/144 254/238/138
f 239/172/72 274/269/169 269/165/65
f 268/171/71 234/268/168 266/267/167
f 487/161/63 482/223/123 499/224/124
f 278/270/170 283/154/56 281/230/130
f 213/229/129 157/259/159 217/258/158
f 279/271/3 480/271/171 280/271/3
f 277/271/172 280/271/3 278/271/172
f 275/271/173 278/271/172 276/271/173
f 274/271/174 275/271/173 276/271/173
f 268/271/175 273/271/174 274/271/174
f 265/271/176 268/271/175 266/271/176
f 266/271/176 263/271/177 265/271/176
f 262/271/178 263/271/177 264/271/177
f 260/271/179 261/271/178 262/271/178
f 233/271/180 259/271/179 260/271/179
f 225/271/181 232/271/180 233/271/180
f 223/271/182 224/271/181 225/271/181
f 221/271/183 222/271/182 223/271/182
f 220/271/183 219/271/184 218/271/184
f 218/271/184 213/271/185 212/271/185
f 212/271/185 217/271/186 216/271/186
f 215/271/187 216/271/186 217/271/186
f 214/271/187 250/271/188 249/271/188
f 249/271/188 242/271/189 241/271/189
f 244/271/190 241/271/189 242/271/189
f 243/271/190 246/271/191 245/271/191
f 246/271/191 247/271/192 245/271/191
f 247/271/192 252/271/193 251/271/193
f 251/271/193 254/271/194 253/271/194
f 253/271/194 256/271/195 255/271/195
f 255/271/195 258/271/2 257/271/2
f 257/271/2 464/271/196 463/271/196
f 464/271/196 465/271/197 463/271/196
f 465/271/197 468/271/198 467/271/198
f 467/271/198 470/271/199 469/271/199
f 470/271/199 471/271/200 469/271/199
f 471/271/200 474/271/201 473/271/201
f 473/271/201 476/271/202 475/271/202
f 475/271/202 478/271/203 477/271/203
f 477/271/203 504/271/204 503/271/204
f 503/271/204 506/271/205 505/271/205
f 505/271/205 508/271/206 507/271/206
f 507/271/206 512/271/207 511/271/207
f 511/271/207 514/271/208 513/271/208
f 513/271/208 516/271/209 515/271/209
f 510/271/210 515/271/209 516/271/209
f 509/271/210 518/271/211 517/271/211
f 517/271/211 496/271/212 495/271/212
f 498/271/213 495/271/212 496/271/212
f 498/271/213 493/271/214 497/271/213
f 490/271/215 493/271/214 494/271/214
f 490/271/215 491/271/216 489/271/215
f 484/271/217 491/271/216 492/271/216
f 484/271/217 481/271/218 483/271/217
f 479/271/171 482/271/218 480/271/171
f 158/259/219 173/257/220 157/259/221
f 524/179/222 521/181/223 523/179/224
f 425/240/225 423/272/226 426/240/227
f 519/169/228 522/181/229 520/169/230
f 169/199/231 183/194/232 181/273/233
f 185/274/234 186/157/235 187/157/236
f 137/237/237 136/275/238 138/237/239
f 139/250/240 138/237/239 140/250/241
f 177/221/242 172/218/243 178/221/244
f 576/264/245 580/192/246 575/264/247
f 236/268/248 237/173/249 238/173/250
f 230/251/251 229/276/252 228/252/253
f 111/234/254 110/253/255 112/234/256
f 580/192/246 579/277/257 578/193/258
f 179/278/259 178/221/244 180/278/260
f 562/262/261 561/279/262 563/262/263
f 147/280/264 140/250/241 148/280/265
f 168/281/266 169/199/231 170/199/267
f 284/164/268 486/282/269 286/164/270
f 175/283/271 174/257/272 176/283/273
f 164/206/274 168/284/266 166/285/275
f 284/156/268 285/154/276 283/154/277
f 183/286/232 184/274/278 185/274/234
f 193/187/279 227/287/280 195/288/281
f 487/161/282 500/224/283 488/161/284
f 149/245/285 148/280/265 150/245/286
f 180/278/260 103/256/287 179/278/259
f 227/243/280 228/252/253 229/276/252
f 485/162/288 488/161/284 486/162/269
f 501/170/289 520/169/230 502/170/290
f 282/230/291 283/154/277 285/289/276
f 163/290/292 164/206/274 165/206/293
f 281/230/294 272/167/295 271/167/296
f 582/182/297 583/291/298 531/186/299
f 105/174/300 104/256/301 106/174/302
f 234/268/303 235/292/304 231/251/305
f 578/193/258 573/184/306 577/193/307
f 420/247/308 150/245/286 421/247/221
f 160/293/309 162/228/310 163/228/292
f 107/294/311 106/174/302 108/294/312
f 531/295/299 528/266/313 530/186/314
f 192/296/315 193/187/279 194/187/316
f 564/204/317 563/262/263 565/204/318
f 567/205/319 568/297/320 569/202/321
f 502/170/290 499/224/322 501/170/289
f 190/190/323 191/296/324 192/296/315
f 574/184/325 582/182/297 573/184/306
f 159/298/326 161/299/327 158/259/219
f 571/197/328 570/300/329 572/197/330
f 270/165/331 271/167/296 272/301/295
f 425/240/225 426/240/227 427/241/332
f 269/165/333 240/172/334 239/172/335
f 526/178/336 525/302/337 524/179/222
f 422/272/338 421/247/221 423/272/226
f 526/178/336 529/266/339 527/303/340
f 566/205/341 565/204/318 567/304/319
f 585/305/342 586/198/343 572/197/330
f 109/253/344 108/294/312 110/253/255
f 186/157/235 190/190/323 188/306/345
f 135/275/346 112/234/256 136/275/238
f 575/264/247 587/307/347 576/264/245
f 238/173/250 239/172/335 240/172/334
f 176/283/273 171/218/348 175/283/271
f 143/154/56 132/155/349 145/156/350
f 29/157/59 94/158/60 96/159/351
f 400/160/62 418/161/63 416/162/64
f 132/163/349 416/162/64 145/164/350
f 123/165/65 128/166/352 133/167/353
f 404/168/354 433/169/69 415/170/70
f 101/172/72 122/171/355 126/269/356
f 37/174/74 72/175/357 70/176/76
f 408/177/358 436/178/78 435/179/79
f 433/169/69 406/180/359 434/181/360
f 459/182/82 412/183/83 460/184/84
f 410/185/85 459/182/82 438/186/361
f 35/187/87 114/188/362 116/189/89
f 114/188/362 31/190/363 96/159/351
f 430/191/91 458/192/92 457/193/93
f 94/158/60 25/194/94 58/195/95
f 412/183/83 457/193/93 460/184/84
f 397/196/96 461/197/97 462/198/98
f 23/199/99 56/200/364 58/195/95
f 461/197/97 395/201/101 453/202/102
f 393/203/365 451/204/366 452/205/105
f 56/200/364 9/206/106 54/207/367
f 387/208/368 446/209/109 447/210/110
f 389/211/369 448/212/112 449/213/370
f 445/214/371 379/215/115 444/216/372
f 50/217/117 17/218/118 76/219/373
f 381/220/374 445/214/371 446/209/109
f 19/221/375 78/222/376 76/219/373
f 402/223/123 415/170/70 424/224/377
f 377/225/378 385/226/126 398/227/127
f 7/228/379 52/229/380 54/207/367
f 128/166/352 141/230/130 133/167/353
f 373/231/131 382/232/132 383/233/133
f 43/234/134 80/235/381 74/236/136
f 80/235/381 59/237/137 82/238/138
f 369/239/382 362/240/140 364/241/141
f 118/242/383 87/243/384 116/189/89
f 84/244/144 67/245/145 86/246/385
f 67/245/145 358/247/147 86/246/385
f 371/248/148 382/232/132 373/231/131
f 367/249/149 362/240/140 369/239/382
f 59/237/137 63/250/150 82/238/138
f 118/242/383 91/251/151 89/252/386
f 41/253/153 43/234/134 74/236/136
f 375/254/154 383/233/133 384/255/155
f 385/226/126 375/254/154 384/255/155
f 45/256/156 37/174/74 70/176/76
f 379/215/115 398/227/127 444/216/372
f 78/222/376 45/256/156 70/176/76
f 17/218/118 19/221/375 76/219/373
f 13/257/157 50/217/117 48/258/158
f 387/208/368 448/212/112 389/211/369
f 3/259/387 13/257/157 48/258/158
f 391/260/160 449/213/370 450/262/388
f 451/204/366 391/260/160 450/262/388
f 7/228/379 54/207/367 9/206/106
f 395/201/101 452/205/105 453/202/102
f 358/247/147 367/249/149 86/246/385
f 23/199/99 58/195/95 25/194/94
f 432/263/163 462/198/98 456/264/164
f 458/192/92 432/263/163 456/264/164
f 29/157/59 96/159/351 31/190/363
f 364/241/141 371/248/148 369/239/382
f 72/175/357 41/253/153 74/236/136
f 35/187/87 116/189/89 87/243/384
f 414/265/389 438/186/361 437/266/390
f 436/178/78 414/265/389 437/266/390
f 91/251/151 120/267/391 97/268/168
f 406/180/359 435/179/79 434/181/360
f 63/250/150 84/244/144 82/238/138
f 126/269/356 123/165/65 101/172/72
f 122/171/355 97/268/168 120/267/391
f 418/161/63 402/223/123 424/224/377
f 130/270/392 143/154/56 141/230/130
f 52/229/380 3/259/387 48/258/158
f 131/271/3 400/271/171 132/271/3
f 129/271/172 132/271/3 130/271/172
f 127/271/173 130/271/172 128/271/173
f 126/271/174 127/271/173 128/271/173
f 122/271/175 125/271/174 126/271/174
f 119/271/176 122/271/175 120/271/176
f 118/271/177 119/271/176 120/271/176
f 116/271/178 117/271/177 118/271/177
f 114/271/179 115/271/178 116/271/178
f 96/271/180 113/271/179 114/271/179
f 94/271/181 95/271/180 96/271/180
f 58/271/182 93/271/181 94/271/181
f 56/271/183 57/271/182 58/271/182
f 54/271/184 55/271/183 56/271/183
f 53/271/184 52/271/185 51/271/185
f 51/271/185 48/271/186 47/271/186
f 47/271/186 50/271/187 49/271/187
f 49/271/187 76/271/188 75/271/188
f 75/271/188 78/271/189 77/271/189
f 70/271/190 77/271/189 78/271/189
f 69/271/190 72/271/191 71/271/191
f 72/271/191 73/271/192 71/271/191
f 73/271/192 80/271/193 79/271/193
f 79/271/193 82/271/194 81/271/194
f 81/271/194 84/271/195 83/271/195
f 83/271/195 86/271/2 85/271/2
f 86/271/2 366/271/196 85/271/2
f 367/271/196 368/271/197 366/271/196
f 368/271/197 371/271/198 370/271/198
f 370/271/198 373/271/199 372/271/199
f 373/271/199 374/271/200 372/271/199
f 374/271/200 377/271/201 376/271/201
f 376/271/201 379/271/202 378/271/202
f 378/271/202 381/271/203 380/271/203
f 380/271/203 387/271/204 386/271/204
f 386/271/204 389/271/205 388/271/205
f 388/271/205 391/271/206 390/271/206
f 390/271/206 393/271/207 392/271/207
f 392/271/207 395/271/208 394/271/208
f 394/271/208 397/271/209 396/271/209
f 396/271/209 432/271/210 431/271/210
f 431/271/210 430/271/211 429/271/211
f 429/271/211 412/271/212 411/271/212
f 410/271/213 411/271/212 412/271/212
f 410/271/213 413/271/214 409/271/213
f 408/271/215 413/271/214 414/271/214
f 405/271/216 408/271/215 406/271/216
f 406/271/216 403/271/217 405/271/216
f 404/271/217 401/271/218 403/271/217
f 399/271/171 402/271/218 400/271/171
f 4/259/393 13/257/394 3/259/395
f 362/240/225 361/272/396 363/240/227
f 26/194/397 23/199/398 25/194/399
f 30/157/400 27/274/401 29/157/402
f 59/237/237 62/275/403 60/237/239
f 63/250/240 60/237/239 64/250/241
f 19/221/242 18/218/404 20/221/244
f 100/173/405 97/268/406 99/173/405
f 92/251/407 89/252/408 91/251/409
f 43/234/410 42/253/255 44/234/411
f 21/278/412 20/221/244 22/278/413
f 65/280/414 64/250/241 66/280/415
f 24/199/416 11/284/417 23/199/398
f 417/162/418 145/164/419 416/162/420
f 15/283/421 14/257/422 16/283/423
f 12/284/424 9/206/425 11/284/417
f 146/156/426 143/154/427 145/156/419
f 28/274/428 25/194/399 27/274/401
f 88/243/429 35/187/430 87/243/431
f 418/161/432 424/224/433 419/161/434
f 67/245/285 66/280/415 68/245/286
f 45/256/287 22/278/413 46/256/301
f 90/252/435 87/243/431 89/252/408
f 419/161/434 416/162/420 418/161/432
f 144/154/436 141/230/437 143/154/427
f 10/206/438 7/228/439 9/206/425
f 142/230/440 133/167/441 141/230/437
f 46/256/301 37/174/300 45/256/287
f 98/268/442 91/251/409 97/268/406
f 358/247/308 68/245/286 359/247/221
f 8/228/443 5/298/444 7/228/439
f 39/294/311 38/174/302 40/294/445
f 36/187/446 33/296/447 35/187/430
f 34/296/448 31/190/449 33/296/447
f 3/259/395 6/298/450 4/259/393
f 134/167/451 123/165/452 133/167/441
f 362/240/225 363/240/227 364/241/332
f 124/165/453 101/172/454 123/165/452
f 360/272/455 359/247/221 361/272/396
f 40/294/445 41/253/456 39/294/311
f 32/190/457 29/157/402 31/190/449
f 61/275/403 44/234/411 62/275/403
f 102/172/458 99/173/405 101/172/454
f 17/218/348 16/283/423 18/218/404
s 0
f 306/308/6 297/309/6 300/310/6
f 544/311/459 551/312/459 543/313/459
f 543/313/460 550/314/460 542/315/460
f 538/316/461 550/314/461 537/317/461
f 537/317/462 548/318/462 536/319/462
f 536/319/463 547/320/463 535/321/463
f 535/321/464 541/322/464 534/323/464
f 534/324/465 540/325/465 533/326/465
f 533/326/466 539/327/466 532/328/466
f 292/329/467 539/327/467 305/330/467
f 291/331/468 305/330/468 304/332/468
f 287/333/469 304/334/469 298/335/469
f 290/336/470 298/335/470 303/337/470
f 289/338/471 303/337/471 302/339/471
f 288/340/472 302/339/472 296/341/472
f 293/342/473 301/343/473 299/344/473
f 294/345/474 299/344/474 300/310/474
f 610/346/475 614/347/475 611/348/475
f 611/349/476 615/350/476 612/351/476
f 612/352/477 622/353/477 616/354/477
f 616/355/478 623/356/478 617/357/478
f 617/358/479 626/359/479 620/360/479
f 620/361/480 627/362/480 621/363/480
f 621/364/481 625/365/481 619/366/481
f 619/367/482 624/368/482 618/369/482
f 342/370/483 349/371/483 343/372/483
f 343/373/484 350/374/484 344/375/484
f 344/376/485 351/377/485 345/378/485
f 345/379/486 352/380/486 346/381/486
f 346/382/487 353/383/487 347/384/487
f 347/385/488 356/386/488 354/387/488
f 354/388/489 357/389/489 355/390/489
f 355/391/490 613/392/490 610/393/490
f 554/369/5 552/394/5 553/395/5
f 203/1/1 205/396/1 603/2/1
f 207/4/2 605/153/2 603/2/2
f 1/6/3 454/3/3 455/7/3
f 431/397/1 429/398/1 454/3/1
f 203/1/4 411/399/4 409/400/4
f 203/1/1 409/400/1 413/401/1
f 396/402/1 431/397/1 454/3/1
f 394/403/1 396/402/1 454/3/1
f 203/1/1 413/401/1 407/404/1
f 203/1/1 407/404/1 405/405/1
f 392/406/1 394/403/1 454/3/1
f 390/407/1 392/406/1 454/3/1
f 203/1/1 405/405/1 403/408/1
f 203/1/1 403/408/1 401/409/1
f 388/397/1 390/407/1 454/3/1
f 386/410/1 388/397/1 454/3/1
f 203/1/1 401/409/1 399/411/1
f 203/1/1 399/411/1 131/412/1
f 380/413/1 386/410/1 454/3/1
f 378/400/1 380/413/1 454/3/1
f 203/1/1 131/412/1 129/414/1
f 203/1/1 129/414/1 127/415/1
f 376/416/1 378/400/1 454/3/1
f 374/417/1 376/416/1 454/3/1
f 203/1/1 127/415/1 125/418/1
f 203/1/1 125/418/1 121/419/1
f 374/417/1 454/3/1 1/1/1
f 372/420/1 374/417/1 1/1/1
f 203/1/1 121/419/1 119/421/1
f 203/1/1 119/421/1 117/422/1
f 370/423/1 372/420/1 1/1/1
f 368/424/1 370/423/1 1/1/1
f 203/1/1 117/422/1 115/425/1
f 203/1/1 115/425/1 113/10/1
f 366/426/1 368/424/1 1/1/1
f 85/427/1 366/426/1 1/1/1
f 1/1/1 203/1/1 113/10/1
f 1/1/4 113/10/4 95/428/4
f 83/429/1 85/427/1 1/1/1
f 81/415/1 83/429/1 1/1/1
f 1/1/1 95/428/1 93/430/1
f 1/1/1 93/430/1 57/431/1
f 79/432/1 81/415/1 1/1/1
f 73/419/1 79/432/1 1/1/1
f 1/1/1 57/431/1 55/433/1
f 1/1/1 55/433/1 53/434/1
f 71/435/1 73/419/1 1/1/1
f 69/436/1 71/435/1 1/1/1
f 1/1/1 53/434/1 51/437/1
f 1/1/1 51/437/1 47/438/1
f 77/425/1 69/436/1 1/1/1
f 75/10/1 77/425/1 1/1/1
f 1/1/1 47/438/1 49/9/1
f 515/439/491 509/12/491 454/3/491
f 454/3/492 429/398/492 411/399/492
f 601/3/1 495/413/1 497/440/1
f 601/3/1 497/440/1 493/401/1
f 454/3/1 411/399/1 203/1/1
f 513/406/1 515/439/1 454/3/1
f 511/403/1 513/406/1 454/3/1
f 203/1/1 601/3/1 493/401/1
f 203/1/4 493/401/4 489/417/4
f 507/439/1 511/403/1 454/3/1
f 505/397/4 507/439/4 454/3/4
f 203/1/1 489/417/1 491/405/1
f 203/1/1 491/405/1 483/441/1
f 503/442/1 505/397/1 454/3/1
f 477/413/1 503/442/1 454/3/1
f 203/1/1 483/441/1 481/424/1
f 203/1/1 481/424/1 479/443/1
f 475/400/1 477/413/1 454/3/1
f 473/401/1 475/400/1 454/3/1
f 203/1/1 479/443/1 279/444/1
f 203/1/1 279/444/1 277/445/1
f 471/446/1 473/401/1 454/3/1
f 469/420/1 471/446/1 454/3/1
f 203/1/1 277/445/1 275/447/1
f 203/1/1 275/447/1 273/418/1
f 467/408/1 469/420/1 454/3/1
f 465/424/1 467/408/1 454/3/1
f 203/1/1 273/418/1 267/448/1
f 203/1/1 267/448/1 265/449/1
f 463/426/1 465/424/1 454/3/1
f 257/450/1 463/426/1 454/3/1
f 203/1/1 265/449/1 263/451/1
f 203/1/1 263/451/1 261/425/1
f 255/452/1 257/450/1 454/3/1
f 253/453/1 255/452/1 454/3/1
f 203/1/1 261/425/1 259/10/1
f 203/1/1 259/10/1 232/454/1
f 251/455/1 253/453/1 454/3/1
f 247/419/1 251/455/1 454/3/1
f 203/1/1 232/454/1 224/438/1
f 203/1/1 224/438/1 222/456/1
f 245/457/1 247/419/1 454/3/1
f 243/422/1 245/457/1 454/3/1
f 203/1/1 222/456/1 220/458/1
f 203/1/1 220/458/1 218/459/1
f 241/460/1 243/422/1 454/3/1
f 249/10/1 241/460/1 454/3/1
f 203/1/1 218/459/1 212/461/1
f 203/1/1 212/461/1 216/438/1
f 214/11/493 249/10/493 454/3/493
f 203/1/4 216/438/4 214/11/4
f 601/3/1 454/3/1 509/12/1
f 517/13/1 495/413/1 601/3/1
f 206/8/5 204/8/5 151/8/5
f 206/8/5 151/8/5 152/8/5
f 210/87/5 211/86/5 206/8/5
f 209/92/5 210/87/5 206/8/5
f 206/8/5 152/8/5 153/123/5
f 206/8/5 153/123/5 154/8/5
f 208/96/5 209/92/5 206/8/5
f 202/99/5 208/96/5 206/8/5
f 206/8/5 154/8/5 155/8/5
f 206/8/5 155/8/5 156/8/5
f 201/106/5 202/99/5 206/8/5
f 200/109/5 201/106/5 206/8/5
f 206/8/5 156/8/5 196/8/5
f 206/8/5 196/8/5 197/8/5
f 199/14/5 200/109/5 206/8/5
f 206/8/5 197/8/5 198/8/5
f 589/131/6 588/7/6 602/17/6
f 602/17/6 604/144/6 609/88/6
f 602/17/6 609/88/6 608/90/6
f 590/127/6 589/131/6 602/17/6
f 591/121/6 590/127/6 602/17/6
f 602/17/6 608/90/6 607/94/6
f 602/17/6 607/94/6 606/98/6
f 592/116/6 591/121/6 602/17/6
f 593/462/6 592/116/6 602/17/6
f 602/17/6 606/98/6 600/103/6
f 602/17/6 600/103/6 599/107/6
f 594/111/6 593/462/6 602/17/6
f 595/110/6 594/111/6 602/17/6
f 602/17/6 599/107/6 598/108/6
f 602/17/6 598/108/6 597/15/6
f 596/16/6 595/110/6 602/17/6
f 338/18/7 339/463/7 341/19/7
f 335/21/8 338/18/8 340/20/8
f 334/23/9 335/21/9 337/22/9
f 331/25/10 334/23/10 336/24/10
f 330/27/11 331/25/11 333/26/11
f 327/29/12 330/27/12 332/28/12
f 326/31/13 327/29/13 329/30/13
f 323/33/14 326/31/14 328/32/14
f 322/35/494 323/464/494 325/36/494
f 314/38/16 322/35/16 324/37/16
f 313/40/17 314/38/17 321/39/17
f 312/42/18 313/40/18 320/41/18
f 311/44/19 312/42/19 319/43/19
f 310/46/20 311/44/20 318/45/20
f 309/48/21 310/46/21 317/47/21
f 308/50/22 309/48/22 316/49/22
f 628/52/23 629/55/23 631/53/23
f 629/55/24 632/57/24 634/56/24
f 632/57/25 633/59/25 635/58/25
f 633/59/26 636/61/26 638/60/26
f 636/61/27 637/63/27 639/62/27
f 637/63/28 640/65/28 642/64/28
f 640/65/29 641/67/29 643/66/29
f 641/67/30 644/69/30 646/68/30
f 644/69/495 645/71/495 647/70/495
f 645/71/32 653/73/32 660/72/32
f 653/73/33 654/75/33 661/74/33
f 654/75/34 650/77/34 657/76/34
f 650/77/35 652/79/35 659/78/35
f 652/79/36 651/81/36 658/80/36
f 651/81/37 649/83/37 656/82/37
f 649/83/38 648/145/38 655/84/38
f 306/85/39 307/465/39 211/86/39
f 609/88/39 554/466/39 553/89/39
f 297/91/40 306/85/40 210/87/40
f 608/90/40 553/467/40 546/93/40
f 295/95/41 297/468/41 209/92/41
f 607/94/41 546/469/41 545/97/41
f 295/95/42 208/96/42 202/99/42
f 202/99/42 288/470/42 296/471/42
f 202/99/42 296/471/42 293/100/42
f 294/101/42 295/95/42 202/99/42
f 542/472/42 538/473/42 600/103/42
f 600/103/42 606/98/42 545/97/42
f 600/103/42 545/97/42 544/104/42
f 543/102/42 542/472/42 600/103/42
f 289/474/43 288/470/43 202/99/43
f 599/107/43 600/103/43 538/475/43
f 599/107/43 538/475/43 537/476/43
f 289/474/43 202/99/43 201/106/43
f 290/477/43 289/474/43 201/106/43
f 599/107/43 537/476/43 536/478/43
f 599/107/43 536/478/43 535/479/43
f 287/480/43 290/477/43 201/106/43
f 291/481/43 287/480/43 201/106/43
f 599/107/43 535/479/43 534/482/43
f 599/107/43 534/482/43 533/483/43
f 292/484/43 291/481/43 201/106/43
f 599/107/43 533/483/43 532/105/43
f 532/105/43 292/484/43 201/106/43
f 201/106/44 200/109/44 598/108/44
f 200/109/45 199/14/45 597/15/45
f 199/14/46 198/8/46 596/16/46
f 198/8/47 197/8/47 595/110/47
f 197/8/48 196/8/48 594/111/48
f 196/8/49 156/8/49 235/485/49
f 196/8/49 235/485/49 236/486/49
f 525/487/49 593/462/49 594/111/49
f 524/488/49 525/487/49 594/111/49
f 196/8/49 236/486/49 238/489/49
f 196/8/49 238/489/49 240/490/49
f 522/491/49 524/488/49 594/111/49
f 520/492/49 522/491/49 594/111/49
f 196/8/49 240/490/49 270/493/49
f 196/8/49 270/493/49 272/494/49
f 502/495/49 520/492/49 594/111/49
f 500/496/49 502/495/49 594/111/49
f 196/8/49 272/494/49 282/497/49
f 196/8/49 282/497/49 285/498/49
f 488/499/49 500/496/49 594/111/49
f 486/500/49 488/499/49 594/111/49
f 196/8/49 285/498/49 286/112/49
f 286/112/49 486/500/49 594/111/49
f 235/485/50 156/8/50 155/8/50
f 155/8/50 195/501/50 227/502/50
f 155/8/50 227/502/50 229/113/50
f 231/114/50 235/485/50 155/8/50
f 531/503/50 583/504/50 592/116/50
f 592/116/50 593/462/50 525/505/50
f 592/116/50 525/505/50 527/117/50
f 529/115/50 531/503/50 592/116/50
f 195/501/51 155/8/51 154/8/51
f 154/8/51 188/506/51 190/507/51
f 154/8/51 190/507/51 192/118/51
f 194/119/51 195/501/51 154/8/51
f 578/508/51 579/509/51 591/121/51
f 591/121/51 592/116/51 583/510/51
f 591/121/51 583/510/51 584/122/51
f 574/120/51 578/508/51 591/121/51
f 188/511/52 154/8/52 153/123/52
f 153/123/52 181/512/52 183/513/52
f 153/123/52 183/513/52 185/124/52
f 187/125/52 188/511/52 153/123/52
f 587/514/52 585/132/52 590/127/52
f 590/127/52 591/121/52 579/509/52
f 590/127/52 579/509/52 581/128/52
f 576/126/52 587/514/52 590/127/52
f 181/515/53 153/123/53 152/8/53
f 152/8/53 166/516/53 168/129/53
f 170/130/53 181/515/53 152/8/53
f 570/517/53 568/518/53 589/131/53
f 589/131/53 590/127/53 585/132/53
f 572/133/53 570/517/53 589/131/53
f 166/519/54 152/8/54 151/8/54
f 151/8/54 161/520/54 160/521/54
f 151/8/54 160/521/54 163/134/54
f 165/135/54 166/519/54 151/8/54
f 563/522/54 561/523/54 588/7/54
f 588/7/54 589/131/54 568/524/54
f 588/7/54 568/524/54 567/137/54
f 565/136/54 563/522/54 588/7/54
f 652/79/3 650/77/3 654/75/3
f 654/75/3 653/73/3 645/71/3
f 645/71/3 644/69/3 641/67/3
f 641/67/3 640/65/3 637/63/3
f 637/63/3 636/61/3 633/59/3
f 633/59/3 632/57/3 629/55/3
f 629/55/3 628/52/3 339/525/3
f 339/525/3 338/526/3 335/527/3
f 335/527/3 334/528/3 331/529/3
f 331/529/3 330/530/3 327/531/3
f 327/531/3 326/532/3 323/533/3
f 323/533/3 322/534/3 314/535/3
f 314/535/3 313/536/3 312/537/3
f 312/537/3 311/538/3 310/539/3
f 310/539/3 309/540/3 308/541/3
f 308/541/3 211/86/3 307/465/3
f 308/541/3 307/465/3 342/542/3
f 312/537/3 310/539/3 308/541/3
f 323/533/3 314/535/3 312/537/3
f 331/529/3 327/531/3 323/533/3
f 339/525/3 335/527/3 331/529/3
f 633/59/3 629/55/3 339/525/3
f 641/67/3 637/63/3 633/59/3
f 654/75/3 645/71/3 641/67/3
f 651/81/3 652/79/3 654/75/3
f 648/145/3 649/83/3 651/81/3
f 554/543/3 609/88/3 648/145/3
f 618/544/3 554/543/3 648/145/3
f 648/145/3 651/81/3 654/75/3
f 654/75/3 641/67/3 633/59/3
f 633/59/3 339/525/3 331/529/3
f 331/529/3 323/533/3 312/537/3
f 312/537/3 308/541/3 342/542/3
f 312/537/3 342/542/3 343/545/3
f 633/59/3 331/529/3 312/537/3
f 648/145/3 654/75/3 633/59/3
f 619/546/3 618/544/3 648/145/3
f 621/547/3 619/546/3 648/145/3
f 312/537/3 343/545/3 344/548/3
f 312/537/3 344/548/3 345/549/3
f 621/547/3 648/145/3 633/59/3
f 620/550/3 621/547/3 633/59/3
f 312/537/3 345/549/3 346/551/3
f 312/537/3 346/551/3 347/552/3
f 617/553/3 620/550/3 633/59/3
f 616/554/3 617/553/3 633/59/3
f 633/59/3 312/537/3 347/552/3
f 633/59/3 347/552/3 354/555/3
f 612/556/3 616/554/3 633/59/3
f 611/557/3 612/556/3 633/59/3
f 633/59/3 354/555/3 355/138/3
f 610/139/3 611/557/3 633/59/3
f 315/51/5 207/4/5 206/140/5
f 206/140/5 211/558/5 308/50/5
f 341/19/55 339/463/55 628/52/55
f 552/559/2 624/560/2 605/153/2
f 207/4/2 315/51/2 316/49/2
f 316/49/2 317/47/2 318/45/2
f 318/45/2 319/43/2 320/41/2
f 320/41/2 321/39/2 324/37/2
f 324/37/2 325/36/2 328/561/2
f 328/561/2 329/562/2 332/563/2
f 332/563/2 333/564/2 336/565/2
f 336/565/2 337/566/2 340/567/2
f 340/567/2 341/568/2 630/54/2
f 630/54/2 631/53/2 634/56/2
f 634/56/2 635/58/2 638/60/2
f 638/60/2 639/62/2 642/64/2
f 642/64/2 643/66/2 646/68/2
f 646/68/2 647/70/2 660/72/2
f 660/72/2 661/74/2 657/76/2
f 657/76/2 659/78/2 627/569/2
f 657/76/2 627/569/2 626/570/2
f 646/68/2 660/72/2 657/76/2
f 638/60/2 642/64/2 646/68/2
f 630/54/2 634/56/2 638/60/2
f 336/565/2 340/567/2 630/54/2
f 328/561/2 332/563/2 336/565/2
f 320/41/2 324/37/2 328/561/2
f 316/49/2 318/45/2 320/41/2
f 551/571/2 552/559/2 605/153/2
f 550/572/2 551/571/2 605/153/2
f 207/4/2 316/49/2 320/41/2
f 320/41/2 328/561/2 336/565/2
f 336/565/2 630/54/2 638/60/2
f 638/60/2 646/68/2 657/76/2
f 657/76/2 626/570/2 623/573/2
f 657/76/2 623/573/2 622/574/2
f 336/565/2 638/60/2 657/76/2
f 207/4/2 320/41/2 336/565/2
f 549/575/2 550/572/2 605/153/2
f 548/576/2 549/575/2 605/153/2
f 336/565/2 657/76/2 622/574/2
f 336/565/2 622/574/2 615/577/2
f 547/578/2 548/576/2 605/153/2
f 541/579/2 547/578/2 605/153/2
f 336/565/2 615/577/2 614/580/2
f 336/565/2 614/580/2 613/581/2
f 541/579/2 605/153/2 207/4/2
f 540/582/2 541/579/2 207/4/2
f 336/565/2 613/581/2 357/583/2
f 336/565/2 357/583/2 356/584/2
f 539/585/2 540/582/2 207/4/2
f 305/586/2 539/585/2 207/4/2
f 336/565/2 356/584/2 353/587/2
f 336/565/2 353/587/2 352/588/2
f 304/589/2 305/586/2 207/4/2
f 298/590/2 304/589/2 207/4/2
f 336/565/2 352/588/2 351/591/2
f 336/565/2 351/591/2 350/592/2
f 303/593/2 298/590/2 207/4/2
f 302/594/2 303/593/2 207/4/2
f 336/565/2 350/592/2 349/595/2
f 336/565/2 349/595/2 348/141/2
f 301/596/2 302/594/2 207/4/2
f 299/597/2 301/596/2 207/4/2
f 207/4/2 336/565/2 348/141/2
f 300/142/2 299/597/2 207/4/2
f 658/80/2 656/82/2 655/84/2
f 655/84/2 605/153/2 624/560/2
f 625/143/2 627/569/2 659/78/2
f 655/84/2 624/560/2 625/143/2
f 659/78/2 658/80/2 655/84/2
f 648/145/6 609/88/6 604/144/6
f 604/144/6 605/153/6 655/84/6
f 205/5/5 203/152/5 204/146/5
f 204/146/5 206/140/5 207/4/5
f 451/598/55 450/599/55 455/7/55
f 455/7/55 588/7/55 462/600/55
f 455/7/55 462/600/55 461/601/55
f 452/148/55 451/598/55 455/7/55
f 455/7/55 461/601/55 453/147/55
f 158/602/55 161/603/55 151/8/55
f 455/7/55 450/599/55 449/604/55
f 455/7/55 449/604/55 448/605/55
f 158/602/55 151/8/55 2/8/55
f 174/606/55 158/602/55 2/8/55
f 455/7/55 448/605/55 447/607/55
f 455/7/55 447/607/55 446/608/55
f 176/609/55 174/606/55 2/8/55
f 172/610/55 176/609/55 2/8/55
f 455/7/55 446/608/55 445/611/55
f 455/7/55 445/611/55 444/612/55
f 178/613/55 172/610/55 2/8/55
f 180/614/55 178/613/55 2/8/55
f 455/7/55 444/612/55 398/615/55
f 455/7/55 398/615/55 385/616/55
f 104/617/55 180/614/55 2/8/55
f 106/618/55 104/617/55 2/8/55
f 455/7/55 385/616/55 384/619/55
f 455/7/55 384/619/55 383/620/55
f 108/621/55 106/618/55 2/8/55
f 455/7/55 383/620/55 382/622/55
f 455/7/55 382/622/55 365/623/55
f 588/7/55 561/523/55 560/624/55
f 456/625/55 462/600/55 588/7/55
f 458/626/55 456/625/55 588/7/55
f 588/7/55 560/624/55 559/627/55
f 588/7/55 559/627/55 558/628/55
f 457/629/55 458/626/55 588/7/55
f 460/630/55 457/629/55 588/7/55
f 588/7/55 558/628/55 557/631/55
f 588/7/55 557/631/55 556/611/55
f 459/632/55 460/630/55 588/7/55
f 438/633/55 459/632/55 588/7/55
f 588/7/55 556/611/55 555/634/55
f 588/7/55 555/634/55 443/635/55
f 437/636/55 438/633/55 588/7/55
f 436/637/55 437/636/55 588/7/55
f 588/7/55 443/635/55 442/638/55
f 588/7/55 442/638/55 441/639/55
f 435/640/55 436/637/55 588/7/55
f 434/641/55 435/640/55 588/7/55
f 588/7/496 441/639/496 440/642/496
f 434/641/55 588/7/55 440/642/55
f 433/643/55 434/641/55 440/642/55
f 433/643/55 440/642/55 439/622/55
f 415/644/55 433/643/55 439/622/55
f 415/644/55 439/622/55 428/645/55
f 424/646/55 415/644/55 428/645/55
f 424/646/55 428/645/55 427/647/55
f 419/648/55 424/646/55 427/647/55
f 419/648/55 427/647/55 426/649/55
f 417/650/55 419/648/55 426/649/55
f 417/650/55 426/649/55 423/651/55
f 146/652/55 417/650/55 423/651/55
f 146/652/55 423/651/55 421/653/55
f 144/654/55 146/652/55 421/653/55
f 144/654/55 421/653/55 150/655/55
f 142/656/55 144/654/55 150/655/55
f 142/656/55 150/655/55 148/657/55
f 134/658/55 142/656/55 148/657/55
f 134/658/55 148/657/55 140/659/55
f 124/660/55 134/658/55 140/659/55
f 124/660/55 140/659/55 138/661/55
f 102/662/55 124/660/55 138/661/55
f 102/662/55 138/661/55 136/663/55
f 100/664/55 102/662/55 136/663/55
f 100/664/55 136/663/55 112/665/55
f 98/666/55 100/664/55 112/665/55
f 98/666/55 112/665/55 110/667/55
f 92/668/55 98/666/55 110/667/55
f 455/7/55 365/623/55 364/669/55
f 455/7/55 364/669/55 363/670/55
f 92/668/55 110/667/55 108/621/55
f 90/671/55 92/668/55 108/621/55
f 2/8/55 455/7/55 363/670/55
f 2/8/55 363/670/55 361/651/55
f 88/672/55 90/671/55 108/621/55
f 36/673/55 88/672/55 108/621/55
f 2/8/55 361/651/55 359/674/55
f 2/8/55 359/674/55 68/675/55
f 34/676/55 36/673/55 108/621/55
f 32/677/55 34/676/55 108/621/55
f 2/8/55 68/675/55 66/678/55
f 2/8/55 66/678/55 64/679/55
f 30/680/55 32/677/55 108/621/55
f 28/681/55 30/680/55 108/621/55
f 2/8/55 64/679/55 60/682/55
f 2/8/55 60/682/55 62/683/55
f 28/681/55 108/621/55 2/8/55
f 26/684/55 28/681/55 2/8/55
f 2/8/55 62/683/55 44/685/55
f 2/8/55 44/685/55 42/686/55
f 24/687/55 26/684/55 2/8/55
f 12/688/55 24/687/55 2/8/55
f 2/8/55 42/686/55 40/689/55
f 2/8/55 40/689/55 38/690/55
f 10/691/55 12/688/55 2/8/55
f 8/692/55 10/691/55 2/8/55
f 2/8/55 38/690/55 46/693/55
f 2/8/55 46/693/55 22/694/55
f 6/695/55 8/692/55 2/8/55
f 4/696/55 6/695/55 2/8/55
f 2/8/55 22/694/55 20/697/55
f 2/8/55 20/697/55 18/698/55
f 14/150/55 4/696/55 2/8/55
f 2/8/55 18/698/55 16/149/55
f 203/152/5 1/152/5 2/151/5
f 2/151/5 151/699/5 204/146/5
f 604/144/6 602/17/6 601/3/6
f 601/3/6 603/2/6 605/153/6
f 588/7/6 455/7/6 454/3/6
f 454/3/6 601/3/6 602/17/6
s 1
f 283/154/56 278/270/170 280/155/57
f 186/157/59 184/274/497 225/158/60
f 280/163/57 480/160/62 485/162/64
f 269/165/65 274/269/169 276/166/66
f 268/171/71 274/269/169 239/172/72
f 105/174/74 107/294/498 246/175/75
f 519/169/69 484/168/68 492/180/80
f 582/182/82 498/185/85 496/183/83
f 193/187/87 191/296/499 260/188/88
f 260/188/88 191/296/499 189/190/90
f 225/158/60 184/274/497 182/194/94
f 496/183/83 518/191/91 577/193/93
f 169/199/99 167/284/500 221/200/100
f 571/197/97 516/196/96 514/201/101
f 221/200/100 167/284/500 164/206/106
f 504/208/108 478/220/120 557/209/109
f 556/214/114 478/220/120 476/215/115
f 215/217/117 175/283/501 171/218/118
f 177/221/121 179/278/502 242/222/122
f 482/223/123 484/168/68 501/170/70
f 162/228/128 159/298/503 213/229/129
f 276/166/66 278/270/170 281/230/130
f 111/234/134 135/275/504 252/235/135
f 252/235/135 135/275/504 137/237/137
f 264/242/142 228/252/152 226/243/143
f 256/244/144 147/280/505 149/245/145
f 468/248/148 428/700/506 439/232/132
f 464/249/149 422/272/507 425/240/140
f 264/242/142 266/267/167 230/251/151
f 440/233/133 441/255/155 472/254/154
f 442/226/126 474/225/125 472/254/154
f 476/215/115 474/225/125 443/227/127
f 242/222/122 179/278/502 103/256/156
f 173/257/157 175/283/501 215/217/117
f 504/208/108 558/210/110 559/212/112
f 561/261/161 562/262/162 508/260/160
f 508/260/160 506/211/111 560/213/113
f 564/204/104 512/203/103 508/260/160
f 514/201/101 512/203/103 566/205/105
f 420/247/147 422/272/507 464/249/149
f 510/263/163 516/196/96 586/198/98
f 580/192/92 518/191/91 510/263/163
f 427/241/141 428/700/506 468/248/148
f 246/175/75 107/294/498 109/253/153
f 494/265/165 498/185/85 530/186/86
f 526/178/78 490/177/77 494/265/165
f 492/180/80 490/177/77 523/179/79
f 139/250/150 147/280/505 256/244/144
f 268/171/71 237/173/73 234/268/168
f 487/161/63 480/160/62 482/223/123
f 213/229/129 159/298/503 157/259/159
f 279/271/3 479/271/171 480/271/171
f 277/271/172 279/271/3 280/271/3
f 275/271/173 277/271/172 278/271/172
f 274/271/174 273/271/174 275/271/173
f 268/271/175 267/271/175 273/271/174
f 265/271/176 267/271/175 268/271/175
f 266/271/176 264/271/177 263/271/177
f 262/271/178 261/271/178 263/271/177
f 260/271/179 259/271/179 261/271/178
f 233/271/180 232/271/180 259/271/179
f 225/271/181 224/271/181 232/271/180
f 223/271/182 222/271/182 224/271/181
f 221/271/183 220/271/183 222/271/182
f 220/271/183 221/271/183 219/271/184
f 218/271/184 219/271/184 213/271/185
f 212/271/185 213/271/185 217/271/186
f 215/271/187 214/271/187 216/271/186
f 214/271/187 215/271/187 250/271/188
f 249/271/188 250/271/188 242/271/189
f 244/271/190 243/271/190 241/271/189
f 243/271/190 244/271/190 246/271/191
f 246/271/191 248/271/192 247/271/192
f 247/271/192 248/271/192 252/271/193
f 251/271/193 252/271/193 254/271/194
f 253/271/194 254/271/194 256/271/195
f 255/271/195 256/271/195 258/271/2
f 257/271/2 258/271/2 464/271/196
f 464/271/196 466/271/197 465/271/197
f 465/271/197 466/271/197 468/271/198
f 467/271/198 468/271/198 470/271/199
f 470/271/199 472/271/200 471/271/200
f 471/271/200 472/271/200 474/271/201
f 473/271/201 474/271/201 476/271/202
f 475/271/202 476/271/202 478/271/203
f 477/271/203 478/271/203 504/271/204
f 503/271/204 504/271/204 506/271/205
f 505/271/205 506/271/205 508/271/206
f 507/271/206 508/271/206 512/271/207
f 511/271/207 512/271/207 514/271/208
f 513/271/208 514/271/208 516/271/209
f 510/271/210 509/271/210 515/271/209
f 509/271/210 510/271/210 518/271/211
f 517/271/211 518/271/211 496/271/212
f 498/271/213 497/271/213 495/271/212
f 498/271/213 494/271/214 493/271/214
f 490/271/215 489/271/215 493/271/214
f 490/271/215 492/271/216 491/271/216
f 484/271/217 483/271/217 491/271/216
f 484/271/217 482/271/218 481/271/218
f 479/271/171 481/271/218 482/271/218
f 158/259/219 174/257/272 173/257/220
f 524/179/222 522/181/229 521/181/223
f 425/240/225 422/272/338 423/272/226
f 519/169/228 521/181/223 522/181/229
f 181/273/233 170/701/267 169/199/231
f 169/199/231 182/194/508 183/194/232
f 185/274/234 184/274/278 186/157/235
f 137/237/237 135/275/346 136/275/238
f 139/250/240 137/237/237 138/237/239
f 177/221/242 171/218/348 172/218/243
f 576/264/245 581/192/509 580/192/246
f 236/268/248 234/268/303 237/173/249
f 230/251/251 231/251/305 229/276/252
f 111/234/254 109/253/344 110/253/255
f 578/193/258 577/193/307 580/192/246
f 580/192/246 581/192/509 579/277/257
f 179/278/259 177/221/242 178/221/244
f 147/280/264 139/250/240 140/250/241
f 168/281/266 167/284/510 169/199/231
f 284/164/268 485/162/288 486/282/269
f 175/283/271 173/257/220 174/257/272
f 166/285/275 165/206/293 164/206/274
f 164/206/274 167/284/510 168/284/266
f 284/156/268 286/156/270 285/154/276
f 183/286/232 182/194/508 184/274/278
f 195/288/281 194/187/316 193/187/279
f 193/187/279 226/243/511 227/287/280
f 487/161/282 499/224/322 500/224/283
f 149/245/285 147/280/264 148/280/265
f 180/278/260 104/256/301 103/256/287
f 227/243/280 226/243/511 228/252/253
f 485/162/288 487/161/282 488/161/284
f 501/170/289 519/169/228 520/169/230
f 282/230/291 281/230/294 283/154/277
f 163/290/292 162/228/310 164/206/274
f 281/230/294 282/230/291 272/167/295
f 531/186/299 530/186/314 582/182/297
f 582/182/297 584/182/512 583/291/298
f 105/174/300 103/256/287 104/256/301
f 231/251/305 230/251/251 234/268/303
f 234/268/303 236/268/248 235/292/304
f 578/193/258 574/184/325 573/184/306
f 420/247/308 149/245/285 150/245/286
f 160/293/309 159/298/326 162/228/310
f 107/294/311 105/174/300 106/174/302
f 531/295/299 529/702/339 528/266/313
f 192/296/315 191/296/324 193/187/279
f 564/204/317 562/262/261 563/262/263
f 569/202/321 566/205/341 567/205/319
f 568/297/320 570/202/329 569/202/321
f 502/170/290 500/224/283 499/224/322
f 190/190/323 189/190/513 191/296/324
f 574/184/325 584/182/512 582/182/297
f 158/259/219 157/259/221 159/298/326
f 159/298/326 160/298/309 161/299/327
f 571/197/328 569/202/321 570/300/329
f 270/165/331 269/165/333 271/167/296
f 269/165/333 270/165/331 240/172/334
f 524/179/222 523/179/224 526/178/336
f 526/178/336 527/178/340 525/302/337
f 422/272/338 420/247/308 421/247/221
f 526/178/336 528/266/313 529/266/339
f 566/205/341 564/204/317 565/204/318
f 585/305/342 587/198/347 586/198/343
f 586/198/343 571/197/328 572/197/330
f 109/253/344 107/294/311 108/294/312
f 188/306/345 187/157/236 186/157/235
f 186/157/235 189/190/513 190/190/323
f 135/275/346 111/234/254 112/234/256
f 575/264/247 586/198/343 587/307/347
f 238/173/250 237/173/249 239/172/335
f 176/283/273 172/218/243 171/218/348
f 143/154/56 130/270/392 132/155/349
f 29/157/59 27/274/497 94/158/60
f 132/163/349 400/160/62 416/162/64
f 123/165/65 126/269/356 128/166/352
f 101/172/72 99/173/514 122/171/355
f 37/174/74 39/294/498 72/175/357
f 433/169/69 404/168/354 406/180/359
f 459/182/82 410/185/85 412/183/83
f 35/187/87 33/296/515 114/188/362
f 114/188/362 33/296/515 31/190/363
f 94/158/60 27/274/497 25/194/94
f 412/183/83 430/191/91 457/193/93
f 23/199/99 11/284/500 56/200/364
f 461/197/97 397/196/96 395/201/101
f 56/200/364 11/284/500 9/206/106
f 387/208/368 381/220/374 446/209/109
f 445/214/371 381/220/374 379/215/115
f 50/217/117 15/283/516 17/218/118
f 19/221/375 21/278/517 78/222/376
f 402/223/123 404/168/354 415/170/70
f 7/228/379 5/298/518 52/229/380
f 128/166/352 130/270/392 141/230/130
f 43/234/134 61/275/519 80/235/381
f 80/235/381 61/275/519 59/237/137
f 118/242/383 89/252/386 87/243/384
f 84/244/144 65/280/520 67/245/145
f 371/248/148 365/700/521 382/232/132
f 367/249/149 360/272/507 362/240/140
f 118/242/383 120/267/391 91/251/151
f 375/254/154 373/231/131 383/233/133
f 385/226/126 377/225/378 375/254/154
f 379/215/115 377/225/378 398/227/127
f 78/222/376 21/278/517 45/256/156
f 13/257/157 15/283/516 50/217/117
f 387/208/368 447/210/110 448/212/112
f 391/260/160 389/211/369 449/213/370
f 451/204/366 393/203/365 391/260/160
f 395/201/101 393/203/365 452/205/105
f 358/247/147 360/272/507 367/249/149
f 432/263/163 397/196/96 462/198/98
f 458/192/92 430/191/91 432/263/163
f 364/241/141 365/700/521 371/248/148
f 72/175/357 39/294/498 41/253/153
f 414/265/389 410/185/85 438/186/361
f 436/178/78 408/177/358 414/265/389
f 406/180/359 408/177/358 435/179/79
f 63/250/150 65/280/520 84/244/144
f 122/171/355 99/173/514 97/268/168
f 418/161/63 400/160/62 402/223/123
f 52/229/380 5/298/518 3/259/387
f 131/271/3 399/271/171 400/271/171
f 129/271/172 131/271/3 132/271/3
f 127/271/173 129/271/172 130/271/172
f 126/271/174 125/271/174 127/271/173
f 122/271/175 121/271/175 125/271/174
f 119/271/176 121/271/175 122/271/175
f 118/271/177 117/271/177 119/271/176
f 116/271/178 115/271/178 117/271/177
f 114/271/179 113/271/179 115/271/178
f 96/271/180 95/271/180 113/271/179
f 94/271/181 93/271/181 95/271/180
f 58/271/182 57/271/182 93/271/181
f 56/271/183 55/271/183 57/271/182
f 54/271/184 53/271/184 55/271/183
f 53/271/184 54/271/184 52/271/185
f 51/271/185 52/271/185 48/271/186
f 47/271/186 48/271/186 50/271/187
f 49/271/187 50/271/187 76/271/188
f 75/271/188 76/271/188 78/271/189
f 70/271/190 69/271/190 77/271/189
f 69/271/190 70/271/190 72/271/191
f 72/271/191 74/271/192 73/271/192
f 73/271/192 74/271/192 80/271/193
f 79/271/193 80/271/193 82/271/194
f 81/271/194 82/271/194 84/271/195
f 83/271/195 84/271/195 86/271/2
f 86/271/2 367/271/196 366/271/196
f 367/271/196 369/271/197 368/271/197
f 368/271/197 369/271/197 371/271/198
f 370/271/198 371/271/198 373/271/199
f 373/271/199 375/271/200 374/271/200
f 374/271/200 375/271/200 377/271/201
f 376/271/201 377/271/201 379/271/202
f 378/271/202 379/271/202 381/271/203
f 380/271/203 381/271/203 387/271/204
f 386/271/204 387/271/204 389/271/205
f 388/271/205 389/271/205 391/271/206
f 390/271/206 391/271/206 393/271/207
f 392/271/207 393/271/207 395/271/208
f 394/271/208 395/271/208 397/271/209
f 396/271/209 397/271/209 432/271/210
f 431/271/210 432/271/210 430/271/211
f 429/271/211 430/271/211 412/271/212
f 410/271/213 409/271/213 411/271/212
f 410/271/213 414/271/214 413/271/214
f 408/271/215 407/271/215 413/271/214
f 405/271/216 407/271/215 408/271/215
f 406/271/216 404/271/217 403/271/217
f 404/271/217 402/271/218 401/271/218
f 399/271/171 401/271/218 402/271/218
f 4/259/393 14/257/422 13/257/394
f 362/240/225 360/272/455 361/272/396
f 26/194/397 24/199/416 23/199/398
f 30/157/400 28/274/428 27/274/401
f 59/237/237 61/275/403 62/275/403
f 63/250/240 59/237/237 60/237/239
f 19/221/242 17/218/348 18/218/404
f 100/173/405 98/268/442 97/268/406
f 92/251/407 90/252/435 89/252/408
f 43/234/410 41/253/456 42/253/255
f 21/278/412 19/221/242 20/221/244
f 65/280/414 63/250/240 64/250/241
f 24/199/416 12/284/424 11/284/417
f 417/162/418 146/164/426 145/164/419
f 15/283/421 13/257/394 14/257/422
f 12/284/424 10/206/438 9/206/425
f 146/156/426 144/154/436 143/154/427
f 28/274/428 26/194/397 25/194/399
f 88/243/429 36/187/446 35/187/430
f 67/245/285 65/280/414 66/280/415
f 45/256/287 21/278/412 22/278/413
f 90/252/435 88/243/429 87/243/431
f 419/161/434 417/162/418 416/162/420
f 144/154/436 142/230/440 141/230/437
f 10/206/438 8/228/443 7/228/439
f 142/230/440 134/167/451 133/167/441
f 46/256/301 38/174/302 37/174/300
f 98/268/442 92/251/407 91/251/409
f 358/247/308 67/245/285 68/245/286
f 8/228/443 6/298/450 5/298/444
f 39/294/311 37/174/300 38/174/302
f 36/187/446 34/296/448 33/296/447
f 34/296/448 32/190/457 31/190/449
f 3/259/395 5/298/444 6/298/450
f 134/167/451 124/165/453 123/165/452
f 124/165/453 102/172/458 101/172/454
f 360/272/455 358/247/308 359/247/221
f 40/294/445 42/253/255 41/253/456
f 32/190/457 30/157/400 29/157/402
f 61/275/403 43/234/410 44/234/411
f 102/172/458 100/173/405 99/173/405
f 17/218/348 15/283/421 16/283/423
s 0
f 300/310/6 348/703/6 342/704/6
f 300/310/6 342/704/6 307/704/6
f 295/705/6 294/345/6 300/310/6
f 297/309/6 295/705/6 300/310/6
f 300/310/6 307/704/6 306/308/6
f 544/311/459 552/394/459 551/312/459
f 543/313/460 551/312/460 550/314/460
f 538/316/461 542/315/461 550/314/461
f 550/314/461 549/706/461 537/317/461
f 537/317/462 549/706/462 548/318/462
f 536/319/463 548/318/463 547/320/463
f 535/321/464 547/320/464 541/322/464
f 534/324/465 541/322/465 540/325/465
f 533/326/466 540/325/466 539/327/466
f 292/329/467 532/328/467 539/327/467
f 291/331/468 292/329/468 305/330/468
f 287/333/469 291/707/469 304/334/469
f 290/336/470 287/708/470 298/335/470
f 289/338/471 290/336/471 303/337/471
f 288/340/472 289/338/472 302/339/472
f 302/339/472 301/343/472 296/341/472
f 293/342/473 296/341/473 301/343/473
f 294/345/474 293/342/474 299/344/474
f 610/346/475 613/709/475 614/347/475
f 611/349/476 614/710/476 615/350/476
f 612/352/477 615/711/477 622/353/477
f 616/355/478 622/712/478 623/356/478
f 617/358/479 623/713/479 626/359/479
f 620/361/480 626/714/480 627/362/480
f 621/364/481 627/715/481 625/365/481
f 619/367/482 625/716/482 624/368/482
f 342/370/483 348/310/483 349/371/483
f 343/373/484 349/371/484 350/374/484
f 344/376/485 350/717/485 351/377/485
f 345/379/486 351/718/486 352/380/486
f 346/382/487 352/719/487 353/383/487
f 347/385/488 353/720/488 356/386/488
f 354/388/489 356/721/489 357/389/489
f 355/391/490 357/722/490 613/392/490
f 554/369/5 618/723/5 624/368/5
f 552/394/5 544/311/5 545/724/5
f 552/394/5 545/724/5 546/725/5
f 554/369/5 624/368/5 552/394/5
f 552/394/5 546/725/5 553/395/5
