# Blender 5.1.2
# www.blender.org
o Cube.016
v 147.881210 224.176727 51.699966
v 147.881210 218.247055 51.699966
v 148.881210 224.176743 51.699966
v 147.881210 224.176727 47.300022
v 147.881210 218.247055 47.300022
v 148.881210 224.176743 47.300022
v 148.881210 218.247055 47.300022
v 148.881210 216.946533 47.300022
v 148.881210 218.247055 51.699966
v 148.881210 216.946533 51.699966
v 148.887573 216.303970 51.699966
v 147.881210 213.946533 51.699966
v 146.381210 213.946533 51.699966
v 147.881210 213.946533 47.300022
v 148.681656 210.953171 51.699966
v 148.481216 207.946533 51.699966
v 149.212509 210.964874 51.699966
v 149.381210 209.446533 51.699966
v 149.147873 211.604218 51.699966
v 149.212509 210.964874 47.300022
v 149.381210 209.446533 47.300022
v 148.681656 210.953171 47.300018
v 149.147873 211.604218 47.300018
v 149.085724 212.334274 47.300022
v 149.028442 213.126984 47.300022
v 149.085724 212.334274 51.699966
v 149.028458 213.126984 51.699966
v 148.978241 213.951904 51.699966
v 148.937042 214.777328 51.699966
v 148.978241 213.951904 47.300022
v 148.937042 214.777328 47.300022
v 148.906433 215.571518 47.300022
v 148.887573 216.303970 47.300022
v 148.906433 215.571518 51.699966
v 148.481216 207.946533 47.300022
v 148.266296 208.692871 47.300018
v 148.007126 209.418777 47.300018
v 148.266296 208.692871 51.699966
v 148.007126 209.418777 51.699966
v 147.656769 210.135696 51.699966
v 147.295258 210.827774 51.699966
v 147.656769 210.135696 47.300018
v 147.295258 210.827774 47.300022
v 146.992432 211.516129 47.300022
v 146.681824 212.264771 47.300022
v 146.992432 211.516129 51.699966
v 146.681824 212.264771 51.699966
v 146.462692 213.119247 51.699966
v 146.462692 213.119247 47.300022
v 146.381210 213.946533 47.300022
v 147.910172 224.801605 51.699974
v 148.904999 224.700043 51.699974
v 147.910172 224.801605 47.300030
v 148.904999 224.700043 47.300030
v 148.015457 225.453339 51.699974
v 148.961548 225.129456 51.699974
v 148.015457 225.453339 47.300030
v 148.961548 225.129456 47.300030
v 148.345200 226.145370 51.699974
v 149.146347 225.546906 51.699974
v 148.345200 226.145370 47.300030
v 149.146347 225.546906 47.300030
v 148.788132 226.689590 51.699974
v 149.448700 225.938843 51.699974
v 148.788132 226.689590 47.300030
v 149.448700 225.938843 47.300030
v 149.518967 227.137833 51.699974
v 149.857010 226.196701 51.699974
v 149.518967 227.137833 47.300030
v 149.857010 226.196701 47.300030
v 150.391464 227.273712 51.699974
v 150.364746 226.274063 51.699974
v 150.391464 227.273712 47.300030
v 150.364746 226.274063 47.300030
v 147.881210 224.176727 30.699984
v 147.881210 218.247055 30.699984
v 148.881210 224.176743 30.699982
v 147.881210 224.176727 26.299973
v 147.881210 218.247055 26.299973
v 148.881210 224.176743 26.299973
v 148.881210 218.247055 26.299973
v 148.881210 216.946533 26.299973
v 148.881210 218.247055 30.699982
v 148.881210 216.946533 30.699982
v 148.887573 216.303970 30.699982
v 147.881210 213.946533 30.699984
v 146.381210 213.946533 30.699984
v 147.881210 213.946533 26.299973
v 148.681656 210.953171 30.699982
v 148.481216 207.946533 30.699984
v 149.212509 210.964874 30.699982
v 149.381210 209.446533 30.699982
v 149.147873 211.604218 30.699982
v 149.212509 210.964874 26.299973
v 149.381210 209.446533 26.299973
v 148.681656 210.953171 26.299973
v 149.147873 211.604218 26.299973
v 149.085724 212.334274 26.299973
v 149.028442 213.126984 26.299973
v 149.085724 212.334274 30.699982
v 149.028458 213.126984 30.699982
v 148.978241 213.951904 30.699982
v 148.937042 214.777328 30.699982
v 148.978241 213.951904 26.299973
v 148.937042 214.777328 26.299973
v 148.906433 215.571518 26.299973
v 148.887573 216.303970 26.299973
v 148.906433 215.571518 30.699982
v 148.481216 207.946533 26.299973
v 148.266296 208.692871 26.299973
v 148.007126 209.418777 26.299973
v 148.266296 208.692871 30.699984
v 148.007126 209.418777 30.699984
v 147.656769 210.135696 30.699984
v 147.295258 210.827774 30.699984
v 147.656769 210.135696 26.299973
v 147.295258 210.827774 26.299973
v 146.992432 211.516129 26.299973
v 146.681824 212.264771 26.299973
v 146.992432 211.516129 30.699984
v 146.681824 212.264771 30.699984
v 146.462692 213.119247 30.699984
v 146.462692 213.119247 26.299973
v 146.381210 213.946533 26.299973
v 147.910172 224.801605 30.699989
v 148.904999 224.700043 30.699989
v 147.910172 224.801605 26.299982
v 148.904999 224.700043 26.299982
v 148.015457 225.453339 30.699989
v 148.961548 225.129456 30.699989
v 148.015457 225.453339 26.299982
v 148.961548 225.129456 26.299982
v 148.345200 226.145370 30.699989
v 149.146347 225.546906 30.699989
v 148.345200 226.145370 26.299982
v 149.146347 225.546906 26.299982
v 148.788132 226.689590 30.699989
v 149.448700 225.938843 30.699989
v 148.788132 226.689590 26.299982
v 149.448700 225.938843 26.299982
v 149.518967 227.137833 30.699989
v 149.857010 226.196701 30.699989
v 149.518967 227.137833 26.299982
v 149.857010 226.196701 26.299982
v 150.391464 227.273712 30.699989
v 150.364746 226.274063 30.699989
v 150.391464 227.273712 26.299982
v 150.364746 226.274063 26.299982
v 151.254517 227.117691 51.699974
v 150.936935 226.169464 51.699974
v 151.254517 227.117691 47.300030
v 150.936935 226.169464 47.300030
v 151.254517 227.117691 30.699989
v 150.936935 226.169464 30.699989
v 151.254517 227.117691 26.299982
v 150.936935 226.169464 26.299982
v 152.056778 226.554581 51.699974
v 151.301971 225.898636 51.699974
v 152.056778 226.554581 47.300030
v 151.301971 225.898636 47.300030
v 152.056778 226.554581 30.699989
v 151.301971 225.898636 30.699989
v 152.056778 226.554581 26.299982
v 151.301971 225.898636 26.299982
v 152.509155 225.752899 51.699974
v 151.556824 225.447784 51.699974
v 152.509155 225.752899 47.300030
v 151.556824 225.447784 47.300030
v 152.509155 225.752899 30.699989
v 151.556824 225.447784 30.699989
v 152.509155 225.752899 26.299982
v 151.556824 225.447784 26.299982
v 152.628479 224.871933 51.699974
v 151.628510 224.879547 51.699974
v 152.628479 224.871933 47.300030
v 151.628510 224.879547 47.300030
v 152.628479 224.871933 30.699989
v 151.628510 224.879547 30.699989
v 152.628479 224.871933 26.299982
v 151.628510 224.879547 26.299982
v 152.390671 223.849152 51.699974
v 151.520126 224.341232 51.699974
v 152.390671 223.849152 47.300030
v 151.520126 224.341232 47.300030
v 152.390671 223.849152 30.699989
v 151.520126 224.341232 30.699989
v 152.390671 223.849152 26.299982
v 151.520126 224.341232 26.299982
v 151.858429 223.130157 51.699974
v 151.252625 223.925781 51.699974
v 151.858429 223.130157 47.300030
v 151.252625 223.925781 47.300030
v 151.858429 223.130157 30.699989
v 151.252625 223.925781 30.699989
v 151.858429 223.130157 26.299982
v 151.252625 223.925781 26.299982
v 151.000015 222.765701 51.699974
v 151.000015 223.765671 51.699974
v 151.000015 222.765701 47.300030
v 151.000015 223.765671 47.300030
v 151.000015 222.765701 30.699989
v 151.000015 223.765671 30.699989
v 151.000015 222.765701 26.299982
v 151.000015 223.765671 26.299982
v 149.800018 222.772156 51.699974
v 149.800003 223.772125 51.699974
v 149.800018 222.772156 47.300030
v 149.800003 223.772125 47.300030
v 149.800018 222.772156 30.699989
v 149.800003 223.772125 30.699989
v 149.800018 222.772156 26.299982
v 149.800003 223.772125 26.299982
v 151.000015 222.765701 52.092667
v 151.000015 223.765671 52.092667
v 149.800018 222.772156 52.092667
v 149.800003 223.772125 52.092667
v 151.000015 222.765701 46.829010
v 151.000015 223.765671 46.829010
v 149.800018 222.772156 46.829010
v 149.800003 223.772125 46.829010
v 151.000015 222.765701 31.127758
v 151.000015 223.765671 31.127758
v 149.800018 222.772156 31.127758
v 149.800003 223.772125 31.127758
v 151.000015 223.765671 25.775082
v 151.000015 222.765701 25.775082
v 149.800003 223.772125 25.775082
v 149.800018 222.772156 25.775082
v 151.000000 222.238586 47.300030
v 151.000000 222.238586 51.699974
v 151.000000 222.238586 26.299984
v 151.000000 222.238586 30.699991
v 149.800018 222.245041 47.300030
v 149.800018 222.245041 51.699974
v 149.800018 222.245041 26.299984
v 149.800018 222.245041 30.699991
v 149.800018 222.245041 52.092667
v 151.000000 222.238586 52.092667
v 151.000000 222.238586 46.829010
v 149.800018 222.245041 46.829010
v 149.800018 222.245041 31.127760
v 151.000000 222.238586 31.127760
v 151.000000 222.238586 25.775084
v 149.800018 222.245041 25.775084
v 151.009277 225.487793 51.699974
v 151.009277 225.487793 47.300026
v 151.009277 225.487793 30.699989
v 151.009277 225.487793 26.299980
v 149.809280 225.494263 51.699974
v 149.809280 225.494263 47.300026
v 149.809280 225.494263 30.699989
v 149.809280 225.494263 26.299980
v 151.009277 225.487793 52.092663
v 149.809280 225.494263 52.092663
v 151.009277 225.487793 46.829010
v 149.809280 225.494263 46.829010
v 151.009277 225.487793 31.127756
v 149.809280 225.494263 31.127756
v 151.009277 225.487793 25.775082
v 149.809280 225.494263 25.775082
v 133.118790 224.176727 51.699966
v 133.118790 218.247055 51.699966
v 132.118790 224.176743 51.699966
v 133.118790 224.176727 47.300022
v 133.118790 218.247055 47.300022
v 132.118790 224.176743 47.300022
v 132.118790 218.247055 47.300022
v 132.118790 216.946533 47.300022
v 132.118790 218.247055 51.699966
v 132.118790 216.946533 51.699966
v 132.112427 216.303970 51.699966
v 133.118790 213.946533 51.699966
v 134.618790 213.946533 51.699966
v 133.118790 213.946533 47.300022
v 132.318344 210.953171 51.699966
v 132.518784 207.946533 51.699966
v 131.787491 210.964874 51.699966
v 131.618790 209.446533 51.699966
v 131.852127 211.604218 51.699966
v 131.787491 210.964874 47.300022
v 131.618790 209.446533 47.300022
v 132.318344 210.953171 47.300018
v 131.852127 211.604218 47.300018
v 131.914276 212.334274 47.300022
v 131.971558 213.126984 47.300022
v 131.914276 212.334274 51.699966
v 131.971542 213.126984 51.699966
v 132.021759 213.951904 51.699966
v 132.062958 214.777328 51.699966
v 132.021759 213.951904 47.300022
v 132.062958 214.777328 47.300022
v 132.093567 215.571518 47.300022
v 132.112427 216.303970 47.300022
v 132.093567 215.571518 51.699966
v 132.518784 207.946533 47.300022
v 132.733704 208.692871 47.300018
v 132.992874 209.418777 47.300018
v 132.733704 208.692871 51.699966
v 132.992874 209.418777 51.699966
v 133.343231 210.135696 51.699966
v 133.704742 210.827774 51.699966
v 133.343231 210.135696 47.300018
v 133.704742 210.827774 47.300022
v 134.007568 211.516129 47.300022
v 134.318176 212.264771 47.300022
v 134.007568 211.516129 51.699966
v 134.318176 212.264771 51.699966
v 134.537308 213.119247 51.699966
v 134.537308 213.119247 47.300022
v 134.618790 213.946533 47.300022
v 133.089828 224.801605 51.699974
v 132.095001 224.700043 51.699974
v 133.089828 224.801605 47.300030
v 132.095001 224.700043 47.300030
v 132.984543 225.453339 51.699974
v 132.038452 225.129456 51.699974
v 132.984543 225.453339 47.300030
v 132.038452 225.129456 47.300030
v 132.654800 226.145370 51.699974
v 131.853653 225.546906 51.699974
v 132.654800 226.145370 47.300030
v 131.853653 225.546906 47.300030
v 132.211868 226.689590 51.699974
v 131.551300 225.938843 51.699974
v 132.211868 226.689590 47.300030
v 131.551300 225.938843 47.300030
v 131.481033 227.137833 51.699974
v 131.142990 226.196701 51.699974
v 131.481033 227.137833 47.300030
v 131.142990 226.196701 47.300030
v 130.608536 227.273712 51.699974
v 130.635254 226.274063 51.699974
v 130.608536 227.273712 47.300030
v 130.635254 226.274063 47.300030
v 133.118790 224.176727 30.699984
v 133.118790 218.247055 30.699984
v 132.118790 224.176743 30.699982
v 133.118790 224.176727 26.299973
v 133.118790 218.247055 26.299973
v 132.118790 224.176743 26.299973
v 132.118790 218.247055 26.299973
v 132.118790 216.946533 26.299973
v 132.118790 218.247055 30.699982
v 132.118790 216.946533 30.699982
v 132.112427 216.303970 30.699982
v 133.118790 213.946533 30.699984
v 134.618790 213.946533 30.699984
v 133.118790 213.946533 26.299973
v 132.318344 210.953171 30.699982
v 132.518784 207.946533 30.699984
v 131.787491 210.964874 30.699982
v 131.618790 209.446533 30.699982
v 131.852127 211.604218 30.699982
v 131.787491 210.964874 26.299973
v 131.618790 209.446533 26.299973
v 132.318344 210.953171 26.299973
v 131.852127 211.604218 26.299973
v 131.914276 212.334274 26.299973
v 131.971558 213.126984 26.299973
v 131.914276 212.334274 30.699982
v 131.971542 213.126984 30.699982
v 132.021759 213.951904 30.699982
v 132.062958 214.777328 30.699982
v 132.021759 213.951904 26.299973
v 132.062958 214.777328 26.299973
v 132.093567 215.571518 26.299973
v 132.112427 216.303970 26.299973
v 132.093567 215.571518 30.699982
v 132.518784 207.946533 26.299973
v 132.733704 208.692871 26.299973
v 132.992874 209.418777 26.299973
v 132.733704 208.692871 30.699984
v 132.992874 209.418777 30.699984
v 133.343231 210.135696 30.699984
v 133.704742 210.827774 30.699984
v 133.343231 210.135696 26.299973
v 133.704742 210.827774 26.299973
v 134.007568 211.516129 26.299973
v 134.318176 212.264771 26.299973
v 134.007568 211.516129 30.699984
v 134.318176 212.264771 30.699984
v 134.537308 213.119247 30.699984
v 134.537308 213.119247 26.299973
v 134.618790 213.946533 26.299973
v 133.089828 224.801605 30.699989
v 132.095001 224.700043 30.699989
v 133.089828 224.801605 26.299982
v 132.095001 224.700043 26.299982
v 132.984543 225.453339 30.699989
v 132.038452 225.129456 30.699989
v 132.984543 225.453339 26.299982
v 132.038452 225.129456 26.299982
v 132.654800 226.145370 30.699989
v 131.853653 225.546906 30.699989
v 132.654800 226.145370 26.299982
v 131.853653 225.546906 26.299982
v 132.211868 226.689590 30.699989
v 131.551300 225.938843 30.699989
v 132.211868 226.689590 26.299982
v 131.551300 225.938843 26.299982
v 131.481033 227.137833 30.699989
v 131.142990 226.196701 30.699989
v 131.481033 227.137833 26.299982
v 131.142990 226.196701 26.299982
v 130.608536 227.273712 30.699989
v 130.635254 226.274063 30.699989
v 130.608536 227.273712 26.299982
v 130.635254 226.274063 26.299982
v 129.745483 227.117691 51.699974
v 130.063065 226.169464 51.699974
v 129.745483 227.117691 47.300030
v 130.063065 226.169464 47.300030
v 129.745483 227.117691 30.699989
v 130.063065 226.169464 30.699989
v 129.745483 227.117691 26.299982
v 130.063065 226.169464 26.299982
v 128.943222 226.554581 51.699974
v 129.698029 225.898636 51.699974
v 128.943222 226.554581 47.300030
v 129.698029 225.898636 47.300030
v 128.943222 226.554581 30.699989
v 129.698029 225.898636 30.699989
v 128.943222 226.554581 26.299982
v 129.698029 225.898636 26.299982
v 128.490845 225.752899 51.699974
v 129.443176 225.447784 51.699974
v 128.490845 225.752899 47.300030
v 129.443176 225.447784 47.300030
v 128.490845 225.752899 30.699989
v 129.443176 225.447784 30.699989
v 128.490845 225.752899 26.299982
v 129.443176 225.447784 26.299982
v 128.371521 224.871933 51.699974
v 129.371490 224.879547 51.699974
v 128.371521 224.871933 47.300030
v 129.371490 224.879547 47.300030
v 128.371521 224.871933 30.699989
v 129.371490 224.879547 30.699989
v 128.371521 224.871933 26.299982
v 129.371490 224.879547 26.299982
v 128.609329 223.849152 51.699974
v 129.479874 224.341232 51.699974
v 128.609329 223.849152 47.300030
v 129.479874 224.341232 47.300030
v 128.609329 223.849152 30.699989
v 129.479874 224.341232 30.699989
v 128.609329 223.849152 26.299982
v 129.479874 224.341232 26.299982
v 129.141571 223.130157 51.699974
v 129.747375 223.925781 51.699974
v 129.141571 223.130157 47.300030
v 129.747375 223.925781 47.300030
v 129.141571 223.130157 30.699989
v 129.747375 223.925781 30.699989
v 129.141571 223.130157 26.299982
v 129.747375 223.925781 26.299982
v 129.999985 222.765701 51.699974
v 129.999985 223.765671 51.699974
v 129.999985 222.765701 47.300030
v 129.999985 223.765671 47.300030
v 129.999985 222.765701 30.699989
v 129.999985 223.765671 30.699989
v 129.999985 222.765701 26.299982
v 129.999985 223.765671 26.299982
v 131.199982 222.772156 51.699974
v 131.199997 223.772125 51.699974
v 131.199982 222.772156 47.300030
v 131.199997 223.772125 47.300030
v 131.199982 222.772156 30.699989
v 131.199997 223.772125 30.699989
v 131.199982 222.772156 26.299982
v 131.199997 223.772125 26.299982
v 129.999985 222.765701 52.092667
v 129.999985 223.765671 52.092667
v 131.199982 222.772156 52.092667
v 131.199997 223.772125 52.092667
v 129.999985 222.765701 46.829010
v 129.999985 223.765671 46.829010
v 131.199982 222.772156 46.829010
v 131.199997 223.772125 46.829010
v 129.999985 222.765701 31.127758
v 129.999985 223.765671 31.127758
v 131.199982 222.772156 31.127758
v 131.199997 223.772125 31.127758
v 129.999985 223.765671 25.775082
v 129.999985 222.765701 25.775082
v 131.199997 223.772125 25.775082
v 131.199982 222.772156 25.775082
v 130.000000 222.238586 47.300030
v 130.000000 222.238586 51.699974
v 130.000000 222.238586 26.299984
v 130.000000 222.238586 30.699991
v 131.199982 222.245041 47.300030
v 131.199982 222.245041 51.699974
v 131.199982 222.245041 26.299984
v 131.199982 222.245041 30.699991
v 131.199982 222.245041 52.092667
v 130.000000 222.238586 52.092667
v 130.000000 222.238586 46.829010
v 131.199982 222.245041 46.829010
v 131.199982 222.245041 31.127760
v 130.000000 222.238586 31.127760
v 130.000000 222.238586 25.775084
v 131.199982 222.245041 25.775084
v 129.990723 225.487793 51.699974
v 129.990723 225.487793 47.300026
v 129.990723 225.487793 30.699989
v 129.990723 225.487793 26.299980
v 131.190720 225.494263 51.699974
v 131.190720 225.494263 47.300026
v 131.190720 225.494263 30.699989
v 131.190720 225.494263 26.299980
v 129.990723 225.487793 52.092663
v 131.190720 225.494263 52.092663
v 129.990723 225.487793 46.829010
v 131.190720 225.494263 46.829010
v 129.990723 225.487793 31.127756
v 131.190720 225.494263 31.127756
v 129.990723 225.487793 25.775082
v 131.190720 225.494263 25.775082
vn -1.0000 -0.0000 -0.0000
vn -0.0000 -0.0000 1.0000
vn -0.0000 -0.0000 -1.0000
vn 1.0000 -0.0000 -0.0000
vn 1.0000 0.0099 -0.0000
vn -0.0000 1.0000 -0.0000
vn 0.9939 0.1104 -0.0000
vn 0.9949 0.1006 -0.0000
vn 0.9964 0.0848 -0.0000
vn 0.9974 0.0721 -0.0000
vn 0.9982 0.0607 -0.0000
vn 0.9988 0.0499 -0.0000
vn 0.9993 0.0385 -0.0000
vn 0.9997 0.0257 -0.0000
vn 0.8575 -0.5145 -0.0000
vn -0.9610 -0.2767 -0.0000
vn -0.9418 -0.3363 -0.0000
vn -0.8985 -0.4391 -0.0000
vn -0.8864 -0.4630 -0.0000
vn -0.9153 -0.4027 -0.0000
vn -0.9237 -0.3832 -0.0000
vn -0.9687 -0.2484 -0.0000
vn -0.9952 -0.0980 -0.0000
vn 0.9990 -0.0454 -0.0000
vn -0.9989 0.0463 -0.0000
vn 0.9914 -0.1306 -0.0000
vn -0.9872 0.1595 -0.0000
vn 0.9144 -0.4048 -0.0000
vn -0.9028 0.4302 -0.0000
vn 0.7918 -0.6108 -0.0000
vn -0.7756 0.6312 -0.0000
vn 0.5340 -0.8455 -0.0000
vn -0.5228 0.8524 -0.0000
vn 0.1506 -0.9886 -0.0000
vn -0.1539 0.9881 -0.0000
vn -0.1798 -0.9837 -0.0000
vn 0.5745 0.8185 -0.0000
vn -0.5958 -0.8031 -0.0000
vn 0.1779 0.9840 -0.0000
vn 0.8709 0.4914 -0.0000
vn -0.8705 -0.4921 -0.0000
vn -0.9921 -0.1252 -0.0000
vn 0.9909 0.1342 -0.0000
vn -0.8408 0.5414 -0.0000
vn 0.8037 -0.5950 -0.0000
vn -0.9803 0.1974 -0.0000
vn 0.9740 -0.2265 -0.0000
vn -0.5353 0.8446 -0.0000
vn 0.3908 -0.9205 -0.0000
vn 1.0000 -0.0054 -0.0000
vn -1.0000 0.0054 -0.0000
vn -0.0054 -1.0000 -0.0000
vn 0.0054 1.0000 -0.0000
vn -1.0000 0.0099 -0.0000
vn -0.9939 0.1104 -0.0000
vn -0.9949 0.1006 -0.0000
vn -0.9964 0.0848 -0.0000
vn -0.9974 0.0721 -0.0000
vn -0.9982 0.0607 -0.0000
vn -0.9988 0.0499 -0.0000
vn -0.9993 0.0385 -0.0000
vn -0.9997 0.0257 -0.0000
vn -0.8575 -0.5145 -0.0000
vn 0.9610 -0.2767 -0.0000
vn 0.9418 -0.3363 -0.0000
vn 0.8985 -0.4391 -0.0000
vn 0.8864 -0.4630 -0.0000
vn 0.9153 -0.4027 -0.0000
vn 0.9237 -0.3832 -0.0000
vn 0.9687 -0.2484 -0.0000
vn 0.9952 -0.0980 -0.0000
vn -0.9990 -0.0454 -0.0000
vn 0.9989 0.0463 -0.0000
vn -0.9914 -0.1306 -0.0000
vn 0.9872 0.1595 -0.0000
vn -0.9144 -0.4048 -0.0000
vn 0.9028 0.4302 -0.0000
vn -0.7918 -0.6108 -0.0000
vn 0.7756 0.6312 -0.0000
vn -0.5340 -0.8455 -0.0000
vn 0.5228 0.8524 -0.0000
vn -0.1506 -0.9886 -0.0000
vn 0.1539 0.9881 -0.0000
vn 0.1798 -0.9837 -0.0000
vn -0.5745 0.8185 -0.0000
vn 0.5958 -0.8031 -0.0000
vn -0.1779 0.9840 -0.0000
vn -0.8709 0.4914 -0.0000
vn 0.8705 -0.4921 -0.0000
vn 0.9921 -0.1252 -0.0000
vn -0.9909 0.1342 -0.0000
vn 0.8408 0.5414 -0.0000
vn -0.8037 -0.5950 -0.0000
vn 0.9803 0.1974 -0.0000
vn -0.9740 -0.2265 -0.0000
vn 0.5353 0.8446 -0.0000
vn -0.3908 -0.9205 -0.0000
vn -1.0000 -0.0054 -0.0000
vn 1.0000 0.0054 -0.0000
vn 0.0054 -1.0000 -0.0000
vn -0.0054 1.0000 -0.0000
vn -0.0002 -0.0000 1.0000
vn 0.0001 -0.0000 1.0000
vn -0.0001 -0.0000 1.0000
vn -0.0001 -0.0000 -1.0000
vt 0.000000 0.000000
vt 1.343415 1.243902
vt 0.810000 0.631250
vt 1.229038 1.137998
vt 0.661372 0.612382
vt 0.809039 0.749110
vt 0.810000 0.500000
vt 0.609345 0.377996
vt 0.190014 0.119058
vt 0.405897 0.375831
vt 0.273303 0.253058
vt 0.388257 0.359497
vt 0.956615 0.885755
vt 0.519292 0.480826
vt 1.098432 1.017067
vt 0.512914 0.323512
vt 0.100130 0.061809
vt 0.100130 0.061809
vt 0.295613 0.189189
vt 0.408454 0.264550
vt 0.512914 0.323512
vt 0.692927 0.427733
s 0
f 2/1/1 4/1/1 5/1/1
f 9/1/2 1/1/2 2/1/2
f 4/1/3 7/1/3 5/1/3
f 3/1/4 7/1/4 6/1/4
f 9/1/4 8/2/4 7/1/4
f 8/2/3 5/1/3 7/1/3
f 10/2/2 2/1/2 12/3/2
f 10/2/5 33/4/5 8/2/5
f 27/5/2 28/6/2 12/3/2
f 13/7/6 14/3/6 50/7/6
f 47/8/2 39/9/2 15/10/2
f 12/3/1 5/1/1 14/3/1
f 18/1/2 15/10/2 16/1/2
f 20/11/7 18/1/7 21/1/7
f 19/12/8 20/11/8 23/12/8
f 21/1/3 22/10/3 20/11/3
f 31/13/3 30/6/3 22/10/3
f 26/14/9 23/12/9 24/14/9
f 27/5/10 24/14/10 25/5/10
f 28/6/11 25/5/11 30/6/11
f 29/13/12 30/6/12 31/13/12
f 34/15/13 31/13/13 32/15/13
f 11/4/14 32/15/14 33/4/14
f 14/3/3 37/9/3 44/16/3
f 18/1/15 35/1/15 21/1/15
f 35/1/16 38/17/16 36/18/16
f 38/17/17 37/9/17 36/18/17
f 39/9/18 42/19/18 37/9/18
f 40/19/19 43/20/19 42/19/19
f 43/20/20 46/21/20 44/16/20
f 46/21/21 45/8/21 44/16/21
f 47/8/22 49/22/22 45/8/22
f 48/22/23 50/7/23 49/22/23
f 1/1/2 52/1/2 51/1/2
f 3/1/24 54/1/24 52/1/24
f 4/1/3 54/1/3 6/1/3
f 1/1/25 53/1/25 4/1/25
f 54/1/26 56/1/26 52/1/26
f 51/1/27 57/1/27 53/1/27
f 53/1/3 58/1/3 54/1/3
f 51/1/2 56/1/2 55/1/2
f 57/1/3 62/1/3 58/1/3
f 55/1/2 60/1/2 59/1/2
f 58/1/28 60/1/28 56/1/28
f 55/1/29 61/1/29 57/1/29
f 61/1/3 66/1/3 62/1/3
f 59/1/2 64/1/2 63/1/2
f 62/1/30 64/1/30 60/1/30
f 59/1/31 65/1/31 61/1/31
f 66/1/32 68/1/32 64/1/32
f 63/1/33 69/1/33 65/1/33
f 65/1/3 70/1/3 66/1/3
f 63/1/2 68/1/2 67/1/2
f 70/1/3 73/1/3 74/1/3
f 68/1/2 71/1/2 67/1/2
f 70/1/34 72/1/34 68/1/34
f 67/1/35 73/1/35 69/1/35
f 76/1/1 78/1/1 79/1/1
f 83/1/2 75/1/2 76/1/2
f 78/1/3 81/1/3 79/1/3
f 77/1/4 81/1/4 80/1/4
f 83/1/4 82/2/4 81/1/4
f 82/2/3 79/1/3 81/1/3
f 84/2/2 76/1/2 86/3/2
f 84/2/5 107/4/5 82/2/5
f 101/5/2 102/6/2 86/3/2
f 87/7/6 88/3/6 124/7/6
f 121/8/2 113/9/2 89/10/2
f 86/3/1 79/1/1 88/3/1
f 92/1/2 89/10/2 90/1/2
f 91/11/7 95/1/7 94/11/7
f 93/12/8 94/11/8 97/12/8
f 95/1/3 96/10/3 94/11/3
f 105/13/3 104/6/3 96/10/3
f 100/14/9 97/12/9 98/14/9
f 101/5/10 98/14/10 99/5/10
f 102/6/11 99/5/11 104/6/11
f 103/13/12 104/6/12 105/13/12
f 108/15/13 105/13/13 106/15/13
f 85/4/14 106/15/14 107/4/14
f 88/3/3 111/9/3 118/16/3
f 92/1/15 109/1/15 95/1/15
f 90/1/16 110/18/16 109/1/16
f 112/17/17 111/9/17 110/18/17
f 113/9/18 116/19/18 111/9/18
f 114/19/19 117/20/19 116/19/19
f 115/20/20 118/16/20 117/20/20
f 120/21/21 119/8/21 118/16/21
f 121/8/22 123/22/22 119/8/22
f 122/22/23 124/7/23 123/22/23
f 75/1/2 126/1/2 125/1/2
f 77/1/24 128/1/24 126/1/24
f 78/1/3 128/1/3 80/1/3
f 75/1/25 127/1/25 78/1/25
f 128/1/26 130/1/26 126/1/26
f 125/1/27 131/1/27 127/1/27
f 127/1/3 132/1/3 128/1/3
f 125/1/2 130/1/2 129/1/2
f 131/1/3 136/1/3 132/1/3
f 129/1/2 134/1/2 133/1/2
f 132/1/28 134/1/28 130/1/28
f 129/1/29 135/1/29 131/1/29
f 135/1/3 140/1/3 136/1/3
f 133/1/2 138/1/2 137/1/2
f 136/1/30 138/1/30 134/1/30
f 133/1/31 139/1/31 135/1/31
f 140/1/32 142/1/32 138/1/32
f 137/1/33 143/1/33 139/1/33
f 139/1/3 144/1/3 140/1/3
f 137/1/2 142/1/2 141/1/2
f 144/1/3 147/1/3 148/1/3
f 142/1/2 145/1/2 141/1/2
f 144/1/34 146/1/34 142/1/34
f 141/1/35 147/1/35 143/1/35
f 74/1/36 150/1/36 72/1/36
f 146/1/2 153/1/2 145/1/2
f 149/1/37 159/1/37 151/1/37
f 152/1/38 158/1/38 150/1/38
f 148/1/36 154/1/36 146/1/36
f 71/1/39 151/1/39 73/1/39
f 145/1/39 155/1/39 147/1/39
f 74/1/3 151/1/3 152/1/3
f 148/1/3 155/1/3 156/1/3
f 72/1/2 149/1/2 71/1/2
f 161/1/40 171/1/40 163/1/40
f 164/1/41 170/1/41 162/1/41
f 156/1/3 163/1/3 164/1/3
f 154/1/2 161/1/2 153/1/2
f 152/1/3 159/1/3 160/1/3
f 150/1/2 157/1/2 149/1/2
f 156/1/38 162/1/38 154/1/38
f 153/1/37 163/1/37 155/1/37
f 168/1/3 175/1/3 176/1/3
f 170/1/2 177/1/2 169/1/2
f 160/1/41 166/1/41 158/1/41
f 157/1/40 167/1/40 159/1/40
f 163/1/3 172/1/3 164/1/3
f 161/1/2 170/1/2 169/1/2
f 159/1/3 168/1/3 160/1/3
f 157/1/2 166/1/2 165/1/2
f 177/1/2 186/1/2 185/1/2
f 179/1/3 188/1/3 180/1/3
f 166/1/2 173/1/2 165/1/2
f 172/1/42 178/1/42 170/1/42
f 169/1/43 179/1/43 171/1/43
f 168/1/42 174/1/42 166/1/42
f 165/1/43 175/1/43 167/1/43
f 172/1/3 179/1/3 180/1/3
f 184/1/44 190/1/44 182/1/44
f 185/1/45 195/1/45 187/1/45
f 175/1/3 184/1/3 176/1/3
f 173/1/2 182/1/2 181/1/2
f 180/1/46 186/1/46 178/1/46
f 177/1/47 187/1/47 179/1/47
f 176/1/46 182/1/46 174/1/46
f 173/1/47 183/1/47 175/1/47
f 196/1/48 202/1/48 194/1/48
f 189/1/2 198/1/2 197/1/2
f 181/1/45 191/1/45 183/1/45
f 187/1/3 196/1/3 188/1/3
f 185/1/2 194/1/2 193/1/2
f 183/1/3 192/1/3 184/1/3
f 181/1/2 190/1/2 189/1/2
f 188/1/44 194/1/44 186/1/44
f 202/1/4 221/1/4 201/1/4
f 203/1/4 225/1/4 204/1/4
f 193/1/49 203/1/49 195/1/49
f 192/1/48 198/1/48 190/1/48
f 189/1/49 199/1/49 191/1/49
f 195/1/3 204/1/3 196/1/3
f 193/1/2 202/1/2 201/1/2
f 191/1/3 200/1/3 192/1/3
f 206/1/1 207/1/1 205/1/1
f 210/1/1 211/1/1 209/1/1
f 215/1/1 234/1/1 237/1/1
f 222/1/50 247/1/50 257/1/50
f 214/1/50 245/1/50 253/1/50
f 221/1/4 232/1/4 201/1/4
f 227/1/3 259/1/3 225/1/3
f 213/1/4 230/1/4 197/1/4
f 214/1/2 215/1/2 213/1/2
f 198/1/4 213/1/4 197/1/4
f 197/1/4 229/1/4 199/1/4
f 206/1/1 215/1/1 216/1/1
f 218/1/3 219/1/3 220/1/3
f 199/1/4 218/1/4 200/1/4
f 208/1/1 219/1/1 207/1/1
f 204/1/50 247/1/50 202/1/50
f 222/1/2 223/1/2 221/1/2
f 216/1/51 249/1/51 206/1/51
f 210/1/1 223/1/1 224/1/1
f 203/1/4 243/1/4 226/1/4
f 225/1/3 228/1/3 227/1/3
f 199/1/4 239/1/4 217/1/4
f 212/1/1 228/1/1 211/1/1
f 220/1/3 255/1/3 218/1/3
f 233/1/52 239/1/52 229/1/52
f 232/1/52 235/1/52 231/1/52
f 230/1/52 233/1/52 229/1/52
f 230/1/52 237/1/52 234/1/52
f 232/1/52 241/1/52 236/1/52
f 235/1/52 243/1/52 231/1/52
f 205/1/1 233/1/1 234/1/1
f 211/1/1 244/1/1 235/1/1
f 223/1/1 236/1/1 241/1/1
f 201/1/4 231/1/4 203/1/4
f 217/1/3 240/1/3 219/1/3
f 213/1/2 237/1/2 238/1/2
f 226/1/3 244/1/3 228/1/3
f 209/1/1 235/1/1 236/1/1
f 221/1/2 241/1/2 242/1/2
f 207/1/1 240/1/1 233/1/1
f 249/1/53 253/1/53 245/1/53
f 248/1/53 251/1/53 247/1/53
f 246/1/53 249/1/53 245/1/53
f 246/1/53 256/1/53 250/1/53
f 251/1/53 257/1/53 247/1/53
f 248/1/53 260/1/53 252/1/53
f 212/1/51 251/1/51 252/1/51
f 218/1/50 246/1/50 200/1/50
f 225/1/50 248/1/50 204/1/50
f 224/1/51 251/1/51 210/1/51
f 220/1/51 250/1/51 256/1/51
f 200/1/50 245/1/50 198/1/50
f 227/1/51 252/1/51 260/1/51
f 208/1/51 249/1/51 250/1/51
f 216/1/2 253/1/2 254/1/2
f 224/1/2 257/1/2 258/1/2
f 264/1/4 262/1/4 265/1/4
f 261/1/2 269/1/2 262/1/2
f 267/1/3 264/1/3 265/1/3
f 267/1/1 263/1/1 266/1/1
f 268/2/1 269/1/1 267/1/1
f 268/2/3 265/1/3 274/3/3
f 270/2/2 262/1/2 269/1/2
f 293/4/54 270/2/54 268/2/54
f 275/10/2 289/13/2 288/6/2
f 274/3/6 273/7/6 310/7/6
f 275/10/2 300/19/2 306/21/2
f 265/1/4 272/3/4 274/3/4
f 278/1/2 275/10/2 277/11/2
f 280/11/55 278/1/55 277/11/55
f 280/11/56 279/12/56 283/12/56
f 281/1/3 282/10/3 295/1/3
f 274/3/3 285/5/3 290/6/3
f 283/12/57 286/14/57 284/14/57
f 284/14/58 287/5/58 285/5/58
f 285/5/59 288/6/59 290/6/59
f 290/6/60 289/13/60 291/13/60
f 291/13/61 294/15/61 292/15/61
f 292/15/62 271/4/62 293/4/62
f 297/9/3 282/10/3 310/7/3
f 295/1/63 278/1/63 281/1/63
f 295/1/64 298/17/64 276/1/64
f 297/9/65 298/17/65 296/18/65
f 302/19/66 299/9/66 297/9/66
f 303/20/67 300/19/67 302/19/67
f 303/20/68 306/21/68 301/20/68
f 305/8/69 306/21/69 304/16/69
f 309/22/70 307/8/70 305/8/70
f 310/7/71 308/22/71 309/22/71
f 261/1/2 312/1/2 263/1/2
f 263/1/72 314/1/72 266/1/72
f 314/1/3 264/1/3 266/1/3
f 313/1/73 261/1/73 264/1/73
f 316/1/74 314/1/74 312/1/74
f 317/1/75 311/1/75 313/1/75
f 318/1/3 313/1/3 314/1/3
f 311/1/2 316/1/2 312/1/2
f 322/1/3 317/1/3 318/1/3
f 315/1/2 320/1/2 316/1/2
f 320/1/76 318/1/76 316/1/76
f 321/1/77 315/1/77 317/1/77
f 326/1/3 321/1/3 322/1/3
f 319/1/2 324/1/2 320/1/2
f 324/1/78 322/1/78 320/1/78
f 325/1/79 319/1/79 321/1/79
f 328/1/80 326/1/80 324/1/80
f 329/1/81 323/1/81 325/1/81
f 330/1/3 325/1/3 326/1/3
f 323/1/2 328/1/2 324/1/2
f 330/1/3 333/1/3 329/1/3
f 331/1/2 328/1/2 327/1/2
f 332/1/82 330/1/82 328/1/82
f 333/1/83 327/1/83 329/1/83
f 338/1/4 336/1/4 339/1/4
f 335/1/2 343/1/2 336/1/2
f 341/1/3 338/1/3 339/1/3
f 341/1/1 337/1/1 340/1/1
f 342/2/1 343/1/1 341/1/1
f 342/2/3 339/1/3 348/3/3
f 344/2/2 336/1/2 343/1/2
f 367/4/54 344/2/54 342/2/54
f 349/10/2 363/13/2 362/6/2
f 348/3/6 347/7/6 384/7/6
f 349/10/2 374/19/2 380/21/2
f 339/1/4 346/3/4 348/3/4
f 352/1/2 349/10/2 351/11/2
f 355/1/55 351/11/55 354/11/55
f 354/11/56 353/12/56 357/12/56
f 355/1/3 356/10/3 369/1/3
f 348/3/3 359/5/3 364/6/3
f 357/12/57 360/14/57 358/14/57
f 358/14/58 361/5/58 359/5/58
f 359/5/59 362/6/59 364/6/59
f 364/6/60 363/13/60 365/13/60
f 365/13/61 368/15/61 366/15/61
f 366/15/62 345/4/62 367/4/62
f 371/9/3 356/10/3 384/7/3
f 369/1/63 352/1/63 355/1/63
f 370/18/64 350/1/64 369/1/64
f 371/9/65 372/17/65 370/18/65
f 376/19/66 373/9/66 371/9/66
f 377/20/67 374/19/67 376/19/67
f 378/16/68 375/20/68 377/20/68
f 379/8/69 380/21/69 378/16/69
f 383/22/70 381/8/70 379/8/70
f 384/7/71 382/22/71 383/22/71
f 335/1/2 386/1/2 337/1/2
f 337/1/72 388/1/72 340/1/72
f 388/1/3 338/1/3 340/1/3
f 387/1/73 335/1/73 338/1/73
f 390/1/74 388/1/74 386/1/74
f 391/1/75 385/1/75 387/1/75
f 392/1/3 387/1/3 388/1/3
f 385/1/2 390/1/2 386/1/2
f 396/1/3 391/1/3 392/1/3
f 389/1/2 394/1/2 390/1/2
f 394/1/76 392/1/76 390/1/76
f 395/1/77 389/1/77 391/1/77
f 400/1/3 395/1/3 396/1/3
f 393/1/2 398/1/2 394/1/2
f 398/1/78 396/1/78 394/1/78
f 399/1/79 393/1/79 395/1/79
f 402/1/80 400/1/80 398/1/80
f 403/1/81 397/1/81 399/1/81
f 404/1/3 399/1/3 400/1/3
f 397/1/2 402/1/2 398/1/2
f 404/1/3 407/1/3 403/1/3
f 405/1/2 402/1/2 401/1/2
f 406/1/82 404/1/82 402/1/82
f 407/1/83 401/1/83 403/1/83
f 410/1/84 334/1/84 332/1/84
f 413/1/2 406/1/2 405/1/2
f 419/1/85 409/1/85 411/1/85
f 418/1/86 412/1/86 410/1/86
f 414/1/84 408/1/84 406/1/84
f 411/1/87 331/1/87 333/1/87
f 415/1/87 405/1/87 407/1/87
f 334/1/3 411/1/3 333/1/3
f 408/1/3 415/1/3 407/1/3
f 409/1/2 332/1/2 331/1/2
f 431/1/88 421/1/88 423/1/88
f 430/1/89 424/1/89 422/1/89
f 416/1/3 423/1/3 415/1/3
f 421/1/2 414/1/2 413/1/2
f 412/1/3 419/1/3 411/1/3
f 417/1/2 410/1/2 409/1/2
f 422/1/86 416/1/86 414/1/86
f 423/1/85 413/1/85 415/1/85
f 428/1/3 435/1/3 427/1/3
f 437/1/2 430/1/2 429/1/2
f 426/1/89 420/1/89 418/1/89
f 427/1/88 417/1/88 419/1/88
f 432/1/3 423/1/3 424/1/3
f 421/1/2 430/1/2 422/1/2
f 428/1/3 419/1/3 420/1/3
f 417/1/2 426/1/2 418/1/2
f 437/1/2 446/1/2 438/1/2
f 448/1/3 439/1/3 440/1/3
f 433/1/2 426/1/2 425/1/2
f 438/1/90 432/1/90 430/1/90
f 439/1/91 429/1/91 431/1/91
f 434/1/90 428/1/90 426/1/90
f 435/1/91 425/1/91 427/1/91
f 432/1/3 439/1/3 431/1/3
f 450/1/92 444/1/92 442/1/92
f 455/1/93 445/1/93 447/1/93
f 444/1/3 435/1/3 436/1/3
f 433/1/2 442/1/2 434/1/2
f 446/1/94 440/1/94 438/1/94
f 447/1/95 437/1/95 439/1/95
f 442/1/94 436/1/94 434/1/94
f 443/1/95 433/1/95 435/1/95
f 462/1/96 456/1/96 454/1/96
f 449/1/2 458/1/2 450/1/2
f 451/1/93 441/1/93 443/1/93
f 456/1/3 447/1/3 448/1/3
f 445/1/2 454/1/2 446/1/2
f 452/1/3 443/1/3 444/1/3
f 441/1/2 450/1/2 442/1/2
f 454/1/92 448/1/92 446/1/92
f 481/1/1 462/1/1 461/1/1
f 485/1/1 463/1/1 464/1/1
f 463/1/97 453/1/97 455/1/97
f 458/1/96 452/1/96 450/1/96
f 459/1/97 449/1/97 451/1/97
f 464/1/3 455/1/3 456/1/3
f 453/1/2 462/1/2 454/1/2
f 460/1/3 451/1/3 452/1/3
f 466/1/4 467/1/4 468/1/4
f 471/1/4 470/1/4 469/1/4
f 475/1/4 494/1/4 465/1/4
f 482/1/98 507/1/98 462/1/98
f 474/1/98 505/1/98 458/1/98
f 492/1/1 481/1/1 461/1/1
f 519/1/3 487/1/3 485/1/3
f 490/1/1 473/1/1 457/1/1
f 475/1/2 474/1/2 473/1/2
f 473/1/1 458/1/1 457/1/1
f 489/1/1 457/1/1 459/1/1
f 466/1/4 475/1/4 465/1/4
f 478/1/3 479/1/3 477/1/3
f 478/1/1 459/1/1 460/1/1
f 479/1/4 468/1/4 467/1/4
f 507/1/98 464/1/98 462/1/98
f 483/1/2 482/1/2 481/1/2
f 509/1/99 476/1/99 466/1/99
f 470/1/4 483/1/4 469/1/4
f 503/1/1 463/1/1 486/1/1
f 485/1/3 488/1/3 486/1/3
f 499/1/1 459/1/1 477/1/1
f 488/1/4 472/1/4 471/1/4
f 515/1/3 480/1/3 478/1/3
f 499/1/100 493/1/100 489/1/100
f 495/1/100 492/1/100 491/1/100
f 493/1/100 490/1/100 489/1/100
f 497/1/100 490/1/100 494/1/100
f 501/1/100 492/1/100 496/1/100
f 503/1/100 495/1/100 491/1/100
f 465/1/4 493/1/4 467/1/4
f 471/1/4 504/1/4 488/1/4
f 483/1/4 496/1/4 469/1/4
f 491/1/1 461/1/1 463/1/1
f 500/1/3 477/1/3 479/1/3
f 473/1/2 497/1/2 475/1/2
f 504/1/3 486/1/3 488/1/3
f 469/1/4 495/1/4 471/1/4
f 481/1/2 501/1/2 483/1/2
f 467/1/4 500/1/4 479/1/4
f 513/1/101 509/1/101 505/1/101
f 511/1/101 508/1/101 507/1/101
f 509/1/101 506/1/101 505/1/101
f 516/1/101 506/1/101 510/1/101
f 517/1/101 511/1/101 507/1/101
f 520/1/101 508/1/101 512/1/101
f 472/1/99 511/1/99 470/1/99
f 506/1/98 478/1/98 460/1/98
f 508/1/98 485/1/98 464/1/98
f 511/1/99 484/1/99 470/1/99
f 480/1/99 510/1/99 468/1/99
f 505/1/98 460/1/98 458/1/98
f 487/1/99 512/1/99 472/1/99
f 468/1/99 509/1/99 466/1/99
f 476/1/2 513/1/2 474/1/2
f 484/1/2 517/1/2 482/1/2
f 2/1/1 1/1/1 4/1/1
f 9/1/2 3/1/2 1/1/2
f 4/1/3 6/1/3 7/1/3
f 3/1/4 9/1/4 7/1/4
f 9/1/4 10/2/4 8/2/4
f 8/2/3 14/3/3 5/1/3
f 10/2/2 9/1/2 2/1/2
f 10/2/5 11/4/5 33/4/5
f 11/4/2 10/2/2 12/3/2
f 12/3/2 15/10/2 17/11/2
f 12/3/2 17/11/2 19/12/2
f 34/15/2 11/4/2 12/3/2
f 29/13/2 34/15/2 12/3/2
f 12/3/2 19/12/2 26/14/2
f 12/3/2 26/14/2 27/5/2
f 28/6/2 29/13/2 12/3/2
f 13/7/6 12/3/6 14/3/6
f 15/10/2 12/3/2 13/7/2
f 13/7/2 48/22/2 47/8/2
f 47/8/102 46/21/102 41/20/102
f 47/8/2 41/20/2 40/19/2
f 15/10/2 13/7/2 47/8/2
f 38/17/2 16/1/2 15/10/2
f 47/8/103 40/19/103 39/9/103
f 39/9/2 38/17/2 15/10/2
f 12/3/1 2/1/1 5/1/1
f 18/1/2 17/11/2 15/10/2
f 20/11/7 17/11/7 18/1/7
f 19/12/8 17/11/8 20/11/8
f 21/1/3 35/1/3 22/10/3
f 23/12/3 20/11/3 22/10/3
f 22/10/3 14/3/3 8/2/3
f 22/10/3 8/2/3 33/4/3
f 24/14/3 23/12/3 22/10/3
f 25/5/3 24/14/3 22/10/3
f 22/10/3 33/4/3 32/15/3
f 22/10/3 32/15/3 31/13/3
f 30/6/3 25/5/3 22/10/3
f 26/14/9 19/12/9 23/12/9
f 27/5/10 26/14/10 24/14/10
f 28/6/11 27/5/11 25/5/11
f 29/13/12 28/6/12 30/6/12
f 34/15/13 29/13/13 31/13/13
f 11/4/14 34/15/14 32/15/14
f 44/16/3 45/8/3 49/22/3
f 49/22/3 50/7/3 14/3/3
f 14/3/3 22/10/3 35/1/3
f 14/3/3 35/1/3 36/18/3
f 44/16/3 49/22/3 14/3/3
f 42/19/3 43/20/3 44/16/3
f 14/3/3 36/18/3 37/9/3
f 37/9/3 42/19/3 44/16/3
f 18/1/15 16/1/15 35/1/15
f 35/1/16 16/1/16 38/17/16
f 38/17/17 39/9/17 37/9/17
f 39/9/18 40/19/18 42/19/18
f 40/19/19 41/20/19 43/20/19
f 43/20/20 41/20/20 46/21/20
f 46/21/21 47/8/21 45/8/21
f 47/8/22 48/22/22 49/22/22
f 48/22/23 13/7/23 50/7/23
f 1/1/2 3/1/2 52/1/2
f 3/1/24 6/1/24 54/1/24
f 4/1/3 53/1/3 54/1/3
f 1/1/25 51/1/25 53/1/25
f 54/1/26 58/1/26 56/1/26
f 51/1/27 55/1/27 57/1/27
f 53/1/3 57/1/3 58/1/3
f 51/1/2 52/1/2 56/1/2
f 57/1/3 61/1/3 62/1/3
f 55/1/2 56/1/2 60/1/2
f 58/1/28 62/1/28 60/1/28
f 55/1/29 59/1/29 61/1/29
f 61/1/3 65/1/3 66/1/3
f 59/1/2 60/1/2 64/1/2
f 62/1/30 66/1/30 64/1/30
f 59/1/31 63/1/31 65/1/31
f 66/1/32 70/1/32 68/1/32
f 63/1/33 67/1/33 69/1/33
f 65/1/3 69/1/3 70/1/3
f 63/1/2 64/1/2 68/1/2
f 70/1/3 69/1/3 73/1/3
f 68/1/2 72/1/2 71/1/2
f 70/1/34 74/1/34 72/1/34
f 67/1/35 71/1/35 73/1/35
f 76/1/1 75/1/1 78/1/1
f 83/1/2 77/1/2 75/1/2
f 78/1/3 80/1/3 81/1/3
f 77/1/4 83/1/4 81/1/4
f 83/1/4 84/2/4 82/2/4
f 82/2/3 88/3/3 79/1/3
f 84/2/2 83/1/2 76/1/2
f 84/2/5 85/4/5 107/4/5
f 85/4/2 84/2/2 86/3/2
f 86/3/2 89/10/2 91/11/2
f 86/3/2 91/11/2 93/12/2
f 108/15/2 85/4/2 86/3/2
f 103/13/2 108/15/2 86/3/2
f 86/3/2 93/12/2 100/14/2
f 86/3/2 100/14/2 101/5/2
f 102/6/2 103/13/2 86/3/2
f 87/7/6 86/3/6 88/3/6
f 89/10/2 86/3/2 87/7/2
f 87/7/2 122/22/2 121/8/2
f 121/8/104 120/21/104 115/20/104
f 121/8/2 115/20/2 114/19/2
f 89/10/2 87/7/2 121/8/2
f 112/17/2 90/1/2 89/10/2
f 121/8/2 114/19/2 113/9/2
f 113/9/2 112/17/2 89/10/2
f 86/3/1 76/1/1 79/1/1
f 92/1/2 91/11/2 89/10/2
f 91/11/7 92/1/7 95/1/7
f 93/12/8 91/11/8 94/11/8
f 95/1/3 109/1/3 96/10/3
f 97/12/3 94/11/3 96/10/3
f 96/10/3 88/3/3 82/2/3
f 96/10/105 82/2/105 107/4/105
f 98/14/3 97/12/3 96/10/3
f 99/5/3 98/14/3 96/10/3
f 96/10/3 107/4/3 106/15/3
f 96/10/3 106/15/3 105/13/3
f 104/6/3 99/5/3 96/10/3
f 100/14/9 93/12/9 97/12/9
f 101/5/10 100/14/10 98/14/10
f 102/6/11 101/5/11 99/5/11
f 103/13/12 102/6/12 104/6/12
f 108/15/13 103/13/13 105/13/13
f 85/4/14 108/15/14 106/15/14
f 118/16/3 119/8/3 123/22/3
f 123/22/3 124/7/3 88/3/3
f 88/3/3 96/10/3 109/1/3
f 88/3/3 109/1/3 110/18/3
f 118/16/3 123/22/3 88/3/3
f 116/19/3 117/20/3 118/16/3
f 88/3/3 110/18/3 111/9/3
f 111/9/3 116/19/3 118/16/3
f 92/1/15 90/1/15 109/1/15
f 90/1/16 112/17/16 110/18/16
f 112/17/17 113/9/17 111/9/17
f 113/9/18 114/19/18 116/19/18
f 114/19/19 115/20/19 117/20/19
f 115/20/20 120/21/20 118/16/20
f 120/21/21 121/8/21 119/8/21
f 121/8/22 122/22/22 123/22/22
f 122/22/23 87/7/23 124/7/23
f 75/1/2 77/1/2 126/1/2
f 77/1/24 80/1/24 128/1/24
f 78/1/3 127/1/3 128/1/3
f 75/1/25 125/1/25 127/1/25
f 128/1/26 132/1/26 130/1/26
f 125/1/27 129/1/27 131/1/27
f 127/1/3 131/1/3 132/1/3
f 125/1/2 126/1/2 130/1/2
f 131/1/3 135/1/3 136/1/3
f 129/1/2 130/1/2 134/1/2
f 132/1/28 136/1/28 134/1/28
f 129/1/29 133/1/29 135/1/29
f 135/1/3 139/1/3 140/1/3
f 133/1/2 134/1/2 138/1/2
f 136/1/30 140/1/30 138/1/30
f 133/1/31 137/1/31 139/1/31
f 140/1/32 144/1/32 142/1/32
f 137/1/33 141/1/33 143/1/33
f 139/1/3 143/1/3 144/1/3
f 137/1/2 138/1/2 142/1/2
f 144/1/3 143/1/3 147/1/3
f 142/1/2 146/1/2 145/1/2
f 144/1/34 148/1/34 146/1/34
f 141/1/35 145/1/35 147/1/35
f 74/1/36 152/1/36 150/1/36
f 146/1/2 154/1/2 153/1/2
f 149/1/37 157/1/37 159/1/37
f 152/1/38 160/1/38 158/1/38
f 148/1/36 156/1/36 154/1/36
f 71/1/39 149/1/39 151/1/39
f 145/1/39 153/1/39 155/1/39
f 74/1/3 73/1/3 151/1/3
f 148/1/3 147/1/3 155/1/3
f 72/1/2 150/1/2 149/1/2
f 161/1/40 169/1/40 171/1/40
f 164/1/41 172/1/41 170/1/41
f 156/1/3 155/1/3 163/1/3
f 154/1/2 162/1/2 161/1/2
f 152/1/3 151/1/3 159/1/3
f 150/1/2 158/1/2 157/1/2
f 156/1/38 164/1/38 162/1/38
f 153/1/37 161/1/37 163/1/37
f 168/1/3 167/1/3 175/1/3
f 170/1/2 178/1/2 177/1/2
f 160/1/41 168/1/41 166/1/41
f 157/1/40 165/1/40 167/1/40
f 163/1/3 171/1/3 172/1/3
f 161/1/2 162/1/2 170/1/2
f 159/1/3 167/1/3 168/1/3
f 157/1/2 158/1/2 166/1/2
f 177/1/2 178/1/2 186/1/2
f 179/1/3 187/1/3 188/1/3
f 166/1/2 174/1/2 173/1/2
f 172/1/42 180/1/42 178/1/42
f 169/1/43 177/1/43 179/1/43
f 168/1/42 176/1/42 174/1/42
f 165/1/43 173/1/43 175/1/43
f 172/1/3 171/1/3 179/1/3
f 184/1/44 192/1/44 190/1/44
f 185/1/45 193/1/45 195/1/45
f 175/1/3 183/1/3 184/1/3
f 173/1/2 174/1/2 182/1/2
f 180/1/46 188/1/46 186/1/46
f 177/1/47 185/1/47 187/1/47
f 176/1/46 184/1/46 182/1/46
f 173/1/47 181/1/47 183/1/47
f 196/1/48 204/1/48 202/1/48
f 189/1/2 190/1/2 198/1/2
f 181/1/45 189/1/45 191/1/45
f 187/1/3 195/1/3 196/1/3
f 185/1/2 186/1/2 194/1/2
f 183/1/3 191/1/3 192/1/3
f 181/1/2 182/1/2 190/1/2
f 188/1/44 196/1/44 194/1/44
f 202/1/4 222/1/4 221/1/4
f 203/1/4 226/1/4 225/1/4
f 193/1/49 201/1/49 203/1/49
f 192/1/48 200/1/48 198/1/48
f 189/1/49 197/1/49 199/1/49
f 195/1/3 203/1/3 204/1/3
f 193/1/2 194/1/2 202/1/2
f 191/1/3 199/1/3 200/1/3
f 206/1/1 208/1/1 207/1/1
f 210/1/1 212/1/1 211/1/1
f 215/1/1 205/1/1 234/1/1
f 222/1/50 202/1/50 247/1/50
f 214/1/50 198/1/50 245/1/50
f 221/1/4 242/1/4 232/1/4
f 227/1/3 260/1/3 259/1/3
f 213/1/4 238/1/4 230/1/4
f 214/1/2 216/1/2 215/1/2
f 198/1/4 214/1/4 213/1/4
f 197/1/4 230/1/4 229/1/4
f 206/1/1 205/1/1 215/1/1
f 218/1/3 217/1/3 219/1/3
f 199/1/4 217/1/4 218/1/4
f 208/1/1 220/1/1 219/1/1
f 204/1/50 248/1/50 247/1/50
f 222/1/2 224/1/2 223/1/2
f 216/1/51 254/1/51 249/1/51
f 210/1/1 209/1/1 223/1/1
f 203/1/4 231/1/4 243/1/4
f 225/1/3 226/1/3 228/1/3
f 199/1/4 229/1/4 239/1/4
f 212/1/1 227/1/1 228/1/1
f 220/1/3 256/1/3 255/1/3
f 233/1/52 240/1/52 239/1/52
f 232/1/52 236/1/52 235/1/52
f 230/1/52 234/1/52 233/1/52
f 230/1/52 238/1/52 237/1/52
f 232/1/52 242/1/52 241/1/52
f 235/1/52 244/1/52 243/1/52
f 205/1/1 207/1/1 233/1/1
f 211/1/1 228/1/1 244/1/1
f 223/1/1 209/1/1 236/1/1
f 201/1/4 232/1/4 231/1/4
f 217/1/3 239/1/3 240/1/3
f 213/1/2 215/1/2 237/1/2
f 226/1/3 243/1/3 244/1/3
f 209/1/1 211/1/1 235/1/1
f 221/1/2 223/1/2 241/1/2
f 207/1/1 219/1/1 240/1/1
f 249/1/53 254/1/53 253/1/53
f 248/1/53 252/1/53 251/1/53
f 246/1/53 250/1/53 249/1/53
f 246/1/53 255/1/53 256/1/53
f 251/1/53 258/1/53 257/1/53
f 248/1/53 259/1/53 260/1/53
f 212/1/51 210/1/51 251/1/51
f 218/1/50 255/1/50 246/1/50
f 225/1/50 259/1/50 248/1/50
f 224/1/51 258/1/51 251/1/51
f 220/1/51 208/1/51 250/1/51
f 200/1/50 246/1/50 245/1/50
f 227/1/51 212/1/51 252/1/51
f 208/1/51 206/1/51 249/1/51
f 216/1/2 214/1/2 253/1/2
f 224/1/2 222/1/2 257/1/2
f 264/1/4 261/1/4 262/1/4
f 261/1/2 263/1/2 269/1/2
f 267/1/3 266/1/3 264/1/3
f 267/1/1 269/1/1 263/1/1
f 268/2/1 270/2/1 269/1/1
f 268/2/3 267/1/3 265/1/3
f 270/2/2 272/3/2 262/1/2
f 293/4/54 271/4/54 270/2/54
f 279/12/2 277/11/2 275/10/2
f 275/10/2 272/3/2 270/2/2
f 275/10/2 270/2/2 271/4/2
f 286/14/2 279/12/2 275/10/2
f 287/5/2 286/14/2 275/10/2
f 275/10/2 271/4/2 294/15/2
f 275/10/2 294/15/2 289/13/2
f 288/6/2 287/5/2 275/10/2
f 274/3/6 272/3/6 273/7/6
f 273/7/2 272/3/2 275/10/2
f 275/10/2 276/1/2 298/17/2
f 275/10/2 298/17/2 299/9/2
f 308/22/2 273/7/2 275/10/2
f 306/21/2 307/8/2 308/22/2
f 300/19/103 301/20/103 306/21/103
f 275/10/2 299/9/2 300/19/2
f 306/21/2 308/22/2 275/10/2
f 265/1/4 262/1/4 272/3/4
f 278/1/2 276/1/2 275/10/2
f 280/11/55 281/1/55 278/1/55
f 280/11/56 277/11/56 279/12/56
f 281/1/3 280/11/3 282/10/3
f 293/4/3 268/2/3 274/3/3
f 274/3/3 282/10/3 280/11/3
f 274/3/3 280/11/3 283/12/3
f 292/15/3 293/4/3 274/3/3
f 291/13/3 292/15/3 274/3/3
f 274/3/3 283/12/3 284/14/3
f 274/3/3 284/14/3 285/5/3
f 290/6/3 291/13/3 274/3/3
f 283/12/57 279/12/57 286/14/57
f 284/14/58 286/14/58 287/5/58
f 285/5/59 287/5/59 288/6/59
f 290/6/60 288/6/60 289/13/60
f 291/13/61 289/13/61 294/15/61
f 292/15/62 294/15/62 271/4/62
f 309/22/3 305/8/3 304/16/3
f 304/16/3 303/20/3 302/19/3
f 304/16/105 302/19/105 297/9/105
f 310/7/3 309/22/3 304/16/3
f 282/10/3 274/3/3 310/7/3
f 296/18/3 295/1/3 282/10/3
f 310/7/3 304/16/3 297/9/3
f 297/9/3 296/18/3 282/10/3
f 295/1/63 276/1/63 278/1/63
f 295/1/64 296/18/64 298/17/64
f 297/9/65 299/9/65 298/17/65
f 302/19/66 300/19/66 299/9/66
f 303/20/67 301/20/67 300/19/67
f 303/20/68 304/16/68 306/21/68
f 305/8/69 307/8/69 306/21/69
f 309/22/70 308/22/70 307/8/70
f 310/7/71 273/7/71 308/22/71
f 261/1/2 311/1/2 312/1/2
f 263/1/72 312/1/72 314/1/72
f 314/1/3 313/1/3 264/1/3
f 313/1/73 311/1/73 261/1/73
f 316/1/74 318/1/74 314/1/74
f 317/1/75 315/1/75 311/1/75
f 318/1/3 317/1/3 313/1/3
f 311/1/2 315/1/2 316/1/2
f 322/1/3 321/1/3 317/1/3
f 315/1/2 319/1/2 320/1/2
f 320/1/76 322/1/76 318/1/76
f 321/1/77 319/1/77 315/1/77
f 326/1/3 325/1/3 321/1/3
f 319/1/2 323/1/2 324/1/2
f 324/1/78 326/1/78 322/1/78
f 325/1/79 323/1/79 319/1/79
f 328/1/80 330/1/80 326/1/80
f 329/1/81 327/1/81 323/1/81
f 330/1/3 329/1/3 325/1/3
f 323/1/2 327/1/2 328/1/2
f 330/1/3 334/1/3 333/1/3
f 331/1/2 332/1/2 328/1/2
f 332/1/82 334/1/82 330/1/82
f 333/1/83 331/1/83 327/1/83
f 338/1/4 335/1/4 336/1/4
f 335/1/2 337/1/2 343/1/2
f 341/1/3 340/1/3 338/1/3
f 341/1/1 343/1/1 337/1/1
f 342/2/1 344/2/1 343/1/1
f 342/2/3 341/1/3 339/1/3
f 344/2/2 346/3/2 336/1/2
f 367/4/54 345/4/54 344/2/54
f 353/12/2 351/11/2 349/10/2
f 349/10/2 346/3/2 344/2/2
f 349/10/2 344/2/2 345/4/2
f 360/14/2 353/12/2 349/10/2
f 361/5/2 360/14/2 349/10/2
f 349/10/2 345/4/2 368/15/2
f 349/10/2 368/15/2 363/13/2
f 362/6/2 361/5/2 349/10/2
f 348/3/6 346/3/6 347/7/6
f 347/7/2 346/3/2 349/10/2
f 349/10/2 350/1/2 372/17/2
f 349/10/2 372/17/2 373/9/2
f 382/22/2 347/7/2 349/10/2
f 380/21/2 381/8/2 382/22/2
f 374/19/2 375/20/2 380/21/2
f 349/10/2 373/9/2 374/19/2
f 380/21/2 382/22/2 349/10/2
f 339/1/4 336/1/4 346/3/4
f 352/1/2 350/1/2 349/10/2
f 355/1/55 352/1/55 351/11/55
f 354/11/56 351/11/56 353/12/56
f 355/1/3 354/11/3 356/10/3
f 367/4/3 342/2/3 348/3/3
f 348/3/3 356/10/3 354/11/3
f 348/3/3 354/11/3 357/12/3
f 366/15/3 367/4/3 348/3/3
f 365/13/3 366/15/3 348/3/3
f 348/3/3 357/12/3 358/14/3
f 348/3/3 358/14/3 359/5/3
f 364/6/3 365/13/3 348/3/3
f 357/12/57 353/12/57 360/14/57
f 358/14/58 360/14/58 361/5/58
f 359/5/59 361/5/59 362/6/59
f 364/6/60 362/6/60 363/13/60
f 365/13/61 363/13/61 368/15/61
f 366/15/62 368/15/62 345/4/62
f 383/22/3 379/8/3 378/16/3
f 378/16/3 377/20/3 376/19/3
f 378/16/3 376/19/3 371/9/3
f 384/7/3 383/22/3 378/16/3
f 356/10/3 348/3/3 384/7/3
f 370/18/3 369/1/3 356/10/3
f 384/7/3 378/16/3 371/9/3
f 371/9/3 370/18/3 356/10/3
f 369/1/63 350/1/63 352/1/63
f 370/18/64 372/17/64 350/1/64
f 371/9/65 373/9/65 372/17/65
f 376/19/66 374/19/66 373/9/66
f 377/20/67 375/20/67 374/19/67
f 378/16/68 380/21/68 375/20/68
f 379/8/69 381/8/69 380/21/69
f 383/22/70 382/22/70 381/8/70
f 384/7/71 347/7/71 382/22/71
f 335/1/2 385/1/2 386/1/2
f 337/1/72 386/1/72 388/1/72
f 388/1/3 387/1/3 338/1/3
f 387/1/73 385/1/73 335/1/73
f 390/1/74 392/1/74 388/1/74
f 391/1/75 389/1/75 385/1/75
f 392/1/3 391/1/3 387/1/3
f 385/1/2 389/1/2 390/1/2
f 396/1/3 395/1/3 391/1/3
f 389/1/2 393/1/2 394/1/2
f 394/1/76 396/1/76 392/1/76
f 395/1/77 393/1/77 389/1/77
f 400/1/3 399/1/3 395/1/3
f 393/1/2 397/1/2 398/1/2
f 398/1/78 400/1/78 396/1/78
f 399/1/79 397/1/79 393/1/79
f 402/1/80 404/1/80 400/1/80
f 403/1/81 401/1/81 397/1/81
f 404/1/3 403/1/3 399/1/3
f 397/1/2 401/1/2 402/1/2
f 404/1/3 408/1/3 407/1/3
f 405/1/2 406/1/2 402/1/2
f 406/1/82 408/1/82 404/1/82
f 407/1/83 405/1/83 401/1/83
f 410/1/84 412/1/84 334/1/84
f 413/1/2 414/1/2 406/1/2
f 419/1/85 417/1/85 409/1/85
f 418/1/86 420/1/86 412/1/86
f 414/1/84 416/1/84 408/1/84
f 411/1/87 409/1/87 331/1/87
f 415/1/87 413/1/87 405/1/87
f 334/1/3 412/1/3 411/1/3
f 408/1/3 416/1/3 415/1/3
f 409/1/2 410/1/2 332/1/2
f 431/1/88 429/1/88 421/1/88
f 430/1/89 432/1/89 424/1/89
f 416/1/3 424/1/3 423/1/3
f 421/1/2 422/1/2 414/1/2
f 412/1/3 420/1/3 419/1/3
f 417/1/2 418/1/2 410/1/2
f 422/1/86 424/1/86 416/1/86
f 423/1/85 421/1/85 413/1/85
f 428/1/3 436/1/3 435/1/3
f 437/1/2 438/1/2 430/1/2
f 426/1/89 428/1/89 420/1/89
f 427/1/88 425/1/88 417/1/88
f 432/1/3 431/1/3 423/1/3
f 421/1/2 429/1/2 430/1/2
f 428/1/3 427/1/3 419/1/3
f 417/1/2 425/1/2 426/1/2
f 437/1/2 445/1/2 446/1/2
f 448/1/3 447/1/3 439/1/3
f 433/1/2 434/1/2 426/1/2
f 438/1/90 440/1/90 432/1/90
f 439/1/91 437/1/91 429/1/91
f 434/1/90 436/1/90 428/1/90
f 435/1/91 433/1/91 425/1/91
f 432/1/3 440/1/3 439/1/3
f 450/1/92 452/1/92 444/1/92
f 455/1/93 453/1/93 445/1/93
f 444/1/3 443/1/3 435/1/3
f 433/1/2 441/1/2 442/1/2
f 446/1/94 448/1/94 440/1/94
f 447/1/95 445/1/95 437/1/95
f 442/1/94 444/1/94 436/1/94
f 443/1/95 441/1/95 433/1/95
f 462/1/96 464/1/96 456/1/96
f 449/1/2 457/1/2 458/1/2
f 451/1/93 449/1/93 441/1/93
f 456/1/3 455/1/3 447/1/3
f 445/1/2 453/1/2 454/1/2
f 452/1/3 451/1/3 443/1/3
f 441/1/2 449/1/2 450/1/2
f 454/1/92 456/1/92 448/1/92
f 481/1/1 482/1/1 462/1/1
f 485/1/1 486/1/1 463/1/1
f 463/1/97 461/1/97 453/1/97
f 458/1/96 460/1/96 452/1/96
f 459/1/97 457/1/97 449/1/97
f 464/1/3 463/1/3 455/1/3
f 453/1/2 461/1/2 462/1/2
f 460/1/3 459/1/3 451/1/3
f 466/1/4 465/1/4 467/1/4
f 471/1/4 472/1/4 470/1/4
f 475/1/4 497/1/4 494/1/4
f 482/1/98 517/1/98 507/1/98
f 474/1/98 513/1/98 505/1/98
f 492/1/1 502/1/1 481/1/1
f 519/1/3 520/1/3 487/1/3
f 490/1/1 498/1/1 473/1/1
f 475/1/2 476/1/2 474/1/2
f 473/1/1 474/1/1 458/1/1
f 489/1/1 490/1/1 457/1/1
f 466/1/4 476/1/4 475/1/4
f 478/1/3 480/1/3 479/1/3
f 478/1/1 477/1/1 459/1/1
f 479/1/4 480/1/4 468/1/4
f 507/1/98 508/1/98 464/1/98
f 483/1/2 484/1/2 482/1/2
f 509/1/99 514/1/99 476/1/99
f 470/1/4 484/1/4 483/1/4
f 503/1/1 491/1/1 463/1/1
f 485/1/3 487/1/3 488/1/3
f 499/1/1 489/1/1 459/1/1
f 488/1/4 487/1/4 472/1/4
f 515/1/3 516/1/3 480/1/3
f 499/1/100 500/1/100 493/1/100
f 495/1/100 496/1/100 492/1/100
f 493/1/100 494/1/100 490/1/100
f 497/1/100 498/1/100 490/1/100
f 501/1/100 502/1/100 492/1/100
f 503/1/100 504/1/100 495/1/100
f 465/1/4 494/1/4 493/1/4
f 471/1/4 495/1/4 504/1/4
f 483/1/4 501/1/4 496/1/4
f 491/1/1 492/1/1 461/1/1
f 500/1/3 499/1/3 477/1/3
f 473/1/2 498/1/2 497/1/2
f 504/1/3 503/1/3 486/1/3
f 469/1/4 496/1/4 495/1/4
f 481/1/2 502/1/2 501/1/2
f 467/1/4 493/1/4 500/1/4
f 513/1/101 514/1/101 509/1/101
f 511/1/101 512/1/101 508/1/101
f 509/1/101 510/1/101 506/1/101
f 516/1/101 515/1/101 506/1/101
f 517/1/101 518/1/101 511/1/101
f 520/1/101 519/1/101 508/1/101
f 472/1/99 512/1/99 511/1/99
f 506/1/98 515/1/98 478/1/98
f 508/1/98 519/1/98 485/1/98
f 511/1/99 518/1/99 484/1/99
f 480/1/99 516/1/99 510/1/99
f 505/1/98 506/1/98 460/1/98
f 487/1/99 520/1/99 512/1/99
f 468/1/99 510/1/99 509/1/99
f 476/1/2 514/1/2 513/1/2
f 484/1/2 518/1/2 517/1/2
