# Blender 5.1.2
# www.blender.org
o Cube.008
v 132.212677 198.300003 32.318550
v 132.212677 200.400009 32.318550
v 132.212677 198.300003 35.218544
v 134.700043 198.300003 32.318546
v 134.700043 200.400009 32.318546
v 134.700043 198.300003 35.218544
v 132.212677 198.300003 38.418549
v 132.212677 198.300003 39.518547
v 132.212677 200.400009 39.518547
v 134.700043 198.300003 38.418549
v 134.700043 198.300003 39.518547
v 134.700043 200.400009 39.518547
v 130.412781 206.300003 32.318550
v 132.212677 206.300003 32.318550
v 132.212677 205.300003 35.218544
v 130.412781 209.300003 32.318550
v 132.212677 209.300003 32.318550
v 134.700043 206.300003 32.318546
v 134.700043 205.300003 35.218544
v 135.055847 208.377304 32.318546
v 134.700043 209.300003 32.318546
v 132.212677 205.300003 38.418549
v 130.412781 206.300003 41.018620
v 132.212677 205.300003 42.010071
v 132.212677 206.300003 41.018547
v 132.212677 206.300003 41.018547
v 130.412781 209.300003 41.018620
v 132.212677 209.300003 41.018547
v 134.700043 205.300003 38.418549
v 134.700043 205.300003 42.010071
v 134.700043 206.300003 41.018547
v 134.700043 209.300003 41.018547
v 136.000031 198.300003 32.318546
v 136.000031 200.400009 32.318546
v 136.000031 198.300003 35.218544
v 136.000031 200.400009 35.218544
v 136.000031 198.300003 38.418549
v 136.000031 200.400009 38.418549
v 136.000031 206.300003 32.318546
v 136.225311 206.822220 32.318546
v 137.533493 205.868546 32.318546
v 136.000031 206.300003 35.218544
v 137.813660 206.293381 37.188274
v 136.000031 209.300003 32.318546
v 135.952103 209.593445 32.318546
v 136.982635 208.148529 32.318546
v 136.000031 209.300003 35.218544
v 137.813660 207.504364 37.188274
v 138.925018 205.345657 32.318546
v 138.074463 207.302200 32.318546
v 139.282944 206.825089 32.318546
v 138.074463 207.302200 37.037697
v 139.900452 205.218292 37.268387
v 140.200592 205.179108 37.177338
v 139.282944 206.825089 36.339981
v 139.900452 206.293381 37.268387
v 140.200592 206.293381 37.177338
v 136.000031 206.300003 38.418549
v 137.813660 206.293365 40.304913
v 136.000031 209.300003 38.418549
v 137.813660 207.504364 40.304913
v 139.182388 205.312057 37.857681
v 139.034531 205.331360 38.134300
v 138.943481 205.343246 38.434448
v 138.912735 205.350281 38.746593
v 138.925018 205.345657 38.621895
v 138.925018 205.345657 38.871292
v 138.943481 205.343246 39.058739
v 139.034531 205.331360 39.358887
v 139.182388 205.312057 39.635506
v 139.182388 206.293381 37.857681
v 139.034531 206.293381 38.134300
v 138.943481 206.293381 38.434448
v 138.912735 206.293381 38.746593
v 138.943481 206.293381 39.058739
v 139.034531 206.293381 39.358887
v 139.182388 206.293365 39.635506
v 139.381363 205.286072 37.615223
v 139.623825 205.254410 37.416241
v 139.381363 206.293381 37.615223
v 139.623825 206.293381 37.416241
v 138.074463 207.302200 40.455490
v 139.381363 205.286072 39.877964
v 139.623825 205.254410 40.076946
v 139.900452 205.218292 40.224800
v 140.200592 205.179108 40.315849
v 139.381363 206.293365 39.877964
v 139.623825 206.293365 40.076946
v 139.900452 206.293365 40.224800
v 140.200592 206.293365 40.315849
v 139.282944 206.825089 41.153202
v 132.212677 198.300003 44.518547
v 132.212677 200.400009 44.518547
v 132.212677 198.300003 46.318546
v 132.212677 200.400009 46.318546
v 134.700043 198.300003 44.518547
v 134.700043 200.400009 44.518547
v 134.700043 198.300003 46.318546
v 134.700043 200.400009 46.318546
v 132.212677 198.300003 49.518547
v 132.212677 200.400009 49.518547
v 132.212677 198.300003 52.418545
v 132.212677 200.400009 52.418545
v 134.700043 198.300003 48.718548
v 134.700043 198.300003 49.518547
v 134.700043 200.400009 48.718548
v 134.700043 200.400009 49.518547
v 134.700043 198.300003 52.418545
v 134.700043 200.400009 52.418545
v 130.412781 206.300003 42.517551
v 132.212677 206.300003 42.518547
v 132.212677 206.300003 44.518547
v 132.212677 206.300003 46.318546
v 130.412781 209.300003 42.517551
v 132.212677 209.300003 42.518547
v 132.212677 209.300003 44.518547
v 132.212677 209.300003 46.318542
v 134.700043 205.300003 44.518547
v 134.700043 206.300003 42.518547
v 134.700043 206.300003 44.518547
v 134.700043 209.300003 44.518547
v 132.212677 205.300003 49.518547
v 132.212677 206.300003 48.718548
v 132.212677 206.300003 49.518547
v 130.412781 206.300003 52.418545
v 132.212677 206.300003 52.418545
v 132.212677 209.300003 48.718548
v 132.212677 209.300003 49.518547
v 130.412781 209.300003 52.418545
v 132.212677 209.300003 52.418545
v 134.700043 205.300003 48.718548
v 134.700043 205.300003 49.518547
v 134.700043 206.300003 48.718548
v 134.700043 206.300003 49.518547
v 134.700043 206.300003 52.418545
v 134.700043 209.300003 48.718548
v 134.700043 209.300003 49.518547
v 135.055847 208.377304 52.418549
v 134.700043 209.300003 52.418545
v 136.000031 198.300003 48.718548
v 136.000031 198.300003 49.518547
v 136.000031 200.400009 48.718548
v 136.000031 200.400009 49.518547
v 136.000031 198.300003 52.418545
v 136.000031 200.400009 52.418545
v 137.813660 206.293381 45.188271
v 137.813660 207.504364 45.188274
v 139.282944 206.825089 44.339981
v 139.034531 205.331360 46.134296
v 139.182388 205.312057 45.857677
v 138.912735 205.350281 46.746590
v 138.943481 205.343246 46.434444
v 138.925018 205.345657 46.621891
v 138.925018 205.345657 46.871288
v 138.943481 205.343246 47.058735
v 139.034531 205.331360 47.358883
v 138.074463 207.302200 45.037697
v 139.034531 206.293381 46.134296
v 139.182388 206.293381 45.857677
v 138.912735 206.293381 46.746590
v 138.943481 206.293381 46.434448
v 138.943481 206.293381 47.058735
v 139.034531 206.293381 47.358883
v 139.623825 205.254410 45.416241
v 139.381363 205.286072 45.615219
v 139.900452 205.218292 45.268383
v 140.200592 205.179108 45.177334
v 139.623825 206.293381 45.416241
v 139.381363 206.293381 45.615219
v 139.900452 206.293381 45.268383
v 140.200592 206.293381 45.177334
v 136.000031 206.300003 48.718548
v 136.000031 206.300003 49.518547
v 137.813660 206.293365 48.304909
v 136.000031 206.300003 52.418545
v 136.225311 206.822220 52.418549
v 137.533493 205.868546 52.418549
v 136.000031 209.300003 48.718548
v 136.000031 209.300003 49.518547
v 137.813660 207.504364 48.304909
v 136.000031 209.300003 52.418545
v 135.952103 209.593445 52.418549
v 136.982635 208.148529 52.418549
v 139.182388 205.312057 47.635502
v 138.074463 207.302200 48.455486
v 139.182388 206.293365 47.635502
v 139.381363 205.286072 47.877960
v 139.623825 205.254410 48.076942
v 139.900452 205.218292 48.224800
v 140.200592 205.179108 48.315845
v 139.381363 206.293365 47.877960
v 139.623825 206.293365 48.076942
v 139.900452 206.293365 48.224800
v 140.200592 206.293365 48.315845
v 139.282944 206.825089 49.153202
v 138.925018 205.345657 52.418549
v 138.074463 207.302200 52.418549
v 139.282944 206.825089 52.418549
v 130.412781 212.300003 32.318550
v 132.212677 212.300003 32.318550
v 132.212677 213.300003 35.218544
v 134.700043 212.300003 32.318546
v 134.700043 213.300003 35.218544
v 132.212677 213.300003 38.418549
v 130.412781 212.300003 41.018620
v 132.212677 212.300003 41.018547
v 132.212677 212.300003 41.018547
v 132.212677 213.300003 42.010071
v 134.700043 213.300003 38.418549
v 134.700043 212.300003 41.018547
v 134.700043 213.300003 42.010071
v 132.212677 218.199997 32.318550
v 132.212677 220.300003 32.318550
v 132.212677 220.300003 35.218544
v 134.700043 218.199997 32.318546
v 135.055847 219.128067 32.318546
v 134.700043 220.300003 32.318546
v 134.700043 220.300003 35.218544
v 132.212677 218.199997 39.518547
v 132.212677 220.300003 38.418549
v 132.212677 220.300003 39.518547
v 134.700043 218.199997 39.518547
v 134.700043 220.300003 38.418549
v 134.700043 220.300003 39.518547
v 136.000031 212.300003 32.318546
v 136.000031 212.300003 35.218544
v 136.000031 212.300003 38.418549
v 135.952103 217.911926 32.318546
v 136.000031 218.199997 32.318546
v 136.982635 219.356842 32.318546
v 136.000031 218.199997 35.218544
v 136.000031 220.300003 32.318546
v 136.225311 220.683151 32.318546
v 137.533493 221.636826 32.318546
v 136.000031 220.300003 35.218544
v 138.074463 220.203171 32.318546
v 138.925018 222.159714 32.318546
v 139.282944 220.680283 32.318546
v 136.000031 218.199997 38.418549
v 136.000031 220.300003 38.418549
v 130.412781 212.300003 42.517551
v 132.212677 212.300003 42.518547
v 132.212677 212.300003 44.518547
v 132.212677 212.300003 46.318546
v 134.700043 212.300003 42.518547
v 134.700043 212.300003 44.518547
v 134.700043 213.300003 44.518547
v 132.212677 212.300003 48.718548
v 132.212677 212.300003 49.518547
v 132.212677 213.300003 49.518547
v 130.412781 212.300003 52.418545
v 132.212677 212.300003 52.418545
v 134.700043 212.300003 48.718548
v 134.700043 212.300003 49.518547
v 134.700043 213.300003 48.718548
v 134.700043 213.300003 49.518547
v 134.700043 212.300003 52.418545
v 132.212677 218.199997 44.518547
v 132.212677 218.199997 46.318546
v 132.212677 220.300003 44.518547
v 132.212677 220.300003 46.318546
v 134.700043 218.199997 44.518547
v 134.700043 218.199997 46.318546
v 134.700043 220.300003 44.518547
v 134.700043 220.300003 46.318546
v 132.212677 218.199997 49.518547
v 132.212677 218.199997 52.418545
v 132.212677 220.300003 49.518547
v 132.212677 220.300003 52.418545
v 134.700043 218.199997 48.718548
v 134.700043 218.199997 49.518547
v 134.700043 218.199997 52.418545
v 135.055847 219.128067 52.418549
v 134.700043 220.300003 48.718548
v 134.700043 220.300003 49.518547
v 134.700043 220.300003 52.418545
v 136.000031 212.300003 48.718548
v 136.000031 212.300003 49.518547
v 136.000031 212.300003 52.418545
v 136.000031 218.199997 48.718548
v 136.000031 218.199997 49.518547
v 135.952103 217.911926 52.418549
v 136.000031 218.199997 52.418545
v 136.982635 219.356842 52.418549
v 136.000031 220.300003 48.718548
v 136.000031 220.300003 49.518547
v 136.000031 220.300003 52.418545
v 136.225311 220.683151 52.418549
v 137.533493 221.636826 52.418549
v 138.074463 220.203171 52.418549
v 138.925018 222.159714 52.418549
v 139.282944 220.680283 52.418549
v 145.000000 198.300003 32.318546
v 145.000000 200.400009 32.318546
v 145.000000 198.300003 35.218544
v 145.000000 200.400009 35.218544
v 145.000000 198.300003 38.418549
v 145.000000 200.400009 38.418549
v 140.500015 205.139999 32.318546
v 140.500015 206.630737 32.318546
v 141.717087 206.825089 32.318546
v 142.075012 205.345657 32.318546
v 142.925568 207.302200 32.318546
v 140.512741 205.141663 37.146591
v 140.500015 205.139999 37.147846
v 140.824890 205.182419 37.177338
v 141.125031 205.221619 37.268387
v 140.512741 206.293381 35.629959
v 140.512741 206.632767 35.629959
v 140.500015 206.630737 35.637306
v 140.512741 206.293381 37.146591
v 140.824890 206.293381 37.177338
v 141.125031 206.293381 37.268387
v 141.717087 206.825089 36.325287
v 142.925568 207.302200 37.023003
v 143.466537 205.868546 32.318546
v 144.774719 206.822220 32.318546
v 145.000000 206.300003 32.318546
v 143.211823 206.293381 37.188274
v 145.000000 206.300003 35.218544
v 144.017395 208.148529 32.318546
v 145.000000 209.300003 32.318546
v 145.047928 209.593445 32.318546
v 143.211823 207.524094 37.188274
v 145.000000 209.300003 35.218544
v 141.401657 205.257736 37.416241
v 141.644119 205.289398 37.615223
v 141.401657 206.293381 37.416241
v 141.644119 206.293381 37.615223
v 141.843094 205.315384 37.857681
v 141.990952 205.334686 38.134300
v 142.075012 205.345657 38.411407
v 142.082001 205.348282 38.434448
v 142.075012 205.345657 39.081779
v 142.112747 205.359848 38.746593
v 142.082001 205.348282 39.058739
v 141.990952 205.334686 39.358887
v 141.843094 205.315384 39.635506
v 141.843094 206.293381 37.857681
v 141.990952 206.293381 38.134300
v 142.082001 206.293381 38.434448
v 142.112747 206.293381 38.746593
v 142.082001 206.293381 39.058739
v 141.990952 206.293381 39.358887
v 141.843094 206.293365 39.635506
v 140.500015 205.139999 40.345341
v 140.512741 205.141663 40.346592
v 140.824890 205.182419 40.315849
v 141.125031 205.221619 40.224800
v 141.401657 205.257736 40.076946
v 141.644119 205.289398 39.877964
v 140.512741 206.293365 40.346592
v 140.824890 206.293365 40.315849
v 141.125031 206.293365 40.224800
v 141.401657 206.293365 40.076946
v 141.644119 206.293365 39.877964
v 140.512741 206.293365 41.863228
v 140.500015 206.630737 41.855881
v 140.512741 206.632767 41.863228
v 141.717087 206.825089 41.167896
v 142.925568 207.302200 40.470184
v 145.000000 206.300003 38.418549
v 143.211823 206.293365 40.304913
v 145.000000 209.300003 38.418549
v 143.211823 207.524094 40.304913
v 146.299988 198.300003 32.318546
v 146.299988 200.400009 32.318546
v 146.299988 198.300003 35.218544
v 148.787354 198.300003 32.318550
v 148.787354 200.400009 32.318550
v 148.787354 198.300003 35.218544
v 146.299988 198.300003 38.418549
v 146.299988 198.300003 39.518547
v 146.299988 200.400009 39.518547
v 148.787354 198.300003 38.418549
v 148.787354 198.300003 39.518547
v 148.787354 200.400009 39.518547
v 146.299988 206.300003 32.318546
v 146.299988 205.300003 35.218544
v 145.944183 208.377304 32.318546
v 146.299988 209.300003 32.318546
v 148.787354 206.300003 32.318550
v 150.587250 206.300003 32.318550
v 148.787354 205.300003 35.218544
v 148.787354 209.300003 32.318550
v 150.587250 209.300003 32.318550
v 146.299988 205.300003 38.418549
v 146.299988 205.300003 42.010071
v 146.299988 206.300003 41.018547
v 146.299988 209.300003 41.018547
v 148.787354 205.300003 38.418549
v 148.787354 205.300003 42.010071
v 148.787354 206.300003 41.018547
v 148.787354 206.300003 41.018547
v 150.587250 206.300003 41.018620
v 148.787354 209.300003 41.018547
v 150.587250 209.300003 41.018620
v 145.000000 198.300003 48.718548
v 145.000000 198.300003 49.518547
v 145.000000 200.400009 48.718548
v 145.000000 200.400009 49.518547
v 145.000000 198.300003 52.418545
v 145.000000 200.400009 52.418545
v 140.512741 206.293381 43.629955
v 140.500015 206.630737 43.637302
v 140.512741 206.632767 43.629955
v 141.717087 206.825089 44.325287
v 140.500015 205.139999 45.147842
v 140.512741 205.141663 45.146591
v 140.824890 205.182419 45.177334
v 141.125031 205.221619 45.268383
v 141.401657 205.257736 45.416241
v 141.644119 205.289398 45.615219
v 140.512741 206.293381 45.146591
v 140.824890 206.293381 45.177334
v 141.125031 206.293381 45.268383
v 141.401657 206.293381 45.416241
v 141.644119 206.293381 45.615219
v 141.843094 205.315384 45.857677
v 141.990952 205.334686 46.134296
v 142.075012 205.345657 46.411404
v 142.082001 205.348282 46.434444
v 142.112747 205.359848 46.746590
v 142.075012 205.345657 47.081776
v 141.990952 205.334686 47.358883
v 142.082001 205.348282 47.058735
v 141.843094 206.293381 45.857677
v 141.990952 206.293381 46.134296
v 142.925568 207.302200 45.023003
v 142.082001 206.293381 46.434448
v 142.112747 206.293381 46.746590
v 141.990952 206.293381 47.358883
v 142.082001 206.293381 47.058735
v 143.211823 206.293381 45.188271
v 143.211823 207.524094 45.188274
v 140.500015 205.139999 48.345337
v 140.512741 205.141663 48.346592
v 140.824890 205.182419 48.315845
v 141.125031 205.221619 48.224800
v 141.644119 205.289398 47.877960
v 141.401657 205.257736 48.076942
v 140.512741 206.293365 48.346592
v 140.824890 206.293365 48.315845
v 141.125031 206.293365 48.224800
v 141.644119 206.293365 47.877960
v 141.401657 206.293365 48.076942
v 140.512741 206.293365 49.863228
v 140.500015 206.630737 49.855881
v 140.512741 206.632767 49.863228
v 141.717087 206.825089 49.167896
v 141.843094 205.315384 47.635502
v 141.843094 206.293365 47.635502
v 142.925568 207.302200 48.470181
v 140.500015 205.139999 52.418549
v 140.500015 206.630737 52.418549
v 141.717087 206.825089 52.418549
v 142.075012 205.345657 52.418549
v 142.925568 207.302200 52.418549
v 143.211823 206.293365 48.304909
v 145.000000 206.300003 48.718548
v 145.000000 206.300003 49.518547
v 143.466537 205.868546 52.418549
v 144.774719 206.822220 52.418549
v 145.000000 206.300003 52.418545
v 143.211823 207.524094 48.304909
v 145.000000 209.300003 48.718548
v 145.000000 209.300003 49.518547
v 144.017395 208.148529 52.418549
v 145.000000 209.300003 52.418545
v 145.047928 209.593445 52.418549
v 146.299988 198.300003 44.518547
v 146.299988 200.400009 44.518547
v 146.299988 198.300003 46.318546
v 146.299988 200.400009 46.318546
v 148.787354 198.300003 44.518547
v 148.787354 200.400009 44.518547
v 148.787354 198.300003 46.318546
v 148.787354 200.400009 46.318546
v 146.299988 198.300003 48.718548
v 146.299988 198.300003 49.518547
v 146.299988 200.400009 48.718548
v 146.299988 200.400009 49.518547
v 146.299988 198.300003 52.418545
v 146.299988 200.400009 52.418545
v 148.787354 198.300003 49.518547
v 148.787354 200.400009 49.518547
v 148.787354 198.300003 52.418545
v 148.787354 200.400009 52.418545
v 146.299988 205.300003 44.518547
v 146.299988 206.300003 42.518547
v 146.299988 206.300003 44.518547
v 146.299988 209.300003 44.518547
v 148.787354 206.300003 42.518547
v 148.787354 206.300003 44.518547
v 150.587250 206.300003 42.517551
v 148.787354 206.300003 46.318546
v 148.787354 209.300003 42.518547
v 148.787354 209.300003 44.518547
v 150.587250 209.300003 42.517551
v 148.787354 209.300003 46.318542
v 146.299988 205.300003 48.718548
v 146.299988 205.300003 49.518547
v 146.299988 206.300003 48.718548
v 146.299988 206.300003 49.518547
v 146.299988 206.300003 52.418545
v 146.299988 209.300003 48.718548
v 146.299988 209.300003 49.518547
v 145.944183 208.377304 52.418549
v 146.299988 209.300003 52.418545
v 148.787354 205.300003 49.518547
v 148.787354 206.300003 48.718548
v 148.787354 206.300003 49.518547
v 148.787354 206.300003 52.418545
v 150.587250 206.300003 52.418545
v 148.787354 209.300003 48.718548
v 148.787354 209.300003 49.518547
v 148.787354 209.300003 52.418545
v 150.587250 209.300003 52.418545
v 145.000000 212.300003 32.318546
v 145.000000 212.300003 35.218544
v 145.000000 212.300003 38.418549
v 141.717087 220.680283 32.318546
v 140.500015 220.874634 32.318546
v 140.500015 222.365372 32.318546
v 142.925568 220.203171 32.318546
v 142.075012 222.159714 32.318546
v 144.017395 219.356842 32.318546
v 145.047928 217.911926 32.318546
v 145.000000 218.199997 32.318546
v 145.000000 218.199997 35.218544
v 143.466537 221.636826 32.318546
v 144.774719 220.683151 32.318546
v 145.000000 220.300003 32.318546
v 145.000000 220.300003 35.218544
v 145.000000 218.199997 38.418549
v 145.000000 220.300003 38.418549
v 146.299988 212.300003 32.318546
v 146.299988 213.300003 35.218544
v 148.787354 212.300003 32.318550
v 150.587250 212.300003 32.318550
v 148.787354 213.300003 35.218544
v 146.299988 213.300003 38.418549
v 146.299988 212.300003 41.018547
v 146.299988 213.300003 42.010071
v 148.787354 213.300003 38.418549
v 148.787354 212.300003 41.018547
v 148.787354 212.300003 41.018547
v 148.787354 213.300003 42.010071
v 150.587250 212.300003 41.018620
v 145.944183 219.128067 32.318546
v 146.299988 218.199997 32.318546
v 146.299988 220.300003 32.318546
v 146.299988 220.300003 35.218544
v 148.787354 218.199997 32.318550
v 148.787354 220.300003 32.318550
v 148.787354 220.300003 35.218544
v 146.299988 218.199997 39.518547
v 146.299988 220.300003 38.418549
v 146.299988 220.300003 39.518547
v 148.787354 218.199997 39.518547
v 148.787354 220.300003 38.418549
v 148.787354 220.300003 39.518547
v 145.000000 212.300003 48.718548
v 145.000000 212.300003 49.518547
v 145.000000 212.300003 52.418545
v 141.717087 220.680283 52.418549
v 140.500015 220.874634 52.418549
v 140.500015 222.365372 52.418549
v 142.925568 220.203171 52.418549
v 142.075012 222.159714 52.418549
v 145.000000 218.199997 48.718548
v 145.000000 218.199997 49.518547
v 144.017395 219.356842 52.418549
v 145.047928 217.911926 52.418549
v 145.000000 218.199997 52.418545
v 145.000000 220.300003 48.718548
v 145.000000 220.300003 49.518547
v 143.466537 221.636826 52.418549
v 144.774719 220.683151 52.418549
v 145.000000 220.300003 52.418545
v 146.299988 212.300003 42.518547
v 146.299988 212.300003 44.518547
v 146.299988 213.300003 44.518547
v 148.787354 212.300003 42.518547
v 148.787354 212.300003 44.518547
v 150.587250 212.300003 42.517551
v 148.787354 212.300003 46.318546
v 146.299988 212.300003 48.718548
v 146.299988 212.300003 49.518547
v 146.299988 213.300003 48.718548
v 146.299988 213.300003 49.518547
v 146.299988 212.300003 52.418545
v 148.787354 212.300003 48.718548
v 148.787354 212.300003 49.518547
v 148.787354 213.300003 49.518547
v 148.787354 212.300003 52.418545
v 150.587250 212.300003 52.418545
v 146.299988 218.199997 44.518547
v 146.299988 218.199997 46.318546
v 146.299988 220.300003 44.518547
v 146.299988 220.300003 46.318546
v 148.787354 218.199997 44.518547
v 148.787354 218.199997 46.318546
v 148.787354 220.300003 44.518547
v 148.787354 220.300003 46.318546
v 146.299988 218.199997 48.718548
v 146.299988 218.199997 49.518547
v 145.944183 219.128067 52.418549
v 146.299988 218.199997 52.418545
v 146.299988 220.300003 48.718548
v 146.299988 220.300003 49.518547
v 146.299988 220.300003 52.418545
v 148.787354 218.199997 49.518547
v 148.787354 218.199997 52.418545
v 148.787354 220.300003 49.518547
v 148.787354 220.300003 52.418545
vn 1.0000 -0.0000 -0.0000
vn -0.0000 1.0000 -0.0000
vn -0.0000 -0.0000 1.0000
vn -0.0000 -0.0000 -1.0000
vn -1.0000 -0.0000 -0.0000
vn -0.0000 -1.0000 -0.0000
vn -0.0000 0.4532 0.8914
vn -0.0000 -0.4532 0.8914
vn -0.1577 0.9875 -0.0000
vn -0.8141 0.5807 -0.0000
vn 0.8050 0.5933 -0.0000
vn 0.5891 -0.8081 -0.0000
vn 0.1295 -0.9916 -0.0000
vn 0.3518 -0.9361 -0.0000
vn -0.3672 0.9301 -0.0000
vn 0.7992 -0.6010 -0.0000
vn -0.6126 0.7904 -0.0000
vn 0.5891 0.8081 -0.0000
vn 0.3518 0.9361 -0.0000
vn 0.1295 0.9916 -0.0000
vn 0.7992 0.6010 -0.0000
vn -0.1577 -0.9875 -0.0000
vn -0.6126 -0.7904 -0.0000
vn -0.8141 -0.5807 -0.0000
vn -0.3672 -0.9301 -0.0000
vn 0.8050 -0.5933 -0.0000
vn 0.1577 0.9875 -0.0000
vn 0.8141 0.5807 -0.0000
vn -0.8050 0.5933 -0.0000
vn -0.5891 -0.8081 -0.0000
vn -0.1295 -0.9916 -0.0000
vn -0.3518 -0.9361 -0.0000
vn 0.3672 0.9301 -0.0000
vn -0.7992 -0.6010 -0.0000
vn 0.6126 0.7904 -0.0000
vn -0.5891 0.8081 -0.0000
vn -0.3518 0.9361 -0.0000
vn -0.1295 0.9916 -0.0000
vn -0.7992 0.6010 -0.0000
vn 0.1577 -0.9875 -0.0000
vn 0.6126 -0.7904 -0.0000
vn 0.8141 -0.5807 -0.0000
vn 0.3672 -0.9301 -0.0000
vn -0.8050 -0.5933 -0.0000
vn -0.5000 -0.0000 -0.8660
vn -0.5000 -0.0000 0.8660
vn 0.5000 -0.0000 0.8660
vn 0.5000 -0.0000 -0.8660
vn -0.0980 -0.0000 -0.9952
vn -0.2903 -0.0000 -0.9569
vn -0.4714 -0.0000 -0.8819
vn -0.6344 -0.0000 -0.7730
vn -0.7730 -0.0000 -0.6344
vn -0.8819 -0.0000 -0.4714
vn -0.9569 -0.0000 -0.2903
vn -0.9952 -0.0000 -0.0980
vn -0.9952 -0.0000 0.0980
vn -0.9569 -0.0000 0.2903
vn -0.8819 -0.0000 0.4714
vn -0.7730 -0.0000 0.6344
vn -0.6344 -0.0000 0.7730
vn -0.4714 -0.0000 0.8819
vn -0.2903 -0.0000 0.9569
vn -0.0980 -0.0000 0.9952
vn 0.0980 -0.0000 0.9952
vn 0.2903 -0.0000 0.9569
vn 0.4714 -0.0000 0.8819
vn 0.6344 -0.0000 0.7730
vn 0.7730 -0.0000 0.6344
vn 0.8819 -0.0000 0.4714
vn 0.9569 -0.0000 0.2903
vn 0.9952 -0.0000 0.0980
vn 0.9952 -0.0000 -0.0980
vn 0.9569 -0.0000 -0.2903
vn 0.8819 -0.0000 -0.4714
vn 0.7730 -0.0000 -0.6344
vn 0.6344 -0.0000 -0.7730
vn 0.4714 -0.0000 -0.8819
vn 0.2903 -0.0000 -0.9569
vn 0.0980 -0.0000 -0.9952
vn 0.5686 0.8226 -0.0000
vn 0.1653 -0.9863 -0.0000
vn 0.3517 -0.9361 -0.0000
vn -0.3517 -0.9361 -0.0000
vn 0.0980 0.0001 0.9952
vt 0.625000 0.312500
vt 0.625000 0.268750
vt 0.625000 0.000000
vt 0.625000 0.250000
vt 0.859375 0.750000
vt 0.875000 0.500000
vt 0.875000 0.750000
vt 0.375000 0.000000
vt 0.375000 0.250000
vt 0.229167 0.513173
vt 0.000000 0.000000
vt 0.229167 0.488800
vt 0.375000 0.312500
vt 0.437500 0.250000
vt 0.437500 0.312500
vt 0.125000 0.750000
vt 0.140625 0.500000
vt 0.140625 0.750000
vt 0.437500 0.907813
vt 0.625000 0.984375
vt 0.437500 0.984375
vt 0.375000 0.907812
vt 0.375000 0.984375
vt 0.625000 0.907812
vt 0.625000 0.907813
vt 0.859375 0.500000
vt 0.750000 0.602495
vt 0.724707 0.613155
vt 0.750000 0.613155
vt 0.724707 0.588281
vt 0.724707 0.602495
vt 0.750000 0.625000
vt 0.724707 0.625000
vt 0.552083 0.312500
vt 0.460714 0.250000
vt 0.437500 0.000000
vt 0.582143 0.250000
vt 0.625000 0.375000
vt 0.550000 0.328125
vt 0.625000 0.328125
vt 0.582143 0.268750
vt 0.550000 0.268750
vt 0.550000 0.250000
vt 0.674854 0.588281
vt 0.505206 0.312500
vt 0.550000 0.312500
vt 0.716258 0.625000
vt 0.716258 0.625000
vt 0.674854 0.625000
vt 0.625000 0.450146
vt 0.612500 0.450146
vt 0.487500 0.375000
vt 0.514286 0.328125
vt 0.441756 0.769387
vt 0.625000 0.799854
vt 0.625000 0.875000
vt 0.375000 0.875000
vt 0.437500 0.875000
vt 0.125000 0.500000
vt 0.750000 0.588281
vt 0.487500 0.328125
vt 0.550000 0.375000
vt 0.375000 0.375000
vt 0.416187 0.375653
vt 0.424835 0.437500
vt 0.493715 0.375654
vt 0.515689 0.375653
vt 0.485067 0.437500
vt 0.584569 0.437500
vt 0.593217 0.375653
vt 0.375000 0.500000
vt 0.625000 0.484375
vt 0.625000 0.500000
vt 0.375000 0.750000
vt 0.625000 0.750000
vt 0.312500 0.750000
vt 0.250000 0.500000
vt 0.312500 0.500000
vt 0.359375 0.500000
vt 0.687500 0.500000
vt 0.656250 0.750000
vt 0.656250 0.500000
vt 0.687500 0.750000
vt 0.750000 0.500000
vt 0.750000 0.750000
vt 0.375000 0.781250
vt 0.625000 0.765625
vt 0.625000 0.781250
vt 0.375000 0.812500
vt 0.438404 0.839221
vt 0.436565 0.850198
vt 0.462566 0.815836
vt 0.546838 0.815836
vt 0.543397 0.821703
vt 0.572839 0.850197
vt 0.571000 0.839221
vt 0.625000 0.812500
vt 0.554453 0.811653
vt 0.454951 0.811653
vt 0.640625 0.750000
vt 0.640625 0.500000
vt 0.343750 0.750000
vt 0.343750 0.500000
vt 0.375000 0.468750
vt 0.375000 0.437500
vt 0.524338 0.437500
vt 0.476389 0.468750
vt 0.625000 0.468750
vt 0.584569 0.437500
vt 0.625000 0.437500
vt 0.375000 0.765625
vt 0.359375 0.750000
vt 0.474333 0.472847
vt 0.535071 0.472847
vt 0.375000 0.484375
vt 0.674854 0.500000
vt 0.416278 0.375000
vt 0.524520 0.437500
vt 0.493624 0.375000
vt 0.484884 0.437500
vt 0.593126 0.375000
vt 0.584386 0.437500
vt 0.440879 0.830609
vt 0.443895 0.822713
vt 0.474469 0.863118
vt 0.534935 0.863118
vt 0.536068 0.851207
vt 0.568525 0.830609
vt 0.571000 0.840230
vt 0.454951 0.812224
vt 0.554453 0.812224
vt 0.425018 0.437500
vt 0.476206 0.468750
vt 0.524520 0.437500
vt 0.584386 0.437500
vt 0.575708 0.468750
vt 0.535071 0.472482
vt 0.474333 0.472482
vt 0.250000 0.750000
vt 0.925632 0.916183
vt 0.851010 0.840974
vt 0.833333 1.000000
vt 0.666667 0.805995
vt 0.833333 0.805995
vt 0.500000 1.000000
vt 0.666667 1.000000
vt 0.648990 0.840974
vt 0.333333 1.000000
vt 0.349438 0.840974
vt 0.136169 0.202850
vt 0.147555 0.181548
vt 0.042154 0.130000
vt 0.363831 0.297150
vt 0.352445 0.318452
vt 0.457846 0.370000
vt 0.166667 0.809105
vt 0.166667 1.000000
vt -0.000000 1.000000
vt 0.000786 0.946819
vt 0.851010 0.840974
vt 0.648990 0.840974
vt 0.424061 0.916183
vt 0.162878 0.162878
vt 0.181548 0.147555
vt 0.337122 0.337122
vt 0.250000 0.490000
vt 0.352445 0.318452
vt 0.000786 0.946819
vt 0.968750 0.884844
vt 1.000000 0.829297
vt 0.968750 0.829297
vt 0.937500 0.882885
vt 0.968750 0.829297
vt 0.937500 0.829297
vt 0.906250 0.881079
vt 0.937500 0.829297
vt 0.906250 0.829297
vt 0.875000 0.879496
vt 0.906250 0.829297
vt 0.875000 0.829297
vt 0.843750 0.878197
vt 0.875000 0.829297
vt 0.843750 0.829297
vt 0.812500 0.877231
vt 0.843750 0.829297
vt 0.812500 0.829297
vt 0.781250 0.876551
vt 0.783649 0.876683
vt 0.781250 0.829297
vt 0.750000 0.875974
vt 0.750000 0.875973
vt 0.718750 0.829297
vt 0.718750 0.876551
vt 0.687500 0.877231
vt 0.716351 0.876682
vt 0.656250 0.829297
vt 0.656250 0.878197
vt 0.625000 0.829297
vt 0.625000 0.879496
vt 0.593750 0.829297
vt 0.593750 0.881079
vt 0.562500 0.829297
vt 0.531250 0.829297
vt 0.562500 0.882885
vt 0.500000 0.829297
vt 0.531250 0.884844
vt 0.468750 0.885010
vt 0.500000 0.886882
vt 0.437500 0.883051
vt 0.468750 0.829297
vt 0.437500 0.829297
vt 0.406250 0.881245
vt 0.406250 0.829297
vt 0.375000 0.879662
vt 0.375000 0.829297
vt 0.343750 0.878363
vt 0.343750 0.829297
vt 0.312500 0.877397
vt 0.312500 0.829297
vt 0.281250 0.876803
vt 0.281250 0.829297
vt 0.250000 0.876452
vt 0.262484 0.876683
vt 0.250000 0.829297
vt 0.218750 0.876803
vt 0.237516 0.876682
vt 0.187500 0.829297
vt 0.187500 0.877397
vt 0.156250 0.829297
vt 0.156250 0.878363
vt 0.156250 0.878363
vt 0.125000 0.829297
vt 0.125000 0.879662
vt 0.093750 0.829297
vt 0.125000 0.829297
vt 0.062500 0.829297
vt 0.093750 0.881245
vt 0.031250 0.829297
vt 0.062500 0.883051
vt 0.062500 0.829297
vt 0.031250 0.829297
vt 0.000000 0.886882
vt 0.001274 0.886965
vt 0.783649 0.876682
vt 0.716351 0.876682
vt 0.262484 0.876682
vt 0.237516 0.876682
vt 0.001274 0.886965
vt 0.460714 0.268750
vt 0.416278 0.375000
vt 0.515781 0.375000
vt 0.435066 0.875000
vt 0.450782 0.812500
vt 0.447335 0.815836
vt 0.443895 0.821703
vt 0.435050 0.874495
vt 0.435433 0.862108
vt 0.440879 0.829599
vt 0.534568 0.875000
vt 0.474836 0.875000
vt 0.474851 0.874495
vt 0.474469 0.862108
vt 0.534553 0.874495
vt 0.473336 0.850198
vt 0.534935 0.862108
vt 0.471497 0.839221
vt 0.536068 0.850198
vt 0.469023 0.829599
vt 0.537907 0.839221
vt 0.466007 0.821703
vt 0.540381 0.829599
vt 0.459120 0.812500
vt 0.550284 0.812500
vt 0.562069 0.815836
vt 0.558622 0.812500
vt 0.574338 0.875000
vt 0.574354 0.874495
vt 0.565509 0.821703
vt 0.568525 0.829599
vt 0.573971 0.862108
vt 0.550571 0.812343
vt 0.458833 0.812343
vt 0.558622 0.812500
vt 0.558336 0.812343
vt 0.451068 0.812343
vt 0.433513 0.468750
vt 0.533016 0.468750
vt 0.575891 0.468750
vt 0.435569 0.472847
vt 0.575891 0.468750
vt 0.573835 0.472847
vt 0.476388 0.468750
vt 0.425018 0.437500
vt 0.435433 0.863118
vt 0.451068 0.813233
vt 0.453400 0.812500
vt 0.447335 0.816846
vt 0.436565 0.851207
vt 0.438404 0.840231
vt 0.552902 0.812500
vt 0.456502 0.812500
vt 0.458833 0.813233
vt 0.462566 0.816846
vt 0.550571 0.813233
vt 0.466007 0.822713
vt 0.546838 0.816846
vt 0.469023 0.830609
vt 0.543397 0.822713
vt 0.471497 0.840231
vt 0.540382 0.830609
vt 0.473336 0.851207
vt 0.537907 0.840231
vt 0.474836 0.875000
vt 0.534568 0.875000
vt 0.573971 0.863118
vt 0.556004 0.812500
vt 0.558336 0.813233
vt 0.562069 0.816846
vt 0.572839 0.851207
vt 0.565509 0.822713
vt 0.456502 0.812500
vt 0.552902 0.812500
vt 0.433696 0.468750
vt 0.533198 0.468750
vt 0.573835 0.472482
vt 0.435569 0.472482
vt 1.000000 1.000000
vt 1.000000 0.946499
vt 0.574368 0.916183
vt 0.500000 0.946499
vt 0.500000 0.946499
vt 0.499214 0.946819
vt 0.424061 0.916183
vt 0.333333 0.809105
vt 0.373210 0.250000
vt 0.370842 0.274037
vt 0.337123 0.337123
vt 0.318452 0.352445
vt 0.457846 0.130000
vt 0.370842 0.225963
vt 0.297150 0.363831
vt 0.274037 0.370842
vt 0.363831 0.202850
vt 0.352445 0.181548
vt 0.250000 0.373210
vt 0.225963 0.370842
vt 0.250000 0.010000
vt 0.337122 0.162878
vt 0.042154 0.370000
vt 0.202850 0.363831
vt 0.318452 0.147555
vt 0.297150 0.136169
vt 0.181548 0.352445
vt 0.162878 0.337122
vt 0.274037 0.129158
vt 0.250000 0.126790
vt 0.147555 0.318452
vt 0.136169 0.297150
vt 0.225963 0.129158
vt 0.129158 0.274037
vt 0.202850 0.136169
vt 0.181548 0.147555
vt 0.126790 0.250000
vt 0.129158 0.225963
vt 0.162878 0.162878
vt 0.166667 0.809105
vt 0.150562 0.840974
vt 0.075939 0.916183
vt -0.000000 0.946499
vt 0.574368 0.916183
vt 0.349438 0.840974
vt 0.499214 0.946819
vt 0.363831 0.297150
vt 0.318452 0.352445
vt 0.297150 0.363831
vt 0.274037 0.370842
vt 0.370842 0.274037
vt 0.250000 0.373210
vt 0.225963 0.370842
vt 0.370842 0.225963
vt 0.202850 0.363831
vt 0.363831 0.202850
vt 0.352445 0.181548
vt 0.181548 0.352445
vt 0.162878 0.337122
vt 0.337122 0.162878
vt 0.147555 0.318452
vt 0.136169 0.297150
vt 0.318452 0.147555
vt 0.297150 0.136169
vt 0.129158 0.274037
vt 0.274037 0.129158
vt 0.250000 0.126790
vt 0.126790 0.250000
vt 0.129158 0.225963
vt 0.225963 0.129158
vt 0.136169 0.202850
vt 0.147555 0.181548
vt 0.202850 0.136169
vt 0.150562 0.840974
vt 0.075939 0.916183
vt 1.000000 0.886882
vt 0.968750 0.884844
vt 0.875000 0.879496
vt 0.750000 0.829297
vt 0.687500 0.829297
vt 0.625000 0.879496
vt 0.500000 0.886882
vt 0.468750 0.829297
vt 0.498726 0.886965
vt 0.406250 0.881245
vt 0.343750 0.878363
vt 0.250000 0.876452
vt 0.218750 0.829297
vt 0.156250 0.829297
vt 0.093750 0.881245
vt 0.031250 0.885010
vt 0.000000 0.829297
s 0
f 591/1/1 606/2/1 607/2/1
f 576/3/2 611/4/2 610/4/2
f 575/5/3 612/6/3 580/7/3
f 577/3/2 612/4/2 611/4/2
f 533/8/2 553/9/2 552/9/2
f 545/10/4 558/11/4 561/12/4
f 565/11/3 609/11/3 575/11/3
f 538/13/1 558/14/1 542/15/1
f 534/8/2 558/14/2 553/9/2
f 603/11/1 604/11/1 605/11/1
f 533/16/4 551/17/4 529/18/4
f 521/19/5 571/20/5 535/21/5
f 519/22/5 530/23/5 529/23/5
f 520/22/5 535/21/5 530/23/5
f 565/24/5 572/20/5 564/24/5
f 564/24/5 571/20/5 563/25/5
f 609/26/3 616/6/3 612/6/3
f 589/11/1 590/11/1 591/11/1
f 615/4/2 612/4/2 616/4/2
f 551/11/4 555/11/4 554/11/4
f 555/11/2 553/11/2 556/11/2
f 500/27/5 585/28/5 498/29/5
f 500/27/5 593/30/5 587/31/5
f 497/32/5 585/28/5 584/33/5
f 396/11/5 584/11/5 546/11/5
f 545/34/2 538/11/2 542/15/2
f 614/11/1 615/11/1 616/11/1
f 559/35/2 536/36/2 601/37/2
f 506/38/1 582/39/1 588/40/1
f 582/39/1 590/1/1 588/40/1
f 599/41/1 610/4/1 606/2/1
f 598/42/1 559/35/1 600/43/1
f 607/2/4 615/4/4 613/2/4
f 604/44/4 598/44/4 600/44/4
f 544/45/1 598/42/1 583/46/1
f 606/2/1 611/4/1 607/2/1
f 581/11/6 546/11/6 584/11/6
f 390/11/3 546/11/3 543/11/3
f 598/11/6 603/11/6 599/11/6
f 499/11/1 549/11/1 586/11/1
f 544/47/7 584/33/7 548/48/7
f 557/49/3 562/49/3 559/49/3
f 544/47/7 560/49/7 557/49/7
f 599/50/3 605/51/3 601/50/3
f 390/52/1 581/53/1 582/39/1
f 593/11/2 594/11/2 586/11/2
f 600/44/2 605/51/2 604/44/2
f 583/46/1 599/41/1 606/2/1
f 581/53/1 583/46/1 582/39/1
f 541/11/3 553/11/3 538/11/3
f 559/49/2 561/54/2 558/55/2
f 515/11/5 594/11/5 593/11/5
f 507/11/1 588/11/1 589/11/1
f 518/11/3 596/11/3 517/11/3
f 519/11/4 551/11/4 537/11/4
f 537/11/4 554/11/4 539/11/4
f 575/11/5 577/11/5 572/11/5
f 518/11/1 586/11/1 597/11/1
f 385/11/4 540/11/4 386/11/4
f 381/11/4 539/11/4 385/11/4
f 322/11/4 537/11/4 381/11/4
f 467/56/5 563/25/5 466/56/5
f 469/56/5 564/24/5 467/56/5
f 325/57/5 521/19/5 520/22/5
f 322/57/5 520/22/5 519/22/5
f 364/58/5 563/25/5 521/19/5
f 469/11/3 592/11/3 565/11/3
f 397/11/1 540/11/1 549/11/1
f 547/11/2 586/11/2 549/11/2
f 540/11/2 547/11/2 549/11/2
f 548/11/1 539/11/1 545/11/1
f 481/2/1 502/1/1 482/2/1
f 398/3/6 480/4/6 399/3/6
f 403/5/3 483/6/3 484/26/3
f 399/3/6 483/4/6 402/3/6
f 293/8/6 368/9/6 295/8/6
f 372/11/4 391/10/4 375/12/4
f 464/11/3 484/11/3 505/11/3
f 379/13/1 372/14/1 368/9/1
f 372/14/6 295/8/6 368/9/6
f 475/11/1 478/11/1 477/11/1
f 293/16/4 367/17/4 366/59/4
f 362/19/5 400/20/5 460/25/5
f 296/23/5 318/22/5 294/23/5
f 298/21/5 320/22/5 296/23/5
f 401/20/5 464/24/5 461/24/5
f 400/20/5 461/24/5 460/25/5
f 484/26/3 487/6/3 488/26/3
f 504/11/1 501/11/1 503/11/1
f 485/4/6 483/4/6 480/4/6
f 367/11/4 369/11/4 366/11/4
f 368/11/6 369/11/6 371/11/6
f 494/28/5 500/27/5 498/29/5
f 500/27/5 511/30/5 515/60/5
f 494/28/5 497/32/5 493/33/5
f 493/11/5 396/11/5 393/11/5
f 379/11/6 391/34/6 387/15/6
f 485/11/1 488/11/1 487/11/1
f 297/36/6 373/35/6 473/37/6
f 491/39/1 506/38/1 503/40/1
f 501/1/1 491/39/1 503/40/1
f 479/4/1 474/41/1 481/2/1
f 373/35/1 472/42/1 471/43/1
f 482/2/4 485/4/4 480/4/4
f 475/44/4 472/44/4 476/44/4
f 472/42/1 388/45/1 489/46/1
f 480/4/1 481/2/1 482/2/1
f 393/11/2 490/11/2 493/11/2
f 393/11/3 390/11/3 389/11/3
f 472/11/2 478/11/2 476/11/2
f 395/11/1 499/11/1 495/11/1
f 490/33/8 392/48/8 493/33/8
f 374/49/3 376/49/3 377/49/3
f 388/47/8 377/49/8 392/48/8
f 474/50/3 477/51/3 478/51/3
f 389/61/1 492/62/1 491/39/1
f 495/11/6 511/11/6 496/31/6
f 477/51/6 471/44/6 475/44/6
f 472/42/1 501/1/1 481/2/1
f 489/46/1 490/53/1 491/39/1
f 368/11/3 384/11/3 379/11/3
f 373/49/6 375/54/6 376/49/6
f 512/11/5 515/11/5 511/11/5
f 503/11/1 507/11/1 504/11/1
f 513/11/3 518/11/3 517/11/3
f 318/11/4 367/11/4 294/11/4
f 370/11/4 378/11/4 382/11/4
f 401/11/5 402/11/5 403/11/5
f 516/11/4 504/11/4 507/11/4
f 495/11/1 518/11/1 514/11/1
f 383/11/4 385/11/4 386/11/4
f 382/11/4 381/11/4 385/11/4
f 322/11/4 378/11/4 318/11/4
f 460/25/5 467/56/5 466/56/5
f 461/24/5 469/56/5 467/56/5
f 325/57/5 362/19/5 364/58/5
f 320/22/5 322/57/5 318/22/5
f 364/58/5 460/25/5 466/56/5
f 469/11/3 505/11/3 509/11/3
f 383/11/1 397/11/1 395/11/1
f 394/11/6 495/11/6 493/11/6
f 383/11/6 394/11/6 382/11/6
f 384/11/1 382/11/1 394/11/1
f 399/11/5 400/11/5 398/11/5
f 298/21/5 398/11/5 400/20/5
f 296/23/5 297/36/5 298/21/5
f 294/18/5 295/8/5 296/23/5
f 572/11/5 576/3/5 571/20/5
f 535/21/5 576/3/5 536/36/5
f 534/11/5 535/11/5 536/11/5
f 530/11/5 533/11/5 529/11/5
f 300/63/9 309/64/9 314/65/9
f 359/66/9 406/67/9 360/68/9
f 455/38/9 450/69/9 449/70/9
f 323/71/10 468/72/10 470/73/10
f 380/74/11 470/73/11 508/75/11
f 302/76/4 300/77/4 301/78/4
f 380/74/4 321/79/4 323/71/4
f 456/80/3 462/81/3 458/82/3
f 457/83/3 455/84/3 454/85/3
f 316/86/12 463/87/12 462/88/12
f 302/89/13 326/90/13 307/91/13
f 337/92/13 420/93/13 419/94/13
f 439/95/13 441/96/13 457/97/13
f 423/98/14 335/99/14 316/86/14
f 458/82/3 463/100/3 468/101/3
f 316/102/4 301/78/4 303/103/4
f 314/65/15 303/104/15 301/105/15
f 407/106/15 361/107/15 360/68/15
f 458/108/15 450/109/15 456/110/15
f 468/101/3 508/75/3 470/73/3
f 317/111/16 508/75/16 463/87/16
f 317/112/4 303/103/4 321/79/4
f 365/113/17 435/114/17 468/72/17
f 531/102/4 522/78/4 526/76/4
f 550/74/4 527/79/4 532/112/4
f 531/86/18 579/87/18 532/111/18
f 526/89/19 578/88/19 531/86/19
f 524/57/20 570/97/20 526/89/20
f 532/111/21 608/75/21 550/74/21
f 573/101/3 608/75/3 579/100/3
f 522/105/22 567/38/22 523/63/22
f 532/112/4 525/103/4 531/102/4
f 527/115/23 569/108/23 525/104/23
f 528/71/24 573/72/24 527/115/24
f 569/82/3 579/100/3 578/81/3
f 525/104/25 566/110/25 522/105/25
f 566/80/3 578/81/3 570/83/3
f 567/84/3 570/83/3 568/85/3
f 550/74/26 574/73/26 528/71/26
f 523/77/4 526/76/4 522/78/4
f 486/11/4 502/11/4 510/11/4
f 512/11/4 502/11/4 504/11/4
f 516/11/4 589/11/4 594/11/4
f 591/11/4 594/11/4 589/11/4
f 591/11/4 613/11/4 595/11/4
f 595/11/1 614/11/1 596/11/1
f 486/11/1 510/11/1 513/11/1
f 484/11/3 513/11/3 505/11/3
f 505/11/3 517/11/3 509/11/3
f 509/11/3 596/11/3 592/11/3
f 592/11/3 614/11/3 609/11/3
f 256/1/5 270/2/5 255/1/5
f 275/4/2 285/3/2 274/4/2
f 276/6/3 283/5/3 287/7/3
f 276/4/2 286/3/2 275/4/2
f 218/9/2 232/8/2 217/9/2
f 204/10/4 223/11/4 209/11/4
f 272/11/3 279/11/3 283/11/3
f 203/13/5 223/14/5 218/9/5
f 235/8/2 223/14/2 240/36/2
f 259/11/5 260/11/5 258/11/5
f 215/17/4 232/16/4 229/18/4
f 227/19/1 280/20/1 277/25/1
f 225/22/1 231/23/1 226/22/1
f 226/22/1 239/21/1 227/19/1
f 279/24/1 281/20/1 283/20/1
f 278/24/1 280/20/1 281/20/1
f 272/26/3 269/6/3 267/26/3
f 255/11/5 254/11/5 256/11/5
f 268/4/2 276/4/2 275/4/2
f 215/11/4 213/11/4 217/11/4
f 218/11/2 213/11/2 214/11/2
f 117/27/1 243/28/1 244/31/1
f 117/27/1 248/30/1 127/60/1
f 115/32/1 243/28/1 116/29/1
f 28/11/1 242/11/1 115/11/1
f 203/11/2 204/34/2 209/15/2
f 268/11/5 267/11/5 269/11/5
f 224/35/2 265/37/2 285/3/2
f 136/38/5 246/39/5 121/62/5
f 246/39/5 255/1/5 247/46/5
f 274/4/5 263/41/5 270/2/5
f 224/35/5 262/42/5 264/43/5
f 271/2/4 268/4/4 275/4/4
f 262/44/4 260/44/4 264/44/4
f 262/42/5 211/45/5 247/46/5
f 270/2/5 275/4/5 274/4/5
f 245/11/6 206/11/6 210/11/6
f 32/11/3 206/11/3 28/11/3
f 259/11/6 262/11/6 263/11/6
f 114/11/5 205/11/5 27/11/5
f 242/33/7 211/47/7 208/48/7
f 222/49/3 221/49/3 219/49/3
f 219/49/7 211/47/7 222/49/7
f 261/51/3 263/50/3 265/50/3
f 121/62/5 245/53/5 210/61/5
f 251/11/2 244/31/2 243/28/2
f 264/44/2 261/51/2 265/116/2
f 255/1/5 263/41/5 262/42/5
f 247/46/5 245/53/5 246/39/5
f 201/11/3 218/11/3 214/11/3
f 220/54/2 224/49/2 223/55/2
f 127/11/1 249/11/1 128/11/1
f 137/11/5 253/11/5 136/11/5
f 129/11/3 252/11/3 251/11/3
f 215/11/4 225/11/4 202/11/4
f 202/11/4 212/11/4 215/11/4
f 283/11/1 286/11/1 287/11/1
f 129/11/5 241/11/5 114/11/5
f 17/11/4 199/11/4 200/11/4
f 21/11/4 200/11/4 202/11/4
f 44/11/4 202/11/4 225/11/4
f 179/56/1 277/25/1 278/24/1
f 181/56/1 278/24/1 279/24/1
f 47/57/1 227/19/1 60/58/1
f 44/57/1 226/22/1 47/57/1
f 60/58/1 277/25/1 178/56/1
f 181/11/3 257/11/3 139/11/3
f 27/11/5 199/11/5 16/11/5
f 241/11/2 207/11/2 205/11/2
f 199/11/2 207/11/2 200/11/2
f 200/11/5 207/11/5 201/11/5
f 106/2/5 132/1/5 131/1/5
f 105/4/6 140/3/6 141/3/6
f 108/6/3 145/5/3 109/26/3
f 108/4/6 141/3/6 144/3/6
f 6/9/6 33/8/6 35/8/6
f 10/11/4 22/10/4 29/11/4
f 109/11/3 175/11/3 135/11/3
f 19/13/5 10/14/5 29/15/5
f 10/14/6 35/8/6 37/36/6
f 92/11/5 95/11/5 93/11/5
f 5/17/4 33/16/4 4/59/4
f 58/19/1 142/20/1 38/21/1
f 36/23/1 39/22/1 42/22/1
f 38/21/1 42/22/1 58/19/1
f 143/20/1 175/24/1 145/20/1
f 142/20/1 173/24/1 143/20/1
f 102/6/3 109/26/3 103/26/3
f 131/11/5 134/11/5 133/11/5
f 100/4/6 108/4/6 102/4/6
f 1/11/4 5/11/4 4/11/4
f 1/11/6 6/11/6 3/11/6
f 112/28/1 117/27/1 113/31/1
f 117/27/1 123/30/1 113/31/1
f 112/28/1 115/32/1 116/29/1
f 111/11/1 28/11/1 115/11/1
f 22/34/6 19/11/6 29/15/6
f 103/11/5 100/11/5 102/11/5
f 11/35/6 37/36/6 98/37/6
f 120/39/5 136/38/5 121/62/5
f 131/1/5 120/39/5 118/46/5
f 99/41/5 104/4/5 106/2/5
f 97/42/5 11/35/5 96/43/5
f 100/4/4 107/2/4 105/4/4
f 92/44/4 97/44/4 96/44/4
f 30/45/5 97/42/5 118/46/5
f 105/4/5 106/2/5 104/4/5
f 25/11/2 119/11/2 31/11/2
f 25/11/3 32/11/3 28/11/3
f 95/11/2 97/11/2 93/11/2
f 23/11/5 114/11/5 27/11/5
f 30/47/8 111/33/8 24/48/8
f 8/49/3 12/49/3 9/49/3
f 9/49/8 30/47/8 24/48/8
f 99/50/3 94/51/3 98/50/3
f 119/53/5 121/62/5 32/52/5
f 113/31/6 123/11/6 125/11/6
f 94/51/6 96/44/6 98/116/6
f 99/41/5 131/1/5 118/46/5
f 119/53/5 118/46/5 120/39/5
f 6/11/3 15/11/3 3/11/3
f 7/54/6 11/49/6 8/49/6
f 124/11/1 127/11/1 128/11/1
f 133/11/5 137/11/5 136/11/5
f 126/11/3 129/11/3 125/11/3
f 5/11/4 39/11/4 34/11/4
f 2/11/4 18/11/4 5/11/4
f 143/11/1 144/11/1 141/11/1
f 134/11/4 128/11/4 137/11/4
f 110/11/5 129/11/5 114/11/5
f 13/11/4 17/11/4 14/11/4
f 14/11/4 21/11/4 18/11/4
f 18/11/4 44/11/4 39/11/4
f 172/25/1 179/56/1 173/24/1
f 173/24/1 181/56/1 175/24/1
f 47/57/1 58/19/1 42/22/1
f 42/22/1 44/57/1 47/57/1
f 60/58/1 172/25/1 58/19/1
f 135/11/3 181/11/3 139/11/3
f 13/11/5 27/11/5 16/11/5
f 110/11/6 26/11/6 111/11/6
f 13/11/6 26/11/6 23/11/6
f 14/11/5 22/11/5 26/11/5
f 141/11/1 142/11/1 143/11/1
f 38/21/1 140/11/1 37/36/1
f 36/23/1 37/36/1 35/8/1
f 34/18/1 35/8/1 33/16/1
f 281/11/1 285/3/1 286/11/1
f 239/21/1 285/3/1 280/20/1
f 235/11/1 239/11/1 231/11/1
f 231/11/1 232/11/1 235/11/1
f 51/105/27 310/117/27 300/63/27
f 148/118/27 358/119/27 91/120/27
f 198/110/27 448/121/27 195/122/27
f 45/71/28 183/72/28 46/115/28
f 20/74/29 182/73/29 45/71/29
f 300/77/4 49/76/4 51/78/4
f 20/74/4 46/79/4 40/112/4
f 177/81/3 198/80/3 197/82/3
f 196/83/3 455/84/3 198/80/3
f 41/86/30 176/87/30 40/111/30
f 49/89/31 78/123/31 62/124/31
f 86/125/31 167/126/31 166/127/31
f 187/128/31 188/129/31 196/97/31
f 65/130/32 151/131/32 177/88/32
f 176/100/3 197/82/3 183/101/3
f 51/78/4 41/102/4 50/103/4
f 50/104/33 55/132/33 51/105/33
f 82/133/33 148/134/33 91/120/33
f 197/108/33 195/135/33 185/136/33
f 138/75/3 183/101/3 182/73/3
f 40/111/34 138/75/34 20/74/34
f 50/103/4 40/112/4 46/79/4
f 147/137/35 61/138/35 183/72/35
f 238/78/4 234/102/4 237/76/4
f 230/79/4 216/74/4 233/112/4
f 234/86/36 288/87/36 289/88/36
f 237/89/37 289/88/37 291/97/37
f 524/57/38 291/97/38 568/56/38
f 233/111/39 273/75/39 288/87/39
f 273/75/3 284/101/3 288/100/3
f 238/105/40 567/38/40 292/110/40
f 236/103/4 233/112/4 234/102/4
f 230/115/41 290/108/41 284/72/41
f 228/71/42 284/72/42 282/73/42
f 288/100/3 290/82/3 289/81/3
f 236/104/43 292/110/43 290/108/43
f 289/81/3 292/80/3 291/83/3
f 291/83/3 567/84/3 568/85/3
f 216/74/44 282/73/44 273/75/44
f 523/77/4 237/76/4 524/139/4
f 101/11/4 132/11/4 107/11/4
f 132/11/4 124/11/4 134/11/4
f 128/11/4 254/11/4 137/11/4
f 249/11/4 256/11/4 254/11/4
f 256/11/4 266/11/4 271/11/4
f 250/11/5 252/11/5 266/11/5
f 103/11/5 124/11/5 122/11/5
f 109/11/3 126/11/3 103/11/3
f 135/11/3 130/11/3 126/11/3
f 139/11/3 252/11/3 130/11/3
f 257/11/3 267/11/3 252/11/3
f 450/140/45 453/141/45 459/142/45
f 435/143/5 459/142/5 465/144/5
f 404/145/46 434/146/46 429/147/46
f 146/148/47 404/145/47 157/149/47
f 158/150/2 159/151/2 146/152/2
f 432/153/2 452/154/2 459/155/2
f 146/148/1 180/156/1 174/157/1
f 447/158/48 174/157/48 448/159/48
f 360/140/45 361/160/45 363/142/45
f 324/143/5 363/142/5 365/144/5
f 308/145/46 319/146/46 315/161/46
f 43/148/47 308/145/47 55/162/47
f 80/163/2 81/164/2 43/152/2
f 356/165/2 357/166/2 345/167/2
f 43/148/1 61/156/1 59/157/1
f 357/158/48 59/157/48 358/168/48
f 438/169/49 442/170/49 443/171/49
f 439/172/50 443/173/50 444/174/50
f 441/175/51 444/176/51 446/177/51
f 440/178/52 446/179/52 445/180/52
f 451/181/53 445/182/53 452/183/53
f 425/184/54 452/185/54 432/186/54
f 432/186/55 426/187/55 424/188/55
f 433/189/56 423/190/56 426/187/56
f 423/191/57 430/192/57 422/193/57
f 430/192/58 420/194/58 421/195/58
f 420/194/59 427/196/59 419/197/59
f 418/198/60 419/197/60 427/196/60
f 413/199/61 417/200/61 412/201/61
f 416/202/62 412/201/62 417/200/62
f 415/203/63 411/204/63 416/202/63
f 414/205/64 410/206/64 415/203/64
f 167/207/65 409/208/65 414/205/65
f 166/209/66 171/210/66 170/211/66
f 164/212/67 170/211/67 168/213/67
f 165/214/68 168/213/68 169/215/68
f 150/216/69 169/215/69 159/217/69
f 149/218/70 159/217/70 158/219/70
f 152/220/71 158/219/71 161/221/71
f 161/221/72 151/222/72 153/223/72
f 160/224/73 155/225/73 154/226/73
f 155/225/74 163/227/74 156/228/74
f 156/228/75 186/229/75 184/230/75
f 184/231/76 191/232/76 187/233/76
f 192/234/77 187/233/77 191/235/77
f 193/236/78 188/237/78 192/234/78
f 194/238/79 189/239/79 193/240/79
f 194/241/80 437/242/80 436/243/80
f 348/169/49 352/170/49 353/171/49
f 349/172/50 353/173/50 354/174/50
f 350/175/51 354/176/51 355/177/51
f 351/178/52 355/179/52 356/180/52
f 338/181/53 356/182/53 345/183/53
f 337/184/54 345/185/54 344/186/54
f 344/186/55 336/187/55 334/244/55
f 343/189/56 335/190/56 336/187/56
f 335/191/57 341/192/57 333/193/57
f 341/192/58 331/194/58 332/245/58
f 331/194/59 339/196/59 330/197/59
f 329/198/60 330/197/60 339/196/60
f 328/200/61 327/199/61 329/198/61
f 313/202/62 326/201/62 328/200/62
f 312/203/63 307/204/63 313/202/63
f 311/205/64 306/206/64 312/203/64
f 54/207/65 304/208/65 311/205/65
f 53/209/66 57/210/66 56/211/66
f 79/212/67 56/211/67 81/213/67
f 78/214/68 81/213/68 80/215/68
f 62/216/69 80/215/69 71/217/69
f 63/218/70 71/217/70 72/219/70
f 64/220/71 72/219/71 73/221/71
f 73/221/72 65/222/72 66/246/72
f 74/224/73 68/225/73 67/247/73
f 68/225/74 76/227/74 69/228/74
f 69/228/75 77/229/75 70/230/75
f 70/231/76 87/232/76 83/233/76
f 88/234/77 83/233/77 87/235/77
f 89/236/78 84/237/78 88/234/78
f 90/238/79 85/239/79 89/240/79
f 90/241/80 347/242/80 346/248/80
f 591/1/1 590/1/1 606/2/1
f 576/3/2 577/3/2 611/4/2
f 575/5/3 609/26/3 612/6/3
f 577/3/2 580/3/2 612/4/2
f 533/8/2 534/8/2 553/9/2
f 545/10/4 542/11/4 558/11/4
f 565/11/3 592/11/3 609/11/3
f 538/13/1 553/9/1 558/14/1
f 534/8/2 536/36/2 558/14/2
f 603/11/1 602/11/1 604/11/1
f 533/16/4 552/59/4 551/17/4
f 521/19/5 563/25/5 571/20/5
f 519/22/5 520/22/5 530/23/5
f 520/22/5 521/19/5 535/21/5
f 565/24/5 575/20/5 572/20/5
f 564/24/5 572/20/5 571/20/5
f 609/26/3 614/26/3 616/6/3
f 589/11/1 588/11/1 590/11/1
f 615/4/2 611/4/2 612/4/2
f 551/11/4 552/11/4 555/11/4
f 555/11/2 552/11/2 553/11/2
f 500/27/5 587/31/5 585/28/5
f 500/27/5 515/60/5 593/30/5
f 497/32/5 498/29/5 585/28/5
f 396/11/5 497/11/5 584/11/5
f 545/34/2 541/11/2 538/11/2
f 614/11/1 613/11/1 615/11/1
f 559/35/2 558/14/2 536/36/2
f 536/36/2 576/3/2 610/4/2
f 601/37/2 600/43/2 559/35/2
f 536/36/2 610/4/2 601/37/2
f 506/38/1 492/62/1 582/39/1
f 582/39/1 583/46/1 590/1/1
f 599/41/1 601/37/1 610/4/1
f 598/42/1 557/249/1 559/35/1
f 607/2/4 611/4/4 615/4/4
f 604/44/4 602/44/4 598/44/4
f 544/45/1 557/249/1 598/42/1
f 606/2/1 610/4/1 611/4/1
f 581/11/6 543/11/6 546/11/6
f 390/11/3 396/11/3 546/11/3
f 598/11/6 602/11/6 603/11/6
f 499/11/1 397/11/1 549/11/1
f 544/47/7 581/33/7 584/33/7
f 557/49/3 560/49/3 562/49/3
f 544/47/7 548/48/7 560/49/7
f 599/50/3 603/51/3 605/51/3
f 582/39/1 492/62/1 390/52/1
f 390/52/1 543/61/1 581/53/1
f 586/11/2 584/33/2 585/28/2
f 586/11/2 585/28/2 587/31/2
f 596/11/2 597/11/2 586/11/2
f 594/11/2 596/11/2 586/11/2
f 586/11/2 587/31/2 593/11/2
f 600/44/2 601/116/2 605/51/2
f 606/2/1 590/1/1 583/46/1
f 583/46/1 598/42/1 599/41/1
f 581/53/1 544/45/1 583/46/1
f 541/11/3 556/11/3 553/11/3
f 559/49/2 562/49/2 561/54/2
f 515/11/5 516/11/5 594/11/5
f 507/11/1 506/11/1 588/11/1
f 518/11/3 597/11/3 596/11/3
f 519/11/4 529/11/4 551/11/4
f 537/11/4 551/11/4 554/11/4
f 575/11/5 580/11/5 577/11/5
f 518/11/1 499/11/1 586/11/1
f 385/11/4 539/11/4 540/11/4
f 381/11/4 537/11/4 539/11/4
f 322/11/4 519/11/4 537/11/4
f 467/56/5 564/24/5 563/25/5
f 469/56/5 565/24/5 564/24/5
f 325/57/5 364/58/5 521/19/5
f 322/57/5 325/57/5 520/22/5
f 364/58/5 466/56/5 563/25/5
f 469/11/3 509/11/3 592/11/3
f 397/11/1 386/11/1 540/11/1
f 547/11/2 584/11/2 586/11/2
f 540/11/2 539/11/2 547/11/2
f 548/11/1 584/11/1 547/11/1
f 554/11/1 555/11/1 556/11/1
f 554/11/1 556/11/1 541/11/1
f 548/11/1 547/11/1 539/11/1
f 561/11/1 562/11/1 560/11/1
f 539/11/1 554/11/1 541/11/1
f 545/11/1 561/11/1 560/11/1
f 539/11/1 541/11/1 545/11/1
f 545/11/1 560/11/1 548/11/1
f 481/2/1 501/1/1 502/1/1
f 398/3/6 479/4/6 480/4/6
f 403/5/3 402/7/3 483/6/3
f 399/3/6 480/4/6 483/4/6
f 293/8/6 366/9/6 368/9/6
f 372/11/4 387/11/4 391/10/4
f 464/11/3 403/11/3 484/11/3
f 379/13/1 387/15/1 372/14/1
f 372/14/6 297/36/6 295/8/6
f 475/11/1 476/11/1 478/11/1
f 293/16/4 294/18/4 367/17/4
f 362/19/5 298/21/5 400/20/5
f 296/23/5 320/22/5 318/22/5
f 298/21/5 362/19/5 320/22/5
f 401/20/5 403/20/5 464/24/5
f 400/20/5 401/20/5 461/24/5
f 484/26/3 483/6/3 487/6/3
f 504/11/1 502/11/1 501/11/1
f 485/4/6 487/4/6 483/4/6
f 367/11/4 370/11/4 369/11/4
f 368/11/6 366/11/6 369/11/6
f 494/28/5 496/31/5 500/27/5
f 500/27/5 496/31/5 511/30/5
f 494/28/5 498/29/5 497/32/5
f 493/11/5 497/11/5 396/11/5
f 379/11/6 384/11/6 391/34/6
f 485/11/1 486/11/1 488/11/1
f 479/4/6 398/3/6 297/36/6
f 297/36/6 372/14/6 373/35/6
f 373/35/6 471/43/6 473/37/6
f 473/37/6 479/4/6 297/36/6
f 491/39/1 492/62/1 506/38/1
f 501/1/1 489/46/1 491/39/1
f 479/4/1 473/37/1 474/41/1
f 373/35/1 374/249/1 472/42/1
f 482/2/4 486/2/4 485/4/4
f 475/44/4 471/44/4 472/44/4
f 472/42/1 374/249/1 388/45/1
f 480/4/1 479/4/1 481/2/1
f 393/11/2 389/11/2 490/11/2
f 393/11/3 396/11/3 390/11/3
f 472/11/2 474/11/2 478/11/2
f 395/11/1 397/11/1 499/11/1
f 490/33/8 388/47/8 392/48/8
f 374/49/3 373/49/3 376/49/3
f 388/47/8 374/49/8 377/49/8
f 474/50/3 473/50/3 477/51/3
f 491/39/81 490/53/81 389/61/81
f 389/61/1 390/52/1 492/62/1
f 494/28/6 493/33/6 495/11/6
f 495/11/6 514/11/6 513/11/6
f 495/11/6 513/11/6 512/11/6
f 496/31/6 494/28/6 495/11/6
f 495/11/6 512/11/6 511/11/6
f 477/51/6 473/116/6 471/44/6
f 481/2/82 474/41/82 472/42/82
f 472/42/1 489/46/1 501/1/1
f 489/46/1 388/45/1 490/53/1
f 368/11/3 371/11/3 384/11/3
f 373/49/6 372/55/6 375/54/6
f 512/11/5 516/11/5 515/11/5
f 503/11/1 506/11/1 507/11/1
f 513/11/3 514/11/3 518/11/3
f 318/11/4 378/11/4 367/11/4
f 370/11/4 367/11/4 378/11/4
f 401/11/5 399/11/5 402/11/5
f 516/11/4 512/11/4 504/11/4
f 495/11/1 499/11/1 518/11/1
f 383/11/4 382/11/4 385/11/4
f 382/11/4 378/11/4 381/11/4
f 322/11/4 381/11/4 378/11/4
f 460/25/5 461/24/5 467/56/5
f 461/24/5 464/24/5 469/56/5
f 325/57/5 320/22/5 362/19/5
f 320/22/5 325/57/5 322/57/5
f 364/58/5 362/19/5 460/25/5
f 469/11/3 464/11/3 505/11/3
f 383/11/1 386/11/1 397/11/1
f 394/11/6 395/11/6 495/11/6
f 383/11/6 395/11/6 394/11/6
f 377/11/1 376/11/1 375/11/1
f 377/11/1 375/11/1 391/11/1
f 394/11/1 493/11/1 392/11/1
f 392/11/1 377/11/1 391/11/1
f 384/11/1 371/11/1 369/11/1
f 394/11/1 392/11/1 391/11/1
f 384/11/1 369/11/1 370/11/1
f 394/11/1 391/11/1 384/11/1
f 384/11/1 370/11/1 382/11/1
f 399/11/5 401/11/5 400/11/5
f 298/21/5 297/36/5 398/11/5
f 296/23/5 295/8/5 297/36/5
f 294/18/5 293/16/5 295/8/5
f 572/11/5 577/11/5 576/3/5
f 535/21/5 571/20/5 576/3/5
f 534/11/5 530/11/5 535/11/5
f 530/11/5 534/11/5 533/11/5
f 314/65/9 301/105/9 300/63/9
f 300/63/9 310/250/9 309/64/9
f 359/66/9 358/119/9 405/251/9
f 406/67/9 407/106/9 360/68/9
f 359/66/9 405/251/9 406/67/9
f 449/70/9 448/121/9 455/38/9
f 455/38/9 456/110/9 450/69/9
f 323/71/10 321/115/10 468/72/10
f 380/74/11 323/71/11 470/73/11
f 302/76/4 299/139/4 300/77/4
f 380/74/4 317/112/4 321/79/4
f 456/80/3 457/83/3 462/81/3
f 457/83/3 456/80/3 455/84/3
f 316/86/12 317/111/12 463/87/12
f 305/252/13 299/57/13 302/89/13
f 302/89/13 332/253/13 331/254/13
f 302/89/13 331/254/13 330/255/13
f 304/256/13 305/252/13 302/89/13
f 306/257/13 304/256/13 302/89/13
f 302/89/13 330/255/13 327/258/13
f 302/89/13 327/258/13 326/90/13
f 307/91/13 306/257/13 302/89/13
f 408/259/13 346/260/13 347/261/13
f 408/259/13 347/261/13 348/262/13
f 409/263/13 408/259/13 348/262/13
f 409/263/13 348/262/13 349/264/13
f 410/265/13 409/263/13 349/264/13
f 410/265/13 349/264/13 350/266/13
f 411/267/13 410/265/13 350/266/13
f 411/267/13 350/266/13 351/268/13
f 412/269/13 411/267/13 351/268/13
f 412/269/13 351/268/13 338/270/13
f 413/271/13 412/269/13 338/270/13
f 337/92/13 334/272/13 421/273/13
f 413/271/13 338/270/13 337/92/13
f 419/94/13 413/271/13 337/92/13
f 337/92/13 421/273/13 420/93/13
f 425/274/13 424/275/13 457/97/13
f 457/97/13 454/56/13 436/276/13
f 457/97/13 436/276/13 437/277/13
f 451/278/13 425/274/13 457/97/13
f 440/279/13 451/278/13 457/97/13
f 457/97/13 437/277/13 438/280/13
f 457/97/13 438/280/13 439/95/13
f 441/96/13 440/279/13 457/97/13
f 422/281/14 421/273/14 334/272/14
f 422/281/14 334/272/14 336/282/14
f 423/98/14 422/281/14 336/282/14
f 423/98/14 336/282/14 335/99/14
f 457/97/83 424/283/83 426/284/83
f 457/97/14 426/284/14 423/98/14
f 316/86/14 462/88/14 457/97/14
f 332/253/14 302/89/14 316/86/14
f 333/285/83 332/253/83 316/86/83
f 316/86/14 457/97/14 423/98/14
f 335/99/14 333/285/14 316/86/14
f 458/82/3 462/81/3 463/100/3
f 316/102/4 302/76/4 301/78/4
f 314/65/15 315/286/15 303/104/15
f 407/106/15 429/287/15 361/107/15
f 458/108/15 453/288/15 450/109/15
f 468/101/3 463/100/3 508/75/3
f 317/111/16 380/74/16 508/75/16
f 317/112/4 316/102/4 303/103/4
f 321/115/17 303/104/17 315/286/17
f 321/115/17 315/286/17 324/289/17
f 453/290/17 458/108/17 468/72/17
f 465/291/17 453/290/17 468/72/17
f 468/72/17 321/115/17 324/289/17
f 365/113/17 361/292/17 429/287/17
f 468/72/17 324/289/17 365/113/17
f 435/114/17 465/291/17 468/72/17
f 365/113/17 429/287/17 435/114/17
f 531/102/4 525/103/4 522/78/4
f 550/74/4 528/71/4 527/79/4
f 531/86/18 578/88/18 579/87/18
f 526/89/19 570/97/19 578/88/19
f 524/57/20 568/56/20 570/97/20
f 532/111/21 579/87/21 608/75/21
f 573/101/3 574/73/3 608/75/3
f 522/105/22 566/110/22 567/38/22
f 532/112/4 527/79/4 525/103/4
f 527/115/23 573/72/23 569/108/23
f 528/71/24 574/73/24 573/72/24
f 569/82/3 573/101/3 579/100/3
f 525/104/25 569/108/25 566/110/25
f 566/80/3 569/82/3 578/81/3
f 567/84/3 566/80/3 570/83/3
f 550/74/26 608/75/26 574/73/26
f 523/77/4 524/139/4 526/76/4
f 486/11/4 482/11/4 502/11/4
f 512/11/4 510/11/4 502/11/4
f 516/11/4 507/11/4 589/11/4
f 591/11/4 595/11/4 594/11/4
f 591/11/4 607/11/4 613/11/4
f 596/11/1 594/11/1 595/11/1
f 595/11/1 613/11/1 614/11/1
f 513/11/1 488/11/1 486/11/1
f 510/11/1 512/11/1 513/11/1
f 484/11/3 488/11/3 513/11/3
f 505/11/3 513/11/3 517/11/3
f 509/11/3 517/11/3 596/11/3
f 592/11/3 596/11/3 614/11/3
f 256/1/5 271/2/5 270/2/5
f 275/4/2 286/3/2 285/3/2
f 276/6/3 272/26/3 283/5/3
f 276/4/2 287/3/2 286/3/2
f 218/9/2 235/8/2 232/8/2
f 204/10/4 220/12/4 223/11/4
f 272/11/3 257/11/3 279/11/3
f 203/13/5 209/15/5 223/14/5
f 235/8/2 218/9/2 223/14/2
f 259/11/5 261/11/5 260/11/5
f 215/17/4 217/59/4 232/16/4
f 227/19/1 239/21/1 280/20/1
f 225/22/1 229/23/1 231/23/1
f 226/22/1 231/23/1 239/21/1
f 279/24/1 278/24/1 281/20/1
f 278/24/1 277/25/1 280/20/1
f 272/26/3 276/6/3 269/6/3
f 255/11/5 253/11/5 254/11/5
f 268/4/2 269/4/2 276/4/2
f 215/11/4 212/11/4 213/11/4
f 218/11/2 217/11/2 213/11/2
f 117/27/1 116/29/1 243/28/1
f 117/27/1 244/31/1 248/30/1
f 115/32/1 242/33/1 243/28/1
f 28/11/1 206/11/1 242/11/1
f 203/11/2 201/11/2 204/34/2
f 268/11/5 266/11/5 267/11/5
f 240/36/2 223/14/2 224/35/2
f 224/35/2 264/43/2 265/37/2
f 265/37/2 274/4/2 285/3/2
f 285/3/2 240/36/2 224/35/2
f 136/38/5 253/40/5 246/39/5
f 246/39/5 253/40/5 255/1/5
f 274/4/5 265/37/5 263/41/5
f 224/35/5 222/249/5 262/42/5
f 271/2/4 266/2/4 268/4/4
f 262/44/4 258/44/4 260/44/4
f 262/42/5 222/249/5 211/45/5
f 270/2/5 271/2/5 275/4/5
f 245/11/6 242/11/6 206/11/6
f 32/11/3 210/11/3 206/11/3
f 259/11/6 258/11/6 262/11/6
f 114/11/5 241/11/5 205/11/5
f 242/33/7 245/33/7 211/47/7
f 222/49/3 224/49/3 221/49/3
f 219/49/7 208/48/7 211/47/7
f 261/51/3 259/51/3 263/50/3
f 210/61/5 32/52/5 121/62/5
f 121/62/5 246/39/5 245/53/5
f 242/33/2 241/11/2 251/11/2
f 251/11/2 252/11/2 249/11/2
f 251/11/2 249/11/2 248/11/2
f 243/28/2 242/33/2 251/11/2
f 251/11/2 248/11/2 244/31/2
f 264/44/2 260/44/2 261/51/2
f 262/42/5 247/46/5 255/1/5
f 255/1/5 270/2/5 263/41/5
f 247/46/5 211/45/5 245/53/5
f 201/11/3 203/11/3 218/11/3
f 220/54/2 221/49/2 224/49/2
f 127/11/1 248/11/1 249/11/1
f 137/11/5 254/11/5 253/11/5
f 129/11/3 130/11/3 252/11/3
f 215/11/4 229/11/4 225/11/4
f 202/11/4 200/11/4 212/11/4
f 283/11/1 281/11/1 286/11/1
f 129/11/5 251/11/5 241/11/5
f 17/11/4 16/11/4 199/11/4
f 21/11/4 17/11/4 200/11/4
f 44/11/4 21/11/4 202/11/4
f 179/56/1 178/56/1 277/25/1
f 181/56/1 179/56/1 278/24/1
f 47/57/1 226/22/1 227/19/1
f 44/57/1 225/22/1 226/22/1
f 60/58/1 227/19/1 277/25/1
f 181/11/3 279/11/3 257/11/3
f 27/11/5 205/11/5 199/11/5
f 241/11/2 242/11/2 207/11/2
f 199/11/2 205/11/2 207/11/2
f 207/11/5 242/11/5 208/11/5
f 219/11/5 221/11/5 220/11/5
f 207/11/5 208/11/5 219/11/5
f 214/11/5 213/11/5 212/11/5
f 201/11/5 214/11/5 212/11/5
f 207/11/5 219/11/5 220/11/5
f 207/11/5 220/11/5 204/11/5
f 201/11/5 212/11/5 200/11/5
f 207/11/5 204/11/5 201/11/5
f 106/2/5 107/2/5 132/1/5
f 105/4/6 104/4/6 140/3/6
f 108/6/3 144/7/3 145/5/3
f 108/4/6 105/4/6 141/3/6
f 6/9/6 4/9/6 33/8/6
f 10/11/4 7/12/4 22/10/4
f 109/11/3 145/11/3 175/11/3
f 19/13/5 6/9/5 10/14/5
f 10/14/6 6/9/6 35/8/6
f 92/11/5 94/11/5 95/11/5
f 5/17/4 34/18/4 33/16/4
f 58/19/1 172/25/1 142/20/1
f 36/23/1 34/23/1 39/22/1
f 38/21/1 36/23/1 42/22/1
f 143/20/1 173/24/1 175/24/1
f 142/20/1 172/25/1 173/24/1
f 102/6/3 108/6/3 109/26/3
f 131/11/5 132/11/5 134/11/5
f 100/4/6 105/4/6 108/4/6
f 1/11/4 2/11/4 5/11/4
f 1/11/6 4/11/6 6/11/6
f 112/28/1 116/29/1 117/27/1
f 117/27/1 127/60/1 123/30/1
f 112/28/1 111/33/1 115/32/1
f 111/11/1 25/11/1 28/11/1
f 22/34/6 15/11/6 19/11/6
f 103/11/5 101/11/5 100/11/5
f 11/35/6 10/14/6 37/36/6
f 37/36/6 140/3/6 104/4/6
f 98/37/6 96/43/6 11/35/6
f 37/36/6 104/4/6 98/37/6
f 120/39/5 133/40/5 136/38/5
f 131/1/5 133/40/5 120/39/5
f 99/41/5 98/37/5 104/4/5
f 97/42/5 12/249/5 11/35/5
f 100/4/4 101/2/4 107/2/4
f 92/44/4 93/44/4 97/44/4
f 30/45/5 12/249/5 97/42/5
f 105/4/5 107/2/5 106/2/5
f 25/11/2 111/11/2 119/11/2
f 25/11/3 31/11/3 32/11/3
f 95/11/2 99/11/2 97/11/2
f 23/11/5 110/11/5 114/11/5
f 30/47/8 119/33/8 111/33/8
f 8/49/3 11/49/3 12/49/3
f 9/49/8 12/49/8 30/47/8
f 99/50/3 95/51/3 94/51/3
f 32/52/5 31/61/5 119/53/5
f 119/53/5 120/39/5 121/62/5
f 125/11/6 110/11/6 111/33/6
f 125/11/6 111/33/6 112/28/6
f 124/11/6 126/11/6 125/11/6
f 123/11/6 124/11/6 125/11/6
f 125/11/6 112/28/6 113/31/6
f 94/51/6 92/44/6 96/44/6
f 118/46/5 97/42/5 99/41/5
f 99/41/5 106/2/5 131/1/5
f 119/53/5 30/45/5 118/46/5
f 6/11/3 19/11/3 15/11/3
f 7/54/6 10/55/6 11/49/6
f 124/11/1 123/11/1 127/11/1
f 133/11/5 134/11/5 137/11/5
f 126/11/3 130/11/3 129/11/3
f 5/11/4 18/11/4 39/11/4
f 2/11/4 14/11/4 18/11/4
f 143/11/1 145/11/1 144/11/1
f 134/11/4 124/11/4 128/11/4
f 110/11/5 125/11/5 129/11/5
f 13/11/4 16/11/4 17/11/4
f 14/11/4 17/11/4 21/11/4
f 18/11/4 21/11/4 44/11/4
f 172/25/1 178/56/1 179/56/1
f 173/24/1 179/56/1 181/56/1
f 47/57/1 60/58/1 58/19/1
f 42/22/1 39/22/1 44/57/1
f 60/58/1 178/56/1 172/25/1
f 135/11/3 175/11/3 181/11/3
f 13/11/5 23/11/5 27/11/5
f 110/11/6 23/11/6 26/11/6
f 13/11/6 14/11/6 26/11/6
f 2/11/5 1/11/5 3/11/5
f 2/11/5 3/11/5 15/11/5
f 24/11/5 111/11/5 26/11/5
f 7/11/5 8/11/5 9/11/5
f 9/11/5 24/11/5 26/11/5
f 14/11/5 2/11/5 15/11/5
f 22/11/5 7/11/5 9/11/5
f 14/11/5 15/11/5 22/11/5
f 22/11/5 9/11/5 26/11/5
f 141/11/1 140/11/1 142/11/1
f 38/21/1 142/20/1 140/11/1
f 36/23/1 38/21/1 37/36/1
f 34/18/1 36/23/1 35/8/1
f 281/11/1 280/20/1 285/3/1
f 239/21/1 240/36/1 285/3/1
f 235/11/1 240/11/1 239/11/1
f 231/11/1 229/11/1 232/11/1
f 51/105/27 55/293/27 310/117/27
f 148/118/27 405/251/27 358/119/27
f 198/110/27 455/38/27 448/121/27
f 45/71/28 182/73/28 183/72/28
f 20/74/29 138/75/29 182/73/29
f 300/77/4 299/139/4 49/76/4
f 20/74/4 45/71/4 46/79/4
f 177/81/3 196/83/3 198/80/3
f 196/83/3 454/85/3 455/84/3
f 41/86/30 177/88/30 176/87/30
f 49/89/31 299/57/31 305/252/31
f 49/89/31 305/252/31 54/294/31
f 64/295/31 66/296/31 49/89/31
f 63/297/31 64/295/31 49/89/31
f 49/89/31 54/294/31 53/298/31
f 49/89/31 53/298/31 79/299/31
f 62/124/31 63/297/31 49/89/31
f 49/89/31 79/299/31 78/123/31
f 153/300/31 67/301/31 68/302/31
f 153/300/31 68/302/31 69/303/31
f 152/304/31 153/300/31 69/303/31
f 152/304/31 69/303/31 70/305/31
f 149/306/31 152/304/31 70/305/31
f 149/306/31 70/305/31 83/307/31
f 150/308/31 149/306/31 83/307/31
f 150/308/31 83/307/31 84/309/31
f 165/310/31 150/308/31 84/309/31
f 165/310/31 84/309/31 85/311/31
f 164/312/31 165/310/31 85/311/31
f 86/125/31 346/313/31 408/314/31
f 164/312/31 85/311/31 86/125/31
f 166/127/31 164/312/31 86/125/31
f 86/125/31 408/314/31 167/126/31
f 190/315/31 436/276/31 454/56/31
f 196/97/31 154/316/31 155/317/31
f 196/97/31 155/317/31 156/318/31
f 190/315/31 454/56/31 196/97/31
f 189/319/31 190/315/31 196/97/31
f 196/97/31 156/318/31 184/320/31
f 196/97/31 184/320/31 187/128/31
f 188/129/31 189/319/31 196/97/31
f 177/88/32 41/86/32 49/89/32
f 49/89/32 66/296/32 65/130/32
f 65/130/32 67/321/32 153/322/32
f 151/131/84 154/316/84 196/97/84
f 65/130/32 153/322/32 151/131/32
f 177/88/32 49/89/32 65/130/32
f 151/131/32 196/97/32 177/88/32
f 176/100/3 177/81/3 197/82/3
f 51/78/4 49/76/4 41/102/4
f 50/104/33 52/323/33 55/132/33
f 82/133/33 157/324/33 148/134/33
f 197/108/33 198/110/33 195/135/33
f 138/75/3 176/100/3 183/101/3
f 40/111/34 176/87/34 138/75/34
f 50/103/4 41/102/4 40/112/4
f 147/137/35 157/324/35 82/133/35
f 147/137/35 82/133/35 61/138/35
f 197/108/35 185/136/35 180/325/35
f 183/72/35 197/108/35 180/325/35
f 50/104/35 46/115/35 183/72/35
f 48/326/35 52/323/35 50/104/35
f 48/326/35 50/104/35 183/72/35
f 183/72/35 180/325/35 147/137/35
f 61/138/35 48/326/35 183/72/35
f 238/78/4 236/103/4 234/102/4
f 230/79/4 228/71/4 216/74/4
f 234/86/36 233/111/36 288/87/36
f 237/89/37 234/86/37 289/88/37
f 524/57/38 237/89/38 291/97/38
f 233/111/39 216/74/39 273/75/39
f 273/75/3 282/73/3 284/101/3
f 238/105/40 523/63/40 567/38/40
f 236/103/4 230/79/4 233/112/4
f 230/115/41 236/104/41 290/108/41
f 228/71/42 230/115/42 284/72/42
f 288/100/3 284/101/3 290/82/3
f 236/104/43 238/105/43 292/110/43
f 289/81/3 290/82/3 292/80/3
f 291/83/3 292/80/3 567/84/3
f 216/74/44 228/71/44 282/73/44
f 523/77/4 238/78/4 237/76/4
f 101/11/4 122/11/4 132/11/4
f 132/11/4 122/11/4 124/11/4
f 128/11/4 249/11/4 254/11/4
f 249/11/4 250/11/4 256/11/4
f 256/11/4 250/11/4 266/11/4
f 250/11/5 249/11/5 252/11/5
f 252/11/5 267/11/5 266/11/5
f 122/11/5 101/11/5 103/11/5
f 103/11/5 126/11/5 124/11/5
f 109/11/3 135/11/3 126/11/3
f 135/11/3 139/11/3 130/11/3
f 139/11/3 257/11/3 252/11/3
f 257/11/3 272/11/3 267/11/3
f 459/142/45 447/327/45 449/328/45
f 459/142/45 449/328/45 450/140/45
f 453/141/45 465/144/45 459/142/45
f 435/143/5 434/146/5 459/142/5
f 407/329/46 406/330/46 404/145/46
f 434/146/46 435/143/46 429/147/46
f 429/147/46 407/329/46 404/145/46
f 404/145/47 406/331/47 405/332/47
f 404/145/47 405/332/47 148/333/47
f 157/149/47 147/334/47 146/148/47
f 404/145/47 148/333/47 157/149/47
f 431/335/2 433/336/2 459/155/2
f 447/166/2 452/154/2 445/337/2
f 447/166/2 445/337/2 446/338/2
f 431/335/2 459/155/2 434/339/2
f 430/340/2 431/335/2 434/339/2
f 447/166/2 446/338/2 444/341/2
f 447/166/2 444/341/2 443/342/2
f 428/343/2 430/340/2 434/339/2
f 427/344/2 428/343/2 434/339/2
f 447/166/2 443/342/2 442/345/2
f 447/166/2 442/345/2 194/346/2
f 427/344/2 434/339/2 404/347/2
f 418/348/2 427/344/2 404/347/2
f 174/349/2 447/166/2 194/346/2
f 174/349/2 194/346/2 193/350/2
f 417/351/2 418/348/2 404/347/2
f 416/352/2 417/351/2 404/347/2
f 174/349/2 193/350/2 192/353/2
f 174/349/2 192/353/2 191/354/2
f 415/355/2 416/352/2 404/347/2
f 414/356/2 415/355/2 404/347/2
f 174/349/2 191/354/2 186/357/2
f 174/349/2 186/357/2 163/358/2
f 414/356/2 404/347/2 146/152/2
f 171/359/2 414/356/2 146/152/2
f 146/152/2 174/349/2 163/358/2
f 146/152/2 163/358/2 162/360/2
f 170/361/2 171/359/2 146/152/2
f 168/362/2 170/361/2 146/152/2
f 146/152/2 162/360/2 160/363/2
f 146/152/2 160/363/2 161/364/2
f 169/365/2 168/362/2 146/152/2
f 159/151/2 169/365/2 146/152/2
f 146/152/2 161/364/2 158/150/2
f 459/155/2 433/336/2 432/153/2
f 452/154/2 447/166/2 459/155/2
f 146/148/1 147/334/1 180/156/1
f 174/157/48 180/366/48 185/367/48
f 174/157/48 185/367/48 195/368/48
f 448/159/48 449/369/48 447/158/48
f 174/157/48 195/368/48 448/159/48
f 363/142/45 357/327/45 359/328/45
f 363/142/45 359/328/45 360/140/45
f 361/160/45 365/144/45 363/142/45
f 324/143/5 319/146/5 363/142/5
f 314/370/46 309/330/46 308/145/46
f 319/146/46 324/143/46 315/161/46
f 315/161/46 314/370/46 308/145/46
f 52/371/47 48/334/47 43/148/47
f 308/145/47 309/331/47 310/372/47
f 55/162/47 52/371/47 43/148/47
f 308/145/47 310/372/47 55/162/47
f 344/373/2 345/167/2 363/155/2
f 357/166/2 355/374/2 354/375/2
f 357/166/2 354/375/2 353/376/2
f 344/373/2 363/155/2 319/339/2
f 343/377/2 344/373/2 319/339/2
f 357/166/2 353/376/2 352/378/2
f 357/166/2 352/378/2 90/379/2
f 342/335/2 343/377/2 319/339/2
f 341/380/2 342/335/2 319/339/2
f 59/349/2 357/166/2 90/379/2
f 59/349/2 90/379/2 89/381/2
f 340/382/2 341/380/2 319/339/2
f 339/383/2 340/382/2 319/339/2
f 59/349/2 89/381/2 88/384/2
f 59/349/2 88/384/2 87/385/2
f 339/383/2 319/339/2 308/347/2
f 329/386/2 339/383/2 308/347/2
f 59/349/2 87/385/2 77/387/2
f 59/349/2 77/387/2 76/388/2
f 328/389/2 329/386/2 308/347/2
f 313/390/2 328/389/2 308/347/2
f 43/152/2 59/349/2 76/388/2
f 43/152/2 76/388/2 75/391/2
f 312/392/2 313/390/2 308/347/2
f 311/393/2 312/392/2 308/347/2
f 43/152/2 75/391/2 74/394/2
f 43/152/2 74/394/2 73/395/2
f 311/393/2 308/347/2 43/152/2
f 57/396/2 311/393/2 43/152/2
f 43/152/2 73/395/2 72/397/2
f 43/152/2 72/397/2 71/398/2
f 56/399/2 57/396/2 43/152/2
f 81/164/2 56/399/2 43/152/2
f 43/152/2 71/398/2 80/163/2
f 356/165/2 355/374/2 357/166/2
f 357/166/2 363/155/2 345/167/2
f 43/148/1 48/334/1 61/156/1
f 59/157/48 61/366/48 82/400/48
f 59/157/48 82/400/48 91/401/48
f 358/168/48 359/369/48 357/158/48
f 59/157/48 91/401/48 358/168/48
f 438/169/49 437/402/49 442/170/49
f 439/172/50 438/403/50 443/173/50
f 441/175/51 439/172/51 444/176/51
f 440/178/52 441/175/52 446/179/52
f 451/181/53 440/404/53 445/182/53
f 425/184/54 451/181/54 452/185/54
f 424/188/55 425/184/55 432/186/55
f 432/186/55 433/189/55 426/187/55
f 433/189/56 431/405/56 423/190/56
f 423/191/57 431/405/57 430/192/57
f 421/195/58 422/193/58 430/192/58
f 430/192/58 428/406/58 420/194/58
f 420/194/59 428/406/59 427/196/59
f 418/198/60 413/407/60 419/197/60
f 413/199/61 418/198/61 417/200/61
f 416/202/62 411/204/62 412/201/62
f 415/203/63 410/206/63 411/204/63
f 414/205/64 409/408/64 410/206/64
f 414/205/65 171/409/65 167/207/65
f 167/207/85 408/410/85 409/208/85
f 166/209/66 167/207/66 171/210/66
f 164/212/67 166/209/67 170/211/67
f 165/214/68 164/411/68 168/213/68
f 150/216/69 165/214/69 169/215/69
f 149/218/70 150/412/70 159/217/70
f 152/220/71 149/218/71 158/219/71
f 153/223/72 152/220/72 161/221/72
f 161/221/72 160/224/72 151/222/72
f 154/226/73 151/413/73 160/224/73
f 160/224/73 162/414/73 155/225/73
f 155/225/74 162/414/74 163/227/74
f 156/228/75 163/227/75 186/229/75
f 184/231/76 186/415/76 191/232/76
f 192/234/77 188/416/77 187/233/77
f 193/236/78 189/239/78 188/237/78
f 194/238/79 190/417/79 189/239/79
f 436/243/80 190/417/80 194/241/80
f 194/241/80 442/418/80 437/242/80
f 348/169/49 347/402/49 352/170/49
f 349/172/50 348/403/50 353/173/50
f 350/175/51 349/172/51 354/176/51
f 351/178/52 350/175/52 355/179/52
f 338/181/53 351/404/53 356/182/53
f 337/184/54 338/181/54 345/185/54
f 334/244/55 337/184/55 344/186/55
f 344/186/55 343/189/55 336/187/55
f 343/189/56 342/405/56 335/190/56
f 335/191/57 342/405/57 341/192/57
f 332/245/58 333/193/58 341/192/58
f 341/192/58 340/406/58 331/194/58
f 331/194/59 340/406/59 339/196/59
f 329/198/60 327/407/60 330/197/60
f 328/200/61 326/201/61 327/199/61
f 313/202/62 307/204/62 326/201/62
f 312/203/63 306/206/63 307/204/63
f 311/205/64 304/408/64 306/206/64
f 311/205/65 57/210/65 54/207/65
f 54/207/85 305/410/85 304/208/85
f 53/209/66 54/207/66 57/210/66
f 79/212/67 53/209/67 56/211/67
f 78/214/68 79/411/68 81/213/68
f 62/216/69 78/214/69 80/215/69
f 63/218/70 62/412/70 71/217/70
f 64/220/71 63/218/71 72/219/71
f 66/246/72 64/220/72 73/221/72
f 73/221/72 74/224/72 65/222/72
f 67/247/73 65/413/73 74/224/73
f 74/224/73 75/414/73 68/225/73
f 68/225/74 75/414/74 76/227/74
f 69/228/75 76/227/75 77/229/75
f 70/231/76 77/415/76 87/232/76
f 88/234/77 84/416/77 83/233/77
f 89/236/78 85/239/78 84/237/78
f 90/238/79 86/417/79 85/239/79
f 346/248/80 86/417/80 90/241/80
f 90/241/80 352/418/80 347/242/80
